M48
;DRILL file {KiCad (2016-03-18 BZR 6629, Git 60d93d0)-product} date Tue 22 Mar 2016 11:04:16 AM EDT
;FORMAT={2:4/ absolute / inch / suppress leading zeros}
FMAT,2
INCH,TZ
T1C0.016
T2C0.020
T3C0.022
T4C0.039
%
G90
G05
M72
T1
X787Y-36220
X984Y-36614
X1181Y-36319
X2264Y-36319
X2264Y-36713
X2657Y-36319
X2657Y-36713
X2756Y-37087
X2992Y-36220
X3051Y-36713
X3228Y-37165
X3445Y-36713
X4134Y-13583
X4331Y-23524
X5512Y-4528
X5512Y-13976
X6201Y-23720
X6299Y-35039
X6496Y-14961
X7283Y-5118
X7677Y-16142
X7874Y-34055
X8071Y-32087
X8366Y-37008
X8563Y-9055
X8563Y-9843
X8858Y-5118
X8957Y-23819
X9350Y-35236
X9646Y-18110
X9646Y-32283
X9941Y-30217
X10039Y-13189
X10531Y-37992
X10630Y-36122
X11024Y-14173
X11220Y-23425
X11417Y-10827
X11417Y-12795
X11516Y-30413
X11614Y-28543
X11811Y-10827
X11811Y-12795
X12008Y-19094
X12008Y-35039
X12008Y-35433
X12008Y-35827
X12205Y-10827
X12205Y-12795
X12402Y-14567
X12402Y-35827
X12593Y-10832
X12598Y-12795
X12795Y-35827
X12992Y-10827
X12992Y-12795
X12992Y-30118
X12992Y-32087
X13386Y-30118
X13386Y-32087
X13583Y-35827
X13681Y-28937
X13701Y-37323
X13780Y-30118
X13780Y-32087
X14016Y-37008
X14094Y-37323
X14173Y-30118
X14173Y-32087
X14173Y-36693
X14272Y-28051
X14331Y-35827
X14469Y-19783
X14567Y-30118
X14567Y-32087
X14665Y-22835
X14665Y-23917
X14724Y-35827
X14961Y-16929
X14961Y-17323
X14961Y-22244
X15118Y-35354
X15118Y-35827
X15512Y-35827
X15551Y-5118
X15551Y-24803
X15591Y-26535
X15723Y-19783
X15945Y-22736
X16142Y-28937
X16437Y-15846
X16634Y-23425
X16732Y-6299
X16732Y-16043
X16831Y-28051
X17126Y-24705
X17224Y-26772
X17224Y-27264
X17323Y-19587
X17323Y-21555
X17520Y-17717
X17520Y-19193
X17553Y-24250
X17618Y-26950
X17913Y-7480
X17947Y-24250
X18012Y-26950
X18406Y-26772
X18406Y-27264
X18504Y-8661
X18504Y-9843
X18504Y-11220
X18504Y-24311
X18504Y-24705
X18504Y-21949
X18602Y-19094
X18799Y-14173
X18799Y-17224
X18898Y-12106
X19094Y-13091
X19488Y-18209
X19685Y-12500
X19882Y-9941
X19882Y-13780
X20276Y-17224
X20394Y-4646
X20571Y-21161
X20571Y-22047
X20827Y-5079
X20866Y-11417
X20866Y-12795
X20866Y-14862
X20866Y-21457
X20866Y-24803
X20866Y-25984
X20866Y-26378
X20866Y-26772
X20965Y-6791
X21161Y-21752
X21457Y-6693
X21949Y-21752
X22047Y-17913
X22047Y-19882
X22057Y-6129
X22146Y-13681
X22146Y-24114
X22441Y-9055
X22441Y-10039
X22441Y-11220
X22539Y-16142
X22539Y-23228
X23425Y-16535
X23425Y-22835
X23622Y-8071
X23622Y-23327
X23917Y-35335
X23937Y-2283
X24311Y-7382
X24409Y-17028
X24902Y-19783
X25000Y-21555
X25295Y-4724
X25414Y-9764
X25688Y-10546
X25886Y-3642
X25886Y-10138
X26181Y-12106
X26250Y-10600
X26280Y-31299
X26616Y-10745
X27067Y-31299
X27756Y-5906
X27756Y-6240
X27756Y-7037
X27854Y-35335
X27953Y-15748
X27953Y-28740
X28051Y-7283
X28642Y-8661
X28938Y-16537
X29134Y-8661
X29232Y-9449
X29332Y-16143
X29567Y-6161
X29724Y-13976
X29724Y-15748
X29884Y-5892
X30020Y-10728
X30020Y-15453
X30038Y-17637
X30118Y-6496
X30217Y-6102
X30217Y-14469
X30315Y-15157
X30315Y-17126
X30512Y-28740
X30610Y-7087
X30610Y-16634
X30709Y-18701
X30709Y-20669
X30796Y-14457
X31004Y-7087
X31004Y-12697
X31102Y-18701
X31102Y-20669
X31201Y-3937
X31496Y-18701
X31496Y-20669
X31551Y-16393
X31693Y-35335
X31791Y-17224
X31795Y-16047
X31890Y-18701
X31890Y-20669
X32090Y-15752
X32283Y-18701
X32283Y-20669
X33268Y-28740
X33661Y-12205
X33661Y-14665
X33858Y-787
X33858Y-2461
X34055Y-6791
X34055Y-31299
X34154Y-1083
X34154Y-2165
X34449Y-787
X34449Y-2461
X34547Y-10236
X34744Y-31299
X35728Y-35335
X35827Y-28740
T4
X1500Y-3500
X1500Y-4500
X1500Y-5500
X1500Y-6500
X1500Y-7500
X1500Y-8500
X1500Y-9500
X1500Y-10500
X1500Y-11500
X1500Y-12500
X1500Y-13500
X1500Y-14500
X1500Y-15500
X1500Y-16500
X1500Y-17500
X1500Y-18500
X1500Y-19500
X1500Y-20500
X1500Y-21500
X1500Y-22500
X1500Y-23500
X1500Y-24500
X1500Y-25500
X1500Y-26500
X1500Y-27500
X1500Y-28500
X1500Y-29500
X1500Y-30500
X1500Y-31500
X1500Y-32500
X2500Y-3500
X2500Y-4500
X2500Y-5500
X2500Y-6500
X2500Y-7500
X2500Y-8500
X2500Y-9500
X2500Y-10500
X2500Y-11500
X2500Y-12500
X2500Y-13500
X2500Y-14500
X2500Y-15500
X2500Y-16500
X2500Y-17500
X2500Y-18500
X2500Y-19500
X2500Y-20500
X2500Y-21500
X2500Y-22500
X2500Y-23500
X2500Y-24500
X2500Y-25500
X2500Y-26500
X2500Y-27500
X2500Y-28500
X2500Y-29500
X2500Y-30500
X2500Y-31500
X2500Y-32500
X5500Y-1500
X5500Y-2500
X6500Y-1500
X6500Y-2500
X7500Y-1500
X7500Y-2500
X8000Y-6587
X8000Y-7587
X8500Y-1500
X8500Y-2500
X9500Y-1500
X9500Y-2500
X10000Y-6587
X10000Y-7587
X10500Y-1500
X10500Y-2500
X11500Y-1500
X11500Y-2500
X12500Y-1500
X12500Y-2500
X13500Y-1500
X13500Y-2500
X14500Y-1500
X14500Y-2500
X18685Y-2543
X18685Y-3543
X19185Y-34933
X19185Y-35933
X19685Y-2543
X19685Y-3543
X19685Y-29028
X19685Y-30028
X20185Y-34933
X20185Y-35933
X20685Y-2543
X20685Y-3543
X27846Y-1181
X28846Y-1181
T2
X719Y-34449G85X463Y-34449
G05
X719Y-37205G85X463Y-37205
G05
X33268Y-719G85X33268Y-463
G05
X36024Y-719G85X36024Y-463
G05
T3
X1654Y-34783G85X1654Y-34902
G05
X1654Y-36752G85X1654Y-36870
G05
X33720Y-1654G85X33602Y-1654
G05
X35689Y-1654G85X35571Y-1654
G05
T0
M30
