G04 #@! TF.FileFunction,Copper,L2,Bot,Signal*
%FSLAX46Y46*%
G04 Gerber Fmt 4.6, Leading zero omitted, Abs format (unit mm)*
G04 Created by KiCad (PCBNEW (2016-03-18 BZR 6629, Git 60d93d0)-product) date Tue 22 Mar 2016 11:04:14 AM EDT*
%MOMM*%
G01*
G04 APERTURE LIST*
%ADD10C,0.100000*%
%ADD11C,0.300000*%
%ADD12O,1.750000X1.750000*%
%ADD13O,1.450000X1.250000*%
%ADD14O,1.250000X1.450000*%
%ADD15O,2.286000X1.524000*%
%ADD16O,1.524000X2.286000*%
%ADD17C,1.524000*%
%ADD18R,1.524000X2.286000*%
%ADD19C,0.800000*%
%ADD20C,0.250000*%
%ADD21C,0.200000*%
%ADD22C,1.000000*%
G04 APERTURE END LIST*
D10*
D11*
X25657143Y-97242857D02*
X25657143Y-98271429D01*
X25714286Y-98385714D01*
X25828571Y-98442857D01*
X25885714Y-98442857D01*
X25657143Y-96842857D02*
X25714286Y-96900000D01*
X25657143Y-96957143D01*
X25600000Y-96900000D01*
X25657143Y-96842857D01*
X25657143Y-96957143D01*
X24571428Y-97242857D02*
X24571428Y-98042857D01*
X25085714Y-97242857D02*
X25085714Y-97871429D01*
X25028571Y-97985714D01*
X24914285Y-98042857D01*
X24742857Y-98042857D01*
X24628571Y-97985714D01*
X24571428Y-97928571D01*
X24057143Y-97985714D02*
X23942857Y-98042857D01*
X23714285Y-98042857D01*
X23600000Y-97985714D01*
X23542857Y-97871429D01*
X23542857Y-97814286D01*
X23600000Y-97700000D01*
X23714285Y-97642857D01*
X23885714Y-97642857D01*
X24000000Y-97585714D01*
X24057143Y-97471429D01*
X24057143Y-97414286D01*
X24000000Y-97300000D01*
X23885714Y-97242857D01*
X23714285Y-97242857D01*
X23600000Y-97300000D01*
X23199999Y-97242857D02*
X22742856Y-97242857D01*
X23028571Y-96842857D02*
X23028571Y-97871429D01*
X22971428Y-97985714D01*
X22857142Y-98042857D01*
X22742856Y-98042857D01*
X21428571Y-97242857D02*
X21428571Y-98442857D01*
X21428571Y-97300000D02*
X21314285Y-97242857D01*
X21085714Y-97242857D01*
X20971428Y-97300000D01*
X20914285Y-97357143D01*
X20857142Y-97471429D01*
X20857142Y-97814286D01*
X20914285Y-97928571D01*
X20971428Y-97985714D01*
X21085714Y-98042857D01*
X21314285Y-98042857D01*
X21428571Y-97985714D01*
X20342857Y-98042857D02*
X20342857Y-97242857D01*
X20342857Y-97471429D02*
X20285714Y-97357143D01*
X20228571Y-97300000D01*
X20114285Y-97242857D01*
X20000000Y-97242857D01*
X19142857Y-97985714D02*
X19257143Y-98042857D01*
X19485714Y-98042857D01*
X19600000Y-97985714D01*
X19657143Y-97871429D01*
X19657143Y-97414286D01*
X19600000Y-97300000D01*
X19485714Y-97242857D01*
X19257143Y-97242857D01*
X19142857Y-97300000D01*
X19085714Y-97414286D01*
X19085714Y-97528571D01*
X19657143Y-97642857D01*
X18742857Y-97242857D02*
X18285714Y-97242857D01*
X18571429Y-96842857D02*
X18571429Y-97871429D01*
X18514286Y-97985714D01*
X18400000Y-98042857D01*
X18285714Y-98042857D01*
X17428572Y-97985714D02*
X17542858Y-98042857D01*
X17771429Y-98042857D01*
X17885715Y-97985714D01*
X17942858Y-97871429D01*
X17942858Y-97414286D01*
X17885715Y-97300000D01*
X17771429Y-97242857D01*
X17542858Y-97242857D01*
X17428572Y-97300000D01*
X17371429Y-97414286D01*
X17371429Y-97528571D01*
X17942858Y-97642857D01*
X16857144Y-97242857D02*
X16857144Y-98042857D01*
X16857144Y-97357143D02*
X16800001Y-97300000D01*
X16685715Y-97242857D01*
X16514287Y-97242857D01*
X16400001Y-97300000D01*
X16342858Y-97414286D01*
X16342858Y-98042857D01*
X15257144Y-98042857D02*
X15257144Y-96842857D01*
X15257144Y-97985714D02*
X15371430Y-98042857D01*
X15600001Y-98042857D01*
X15714287Y-97985714D01*
X15771430Y-97928571D01*
X15828573Y-97814286D01*
X15828573Y-97471429D01*
X15771430Y-97357143D01*
X15714287Y-97300000D01*
X15600001Y-97242857D01*
X15371430Y-97242857D01*
X15257144Y-97300000D01*
X13771430Y-98042857D02*
X13771430Y-97242857D01*
X13771430Y-96842857D02*
X13828573Y-96900000D01*
X13771430Y-96957143D01*
X13714287Y-96900000D01*
X13771430Y-96842857D01*
X13771430Y-96957143D01*
X13371429Y-97242857D02*
X12914286Y-97242857D01*
X13200001Y-96842857D02*
X13200001Y-97871429D01*
X13142858Y-97985714D01*
X13028572Y-98042857D01*
X12914286Y-98042857D01*
X12457144Y-96842857D02*
X12571430Y-97071429D01*
X12000001Y-97985714D02*
X11885715Y-98042857D01*
X11657143Y-98042857D01*
X11542858Y-97985714D01*
X11485715Y-97871429D01*
X11485715Y-97814286D01*
X11542858Y-97700000D01*
X11657143Y-97642857D01*
X11828572Y-97642857D01*
X11942858Y-97585714D01*
X12000001Y-97471429D01*
X12000001Y-97414286D01*
X11942858Y-97300000D01*
X11828572Y-97242857D01*
X11657143Y-97242857D01*
X11542858Y-97300000D01*
X10057143Y-96842857D02*
X10057143Y-97814286D01*
X10000000Y-97928571D01*
X9942857Y-97985714D01*
X9828571Y-98042857D01*
X9600000Y-98042857D01*
X9485714Y-97985714D01*
X9428571Y-97928571D01*
X9371428Y-97814286D01*
X9371428Y-96842857D01*
X8857143Y-97985714D02*
X8685714Y-98042857D01*
X8400000Y-98042857D01*
X8285714Y-97985714D01*
X8228571Y-97928571D01*
X8171428Y-97814286D01*
X8171428Y-97700000D01*
X8228571Y-97585714D01*
X8285714Y-97528571D01*
X8400000Y-97471429D01*
X8628571Y-97414286D01*
X8742857Y-97357143D01*
X8800000Y-97300000D01*
X8857143Y-97185714D01*
X8857143Y-97071429D01*
X8800000Y-96957143D01*
X8742857Y-96900000D01*
X8628571Y-96842857D01*
X8342857Y-96842857D01*
X8171428Y-96900000D01*
X7257143Y-97414286D02*
X7085714Y-97471429D01*
X7028571Y-97528571D01*
X6971428Y-97642857D01*
X6971428Y-97814286D01*
X7028571Y-97928571D01*
X7085714Y-97985714D01*
X7200000Y-98042857D01*
X7657143Y-98042857D01*
X7657143Y-96842857D01*
X7257143Y-96842857D01*
X7142857Y-96900000D01*
X7085714Y-96957143D01*
X7028571Y-97071429D01*
X7028571Y-97185714D01*
X7085714Y-97300000D01*
X7142857Y-97357143D01*
X7257143Y-97414286D01*
X7657143Y-97414286D01*
X6457143Y-97585714D02*
X5542857Y-97585714D01*
X4285714Y-97928571D02*
X4342857Y-97985714D01*
X4514286Y-98042857D01*
X4628572Y-98042857D01*
X4800000Y-97985714D01*
X4914286Y-97871429D01*
X4971429Y-97757143D01*
X5028572Y-97528571D01*
X5028572Y-97357143D01*
X4971429Y-97128571D01*
X4914286Y-97014286D01*
X4800000Y-96900000D01*
X4628572Y-96842857D01*
X4514286Y-96842857D01*
X4342857Y-96900000D01*
X4285714Y-96957143D01*
D12*
X1500000Y-87500000D03*
X1500000Y-94500000D03*
D13*
X4200000Y-88500000D03*
X4200000Y-93500000D03*
D12*
X91500000Y-1500000D03*
X84500000Y-1500000D03*
D14*
X90500000Y-4200000D03*
X85500000Y-4200000D03*
D15*
X50000000Y-73730000D03*
X50000000Y-76270000D03*
D16*
X70730000Y-3000000D03*
X73270000Y-3000000D03*
D15*
X48476000Y-88730000D03*
X48476000Y-91270000D03*
X51524000Y-88730000D03*
X51524000Y-91270000D03*
D17*
X3810000Y-59690000D03*
X3810000Y-62230000D03*
X3810000Y-64770000D03*
X3810000Y-67310000D03*
X3810000Y-69850000D03*
X3810000Y-72390000D03*
X3810000Y-74930000D03*
X3810000Y-77470000D03*
X3810000Y-80010000D03*
X3810000Y-82550000D03*
X6350000Y-67310000D03*
X6350000Y-59690000D03*
X6350000Y-62230000D03*
X6350000Y-64770000D03*
X6350000Y-69850000D03*
X6350000Y-80010000D03*
X6350000Y-72390000D03*
X6350000Y-74930000D03*
X6350000Y-77470000D03*
X6350000Y-82550000D03*
X3810000Y-34290000D03*
X3810000Y-36830000D03*
X3810000Y-39370000D03*
X3810000Y-41910000D03*
X3810000Y-44450000D03*
X3810000Y-46990000D03*
X3810000Y-49530000D03*
X3810000Y-52070000D03*
X3810000Y-54610000D03*
X3810000Y-57150000D03*
X6350000Y-41910000D03*
X6350000Y-34290000D03*
X6350000Y-36830000D03*
X6350000Y-39370000D03*
X6350000Y-44450000D03*
X6350000Y-54610000D03*
X6350000Y-46990000D03*
X6350000Y-49530000D03*
X6350000Y-52070000D03*
X6350000Y-57150000D03*
X3810000Y-8890000D03*
X3810000Y-11430000D03*
X3810000Y-13970000D03*
X3810000Y-16510000D03*
X3810000Y-19050000D03*
X3810000Y-21590000D03*
X3810000Y-24130000D03*
X3810000Y-26670000D03*
X3810000Y-29210000D03*
X3810000Y-31750000D03*
X6350000Y-16510000D03*
X6350000Y-8890000D03*
X6350000Y-11430000D03*
X6350000Y-13970000D03*
X6350000Y-19050000D03*
X6350000Y-29210000D03*
X6350000Y-21590000D03*
X6350000Y-24130000D03*
X6350000Y-26670000D03*
X6350000Y-31750000D03*
X36830000Y-3810000D03*
X34290000Y-3810000D03*
X31750000Y-3810000D03*
X29210000Y-3810000D03*
X26670000Y-3810000D03*
X24130000Y-3810000D03*
X21590000Y-3810000D03*
X19050000Y-3810000D03*
X16510000Y-3810000D03*
X13970000Y-3810000D03*
X29210000Y-6350000D03*
X36830000Y-6350000D03*
X34290000Y-6350000D03*
X31750000Y-6350000D03*
X26670000Y-6350000D03*
X16510000Y-6350000D03*
X24130000Y-6350000D03*
X21590000Y-6350000D03*
X19050000Y-6350000D03*
X13970000Y-6350000D03*
D15*
X25400000Y-19270000D03*
X25400000Y-16730000D03*
X20320000Y-19270000D03*
X20320000Y-16730000D03*
D18*
X47460000Y-9254000D03*
D16*
X50000000Y-9254000D03*
X52540000Y-9254000D03*
X47460000Y-6206000D03*
X50000000Y-6206000D03*
X52540000Y-6206000D03*
D19*
X37000000Y-81500000D03*
X36000000Y-81500000D03*
X33000000Y-81500000D03*
X34000000Y-81500000D03*
X35000000Y-81500000D03*
X37000000Y-76500000D03*
X36000000Y-76500000D03*
X33000000Y-76500000D03*
X34000000Y-76500000D03*
X35000000Y-76500000D03*
X43500000Y-62749996D03*
X35800000Y-94800000D03*
X36000000Y-93200000D03*
X34800000Y-94800000D03*
X35600000Y-94000000D03*
X38400000Y-89800000D03*
X39400000Y-91000000D03*
X38400000Y-91000000D03*
X37400000Y-91000000D03*
X36400000Y-91000000D03*
X7000000Y-94200000D03*
X8200000Y-94400000D03*
X7600000Y-92000000D03*
X79250002Y-10000000D03*
X21250000Y-94000000D03*
X23750000Y-89500000D03*
X87500000Y-2000000D03*
X86000000Y-2000000D03*
X86750000Y-2750000D03*
X87500000Y-6250000D03*
X86000000Y-6250000D03*
X86750000Y-5500000D03*
X75100937Y-15649063D03*
X28500000Y-59500000D03*
X22750000Y-60500000D03*
X15750000Y-60250000D03*
X50500000Y-25250000D03*
X71000000Y-40000000D03*
X82000000Y-52500000D03*
X81000000Y-52500000D03*
X78000000Y-52500000D03*
X79000000Y-52500000D03*
X80000000Y-52500000D03*
X82000000Y-47500000D03*
X81000000Y-47500000D03*
X78000000Y-47500000D03*
X79000000Y-47500000D03*
X80000000Y-47500000D03*
X53000000Y-29000000D03*
X2000000Y-92000000D03*
X2500000Y-93000000D03*
X3000000Y-92250000D03*
X8750000Y-93250000D03*
X7750000Y-93250000D03*
X6750000Y-93250000D03*
X5750000Y-93250000D03*
X6750000Y-92250000D03*
X5750000Y-92250000D03*
X50000000Y-31750000D03*
X48500000Y-33250000D03*
X47750000Y-36000000D03*
X53000000Y-37750000D03*
X42500000Y-40750000D03*
X41750000Y-40250000D03*
X57250000Y-41000000D03*
X60000000Y-59250000D03*
X40500000Y-57750000D03*
X42250000Y-59500000D03*
X36750000Y-50250000D03*
X63250000Y-50250000D03*
X63500000Y-54750000D03*
X60000000Y-20500000D03*
X66500000Y-30750000D03*
X88250000Y-79500012D03*
X86500000Y-79500000D03*
X66750000Y-79500000D03*
X68750000Y-79500000D03*
X30500000Y-48500000D03*
X24500000Y-46000000D03*
X19500000Y-41000000D03*
X16500000Y-38000000D03*
X14000000Y-35500000D03*
X10500000Y-34500000D03*
X57000000Y-28500000D03*
X53000000Y-32500000D03*
X50500000Y-35000000D03*
X30500000Y-89000000D03*
X30500000Y-90000000D03*
X30500000Y-91000000D03*
X31500000Y-91000000D03*
X32500000Y-91000000D03*
X34500000Y-91000000D03*
X38000000Y-56500000D03*
X71250000Y-18500000D03*
X74000000Y-22000000D03*
X72750000Y-21999996D03*
X70500000Y-15849979D03*
X65750000Y-9250000D03*
X53250000Y-17249994D03*
X71000000Y-73000000D03*
X48000000Y-30750000D03*
X86500000Y-17250000D03*
X87750000Y-26000000D03*
X85500000Y-31000000D03*
X85500000Y-37250000D03*
X70500000Y-17875010D03*
X74250000Y-24000000D03*
X76250000Y-27250000D03*
X78750000Y-32250000D03*
X57000000Y-23000008D03*
X56250000Y-34750000D03*
X64250000Y-12000000D03*
X61750000Y-18750000D03*
X70500000Y-15000000D03*
X14000000Y-11500000D03*
X18500000Y-13000000D03*
X22500000Y-13000000D03*
X33000000Y-32500000D03*
X32000000Y-32500000D03*
X29000000Y-32500000D03*
X30000000Y-32500000D03*
X31000000Y-32500000D03*
X33000000Y-27500000D03*
X31987347Y-27512653D03*
X29000000Y-27500000D03*
X30000000Y-27500000D03*
X31000000Y-27500000D03*
X11000000Y-59750000D03*
X75500000Y-35500000D03*
X62000000Y-43250000D03*
X57000000Y-25500000D03*
X39500000Y-13000000D03*
X42500000Y-16000000D03*
X45500000Y-19000000D03*
X47000000Y-22000000D03*
X47000000Y-25000000D03*
X47000000Y-28500000D03*
X53000000Y-63000000D03*
X47000000Y-62749996D03*
X47000000Y-61749993D03*
X38000000Y-44000000D03*
X44500000Y-45000000D03*
X59500000Y-42000000D03*
X59500000Y-58000000D03*
X51500000Y-43750000D03*
X56000000Y-45500000D03*
X56000000Y-50500000D03*
X31500000Y-37000000D03*
X28000000Y-36000000D03*
X25500000Y-33500000D03*
X21750000Y-25000000D03*
X21750000Y-23000000D03*
X60800000Y-5800000D03*
X90750000Y-89750000D03*
X80500000Y-89750000D03*
X70750000Y-89750000D03*
X60750000Y-89750000D03*
X91000000Y-73000000D03*
X84500000Y-73000000D03*
X77500000Y-73000000D03*
X47000002Y-55750002D03*
X44000000Y-54750000D03*
X44000000Y-49750000D03*
X52250000Y-56000000D03*
X47750000Y-43750000D03*
X44500000Y-48750000D03*
X47250000Y-48500000D03*
X49500000Y-46250000D03*
X55750000Y-55250000D03*
X16000000Y-89000000D03*
X20000000Y-86500000D03*
X43750000Y-69250000D03*
X43750000Y-68000000D03*
X20500000Y-81500000D03*
X25250000Y-76750000D03*
X29500000Y-72500000D03*
X36250000Y-71250000D03*
X42750000Y-71250000D03*
X24500000Y-82000000D03*
X46750000Y-69250000D03*
X46750000Y-68000000D03*
X29250000Y-77250000D03*
X34750000Y-73500000D03*
X41000000Y-73500000D03*
X54500000Y-16999990D03*
X56026041Y-15566761D03*
X56250000Y-61250000D03*
X53000000Y-68000000D03*
X53000000Y-67000000D03*
X53000000Y-66000000D03*
X39936814Y-50250000D03*
X38000000Y-43000000D03*
X53750000Y-55250000D03*
X52250000Y-53750000D03*
X53000000Y-54500000D03*
X57250000Y-59000000D03*
X75500000Y-40000000D03*
X77750000Y-42250000D03*
X74503771Y-41003771D03*
X77000000Y-43500000D03*
X73503771Y-42003771D03*
X76296883Y-44796883D03*
X80759020Y-40759020D03*
X76750000Y-36750000D03*
X77000000Y-38500000D03*
X80139244Y-41639244D03*
X65246929Y-26786896D03*
X76750000Y-15500000D03*
X81509020Y-40009020D03*
X78220922Y-36720922D03*
X65750000Y-25750000D03*
X76500000Y-16500000D03*
X77750000Y-18000000D03*
X66674154Y-26924154D03*
X78750000Y-18000000D03*
X67604367Y-27291179D03*
X75905345Y-14964685D03*
X64550486Y-24800486D03*
X76250000Y-39250000D03*
X80750000Y-43750000D03*
X51800000Y-11800000D03*
X52900000Y-12900000D03*
X45585000Y-61595000D03*
X45750000Y-68454030D03*
X44750000Y-68454030D03*
X44585000Y-61595000D03*
X37250000Y-58000000D03*
X37250000Y-60750000D03*
X26750000Y-96500000D03*
X27000000Y-91750000D03*
X39599996Y-67400000D03*
X39500000Y-63000000D03*
D20*
X49500000Y-36000000D02*
X47750000Y-36000000D01*
X50500000Y-35000000D02*
X49500000Y-36000000D01*
D21*
X61750000Y-18750000D02*
X60000000Y-20500000D01*
D20*
X18500000Y-13000000D02*
X15500000Y-13000000D01*
X15500000Y-13000000D02*
X14000000Y-11500000D01*
X22500000Y-13000000D02*
X18500000Y-13000000D01*
X31000000Y-19000000D02*
X25000000Y-13000000D01*
X25000000Y-13000000D02*
X22500000Y-13000000D01*
X31000000Y-27500000D02*
X31000000Y-19000000D01*
X47000000Y-61749993D02*
X47000000Y-62749996D01*
X43750000Y-68000000D02*
X43750000Y-69250000D01*
X43750000Y-64750000D02*
X43750000Y-68000000D01*
X44000000Y-64500000D02*
X43750000Y-64750000D01*
X44000000Y-62750000D02*
X44000000Y-64500000D01*
D21*
X21000000Y-82000000D02*
X20500000Y-81500000D01*
X24500000Y-82000000D02*
X21000000Y-82000000D01*
D20*
X46750000Y-68000000D02*
X46750000Y-69250000D01*
X46750000Y-65000000D02*
X46750000Y-68000000D01*
X46000000Y-64250000D02*
X46750000Y-65000000D01*
X46000000Y-62750000D02*
X46000000Y-64250000D01*
D21*
X54500010Y-16999990D02*
X54500000Y-16999990D01*
X55933239Y-15566761D02*
X54500010Y-16999990D01*
X56026041Y-15566761D02*
X55933239Y-15566761D01*
X37299999Y-44799999D02*
X39936814Y-47436814D01*
X39936814Y-47436814D02*
X39936814Y-50250000D01*
X38000000Y-43000000D02*
X37299999Y-43700001D01*
X37299999Y-43700001D02*
X37299999Y-44799999D01*
D22*
X53000000Y-65000000D02*
X54750000Y-63250000D01*
X53000000Y-68000000D02*
X53000000Y-65000000D01*
X54750000Y-63250000D02*
X54750000Y-56250000D01*
X54750000Y-56250000D02*
X53750000Y-55250000D01*
X53750000Y-55250000D02*
X53000000Y-54500000D01*
X53000000Y-54500000D02*
X52250000Y-53750000D01*
D20*
X56250000Y-61250000D02*
X56250000Y-60000000D01*
X56250000Y-60000000D02*
X57250000Y-59000000D01*
X77750000Y-42250000D02*
X75500000Y-40000000D01*
X77000000Y-43500000D02*
X74503771Y-41003771D01*
X76296883Y-44796883D02*
X73503771Y-42003771D01*
D21*
X80759020Y-40759020D02*
X76750000Y-36750000D01*
X80139244Y-41639244D02*
X77000000Y-38500000D01*
X76401699Y-17200001D02*
X76836001Y-17200001D01*
X76836001Y-17200001D02*
X77200001Y-16836001D01*
X77200001Y-16836001D02*
X77200001Y-15950001D01*
X77200001Y-15950001D02*
X76750000Y-15500000D01*
X74000000Y-19601700D02*
X76401699Y-17200001D01*
X70182348Y-20300020D02*
X73301681Y-20300020D01*
X73301681Y-20300020D02*
X74000000Y-19601700D01*
X66150010Y-24332358D02*
X70182348Y-20300020D01*
X66150010Y-25150010D02*
X66150010Y-24332358D01*
X66450001Y-25450001D02*
X66150010Y-25150010D01*
X65246929Y-26786896D02*
X65775410Y-26786896D01*
X65775410Y-26786896D02*
X66450001Y-26112305D01*
X66450001Y-26112305D02*
X66450001Y-25450001D01*
X81509020Y-40009020D02*
X78220922Y-36720922D01*
X73950001Y-19086001D02*
X73950001Y-19049999D01*
X73950001Y-19049999D02*
X76500000Y-16500000D01*
X70016660Y-19900010D02*
X73135992Y-19900010D01*
X73135992Y-19900010D02*
X73950001Y-19086001D01*
X65750000Y-24166670D02*
X70016660Y-19900010D01*
X65750000Y-25750000D02*
X65750000Y-24166670D01*
D20*
X76500000Y-16573002D02*
X76500000Y-16500000D01*
D21*
X74083700Y-20083698D02*
X76167398Y-18000000D01*
X76167398Y-18000000D02*
X77750000Y-18000000D01*
X70348036Y-20700030D02*
X73467370Y-20700030D01*
X73467370Y-20700030D02*
X74083700Y-20083698D01*
X66550020Y-24498046D02*
X70348036Y-20700030D01*
X66550020Y-24984321D02*
X66550020Y-24498046D01*
X66674154Y-26924154D02*
X66850011Y-26748297D01*
X66850011Y-26748297D02*
X66850011Y-25284312D01*
X66850011Y-25284312D02*
X66550020Y-24984321D01*
X78000000Y-18750000D02*
X78750000Y-18000000D01*
X75250000Y-19483100D02*
X75250000Y-19483096D01*
X73633061Y-21100039D02*
X75250000Y-19483100D01*
X70513724Y-21100040D02*
X73633061Y-21100039D01*
X67015700Y-24598064D02*
X70513724Y-21100040D01*
X75983096Y-18750000D02*
X78000000Y-18750000D01*
X67015700Y-24884302D02*
X67015700Y-24598064D01*
X67604367Y-25472969D02*
X67015700Y-24884302D01*
X75250000Y-19483096D02*
X75983096Y-18750000D01*
X67604367Y-27291179D02*
X67604367Y-25472969D01*
D20*
X78750000Y-18000000D02*
X78750000Y-18073002D01*
D21*
X64550486Y-24800486D02*
X69850972Y-19500000D01*
X69850972Y-19500000D02*
X72970304Y-19500000D01*
X72970304Y-19500000D02*
X72970304Y-19463998D01*
X72970304Y-19463998D02*
X75750000Y-16684302D01*
X75750000Y-16684302D02*
X75750000Y-16036002D01*
X75750000Y-16036002D02*
X75905345Y-15880657D01*
X75905345Y-15880657D02*
X75905345Y-14964685D01*
X80750000Y-43750000D02*
X76250000Y-39250000D01*
X52900000Y-12900000D02*
X51800000Y-11800000D01*
X45284999Y-61895001D02*
X45284999Y-64252157D01*
X45585000Y-61595000D02*
X45284999Y-61895001D01*
X45284999Y-64252157D02*
X45449999Y-64417157D01*
X45449999Y-64417157D02*
X45449999Y-68154029D01*
X45449999Y-68154029D02*
X45750000Y-68454030D01*
X45050001Y-68154029D02*
X44750000Y-68454030D01*
X45050001Y-64582843D02*
X45050001Y-68154029D01*
X44885001Y-64417843D02*
X45050001Y-64582843D01*
X44885001Y-61895001D02*
X44885001Y-64417843D01*
X44585000Y-61595000D02*
X44885001Y-61895001D01*
X37250000Y-60750000D02*
X37250000Y-58000000D01*
X27000000Y-91750000D02*
X27000000Y-96250000D01*
X27000000Y-96250000D02*
X26750000Y-96500000D01*
X39500000Y-63000000D02*
X39500000Y-67300004D01*
X39500000Y-67300004D02*
X39599996Y-67400000D01*
D20*
G36*
X83138801Y-850950D02*
X83078561Y-996438D01*
X83178561Y-1225000D01*
X84225000Y-1225000D01*
X84225000Y-1205000D01*
X84775000Y-1205000D01*
X84775000Y-1225000D01*
X85821439Y-1225000D01*
X85921439Y-996438D01*
X85861199Y-850950D01*
X85636527Y-550000D01*
X90363473Y-550000D01*
X90138801Y-850950D01*
X90078561Y-996438D01*
X90178561Y-1225000D01*
X91225000Y-1225000D01*
X91225000Y-1205000D01*
X91775000Y-1205000D01*
X91775000Y-1225000D01*
X92821439Y-1225000D01*
X92921439Y-996438D01*
X92861199Y-850950D01*
X92636527Y-550000D01*
X94945829Y-550000D01*
X96698818Y-898691D01*
X98139007Y-1860994D01*
X99101309Y-3301182D01*
X99450000Y-5054171D01*
X99450000Y-94945829D01*
X99101309Y-96698818D01*
X98139007Y-98139006D01*
X96698818Y-99101309D01*
X94945829Y-99450000D01*
X5054171Y-99450000D01*
X3301182Y-99101309D01*
X1860994Y-98139007D01*
X898691Y-96698818D01*
X766650Y-96035000D01*
X3582143Y-96035000D01*
X3582143Y-99085000D01*
X26417857Y-99085000D01*
X26417857Y-97309518D01*
X26575188Y-97374848D01*
X26923285Y-97375151D01*
X27245000Y-97242221D01*
X27491356Y-96996295D01*
X27624848Y-96674812D01*
X27625151Y-96326715D01*
X27575000Y-96205340D01*
X27575000Y-92412361D01*
X27741356Y-92246295D01*
X27874848Y-91924812D01*
X27875151Y-91576715D01*
X27742221Y-91255000D01*
X27496295Y-91008644D01*
X27174812Y-90875152D01*
X26826715Y-90874849D01*
X26505000Y-91007779D01*
X26258644Y-91253705D01*
X26125152Y-91575188D01*
X26124849Y-91923285D01*
X26257779Y-92245000D01*
X26425000Y-92412513D01*
X26425000Y-95687536D01*
X26255000Y-95757779D01*
X26008644Y-96003705D01*
X25995649Y-96035000D01*
X3582143Y-96035000D01*
X766650Y-96035000D01*
X711348Y-95756980D01*
X850950Y-95861199D01*
X996438Y-95921439D01*
X1225000Y-95821439D01*
X1225000Y-94775000D01*
X1775000Y-94775000D01*
X1775000Y-95821439D01*
X2003562Y-95921439D01*
X2149050Y-95861199D01*
X2620552Y-95509203D01*
X2921460Y-95003565D01*
X2824484Y-94775000D01*
X1775000Y-94775000D01*
X1225000Y-94775000D01*
X1205000Y-94775000D01*
X1205000Y-94225000D01*
X1225000Y-94225000D01*
X1225000Y-93178561D01*
X1775000Y-93178561D01*
X1775000Y-94225000D01*
X2824484Y-94225000D01*
X2921460Y-93996435D01*
X2873505Y-93915851D01*
X2912721Y-93915851D01*
X3017858Y-94131713D01*
X3341977Y-94497745D01*
X3781499Y-94711879D01*
X3975000Y-94588533D01*
X3975000Y-93725000D01*
X4425000Y-93725000D01*
X4425000Y-94588533D01*
X4618501Y-94711879D01*
X5058023Y-94497745D01*
X5382142Y-94131713D01*
X5487279Y-93915851D01*
X5376487Y-93725000D01*
X4425000Y-93725000D01*
X3975000Y-93725000D01*
X3023513Y-93725000D01*
X2912721Y-93915851D01*
X2873505Y-93915851D01*
X2620552Y-93490797D01*
X2149050Y-93138801D01*
X2017058Y-93084149D01*
X2912721Y-93084149D01*
X3023513Y-93275000D01*
X3975000Y-93275000D01*
X3975000Y-92411467D01*
X4425000Y-92411467D01*
X4425000Y-93275000D01*
X5376487Y-93275000D01*
X5487279Y-93084149D01*
X5382142Y-92868287D01*
X5058023Y-92502255D01*
X4618501Y-92288121D01*
X4425000Y-92411467D01*
X3975000Y-92411467D01*
X3781499Y-92288121D01*
X3341977Y-92502255D01*
X3017858Y-92868287D01*
X2912721Y-93084149D01*
X2017058Y-93084149D01*
X2003562Y-93078561D01*
X1775000Y-93178561D01*
X1225000Y-93178561D01*
X996438Y-93078561D01*
X850950Y-93138801D01*
X550000Y-93363473D01*
X550000Y-88636527D01*
X850950Y-88861199D01*
X996438Y-88921439D01*
X1225000Y-88821439D01*
X1225000Y-87775000D01*
X1775000Y-87775000D01*
X1775000Y-88821439D01*
X2003562Y-88921439D01*
X2017057Y-88915851D01*
X2912721Y-88915851D01*
X3017858Y-89131713D01*
X3341977Y-89497745D01*
X3781499Y-89711879D01*
X3975000Y-89588533D01*
X3975000Y-88725000D01*
X4425000Y-88725000D01*
X4425000Y-89588533D01*
X4618501Y-89711879D01*
X5058023Y-89497745D01*
X5382142Y-89131713D01*
X5487279Y-88915851D01*
X5379390Y-88730000D01*
X46826302Y-88730000D01*
X46920463Y-89203379D01*
X47188611Y-89604691D01*
X47589923Y-89872839D01*
X48063302Y-89967000D01*
X48888698Y-89967000D01*
X49362077Y-89872839D01*
X49763389Y-89604691D01*
X49914338Y-89378780D01*
X50017296Y-89555288D01*
X50418809Y-89923255D01*
X50629621Y-90000000D01*
X50418809Y-90076745D01*
X50017296Y-90444712D01*
X49914338Y-90621220D01*
X49763389Y-90395309D01*
X49362077Y-90127161D01*
X48888698Y-90033000D01*
X48063302Y-90033000D01*
X47589923Y-90127161D01*
X47188611Y-90395309D01*
X46920463Y-90796621D01*
X46826302Y-91270000D01*
X46920463Y-91743379D01*
X47188611Y-92144691D01*
X47589923Y-92412839D01*
X48063302Y-92507000D01*
X48888698Y-92507000D01*
X49362077Y-92412839D01*
X49763389Y-92144691D01*
X49914338Y-91918780D01*
X50017296Y-92095288D01*
X50418809Y-92463255D01*
X50930574Y-92649560D01*
X51149000Y-92507556D01*
X51149000Y-91645000D01*
X51899000Y-91645000D01*
X51899000Y-92507556D01*
X52117426Y-92649560D01*
X52629191Y-92463255D01*
X53030704Y-92095288D01*
X53173446Y-91850577D01*
X53083527Y-91645000D01*
X51899000Y-91645000D01*
X51149000Y-91645000D01*
X51129000Y-91645000D01*
X51129000Y-90895000D01*
X51149000Y-90895000D01*
X51149000Y-90032444D01*
X51099096Y-90000000D01*
X51149000Y-89967556D01*
X51149000Y-89105000D01*
X51899000Y-89105000D01*
X51899000Y-89967556D01*
X51948904Y-90000000D01*
X51899000Y-90032444D01*
X51899000Y-90895000D01*
X53083527Y-90895000D01*
X53173446Y-90689423D01*
X53030704Y-90444712D01*
X52629191Y-90076745D01*
X52418379Y-90000000D01*
X52629191Y-89923255D01*
X53030704Y-89555288D01*
X53173446Y-89310577D01*
X53083527Y-89105000D01*
X51899000Y-89105000D01*
X51149000Y-89105000D01*
X51129000Y-89105000D01*
X51129000Y-88355000D01*
X51149000Y-88355000D01*
X51149000Y-87492444D01*
X51899000Y-87492444D01*
X51899000Y-88355000D01*
X53083527Y-88355000D01*
X53173446Y-88149423D01*
X53030704Y-87904712D01*
X52629191Y-87536745D01*
X52117426Y-87350440D01*
X51899000Y-87492444D01*
X51149000Y-87492444D01*
X50930574Y-87350440D01*
X50418809Y-87536745D01*
X50017296Y-87904712D01*
X49914338Y-88081220D01*
X49763389Y-87855309D01*
X49362077Y-87587161D01*
X48888698Y-87493000D01*
X48063302Y-87493000D01*
X47589923Y-87587161D01*
X47188611Y-87855309D01*
X46920463Y-88256621D01*
X46826302Y-88730000D01*
X5379390Y-88730000D01*
X5376487Y-88725000D01*
X4425000Y-88725000D01*
X3975000Y-88725000D01*
X3023513Y-88725000D01*
X2912721Y-88915851D01*
X2017057Y-88915851D01*
X2149050Y-88861199D01*
X2620552Y-88509203D01*
X2873504Y-88084149D01*
X2912721Y-88084149D01*
X3023513Y-88275000D01*
X3975000Y-88275000D01*
X3975000Y-87411467D01*
X4425000Y-87411467D01*
X4425000Y-88275000D01*
X5376487Y-88275000D01*
X5487279Y-88084149D01*
X5382142Y-87868287D01*
X5058023Y-87502255D01*
X4618501Y-87288121D01*
X4425000Y-87411467D01*
X3975000Y-87411467D01*
X3781499Y-87288121D01*
X3341977Y-87502255D01*
X3017858Y-87868287D01*
X2912721Y-88084149D01*
X2873504Y-88084149D01*
X2921460Y-88003565D01*
X2824484Y-87775000D01*
X1775000Y-87775000D01*
X1225000Y-87775000D01*
X1205000Y-87775000D01*
X1205000Y-87225000D01*
X1225000Y-87225000D01*
X1225000Y-86178561D01*
X1775000Y-86178561D01*
X1775000Y-87225000D01*
X2824484Y-87225000D01*
X2921460Y-86996435D01*
X2620552Y-86490797D01*
X2149050Y-86138801D01*
X2003562Y-86078561D01*
X1775000Y-86178561D01*
X1225000Y-86178561D01*
X996438Y-86078561D01*
X850950Y-86138801D01*
X550000Y-86363473D01*
X550000Y-83588665D01*
X3089533Y-83588665D01*
X3166531Y-83818452D01*
X3700928Y-83968142D01*
X4251930Y-83901932D01*
X4453469Y-83818452D01*
X4530467Y-83588665D01*
X5629533Y-83588665D01*
X5706531Y-83818452D01*
X6240928Y-83968142D01*
X6791930Y-83901932D01*
X6993469Y-83818452D01*
X7070467Y-83588665D01*
X6350000Y-82868198D01*
X5629533Y-83588665D01*
X4530467Y-83588665D01*
X3810000Y-82868198D01*
X3089533Y-83588665D01*
X550000Y-83588665D01*
X550000Y-82440928D01*
X2391858Y-82440928D01*
X2458068Y-82991930D01*
X2541548Y-83193469D01*
X2771335Y-83270467D01*
X3491802Y-82550000D01*
X4128198Y-82550000D01*
X4848665Y-83270467D01*
X5078452Y-83193469D01*
X5079701Y-83189010D01*
X5081548Y-83193469D01*
X5311335Y-83270467D01*
X6031802Y-82550000D01*
X6668198Y-82550000D01*
X7388665Y-83270467D01*
X7618452Y-83193469D01*
X7768142Y-82659072D01*
X7701932Y-82108070D01*
X7618452Y-81906531D01*
X7388665Y-81829533D01*
X6668198Y-82550000D01*
X6031802Y-82550000D01*
X5311335Y-81829533D01*
X5081548Y-81906531D01*
X5080299Y-81910990D01*
X5078452Y-81906531D01*
X4848665Y-81829533D01*
X4128198Y-82550000D01*
X3491802Y-82550000D01*
X2771335Y-81829533D01*
X2541548Y-81906531D01*
X2391858Y-82440928D01*
X550000Y-82440928D01*
X550000Y-80254975D01*
X2572786Y-80254975D01*
X2760711Y-80709789D01*
X3108381Y-81058066D01*
X3428155Y-81190848D01*
X3368070Y-81198068D01*
X3166531Y-81281548D01*
X3089533Y-81511335D01*
X3810000Y-82231802D01*
X4530467Y-81511335D01*
X4453469Y-81281548D01*
X4166454Y-81201152D01*
X4509789Y-81059289D01*
X4858066Y-80711619D01*
X5046785Y-80257134D01*
X5046786Y-80254975D01*
X5112786Y-80254975D01*
X5300711Y-80709789D01*
X5648381Y-81058066D01*
X5968155Y-81190848D01*
X5908070Y-81198068D01*
X5706531Y-81281548D01*
X5629533Y-81511335D01*
X6350000Y-82231802D01*
X7070467Y-81511335D01*
X6993469Y-81281548D01*
X6706454Y-81201152D01*
X7049789Y-81059289D01*
X7398066Y-80711619D01*
X7586785Y-80257134D01*
X7587214Y-79765025D01*
X7399289Y-79310211D01*
X7051619Y-78961934D01*
X6597134Y-78773215D01*
X6105025Y-78772786D01*
X5650211Y-78960711D01*
X5301934Y-79308381D01*
X5113215Y-79762866D01*
X5112786Y-80254975D01*
X5046786Y-80254975D01*
X5047214Y-79765025D01*
X4859289Y-79310211D01*
X4511619Y-78961934D01*
X4057134Y-78773215D01*
X3565025Y-78772786D01*
X3110211Y-78960711D01*
X2761934Y-79308381D01*
X2573215Y-79762866D01*
X2572786Y-80254975D01*
X550000Y-80254975D01*
X550000Y-77714975D01*
X2572786Y-77714975D01*
X2760711Y-78169789D01*
X3108381Y-78518066D01*
X3562866Y-78706785D01*
X4054975Y-78707214D01*
X4509789Y-78519289D01*
X4858066Y-78171619D01*
X5046785Y-77717134D01*
X5046786Y-77714975D01*
X5112786Y-77714975D01*
X5300711Y-78169789D01*
X5648381Y-78518066D01*
X6102866Y-78706785D01*
X6594975Y-78707214D01*
X7049789Y-78519289D01*
X7398066Y-78171619D01*
X7586785Y-77717134D01*
X7587214Y-77225025D01*
X7399289Y-76770211D01*
X7051619Y-76421934D01*
X6685722Y-76270000D01*
X48350302Y-76270000D01*
X48444463Y-76743379D01*
X48712611Y-77144691D01*
X49113923Y-77412839D01*
X49587302Y-77507000D01*
X50412698Y-77507000D01*
X50886077Y-77412839D01*
X51287389Y-77144691D01*
X51555537Y-76743379D01*
X51649698Y-76270000D01*
X51555537Y-75796621D01*
X51287389Y-75395309D01*
X50886077Y-75127161D01*
X50412698Y-75033000D01*
X49587302Y-75033000D01*
X49113923Y-75127161D01*
X48712611Y-75395309D01*
X48444463Y-75796621D01*
X48350302Y-76270000D01*
X6685722Y-76270000D01*
X6597134Y-76233215D01*
X6105025Y-76232786D01*
X5650211Y-76420711D01*
X5301934Y-76768381D01*
X5113215Y-77222866D01*
X5112786Y-77714975D01*
X5046786Y-77714975D01*
X5047214Y-77225025D01*
X4859289Y-76770211D01*
X4511619Y-76421934D01*
X4057134Y-76233215D01*
X3565025Y-76232786D01*
X3110211Y-76420711D01*
X2761934Y-76768381D01*
X2573215Y-77222866D01*
X2572786Y-77714975D01*
X550000Y-77714975D01*
X550000Y-75174975D01*
X2572786Y-75174975D01*
X2760711Y-75629789D01*
X3108381Y-75978066D01*
X3562866Y-76166785D01*
X4054975Y-76167214D01*
X4509789Y-75979289D01*
X4858066Y-75631619D01*
X5046785Y-75177134D01*
X5046786Y-75174975D01*
X5112786Y-75174975D01*
X5300711Y-75629789D01*
X5648381Y-75978066D01*
X6102866Y-76166785D01*
X6594975Y-76167214D01*
X7049789Y-75979289D01*
X7398066Y-75631619D01*
X7586785Y-75177134D01*
X7587214Y-74685025D01*
X7399289Y-74230211D01*
X7051619Y-73881934D01*
X6685722Y-73730000D01*
X48350302Y-73730000D01*
X48444463Y-74203379D01*
X48712611Y-74604691D01*
X49113923Y-74872839D01*
X49587302Y-74967000D01*
X50412698Y-74967000D01*
X50886077Y-74872839D01*
X51287389Y-74604691D01*
X51555537Y-74203379D01*
X51649698Y-73730000D01*
X51555537Y-73256621D01*
X51287389Y-72855309D01*
X50886077Y-72587161D01*
X50412698Y-72493000D01*
X49587302Y-72493000D01*
X49113923Y-72587161D01*
X48712611Y-72855309D01*
X48444463Y-73256621D01*
X48350302Y-73730000D01*
X6685722Y-73730000D01*
X6597134Y-73693215D01*
X6105025Y-73692786D01*
X5650211Y-73880711D01*
X5301934Y-74228381D01*
X5113215Y-74682866D01*
X5112786Y-75174975D01*
X5046786Y-75174975D01*
X5047214Y-74685025D01*
X4859289Y-74230211D01*
X4511619Y-73881934D01*
X4057134Y-73693215D01*
X3565025Y-73692786D01*
X3110211Y-73880711D01*
X2761934Y-74228381D01*
X2573215Y-74682866D01*
X2572786Y-75174975D01*
X550000Y-75174975D01*
X550000Y-72634975D01*
X2572786Y-72634975D01*
X2760711Y-73089789D01*
X3108381Y-73438066D01*
X3562866Y-73626785D01*
X4054975Y-73627214D01*
X4509789Y-73439289D01*
X4858066Y-73091619D01*
X5046785Y-72637134D01*
X5046786Y-72634975D01*
X5112786Y-72634975D01*
X5300711Y-73089789D01*
X5648381Y-73438066D01*
X6102866Y-73626785D01*
X6594975Y-73627214D01*
X7049789Y-73439289D01*
X7398066Y-73091619D01*
X7586785Y-72637134D01*
X7587214Y-72145025D01*
X7399289Y-71690211D01*
X7051619Y-71341934D01*
X6597134Y-71153215D01*
X6105025Y-71152786D01*
X5650211Y-71340711D01*
X5301934Y-71688381D01*
X5113215Y-72142866D01*
X5112786Y-72634975D01*
X5046786Y-72634975D01*
X5047214Y-72145025D01*
X4859289Y-71690211D01*
X4511619Y-71341934D01*
X4057134Y-71153215D01*
X3565025Y-71152786D01*
X3110211Y-71340711D01*
X2761934Y-71688381D01*
X2573215Y-72142866D01*
X2572786Y-72634975D01*
X550000Y-72634975D01*
X550000Y-70094975D01*
X2572786Y-70094975D01*
X2760711Y-70549789D01*
X3108381Y-70898066D01*
X3562866Y-71086785D01*
X4054975Y-71087214D01*
X4509789Y-70899289D01*
X4858066Y-70551619D01*
X5046785Y-70097134D01*
X5046786Y-70094975D01*
X5112786Y-70094975D01*
X5300711Y-70549789D01*
X5648381Y-70898066D01*
X6102866Y-71086785D01*
X6594975Y-71087214D01*
X7049789Y-70899289D01*
X7398066Y-70551619D01*
X7586785Y-70097134D01*
X7587214Y-69605025D01*
X7399289Y-69150211D01*
X7051619Y-68801934D01*
X6597134Y-68613215D01*
X6105025Y-68612786D01*
X5650211Y-68800711D01*
X5301934Y-69148381D01*
X5113215Y-69602866D01*
X5112786Y-70094975D01*
X5046786Y-70094975D01*
X5047214Y-69605025D01*
X4859289Y-69150211D01*
X4511619Y-68801934D01*
X4057134Y-68613215D01*
X3565025Y-68612786D01*
X3110211Y-68800711D01*
X2761934Y-69148381D01*
X2573215Y-69602866D01*
X2572786Y-70094975D01*
X550000Y-70094975D01*
X550000Y-67554975D01*
X2572786Y-67554975D01*
X2760711Y-68009789D01*
X3108381Y-68358066D01*
X3562866Y-68546785D01*
X4054975Y-68547214D01*
X4509789Y-68359289D01*
X4858066Y-68011619D01*
X5046785Y-67557134D01*
X5046786Y-67554975D01*
X5112786Y-67554975D01*
X5300711Y-68009789D01*
X5648381Y-68358066D01*
X6102866Y-68546785D01*
X6594975Y-68547214D01*
X7049789Y-68359289D01*
X7398066Y-68011619D01*
X7586785Y-67557134D01*
X7587214Y-67065025D01*
X7399289Y-66610211D01*
X7051619Y-66261934D01*
X6597134Y-66073215D01*
X6105025Y-66072786D01*
X5650211Y-66260711D01*
X5301934Y-66608381D01*
X5113215Y-67062866D01*
X5112786Y-67554975D01*
X5046786Y-67554975D01*
X5047214Y-67065025D01*
X4859289Y-66610211D01*
X4511619Y-66261934D01*
X4057134Y-66073215D01*
X3565025Y-66072786D01*
X3110211Y-66260711D01*
X2761934Y-66608381D01*
X2573215Y-67062866D01*
X2572786Y-67554975D01*
X550000Y-67554975D01*
X550000Y-65014975D01*
X2572786Y-65014975D01*
X2760711Y-65469789D01*
X3108381Y-65818066D01*
X3562866Y-66006785D01*
X4054975Y-66007214D01*
X4509789Y-65819289D01*
X4858066Y-65471619D01*
X5046785Y-65017134D01*
X5046786Y-65014975D01*
X5112786Y-65014975D01*
X5300711Y-65469789D01*
X5648381Y-65818066D01*
X6102866Y-66006785D01*
X6594975Y-66007214D01*
X7049789Y-65819289D01*
X7398066Y-65471619D01*
X7586785Y-65017134D01*
X7587214Y-64525025D01*
X7399289Y-64070211D01*
X7051619Y-63721934D01*
X6597134Y-63533215D01*
X6105025Y-63532786D01*
X5650211Y-63720711D01*
X5301934Y-64068381D01*
X5113215Y-64522866D01*
X5112786Y-65014975D01*
X5046786Y-65014975D01*
X5047214Y-64525025D01*
X4859289Y-64070211D01*
X4511619Y-63721934D01*
X4057134Y-63533215D01*
X3565025Y-63532786D01*
X3110211Y-63720711D01*
X2761934Y-64068381D01*
X2573215Y-64522866D01*
X2572786Y-65014975D01*
X550000Y-65014975D01*
X550000Y-62474975D01*
X2572786Y-62474975D01*
X2760711Y-62929789D01*
X3108381Y-63278066D01*
X3562866Y-63466785D01*
X4054975Y-63467214D01*
X4509789Y-63279289D01*
X4858066Y-62931619D01*
X5046785Y-62477134D01*
X5046786Y-62474975D01*
X5112786Y-62474975D01*
X5300711Y-62929789D01*
X5648381Y-63278066D01*
X6102866Y-63466785D01*
X6594975Y-63467214D01*
X7049789Y-63279289D01*
X7155978Y-63173285D01*
X38624849Y-63173285D01*
X38757779Y-63495000D01*
X38925000Y-63662513D01*
X38925000Y-66837461D01*
X38858640Y-66903705D01*
X38725148Y-67225188D01*
X38724845Y-67573285D01*
X38857775Y-67895000D01*
X39103701Y-68141356D01*
X39425184Y-68274848D01*
X39773281Y-68275151D01*
X40094996Y-68142221D01*
X40341352Y-67896295D01*
X40474844Y-67574812D01*
X40475147Y-67226715D01*
X40342217Y-66905000D01*
X40096291Y-66658644D01*
X40075000Y-66649803D01*
X40075000Y-63662361D01*
X40241356Y-63496295D01*
X40374848Y-63174812D01*
X40375151Y-62826715D01*
X40242221Y-62505000D01*
X39996295Y-62258644D01*
X39674812Y-62125152D01*
X39326715Y-62124849D01*
X39005000Y-62257779D01*
X38758644Y-62503705D01*
X38625152Y-62825188D01*
X38624849Y-63173285D01*
X7155978Y-63173285D01*
X7398066Y-62931619D01*
X7586785Y-62477134D01*
X7587214Y-61985025D01*
X7497660Y-61768285D01*
X43709849Y-61768285D01*
X43842779Y-62090000D01*
X44088705Y-62336356D01*
X44310001Y-62428247D01*
X44310001Y-64417843D01*
X44351581Y-64626883D01*
X44353770Y-64637886D01*
X44475001Y-64819320D01*
X44475001Y-67620906D01*
X44255000Y-67711809D01*
X44008644Y-67957735D01*
X43875152Y-68279218D01*
X43874849Y-68627315D01*
X44007779Y-68949030D01*
X44253705Y-69195386D01*
X44575188Y-69328878D01*
X44923285Y-69329181D01*
X45245000Y-69196251D01*
X45249793Y-69191467D01*
X45253705Y-69195386D01*
X45575188Y-69328878D01*
X45923285Y-69329181D01*
X46245000Y-69196251D01*
X46491356Y-68950325D01*
X46624848Y-68628842D01*
X46625151Y-68280745D01*
X46492221Y-67959030D01*
X46246295Y-67712674D01*
X46024999Y-67620783D01*
X46024999Y-64417157D01*
X45981230Y-64197114D01*
X45967293Y-64176256D01*
X45859999Y-64015679D01*
X45859999Y-62428124D01*
X46080000Y-62337221D01*
X46326356Y-62091295D01*
X46459848Y-61769812D01*
X46460151Y-61421715D01*
X46327221Y-61100000D01*
X46081295Y-60853644D01*
X45759812Y-60720152D01*
X45411715Y-60719849D01*
X45090000Y-60852779D01*
X45085207Y-60857563D01*
X45081295Y-60853644D01*
X44759812Y-60720152D01*
X44411715Y-60719849D01*
X44090000Y-60852779D01*
X43843644Y-61098705D01*
X43710152Y-61420188D01*
X43709849Y-61768285D01*
X7497660Y-61768285D01*
X7399289Y-61530211D01*
X7051619Y-61181934D01*
X6731845Y-61049152D01*
X6791930Y-61041932D01*
X6993469Y-60958452D01*
X7070467Y-60728665D01*
X6350000Y-60008198D01*
X5629533Y-60728665D01*
X5706531Y-60958452D01*
X5993546Y-61038848D01*
X5650211Y-61180711D01*
X5301934Y-61528381D01*
X5113215Y-61982866D01*
X5112786Y-62474975D01*
X5046786Y-62474975D01*
X5047214Y-61985025D01*
X4859289Y-61530211D01*
X4511619Y-61181934D01*
X4191845Y-61049152D01*
X4251930Y-61041932D01*
X4453469Y-60958452D01*
X4530467Y-60728665D01*
X3810000Y-60008198D01*
X3089533Y-60728665D01*
X3166531Y-60958452D01*
X3453546Y-61038848D01*
X3110211Y-61180711D01*
X2761934Y-61528381D01*
X2573215Y-61982866D01*
X2572786Y-62474975D01*
X550000Y-62474975D01*
X550000Y-59580928D01*
X2391858Y-59580928D01*
X2458068Y-60131930D01*
X2541548Y-60333469D01*
X2771335Y-60410467D01*
X3491802Y-59690000D01*
X4128198Y-59690000D01*
X4848665Y-60410467D01*
X5078452Y-60333469D01*
X5079701Y-60329010D01*
X5081548Y-60333469D01*
X5311335Y-60410467D01*
X6031802Y-59690000D01*
X6668198Y-59690000D01*
X7388665Y-60410467D01*
X7618452Y-60333469D01*
X7768142Y-59799072D01*
X7701932Y-59248070D01*
X7618452Y-59046531D01*
X7388665Y-58969533D01*
X6668198Y-59690000D01*
X6031802Y-59690000D01*
X5311335Y-58969533D01*
X5081548Y-59046531D01*
X5080299Y-59050990D01*
X5078452Y-59046531D01*
X4848665Y-58969533D01*
X4128198Y-59690000D01*
X3491802Y-59690000D01*
X2771335Y-58969533D01*
X2541548Y-59046531D01*
X2391858Y-59580928D01*
X550000Y-59580928D01*
X550000Y-58188665D01*
X3089533Y-58188665D01*
X3166531Y-58418452D01*
X3170990Y-58419701D01*
X3166531Y-58421548D01*
X3089533Y-58651335D01*
X3810000Y-59371802D01*
X4530467Y-58651335D01*
X4453469Y-58421548D01*
X4449010Y-58420299D01*
X4453469Y-58418452D01*
X4530467Y-58188665D01*
X5629533Y-58188665D01*
X5706531Y-58418452D01*
X5710990Y-58419701D01*
X5706531Y-58421548D01*
X5629533Y-58651335D01*
X6350000Y-59371802D01*
X7070467Y-58651335D01*
X6993469Y-58421548D01*
X6989010Y-58420299D01*
X6993469Y-58418452D01*
X7070467Y-58188665D01*
X7055087Y-58173285D01*
X36374849Y-58173285D01*
X36507779Y-58495000D01*
X36675000Y-58662513D01*
X36675000Y-60087639D01*
X36508644Y-60253705D01*
X36375152Y-60575188D01*
X36374849Y-60923285D01*
X36507779Y-61245000D01*
X36753705Y-61491356D01*
X37075188Y-61624848D01*
X37423285Y-61625151D01*
X37745000Y-61492221D01*
X37991356Y-61246295D01*
X38124848Y-60924812D01*
X38125151Y-60576715D01*
X37992221Y-60255000D01*
X37825000Y-60087487D01*
X37825000Y-58662361D01*
X37991356Y-58496295D01*
X38124848Y-58174812D01*
X38125151Y-57826715D01*
X37992221Y-57505000D01*
X37746295Y-57258644D01*
X37424812Y-57125152D01*
X37076715Y-57124849D01*
X36755000Y-57257779D01*
X36508644Y-57503705D01*
X36375152Y-57825188D01*
X36374849Y-58173285D01*
X7055087Y-58173285D01*
X6350000Y-57468198D01*
X5629533Y-58188665D01*
X4530467Y-58188665D01*
X3810000Y-57468198D01*
X3089533Y-58188665D01*
X550000Y-58188665D01*
X550000Y-57040928D01*
X2391858Y-57040928D01*
X2458068Y-57591930D01*
X2541548Y-57793469D01*
X2771335Y-57870467D01*
X3491802Y-57150000D01*
X4128198Y-57150000D01*
X4848665Y-57870467D01*
X5078452Y-57793469D01*
X5079701Y-57789010D01*
X5081548Y-57793469D01*
X5311335Y-57870467D01*
X6031802Y-57150000D01*
X6668198Y-57150000D01*
X7388665Y-57870467D01*
X7618452Y-57793469D01*
X7768142Y-57259072D01*
X7701932Y-56708070D01*
X7618452Y-56506531D01*
X7388665Y-56429533D01*
X6668198Y-57150000D01*
X6031802Y-57150000D01*
X5311335Y-56429533D01*
X5081548Y-56506531D01*
X5080299Y-56510990D01*
X5078452Y-56506531D01*
X4848665Y-56429533D01*
X4128198Y-57150000D01*
X3491802Y-57150000D01*
X2771335Y-56429533D01*
X2541548Y-56506531D01*
X2391858Y-57040928D01*
X550000Y-57040928D01*
X550000Y-54854975D01*
X2572786Y-54854975D01*
X2760711Y-55309789D01*
X3108381Y-55658066D01*
X3428155Y-55790848D01*
X3368070Y-55798068D01*
X3166531Y-55881548D01*
X3089533Y-56111335D01*
X3810000Y-56831802D01*
X4530467Y-56111335D01*
X4453469Y-55881548D01*
X4166454Y-55801152D01*
X4509789Y-55659289D01*
X4858066Y-55311619D01*
X5046785Y-54857134D01*
X5046786Y-54854975D01*
X5112786Y-54854975D01*
X5300711Y-55309789D01*
X5648381Y-55658066D01*
X5968155Y-55790848D01*
X5908070Y-55798068D01*
X5706531Y-55881548D01*
X5629533Y-56111335D01*
X6350000Y-56831802D01*
X7070467Y-56111335D01*
X6993469Y-55881548D01*
X6706454Y-55801152D01*
X7049789Y-55659289D01*
X7398066Y-55311619D01*
X7586785Y-54857134D01*
X7587214Y-54365025D01*
X7399289Y-53910211D01*
X7239358Y-53750000D01*
X51275000Y-53750000D01*
X51349217Y-54123117D01*
X51560571Y-54439429D01*
X53775000Y-56653858D01*
X53775000Y-62846142D01*
X52310571Y-64310571D01*
X52099217Y-64626883D01*
X52059923Y-64824429D01*
X52025000Y-65000000D01*
X52025000Y-68000000D01*
X52099217Y-68373116D01*
X52310571Y-68689429D01*
X52626884Y-68900783D01*
X53000000Y-68975000D01*
X53373116Y-68900783D01*
X53689429Y-68689429D01*
X53900783Y-68373116D01*
X53975000Y-68000000D01*
X53975000Y-65403858D01*
X55439429Y-63939429D01*
X55650783Y-63623117D01*
X55725000Y-63250000D01*
X55725000Y-61962601D01*
X55753705Y-61991356D01*
X56075188Y-62124848D01*
X56423285Y-62125151D01*
X56745000Y-61992221D01*
X56991356Y-61746295D01*
X57124848Y-61424812D01*
X57125151Y-61076715D01*
X56992221Y-60755000D01*
X56850000Y-60612530D01*
X56850000Y-60248528D01*
X57223551Y-59874977D01*
X57423285Y-59875151D01*
X57745000Y-59742221D01*
X57991356Y-59496295D01*
X58124848Y-59174812D01*
X58125151Y-58826715D01*
X57992221Y-58505000D01*
X57746295Y-58258644D01*
X57424812Y-58125152D01*
X57076715Y-58124849D01*
X56755000Y-58257779D01*
X56508644Y-58503705D01*
X56375152Y-58825188D01*
X56374977Y-59026495D01*
X55825736Y-59575736D01*
X55725000Y-59726498D01*
X55725000Y-56250000D01*
X55650783Y-55876884D01*
X55650783Y-55876883D01*
X55439429Y-55560571D01*
X52939429Y-53060571D01*
X52623117Y-52849217D01*
X52250000Y-52775000D01*
X51876883Y-52849217D01*
X51560571Y-53060571D01*
X51349217Y-53376883D01*
X51275000Y-53750000D01*
X7239358Y-53750000D01*
X7051619Y-53561934D01*
X6597134Y-53373215D01*
X6105025Y-53372786D01*
X5650211Y-53560711D01*
X5301934Y-53908381D01*
X5113215Y-54362866D01*
X5112786Y-54854975D01*
X5046786Y-54854975D01*
X5047214Y-54365025D01*
X4859289Y-53910211D01*
X4511619Y-53561934D01*
X4057134Y-53373215D01*
X3565025Y-53372786D01*
X3110211Y-53560711D01*
X2761934Y-53908381D01*
X2573215Y-54362866D01*
X2572786Y-54854975D01*
X550000Y-54854975D01*
X550000Y-52314975D01*
X2572786Y-52314975D01*
X2760711Y-52769789D01*
X3108381Y-53118066D01*
X3562866Y-53306785D01*
X4054975Y-53307214D01*
X4509789Y-53119289D01*
X4858066Y-52771619D01*
X5046785Y-52317134D01*
X5046786Y-52314975D01*
X5112786Y-52314975D01*
X5300711Y-52769789D01*
X5648381Y-53118066D01*
X6102866Y-53306785D01*
X6594975Y-53307214D01*
X7049789Y-53119289D01*
X7398066Y-52771619D01*
X7586785Y-52317134D01*
X7587214Y-51825025D01*
X7399289Y-51370211D01*
X7051619Y-51021934D01*
X6597134Y-50833215D01*
X6105025Y-50832786D01*
X5650211Y-51020711D01*
X5301934Y-51368381D01*
X5113215Y-51822866D01*
X5112786Y-52314975D01*
X5046786Y-52314975D01*
X5047214Y-51825025D01*
X4859289Y-51370211D01*
X4511619Y-51021934D01*
X4057134Y-50833215D01*
X3565025Y-50832786D01*
X3110211Y-51020711D01*
X2761934Y-51368381D01*
X2573215Y-51822866D01*
X2572786Y-52314975D01*
X550000Y-52314975D01*
X550000Y-49774975D01*
X2572786Y-49774975D01*
X2760711Y-50229789D01*
X3108381Y-50578066D01*
X3562866Y-50766785D01*
X4054975Y-50767214D01*
X4509789Y-50579289D01*
X4858066Y-50231619D01*
X5046785Y-49777134D01*
X5046786Y-49774975D01*
X5112786Y-49774975D01*
X5300711Y-50229789D01*
X5648381Y-50578066D01*
X6102866Y-50766785D01*
X6594975Y-50767214D01*
X7049789Y-50579289D01*
X7398066Y-50231619D01*
X7586785Y-49777134D01*
X7587214Y-49285025D01*
X7399289Y-48830211D01*
X7051619Y-48481934D01*
X6597134Y-48293215D01*
X6105025Y-48292786D01*
X5650211Y-48480711D01*
X5301934Y-48828381D01*
X5113215Y-49282866D01*
X5112786Y-49774975D01*
X5046786Y-49774975D01*
X5047214Y-49285025D01*
X4859289Y-48830211D01*
X4511619Y-48481934D01*
X4057134Y-48293215D01*
X3565025Y-48292786D01*
X3110211Y-48480711D01*
X2761934Y-48828381D01*
X2573215Y-49282866D01*
X2572786Y-49774975D01*
X550000Y-49774975D01*
X550000Y-47234975D01*
X2572786Y-47234975D01*
X2760711Y-47689789D01*
X3108381Y-48038066D01*
X3562866Y-48226785D01*
X4054975Y-48227214D01*
X4509789Y-48039289D01*
X4858066Y-47691619D01*
X5046785Y-47237134D01*
X5046786Y-47234975D01*
X5112786Y-47234975D01*
X5300711Y-47689789D01*
X5648381Y-48038066D01*
X6102866Y-48226785D01*
X6594975Y-48227214D01*
X7049789Y-48039289D01*
X7398066Y-47691619D01*
X7586785Y-47237134D01*
X7587214Y-46745025D01*
X7399289Y-46290211D01*
X7051619Y-45941934D01*
X6597134Y-45753215D01*
X6105025Y-45752786D01*
X5650211Y-45940711D01*
X5301934Y-46288381D01*
X5113215Y-46742866D01*
X5112786Y-47234975D01*
X5046786Y-47234975D01*
X5047214Y-46745025D01*
X4859289Y-46290211D01*
X4511619Y-45941934D01*
X4057134Y-45753215D01*
X3565025Y-45752786D01*
X3110211Y-45940711D01*
X2761934Y-46288381D01*
X2573215Y-46742866D01*
X2572786Y-47234975D01*
X550000Y-47234975D01*
X550000Y-44694975D01*
X2572786Y-44694975D01*
X2760711Y-45149789D01*
X3108381Y-45498066D01*
X3562866Y-45686785D01*
X4054975Y-45687214D01*
X4509789Y-45499289D01*
X4858066Y-45151619D01*
X5046785Y-44697134D01*
X5046786Y-44694975D01*
X5112786Y-44694975D01*
X5300711Y-45149789D01*
X5648381Y-45498066D01*
X6102866Y-45686785D01*
X6594975Y-45687214D01*
X7049789Y-45499289D01*
X7398066Y-45151619D01*
X7586785Y-44697134D01*
X7587214Y-44205025D01*
X7399289Y-43750211D01*
X7349167Y-43700001D01*
X36724999Y-43700001D01*
X36724999Y-44799999D01*
X36758848Y-44970168D01*
X36768768Y-45020042D01*
X36893413Y-45206585D01*
X39361814Y-47674987D01*
X39361814Y-49587639D01*
X39195458Y-49753705D01*
X39061966Y-50075188D01*
X39061663Y-50423285D01*
X39194593Y-50745000D01*
X39440519Y-50991356D01*
X39762002Y-51124848D01*
X40110099Y-51125151D01*
X40431814Y-50992221D01*
X40678170Y-50746295D01*
X40811662Y-50424812D01*
X40811965Y-50076715D01*
X40679035Y-49755000D01*
X40511814Y-49587487D01*
X40511814Y-47436814D01*
X40468045Y-47216771D01*
X40343401Y-47030228D01*
X37874999Y-44561827D01*
X37874999Y-43938173D01*
X37938226Y-43874946D01*
X38173285Y-43875151D01*
X38495000Y-43742221D01*
X38741356Y-43496295D01*
X38874848Y-43174812D01*
X38875151Y-42826715D01*
X38742221Y-42505000D01*
X38496295Y-42258644D01*
X38299811Y-42177056D01*
X72628620Y-42177056D01*
X72761550Y-42498771D01*
X73007476Y-42745127D01*
X73328959Y-42878619D01*
X73530266Y-42878794D01*
X75421906Y-44770434D01*
X75421732Y-44970168D01*
X75554662Y-45291883D01*
X75800588Y-45538239D01*
X76122071Y-45671731D01*
X76470168Y-45672034D01*
X76791883Y-45539104D01*
X77038239Y-45293178D01*
X77171731Y-44971695D01*
X77172034Y-44623598D01*
X77069340Y-44375061D01*
X77173285Y-44375151D01*
X77495000Y-44242221D01*
X77741356Y-43996295D01*
X77874848Y-43674812D01*
X77875151Y-43326715D01*
X77791819Y-43125037D01*
X77923285Y-43125151D01*
X78245000Y-42992221D01*
X78491356Y-42746295D01*
X78620973Y-42434145D01*
X79875054Y-43688226D01*
X79874849Y-43923285D01*
X80007779Y-44245000D01*
X80253705Y-44491356D01*
X80575188Y-44624848D01*
X80923285Y-44625151D01*
X81245000Y-44492221D01*
X81491356Y-44246295D01*
X81624848Y-43924812D01*
X81625151Y-43576715D01*
X81492221Y-43255000D01*
X81246295Y-43008644D01*
X80924812Y-42875152D01*
X80688118Y-42874946D01*
X80323170Y-42509998D01*
X80634244Y-42381465D01*
X80880600Y-42135539D01*
X81014092Y-41814056D01*
X81014278Y-41600300D01*
X81254020Y-41501241D01*
X81500376Y-41255315D01*
X81633868Y-40933832D01*
X81633911Y-40884129D01*
X81682305Y-40884171D01*
X82004020Y-40751241D01*
X82250376Y-40505315D01*
X82383868Y-40183832D01*
X82384171Y-39835735D01*
X82251241Y-39514020D01*
X82005315Y-39267664D01*
X81683832Y-39134172D01*
X81447139Y-39133966D01*
X79095868Y-36782696D01*
X79096073Y-36547637D01*
X78963143Y-36225922D01*
X78717217Y-35979566D01*
X78395734Y-35846074D01*
X78047637Y-35845771D01*
X77725922Y-35978701D01*
X77479566Y-36224627D01*
X77474377Y-36237124D01*
X77246295Y-36008644D01*
X76924812Y-35875152D01*
X76576715Y-35874849D01*
X76255000Y-36007779D01*
X76008644Y-36253705D01*
X75875152Y-36575188D01*
X75874849Y-36923285D01*
X76007779Y-37245000D01*
X76253705Y-37491356D01*
X76575188Y-37624848D01*
X76811882Y-37625054D01*
X76816074Y-37629246D01*
X76505000Y-37757779D01*
X76258644Y-38003705D01*
X76125152Y-38325188D01*
X76125109Y-38374891D01*
X76076715Y-38374849D01*
X75755000Y-38507779D01*
X75508644Y-38753705D01*
X75375152Y-39075188D01*
X75375109Y-39124891D01*
X75326715Y-39124849D01*
X75005000Y-39257779D01*
X74758644Y-39503705D01*
X74625152Y-39825188D01*
X74624888Y-40128876D01*
X74330486Y-40128620D01*
X74008771Y-40261550D01*
X73762415Y-40507476D01*
X73628923Y-40828959D01*
X73628662Y-41128880D01*
X73330486Y-41128620D01*
X73008771Y-41261550D01*
X72762415Y-41507476D01*
X72628923Y-41828959D01*
X72628620Y-42177056D01*
X38299811Y-42177056D01*
X38174812Y-42125152D01*
X37826715Y-42124849D01*
X37505000Y-42257779D01*
X37258644Y-42503705D01*
X37125152Y-42825188D01*
X37124946Y-43061882D01*
X36893413Y-43293415D01*
X36768768Y-43479958D01*
X36724999Y-43700001D01*
X7349167Y-43700001D01*
X7051619Y-43401934D01*
X6597134Y-43213215D01*
X6105025Y-43212786D01*
X5650211Y-43400711D01*
X5301934Y-43748381D01*
X5113215Y-44202866D01*
X5112786Y-44694975D01*
X5046786Y-44694975D01*
X5047214Y-44205025D01*
X4859289Y-43750211D01*
X4511619Y-43401934D01*
X4057134Y-43213215D01*
X3565025Y-43212786D01*
X3110211Y-43400711D01*
X2761934Y-43748381D01*
X2573215Y-44202866D01*
X2572786Y-44694975D01*
X550000Y-44694975D01*
X550000Y-42154975D01*
X2572786Y-42154975D01*
X2760711Y-42609789D01*
X3108381Y-42958066D01*
X3562866Y-43146785D01*
X4054975Y-43147214D01*
X4509789Y-42959289D01*
X4858066Y-42611619D01*
X5046785Y-42157134D01*
X5046786Y-42154975D01*
X5112786Y-42154975D01*
X5300711Y-42609789D01*
X5648381Y-42958066D01*
X6102866Y-43146785D01*
X6594975Y-43147214D01*
X7049789Y-42959289D01*
X7398066Y-42611619D01*
X7586785Y-42157134D01*
X7587214Y-41665025D01*
X7399289Y-41210211D01*
X7051619Y-40861934D01*
X6597134Y-40673215D01*
X6105025Y-40672786D01*
X5650211Y-40860711D01*
X5301934Y-41208381D01*
X5113215Y-41662866D01*
X5112786Y-42154975D01*
X5046786Y-42154975D01*
X5047214Y-41665025D01*
X4859289Y-41210211D01*
X4511619Y-40861934D01*
X4057134Y-40673215D01*
X3565025Y-40672786D01*
X3110211Y-40860711D01*
X2761934Y-41208381D01*
X2573215Y-41662866D01*
X2572786Y-42154975D01*
X550000Y-42154975D01*
X550000Y-39614975D01*
X2572786Y-39614975D01*
X2760711Y-40069789D01*
X3108381Y-40418066D01*
X3562866Y-40606785D01*
X4054975Y-40607214D01*
X4509789Y-40419289D01*
X4858066Y-40071619D01*
X5046785Y-39617134D01*
X5046786Y-39614975D01*
X5112786Y-39614975D01*
X5300711Y-40069789D01*
X5648381Y-40418066D01*
X6102866Y-40606785D01*
X6594975Y-40607214D01*
X7049789Y-40419289D01*
X7398066Y-40071619D01*
X7586785Y-39617134D01*
X7587214Y-39125025D01*
X7399289Y-38670211D01*
X7051619Y-38321934D01*
X6597134Y-38133215D01*
X6105025Y-38132786D01*
X5650211Y-38320711D01*
X5301934Y-38668381D01*
X5113215Y-39122866D01*
X5112786Y-39614975D01*
X5046786Y-39614975D01*
X5047214Y-39125025D01*
X4859289Y-38670211D01*
X4511619Y-38321934D01*
X4057134Y-38133215D01*
X3565025Y-38132786D01*
X3110211Y-38320711D01*
X2761934Y-38668381D01*
X2573215Y-39122866D01*
X2572786Y-39614975D01*
X550000Y-39614975D01*
X550000Y-37074975D01*
X2572786Y-37074975D01*
X2760711Y-37529789D01*
X3108381Y-37878066D01*
X3562866Y-38066785D01*
X4054975Y-38067214D01*
X4509789Y-37879289D01*
X4858066Y-37531619D01*
X5046785Y-37077134D01*
X5046786Y-37074975D01*
X5112786Y-37074975D01*
X5300711Y-37529789D01*
X5648381Y-37878066D01*
X6102866Y-38066785D01*
X6594975Y-38067214D01*
X7049789Y-37879289D01*
X7398066Y-37531619D01*
X7586785Y-37077134D01*
X7587214Y-36585025D01*
X7399289Y-36130211D01*
X7051619Y-35781934D01*
X6731845Y-35649152D01*
X6791930Y-35641932D01*
X6993469Y-35558452D01*
X7070467Y-35328665D01*
X6350000Y-34608198D01*
X5629533Y-35328665D01*
X5706531Y-35558452D01*
X5993546Y-35638848D01*
X5650211Y-35780711D01*
X5301934Y-36128381D01*
X5113215Y-36582866D01*
X5112786Y-37074975D01*
X5046786Y-37074975D01*
X5047214Y-36585025D01*
X4859289Y-36130211D01*
X4511619Y-35781934D01*
X4191845Y-35649152D01*
X4251930Y-35641932D01*
X4453469Y-35558452D01*
X4530467Y-35328665D01*
X3810000Y-34608198D01*
X3089533Y-35328665D01*
X3166531Y-35558452D01*
X3453546Y-35638848D01*
X3110211Y-35780711D01*
X2761934Y-36128381D01*
X2573215Y-36582866D01*
X2572786Y-37074975D01*
X550000Y-37074975D01*
X550000Y-34180928D01*
X2391858Y-34180928D01*
X2458068Y-34731930D01*
X2541548Y-34933469D01*
X2771335Y-35010467D01*
X3491802Y-34290000D01*
X4128198Y-34290000D01*
X4848665Y-35010467D01*
X5078452Y-34933469D01*
X5079701Y-34929010D01*
X5081548Y-34933469D01*
X5311335Y-35010467D01*
X6031802Y-34290000D01*
X6668198Y-34290000D01*
X7388665Y-35010467D01*
X7618452Y-34933469D01*
X7768142Y-34399072D01*
X7701932Y-33848070D01*
X7618452Y-33646531D01*
X7388665Y-33569533D01*
X6668198Y-34290000D01*
X6031802Y-34290000D01*
X5311335Y-33569533D01*
X5081548Y-33646531D01*
X5080299Y-33650990D01*
X5078452Y-33646531D01*
X4848665Y-33569533D01*
X4128198Y-34290000D01*
X3491802Y-34290000D01*
X2771335Y-33569533D01*
X2541548Y-33646531D01*
X2391858Y-34180928D01*
X550000Y-34180928D01*
X550000Y-32788665D01*
X3089533Y-32788665D01*
X3166531Y-33018452D01*
X3170990Y-33019701D01*
X3166531Y-33021548D01*
X3089533Y-33251335D01*
X3810000Y-33971802D01*
X4530467Y-33251335D01*
X4453469Y-33021548D01*
X4449010Y-33020299D01*
X4453469Y-33018452D01*
X4530467Y-32788665D01*
X5629533Y-32788665D01*
X5706531Y-33018452D01*
X5710990Y-33019701D01*
X5706531Y-33021548D01*
X5629533Y-33251335D01*
X6350000Y-33971802D01*
X7070467Y-33251335D01*
X6993469Y-33021548D01*
X6989010Y-33020299D01*
X6993469Y-33018452D01*
X7070467Y-32788665D01*
X6350000Y-32068198D01*
X5629533Y-32788665D01*
X4530467Y-32788665D01*
X3810000Y-32068198D01*
X3089533Y-32788665D01*
X550000Y-32788665D01*
X550000Y-31640928D01*
X2391858Y-31640928D01*
X2458068Y-32191930D01*
X2541548Y-32393469D01*
X2771335Y-32470467D01*
X3491802Y-31750000D01*
X4128198Y-31750000D01*
X4848665Y-32470467D01*
X5078452Y-32393469D01*
X5079701Y-32389010D01*
X5081548Y-32393469D01*
X5311335Y-32470467D01*
X6031802Y-31750000D01*
X6668198Y-31750000D01*
X7388665Y-32470467D01*
X7618452Y-32393469D01*
X7768142Y-31859072D01*
X7701932Y-31308070D01*
X7618452Y-31106531D01*
X7388665Y-31029533D01*
X6668198Y-31750000D01*
X6031802Y-31750000D01*
X5311335Y-31029533D01*
X5081548Y-31106531D01*
X5080299Y-31110990D01*
X5078452Y-31106531D01*
X4848665Y-31029533D01*
X4128198Y-31750000D01*
X3491802Y-31750000D01*
X2771335Y-31029533D01*
X2541548Y-31106531D01*
X2391858Y-31640928D01*
X550000Y-31640928D01*
X550000Y-29454975D01*
X2572786Y-29454975D01*
X2760711Y-29909789D01*
X3108381Y-30258066D01*
X3428155Y-30390848D01*
X3368070Y-30398068D01*
X3166531Y-30481548D01*
X3089533Y-30711335D01*
X3810000Y-31431802D01*
X4530467Y-30711335D01*
X4453469Y-30481548D01*
X4166454Y-30401152D01*
X4509789Y-30259289D01*
X4858066Y-29911619D01*
X5046785Y-29457134D01*
X5046786Y-29454975D01*
X5112786Y-29454975D01*
X5300711Y-29909789D01*
X5648381Y-30258066D01*
X5968155Y-30390848D01*
X5908070Y-30398068D01*
X5706531Y-30481548D01*
X5629533Y-30711335D01*
X6350000Y-31431802D01*
X7070467Y-30711335D01*
X6993469Y-30481548D01*
X6706454Y-30401152D01*
X7049789Y-30259289D01*
X7398066Y-29911619D01*
X7586785Y-29457134D01*
X7587214Y-28965025D01*
X7399289Y-28510211D01*
X7051619Y-28161934D01*
X6597134Y-27973215D01*
X6105025Y-27972786D01*
X5650211Y-28160711D01*
X5301934Y-28508381D01*
X5113215Y-28962866D01*
X5112786Y-29454975D01*
X5046786Y-29454975D01*
X5047214Y-28965025D01*
X4859289Y-28510211D01*
X4511619Y-28161934D01*
X4057134Y-27973215D01*
X3565025Y-27972786D01*
X3110211Y-28160711D01*
X2761934Y-28508381D01*
X2573215Y-28962866D01*
X2572786Y-29454975D01*
X550000Y-29454975D01*
X550000Y-26914975D01*
X2572786Y-26914975D01*
X2760711Y-27369789D01*
X3108381Y-27718066D01*
X3562866Y-27906785D01*
X4054975Y-27907214D01*
X4509789Y-27719289D01*
X4858066Y-27371619D01*
X5046785Y-26917134D01*
X5046786Y-26914975D01*
X5112786Y-26914975D01*
X5300711Y-27369789D01*
X5648381Y-27718066D01*
X6102866Y-27906785D01*
X6594975Y-27907214D01*
X7049789Y-27719289D01*
X7398066Y-27371619D01*
X7586785Y-26917134D01*
X7587214Y-26425025D01*
X7399289Y-25970211D01*
X7051619Y-25621934D01*
X6597134Y-25433215D01*
X6105025Y-25432786D01*
X5650211Y-25620711D01*
X5301934Y-25968381D01*
X5113215Y-26422866D01*
X5112786Y-26914975D01*
X5046786Y-26914975D01*
X5047214Y-26425025D01*
X4859289Y-25970211D01*
X4511619Y-25621934D01*
X4057134Y-25433215D01*
X3565025Y-25432786D01*
X3110211Y-25620711D01*
X2761934Y-25968381D01*
X2573215Y-26422866D01*
X2572786Y-26914975D01*
X550000Y-26914975D01*
X550000Y-24374975D01*
X2572786Y-24374975D01*
X2760711Y-24829789D01*
X3108381Y-25178066D01*
X3562866Y-25366785D01*
X4054975Y-25367214D01*
X4509789Y-25179289D01*
X4858066Y-24831619D01*
X5046785Y-24377134D01*
X5046786Y-24374975D01*
X5112786Y-24374975D01*
X5300711Y-24829789D01*
X5648381Y-25178066D01*
X6102866Y-25366785D01*
X6594975Y-25367214D01*
X7049789Y-25179289D01*
X7255665Y-24973771D01*
X63675335Y-24973771D01*
X63808265Y-25295486D01*
X64054191Y-25541842D01*
X64375674Y-25675334D01*
X64723771Y-25675637D01*
X64875119Y-25613101D01*
X64874849Y-25923285D01*
X64899766Y-25983590D01*
X64751929Y-26044675D01*
X64505573Y-26290601D01*
X64372081Y-26612084D01*
X64371778Y-26960181D01*
X64504708Y-27281896D01*
X64750634Y-27528252D01*
X65072117Y-27661744D01*
X65420214Y-27662047D01*
X65741929Y-27529117D01*
X65908616Y-27362721D01*
X65931933Y-27419154D01*
X66177859Y-27665510D01*
X66499342Y-27799002D01*
X66847439Y-27799305D01*
X66867128Y-27791170D01*
X67108072Y-28032535D01*
X67429555Y-28166027D01*
X67777652Y-28166330D01*
X68099367Y-28033400D01*
X68345723Y-27787474D01*
X68479215Y-27465991D01*
X68479518Y-27117894D01*
X68346588Y-26796179D01*
X68179367Y-26628666D01*
X68179367Y-25472969D01*
X68135598Y-25252926D01*
X68082235Y-25173063D01*
X68010954Y-25066383D01*
X67685753Y-24741183D01*
X70751896Y-21675040D01*
X73633061Y-21675039D01*
X73853104Y-21631270D01*
X74039647Y-21506625D01*
X75656586Y-19889686D01*
X75656594Y-19889674D01*
X76221269Y-19325000D01*
X78000000Y-19325000D01*
X78220043Y-19281231D01*
X78406586Y-19156586D01*
X78688226Y-18874946D01*
X78923285Y-18875151D01*
X79245000Y-18742221D01*
X79491356Y-18496295D01*
X79624848Y-18174812D01*
X79625151Y-17826715D01*
X79492221Y-17505000D01*
X79246295Y-17258644D01*
X78924812Y-17125152D01*
X78576715Y-17124849D01*
X78255000Y-17257779D01*
X78250207Y-17262563D01*
X78246295Y-17258644D01*
X77924812Y-17125152D01*
X77685195Y-17124943D01*
X77731232Y-17056044D01*
X77775001Y-16836001D01*
X77775001Y-15950001D01*
X77731232Y-15729958D01*
X77715251Y-15706041D01*
X77624938Y-15570878D01*
X77625151Y-15326715D01*
X77492221Y-15005000D01*
X77246295Y-14758644D01*
X76924812Y-14625152D01*
X76711727Y-14624967D01*
X76647566Y-14469685D01*
X76401640Y-14223329D01*
X76080157Y-14089837D01*
X75732060Y-14089534D01*
X75410345Y-14222464D01*
X75163989Y-14468390D01*
X75030497Y-14789873D01*
X75030194Y-15137970D01*
X75163124Y-15459685D01*
X75330345Y-15627198D01*
X75330345Y-15648975D01*
X75218769Y-15815959D01*
X75175000Y-16036002D01*
X75175000Y-16446129D01*
X72696130Y-18925000D01*
X69850972Y-18925000D01*
X69630929Y-18968769D01*
X69444385Y-19093414D01*
X64612260Y-23925540D01*
X64377201Y-23925335D01*
X64055486Y-24058265D01*
X63809130Y-24304191D01*
X63675638Y-24625674D01*
X63675335Y-24973771D01*
X7255665Y-24973771D01*
X7398066Y-24831619D01*
X7586785Y-24377134D01*
X7587214Y-23885025D01*
X7399289Y-23430211D01*
X7051619Y-23081934D01*
X6597134Y-22893215D01*
X6105025Y-22892786D01*
X5650211Y-23080711D01*
X5301934Y-23428381D01*
X5113215Y-23882866D01*
X5112786Y-24374975D01*
X5046786Y-24374975D01*
X5047214Y-23885025D01*
X4859289Y-23430211D01*
X4511619Y-23081934D01*
X4057134Y-22893215D01*
X3565025Y-22892786D01*
X3110211Y-23080711D01*
X2761934Y-23428381D01*
X2573215Y-23882866D01*
X2572786Y-24374975D01*
X550000Y-24374975D01*
X550000Y-21834975D01*
X2572786Y-21834975D01*
X2760711Y-22289789D01*
X3108381Y-22638066D01*
X3562866Y-22826785D01*
X4054975Y-22827214D01*
X4509789Y-22639289D01*
X4858066Y-22291619D01*
X5046785Y-21837134D01*
X5046786Y-21834975D01*
X5112786Y-21834975D01*
X5300711Y-22289789D01*
X5648381Y-22638066D01*
X6102866Y-22826785D01*
X6594975Y-22827214D01*
X7049789Y-22639289D01*
X7398066Y-22291619D01*
X7586785Y-21837134D01*
X7587214Y-21345025D01*
X7399289Y-20890211D01*
X7051619Y-20541934D01*
X6597134Y-20353215D01*
X6105025Y-20352786D01*
X5650211Y-20540711D01*
X5301934Y-20888381D01*
X5113215Y-21342866D01*
X5112786Y-21834975D01*
X5046786Y-21834975D01*
X5047214Y-21345025D01*
X4859289Y-20890211D01*
X4511619Y-20541934D01*
X4057134Y-20353215D01*
X3565025Y-20352786D01*
X3110211Y-20540711D01*
X2761934Y-20888381D01*
X2573215Y-21342866D01*
X2572786Y-21834975D01*
X550000Y-21834975D01*
X550000Y-19294975D01*
X2572786Y-19294975D01*
X2760711Y-19749789D01*
X3108381Y-20098066D01*
X3562866Y-20286785D01*
X4054975Y-20287214D01*
X4509789Y-20099289D01*
X4858066Y-19751619D01*
X5046785Y-19297134D01*
X5046786Y-19294975D01*
X5112786Y-19294975D01*
X5300711Y-19749789D01*
X5648381Y-20098066D01*
X6102866Y-20286785D01*
X6594975Y-20287214D01*
X7049789Y-20099289D01*
X7398066Y-19751619D01*
X7586785Y-19297134D01*
X7586808Y-19270000D01*
X18670302Y-19270000D01*
X18764463Y-19743379D01*
X19032611Y-20144691D01*
X19433923Y-20412839D01*
X19907302Y-20507000D01*
X20732698Y-20507000D01*
X21206077Y-20412839D01*
X21607389Y-20144691D01*
X21875537Y-19743379D01*
X21969698Y-19270000D01*
X23750302Y-19270000D01*
X23844463Y-19743379D01*
X24112611Y-20144691D01*
X24513923Y-20412839D01*
X24987302Y-20507000D01*
X25812698Y-20507000D01*
X26286077Y-20412839D01*
X26687389Y-20144691D01*
X26955537Y-19743379D01*
X27049698Y-19270000D01*
X26955537Y-18796621D01*
X26687389Y-18395309D01*
X26286077Y-18127161D01*
X25812698Y-18033000D01*
X24987302Y-18033000D01*
X24513923Y-18127161D01*
X24112611Y-18395309D01*
X23844463Y-18796621D01*
X23750302Y-19270000D01*
X21969698Y-19270000D01*
X21875537Y-18796621D01*
X21607389Y-18395309D01*
X21206077Y-18127161D01*
X20732698Y-18033000D01*
X19907302Y-18033000D01*
X19433923Y-18127161D01*
X19032611Y-18395309D01*
X18764463Y-18796621D01*
X18670302Y-19270000D01*
X7586808Y-19270000D01*
X7587214Y-18805025D01*
X7399289Y-18350211D01*
X7051619Y-18001934D01*
X6597134Y-17813215D01*
X6105025Y-17812786D01*
X5650211Y-18000711D01*
X5301934Y-18348381D01*
X5113215Y-18802866D01*
X5112786Y-19294975D01*
X5046786Y-19294975D01*
X5047214Y-18805025D01*
X4859289Y-18350211D01*
X4511619Y-18001934D01*
X4057134Y-17813215D01*
X3565025Y-17812786D01*
X3110211Y-18000711D01*
X2761934Y-18348381D01*
X2573215Y-18802866D01*
X2572786Y-19294975D01*
X550000Y-19294975D01*
X550000Y-16754975D01*
X2572786Y-16754975D01*
X2760711Y-17209789D01*
X3108381Y-17558066D01*
X3562866Y-17746785D01*
X4054975Y-17747214D01*
X4509789Y-17559289D01*
X4858066Y-17211619D01*
X5046785Y-16757134D01*
X5046786Y-16754975D01*
X5112786Y-16754975D01*
X5300711Y-17209789D01*
X5648381Y-17558066D01*
X6102866Y-17746785D01*
X6594975Y-17747214D01*
X7049789Y-17559289D01*
X7398066Y-17211619D01*
X7586785Y-16757134D01*
X7586808Y-16730000D01*
X18670302Y-16730000D01*
X18764463Y-17203379D01*
X19032611Y-17604691D01*
X19433923Y-17872839D01*
X19907302Y-17967000D01*
X20732698Y-17967000D01*
X21206077Y-17872839D01*
X21607389Y-17604691D01*
X21875537Y-17203379D01*
X21969698Y-16730000D01*
X23750302Y-16730000D01*
X23844463Y-17203379D01*
X24112611Y-17604691D01*
X24513923Y-17872839D01*
X24987302Y-17967000D01*
X25812698Y-17967000D01*
X26286077Y-17872839D01*
X26687389Y-17604691D01*
X26955537Y-17203379D01*
X26961525Y-17173275D01*
X53624849Y-17173275D01*
X53757779Y-17494990D01*
X54003705Y-17741346D01*
X54325188Y-17874838D01*
X54673285Y-17875141D01*
X54995000Y-17742211D01*
X55241356Y-17496285D01*
X55374848Y-17174802D01*
X55375054Y-16938118D01*
X55871545Y-16441627D01*
X56199326Y-16441912D01*
X56521041Y-16308982D01*
X56767397Y-16063056D01*
X56900889Y-15741573D01*
X56901192Y-15393476D01*
X56768262Y-15071761D01*
X56522336Y-14825405D01*
X56200853Y-14691913D01*
X55852756Y-14691610D01*
X55531041Y-14824540D01*
X55284685Y-15070466D01*
X55151193Y-15391949D01*
X55151068Y-15535760D01*
X54561784Y-16125044D01*
X54326715Y-16124839D01*
X54005000Y-16257769D01*
X53758644Y-16503695D01*
X53625152Y-16825178D01*
X53624849Y-17173275D01*
X26961525Y-17173275D01*
X27049698Y-16730000D01*
X26955537Y-16256621D01*
X26687389Y-15855309D01*
X26286077Y-15587161D01*
X25812698Y-15493000D01*
X24987302Y-15493000D01*
X24513923Y-15587161D01*
X24112611Y-15855309D01*
X23844463Y-16256621D01*
X23750302Y-16730000D01*
X21969698Y-16730000D01*
X21875537Y-16256621D01*
X21607389Y-15855309D01*
X21206077Y-15587161D01*
X20732698Y-15493000D01*
X19907302Y-15493000D01*
X19433923Y-15587161D01*
X19032611Y-15855309D01*
X18764463Y-16256621D01*
X18670302Y-16730000D01*
X7586808Y-16730000D01*
X7587214Y-16265025D01*
X7399289Y-15810211D01*
X7051619Y-15461934D01*
X6597134Y-15273215D01*
X6105025Y-15272786D01*
X5650211Y-15460711D01*
X5301934Y-15808381D01*
X5113215Y-16262866D01*
X5112786Y-16754975D01*
X5046786Y-16754975D01*
X5047214Y-16265025D01*
X4859289Y-15810211D01*
X4511619Y-15461934D01*
X4057134Y-15273215D01*
X3565025Y-15272786D01*
X3110211Y-15460711D01*
X2761934Y-15808381D01*
X2573215Y-16262866D01*
X2572786Y-16754975D01*
X550000Y-16754975D01*
X550000Y-14214975D01*
X2572786Y-14214975D01*
X2760711Y-14669789D01*
X3108381Y-15018066D01*
X3562866Y-15206785D01*
X4054975Y-15207214D01*
X4509789Y-15019289D01*
X4858066Y-14671619D01*
X5046785Y-14217134D01*
X5046786Y-14214975D01*
X5112786Y-14214975D01*
X5300711Y-14669789D01*
X5648381Y-15018066D01*
X6102866Y-15206785D01*
X6594975Y-15207214D01*
X7049789Y-15019289D01*
X7398066Y-14671619D01*
X7586785Y-14217134D01*
X7587214Y-13725025D01*
X7399289Y-13270211D01*
X7051619Y-12921934D01*
X6597134Y-12733215D01*
X6105025Y-12732786D01*
X5650211Y-12920711D01*
X5301934Y-13268381D01*
X5113215Y-13722866D01*
X5112786Y-14214975D01*
X5046786Y-14214975D01*
X5047214Y-13725025D01*
X4859289Y-13270211D01*
X4511619Y-12921934D01*
X4057134Y-12733215D01*
X3565025Y-12732786D01*
X3110211Y-12920711D01*
X2761934Y-13268381D01*
X2573215Y-13722866D01*
X2572786Y-14214975D01*
X550000Y-14214975D01*
X550000Y-11674975D01*
X2572786Y-11674975D01*
X2760711Y-12129789D01*
X3108381Y-12478066D01*
X3562866Y-12666785D01*
X4054975Y-12667214D01*
X4509789Y-12479289D01*
X4858066Y-12131619D01*
X5046785Y-11677134D01*
X5046786Y-11674975D01*
X5112786Y-11674975D01*
X5300711Y-12129789D01*
X5648381Y-12478066D01*
X6102866Y-12666785D01*
X6594975Y-12667214D01*
X7049789Y-12479289D01*
X7398066Y-12131619D01*
X7463812Y-11973285D01*
X50924849Y-11973285D01*
X51057779Y-12295000D01*
X51303705Y-12541356D01*
X51625188Y-12674848D01*
X51861882Y-12675054D01*
X52025054Y-12838226D01*
X52024849Y-13073285D01*
X52157779Y-13395000D01*
X52403705Y-13641356D01*
X52725188Y-13774848D01*
X53073285Y-13775151D01*
X53395000Y-13642221D01*
X53641356Y-13396295D01*
X53774848Y-13074812D01*
X53775151Y-12726715D01*
X53642221Y-12405000D01*
X53396295Y-12158644D01*
X53074812Y-12025152D01*
X52838118Y-12024946D01*
X52674946Y-11861774D01*
X52675151Y-11626715D01*
X52542221Y-11305000D01*
X52296295Y-11058644D01*
X51974812Y-10925152D01*
X51626715Y-10924849D01*
X51305000Y-11057779D01*
X51058644Y-11303705D01*
X50925152Y-11625188D01*
X50924849Y-11973285D01*
X7463812Y-11973285D01*
X7586785Y-11677134D01*
X7587214Y-11185025D01*
X7399289Y-10730211D01*
X7051619Y-10381934D01*
X6731845Y-10249152D01*
X6791930Y-10241932D01*
X6993469Y-10158452D01*
X7070467Y-9928665D01*
X6350000Y-9208198D01*
X5629533Y-9928665D01*
X5706531Y-10158452D01*
X5993546Y-10238848D01*
X5650211Y-10380711D01*
X5301934Y-10728381D01*
X5113215Y-11182866D01*
X5112786Y-11674975D01*
X5046786Y-11674975D01*
X5047214Y-11185025D01*
X4859289Y-10730211D01*
X4511619Y-10381934D01*
X4191845Y-10249152D01*
X4251930Y-10241932D01*
X4453469Y-10158452D01*
X4530467Y-9928665D01*
X3810000Y-9208198D01*
X3089533Y-9928665D01*
X3166531Y-10158452D01*
X3453546Y-10238848D01*
X3110211Y-10380711D01*
X2761934Y-10728381D01*
X2573215Y-11182866D01*
X2572786Y-11674975D01*
X550000Y-11674975D01*
X550000Y-8780928D01*
X2391858Y-8780928D01*
X2458068Y-9331930D01*
X2541548Y-9533469D01*
X2771335Y-9610467D01*
X3491802Y-8890000D01*
X4128198Y-8890000D01*
X4848665Y-9610467D01*
X5078452Y-9533469D01*
X5079701Y-9529010D01*
X5081548Y-9533469D01*
X5311335Y-9610467D01*
X6031802Y-8890000D01*
X6668198Y-8890000D01*
X7388665Y-9610467D01*
X7618452Y-9533469D01*
X7768142Y-8999072D01*
X7701932Y-8448070D01*
X7618452Y-8246531D01*
X7388665Y-8169533D01*
X6668198Y-8890000D01*
X6031802Y-8890000D01*
X5311335Y-8169533D01*
X5081548Y-8246531D01*
X5080299Y-8250990D01*
X5078452Y-8246531D01*
X4848665Y-8169533D01*
X4128198Y-8890000D01*
X3491802Y-8890000D01*
X2771335Y-8169533D01*
X2541548Y-8246531D01*
X2391858Y-8780928D01*
X550000Y-8780928D01*
X550000Y-7851335D01*
X3089533Y-7851335D01*
X3810000Y-8571802D01*
X4530467Y-7851335D01*
X5629533Y-7851335D01*
X6350000Y-8571802D01*
X6810802Y-8111000D01*
X46213695Y-8111000D01*
X46213695Y-10397000D01*
X46250561Y-10582335D01*
X46355545Y-10739455D01*
X46512665Y-10844439D01*
X46698000Y-10881305D01*
X48222000Y-10881305D01*
X48407335Y-10844439D01*
X48564455Y-10739455D01*
X48669439Y-10582335D01*
X48706305Y-10397000D01*
X48706305Y-8111000D01*
X48669439Y-7925665D01*
X48564455Y-7768545D01*
X48407335Y-7663561D01*
X48222000Y-7626695D01*
X48135184Y-7626695D01*
X48334691Y-7493389D01*
X48602839Y-7092077D01*
X48697000Y-6618698D01*
X48697000Y-5793302D01*
X48763000Y-5793302D01*
X48763000Y-6618698D01*
X48857161Y-7092077D01*
X49125309Y-7493389D01*
X49479423Y-7730000D01*
X49125309Y-7966611D01*
X48857161Y-8367923D01*
X48763000Y-8841302D01*
X48763000Y-9666698D01*
X48857161Y-10140077D01*
X49125309Y-10541389D01*
X49526621Y-10809537D01*
X50000000Y-10903698D01*
X50473379Y-10809537D01*
X50874691Y-10541389D01*
X51142839Y-10140077D01*
X51237000Y-9666698D01*
X51237000Y-8841302D01*
X51142839Y-8367923D01*
X50874691Y-7966611D01*
X50520577Y-7730000D01*
X50874691Y-7493389D01*
X51142839Y-7092077D01*
X51186702Y-6871565D01*
X51346745Y-7311191D01*
X51714712Y-7712704D01*
X51891220Y-7815662D01*
X51665309Y-7966611D01*
X51397161Y-8367923D01*
X51303000Y-8841302D01*
X51303000Y-9666698D01*
X51397161Y-10140077D01*
X51665309Y-10541389D01*
X52066621Y-10809537D01*
X52540000Y-10903698D01*
X53013379Y-10809537D01*
X53414691Y-10541389D01*
X53682839Y-10140077D01*
X53777000Y-9666698D01*
X53777000Y-8841302D01*
X53682839Y-8367923D01*
X53414691Y-7966611D01*
X53188780Y-7815662D01*
X53365288Y-7712704D01*
X53733255Y-7311191D01*
X53919560Y-6799426D01*
X53777556Y-6581000D01*
X52915000Y-6581000D01*
X52915000Y-6601000D01*
X52165000Y-6601000D01*
X52165000Y-6581000D01*
X52145000Y-6581000D01*
X52145000Y-5831000D01*
X52165000Y-5831000D01*
X52165000Y-4646473D01*
X52915000Y-4646473D01*
X52915000Y-5831000D01*
X53777556Y-5831000D01*
X53919560Y-5612574D01*
X53733255Y-5100809D01*
X53365288Y-4699296D01*
X53120577Y-4556554D01*
X52915000Y-4646473D01*
X52165000Y-4646473D01*
X51959423Y-4556554D01*
X51714712Y-4699296D01*
X51346745Y-5100809D01*
X51186702Y-5540435D01*
X51142839Y-5319923D01*
X50874691Y-4918611D01*
X50473379Y-4650463D01*
X50000000Y-4556302D01*
X49526621Y-4650463D01*
X49125309Y-4918611D01*
X48857161Y-5319923D01*
X48763000Y-5793302D01*
X48697000Y-5793302D01*
X48602839Y-5319923D01*
X48334691Y-4918611D01*
X47933379Y-4650463D01*
X47460000Y-4556302D01*
X46986621Y-4650463D01*
X46585309Y-4918611D01*
X46317161Y-5319923D01*
X46223000Y-5793302D01*
X46223000Y-6618698D01*
X46317161Y-7092077D01*
X46585309Y-7493389D01*
X46784816Y-7626695D01*
X46698000Y-7626695D01*
X46512665Y-7663561D01*
X46355545Y-7768545D01*
X46250561Y-7925665D01*
X46213695Y-8111000D01*
X6810802Y-8111000D01*
X7070467Y-7851335D01*
X6993469Y-7621548D01*
X6459072Y-7471858D01*
X5908070Y-7538068D01*
X5706531Y-7621548D01*
X5629533Y-7851335D01*
X4530467Y-7851335D01*
X4453469Y-7621548D01*
X3919072Y-7471858D01*
X3368070Y-7538068D01*
X3166531Y-7621548D01*
X3089533Y-7851335D01*
X550000Y-7851335D01*
X550000Y-7388665D01*
X13249533Y-7388665D01*
X13326531Y-7618452D01*
X13860928Y-7768142D01*
X14411930Y-7701932D01*
X14613469Y-7618452D01*
X14690467Y-7388665D01*
X13970000Y-6668198D01*
X13249533Y-7388665D01*
X550000Y-7388665D01*
X550000Y-6240928D01*
X12551858Y-6240928D01*
X12618068Y-6791930D01*
X12701548Y-6993469D01*
X12931335Y-7070467D01*
X13651802Y-6350000D01*
X14288198Y-6350000D01*
X15008665Y-7070467D01*
X15238452Y-6993469D01*
X15318848Y-6706454D01*
X15460711Y-7049789D01*
X15808381Y-7398066D01*
X16262866Y-7586785D01*
X16754975Y-7587214D01*
X17209789Y-7399289D01*
X17558066Y-7051619D01*
X17746785Y-6597134D01*
X17746786Y-6594975D01*
X17812786Y-6594975D01*
X18000711Y-7049789D01*
X18348381Y-7398066D01*
X18802866Y-7586785D01*
X19294975Y-7587214D01*
X19749789Y-7399289D01*
X20098066Y-7051619D01*
X20286785Y-6597134D01*
X20286786Y-6594975D01*
X20352786Y-6594975D01*
X20540711Y-7049789D01*
X20888381Y-7398066D01*
X21342866Y-7586785D01*
X21834975Y-7587214D01*
X22289789Y-7399289D01*
X22638066Y-7051619D01*
X22826785Y-6597134D01*
X22826786Y-6594975D01*
X22892786Y-6594975D01*
X23080711Y-7049789D01*
X23428381Y-7398066D01*
X23882866Y-7586785D01*
X24374975Y-7587214D01*
X24829789Y-7399289D01*
X25178066Y-7051619D01*
X25366785Y-6597134D01*
X25366786Y-6594975D01*
X25432786Y-6594975D01*
X25620711Y-7049789D01*
X25968381Y-7398066D01*
X26422866Y-7586785D01*
X26914975Y-7587214D01*
X27369789Y-7399289D01*
X27718066Y-7051619D01*
X27906785Y-6597134D01*
X27906786Y-6594975D01*
X27972786Y-6594975D01*
X28160711Y-7049789D01*
X28508381Y-7398066D01*
X28962866Y-7586785D01*
X29454975Y-7587214D01*
X29909789Y-7399289D01*
X30258066Y-7051619D01*
X30446785Y-6597134D01*
X30446786Y-6594975D01*
X30512786Y-6594975D01*
X30700711Y-7049789D01*
X31048381Y-7398066D01*
X31502866Y-7586785D01*
X31994975Y-7587214D01*
X32449789Y-7399289D01*
X32798066Y-7051619D01*
X32986785Y-6597134D01*
X32986786Y-6594975D01*
X33052786Y-6594975D01*
X33240711Y-7049789D01*
X33588381Y-7398066D01*
X34042866Y-7586785D01*
X34534975Y-7587214D01*
X34989789Y-7399289D01*
X35000431Y-7388665D01*
X36109533Y-7388665D01*
X36186531Y-7618452D01*
X36720928Y-7768142D01*
X37271930Y-7701932D01*
X37473469Y-7618452D01*
X37550467Y-7388665D01*
X36830000Y-6668198D01*
X36109533Y-7388665D01*
X35000431Y-7388665D01*
X35338066Y-7051619D01*
X35470848Y-6731845D01*
X35478068Y-6791930D01*
X35561548Y-6993469D01*
X35791335Y-7070467D01*
X36511802Y-6350000D01*
X37148198Y-6350000D01*
X37868665Y-7070467D01*
X38098452Y-6993469D01*
X38248142Y-6459072D01*
X38181932Y-5908070D01*
X38098452Y-5706531D01*
X37868665Y-5629533D01*
X37148198Y-6350000D01*
X36511802Y-6350000D01*
X35791335Y-5629533D01*
X35561548Y-5706531D01*
X35481152Y-5993546D01*
X35339289Y-5650211D01*
X34991619Y-5301934D01*
X34537134Y-5113215D01*
X34045025Y-5112786D01*
X33590211Y-5300711D01*
X33241934Y-5648381D01*
X33053215Y-6102866D01*
X33052786Y-6594975D01*
X32986786Y-6594975D01*
X32987214Y-6105025D01*
X32799289Y-5650211D01*
X32451619Y-5301934D01*
X31997134Y-5113215D01*
X31505025Y-5112786D01*
X31050211Y-5300711D01*
X30701934Y-5648381D01*
X30513215Y-6102866D01*
X30512786Y-6594975D01*
X30446786Y-6594975D01*
X30447214Y-6105025D01*
X30259289Y-5650211D01*
X29911619Y-5301934D01*
X29457134Y-5113215D01*
X28965025Y-5112786D01*
X28510211Y-5300711D01*
X28161934Y-5648381D01*
X27973215Y-6102866D01*
X27972786Y-6594975D01*
X27906786Y-6594975D01*
X27907214Y-6105025D01*
X27719289Y-5650211D01*
X27371619Y-5301934D01*
X26917134Y-5113215D01*
X26425025Y-5112786D01*
X25970211Y-5300711D01*
X25621934Y-5648381D01*
X25433215Y-6102866D01*
X25432786Y-6594975D01*
X25366786Y-6594975D01*
X25367214Y-6105025D01*
X25179289Y-5650211D01*
X24831619Y-5301934D01*
X24377134Y-5113215D01*
X23885025Y-5112786D01*
X23430211Y-5300711D01*
X23081934Y-5648381D01*
X22893215Y-6102866D01*
X22892786Y-6594975D01*
X22826786Y-6594975D01*
X22827214Y-6105025D01*
X22639289Y-5650211D01*
X22291619Y-5301934D01*
X21837134Y-5113215D01*
X21345025Y-5112786D01*
X20890211Y-5300711D01*
X20541934Y-5648381D01*
X20353215Y-6102866D01*
X20352786Y-6594975D01*
X20286786Y-6594975D01*
X20287214Y-6105025D01*
X20099289Y-5650211D01*
X19751619Y-5301934D01*
X19297134Y-5113215D01*
X18805025Y-5112786D01*
X18350211Y-5300711D01*
X18001934Y-5648381D01*
X17813215Y-6102866D01*
X17812786Y-6594975D01*
X17746786Y-6594975D01*
X17747214Y-6105025D01*
X17559289Y-5650211D01*
X17211619Y-5301934D01*
X16757134Y-5113215D01*
X16265025Y-5112786D01*
X15810211Y-5300711D01*
X15461934Y-5648381D01*
X15329152Y-5968155D01*
X15321932Y-5908070D01*
X15238452Y-5706531D01*
X15008665Y-5629533D01*
X14288198Y-6350000D01*
X13651802Y-6350000D01*
X12931335Y-5629533D01*
X12701548Y-5706531D01*
X12551858Y-6240928D01*
X550000Y-6240928D01*
X550000Y-5054171D01*
X590877Y-4848665D01*
X13249533Y-4848665D01*
X13326531Y-5078452D01*
X13330990Y-5079701D01*
X13326531Y-5081548D01*
X13249533Y-5311335D01*
X13970000Y-6031802D01*
X14690467Y-5311335D01*
X14613469Y-5081548D01*
X14609010Y-5080299D01*
X14613469Y-5078452D01*
X14690467Y-4848665D01*
X13970000Y-4128198D01*
X13249533Y-4848665D01*
X590877Y-4848665D01*
X819176Y-3700928D01*
X12551858Y-3700928D01*
X12618068Y-4251930D01*
X12701548Y-4453469D01*
X12931335Y-4530467D01*
X13651802Y-3810000D01*
X14288198Y-3810000D01*
X15008665Y-4530467D01*
X15238452Y-4453469D01*
X15318848Y-4166454D01*
X15460711Y-4509789D01*
X15808381Y-4858066D01*
X16262866Y-5046785D01*
X16754975Y-5047214D01*
X17209789Y-4859289D01*
X17558066Y-4511619D01*
X17746785Y-4057134D01*
X17746786Y-4054975D01*
X17812786Y-4054975D01*
X18000711Y-4509789D01*
X18348381Y-4858066D01*
X18802866Y-5046785D01*
X19294975Y-5047214D01*
X19749789Y-4859289D01*
X20098066Y-4511619D01*
X20286785Y-4057134D01*
X20286786Y-4054975D01*
X20352786Y-4054975D01*
X20540711Y-4509789D01*
X20888381Y-4858066D01*
X21342866Y-5046785D01*
X21834975Y-5047214D01*
X22289789Y-4859289D01*
X22638066Y-4511619D01*
X22826785Y-4057134D01*
X22826786Y-4054975D01*
X22892786Y-4054975D01*
X23080711Y-4509789D01*
X23428381Y-4858066D01*
X23882866Y-5046785D01*
X24374975Y-5047214D01*
X24829789Y-4859289D01*
X25178066Y-4511619D01*
X25366785Y-4057134D01*
X25366786Y-4054975D01*
X25432786Y-4054975D01*
X25620711Y-4509789D01*
X25968381Y-4858066D01*
X26422866Y-5046785D01*
X26914975Y-5047214D01*
X27369789Y-4859289D01*
X27718066Y-4511619D01*
X27906785Y-4057134D01*
X27906786Y-4054975D01*
X27972786Y-4054975D01*
X28160711Y-4509789D01*
X28508381Y-4858066D01*
X28962866Y-5046785D01*
X29454975Y-5047214D01*
X29909789Y-4859289D01*
X30258066Y-4511619D01*
X30446785Y-4057134D01*
X30446786Y-4054975D01*
X30512786Y-4054975D01*
X30700711Y-4509789D01*
X31048381Y-4858066D01*
X31502866Y-5046785D01*
X31994975Y-5047214D01*
X32449789Y-4859289D01*
X32798066Y-4511619D01*
X32986785Y-4057134D01*
X32986786Y-4054975D01*
X33052786Y-4054975D01*
X33240711Y-4509789D01*
X33588381Y-4858066D01*
X34042866Y-5046785D01*
X34534975Y-5047214D01*
X34989789Y-4859289D01*
X35000431Y-4848665D01*
X36109533Y-4848665D01*
X36186531Y-5078452D01*
X36190990Y-5079701D01*
X36186531Y-5081548D01*
X36109533Y-5311335D01*
X36830000Y-6031802D01*
X37550467Y-5311335D01*
X37473469Y-5081548D01*
X37469010Y-5080299D01*
X37473469Y-5078452D01*
X37550467Y-4848665D01*
X36830000Y-4128198D01*
X36109533Y-4848665D01*
X35000431Y-4848665D01*
X35338066Y-4511619D01*
X35470848Y-4191845D01*
X35478068Y-4251930D01*
X35561548Y-4453469D01*
X35791335Y-4530467D01*
X36511802Y-3810000D01*
X37148198Y-3810000D01*
X37868665Y-4530467D01*
X38098452Y-4453469D01*
X38248142Y-3919072D01*
X38181932Y-3368070D01*
X38098452Y-3166531D01*
X37868665Y-3089533D01*
X37148198Y-3810000D01*
X36511802Y-3810000D01*
X35791335Y-3089533D01*
X35561548Y-3166531D01*
X35481152Y-3453546D01*
X35339289Y-3110211D01*
X35001004Y-2771335D01*
X36109533Y-2771335D01*
X36830000Y-3491802D01*
X37550467Y-2771335D01*
X37488801Y-2587302D01*
X69493000Y-2587302D01*
X69493000Y-3412698D01*
X69587161Y-3886077D01*
X69855309Y-4287389D01*
X70256621Y-4555537D01*
X70730000Y-4649698D01*
X71203379Y-4555537D01*
X71604691Y-4287389D01*
X71872839Y-3886077D01*
X71967000Y-3412698D01*
X71967000Y-2587302D01*
X72033000Y-2587302D01*
X72033000Y-3412698D01*
X72127161Y-3886077D01*
X72395309Y-4287389D01*
X72796621Y-4555537D01*
X73270000Y-4649698D01*
X73426837Y-4618501D01*
X84288121Y-4618501D01*
X84502255Y-5058023D01*
X84868287Y-5382142D01*
X85084149Y-5487279D01*
X85275000Y-5376487D01*
X85275000Y-4425000D01*
X85725000Y-4425000D01*
X85725000Y-5376487D01*
X85915851Y-5487279D01*
X86131713Y-5382142D01*
X86497745Y-5058023D01*
X86711879Y-4618501D01*
X89288121Y-4618501D01*
X89502255Y-5058023D01*
X89868287Y-5382142D01*
X90084149Y-5487279D01*
X90275000Y-5376487D01*
X90275000Y-4425000D01*
X90725000Y-4425000D01*
X90725000Y-5376487D01*
X90915851Y-5487279D01*
X91131713Y-5382142D01*
X91497745Y-5058023D01*
X91711879Y-4618501D01*
X91588533Y-4425000D01*
X90725000Y-4425000D01*
X90275000Y-4425000D01*
X89411467Y-4425000D01*
X89288121Y-4618501D01*
X86711879Y-4618501D01*
X86588533Y-4425000D01*
X85725000Y-4425000D01*
X85275000Y-4425000D01*
X84411467Y-4425000D01*
X84288121Y-4618501D01*
X73426837Y-4618501D01*
X73743379Y-4555537D01*
X74144691Y-4287389D01*
X74412839Y-3886077D01*
X74433640Y-3781499D01*
X84288121Y-3781499D01*
X84411467Y-3975000D01*
X85275000Y-3975000D01*
X85275000Y-3023513D01*
X85725000Y-3023513D01*
X85725000Y-3975000D01*
X86588533Y-3975000D01*
X86711879Y-3781499D01*
X89288121Y-3781499D01*
X89411467Y-3975000D01*
X90275000Y-3975000D01*
X90275000Y-3023513D01*
X90725000Y-3023513D01*
X90725000Y-3975000D01*
X91588533Y-3975000D01*
X91711879Y-3781499D01*
X91497745Y-3341977D01*
X91131713Y-3017858D01*
X90915851Y-2912721D01*
X90725000Y-3023513D01*
X90275000Y-3023513D01*
X90084149Y-2912721D01*
X89868287Y-3017858D01*
X89502255Y-3341977D01*
X89288121Y-3781499D01*
X86711879Y-3781499D01*
X86497745Y-3341977D01*
X86131713Y-3017858D01*
X85915851Y-2912721D01*
X85725000Y-3023513D01*
X85275000Y-3023513D01*
X85084149Y-2912721D01*
X84868287Y-3017858D01*
X84502255Y-3341977D01*
X84288121Y-3781499D01*
X74433640Y-3781499D01*
X74507000Y-3412698D01*
X74507000Y-2587302D01*
X74412839Y-2113923D01*
X74339099Y-2003562D01*
X83078561Y-2003562D01*
X83138801Y-2149050D01*
X83490797Y-2620552D01*
X83996435Y-2921460D01*
X84225000Y-2824484D01*
X84225000Y-1775000D01*
X84775000Y-1775000D01*
X84775000Y-2824484D01*
X85003565Y-2921460D01*
X85509203Y-2620552D01*
X85861199Y-2149050D01*
X85921439Y-2003562D01*
X90078561Y-2003562D01*
X90138801Y-2149050D01*
X90490797Y-2620552D01*
X90996435Y-2921460D01*
X91225000Y-2824484D01*
X91225000Y-1775000D01*
X91775000Y-1775000D01*
X91775000Y-2824484D01*
X92003565Y-2921460D01*
X92509203Y-2620552D01*
X92861199Y-2149050D01*
X92921439Y-2003562D01*
X92821439Y-1775000D01*
X91775000Y-1775000D01*
X91225000Y-1775000D01*
X90178561Y-1775000D01*
X90078561Y-2003562D01*
X85921439Y-2003562D01*
X85821439Y-1775000D01*
X84775000Y-1775000D01*
X84225000Y-1775000D01*
X83178561Y-1775000D01*
X83078561Y-2003562D01*
X74339099Y-2003562D01*
X74144691Y-1712611D01*
X73743379Y-1444463D01*
X73270000Y-1350302D01*
X72796621Y-1444463D01*
X72395309Y-1712611D01*
X72127161Y-2113923D01*
X72033000Y-2587302D01*
X71967000Y-2587302D01*
X71872839Y-2113923D01*
X71604691Y-1712611D01*
X71203379Y-1444463D01*
X70730000Y-1350302D01*
X70256621Y-1444463D01*
X69855309Y-1712611D01*
X69587161Y-2113923D01*
X69493000Y-2587302D01*
X37488801Y-2587302D01*
X37473469Y-2541548D01*
X36939072Y-2391858D01*
X36388070Y-2458068D01*
X36186531Y-2541548D01*
X36109533Y-2771335D01*
X35001004Y-2771335D01*
X34991619Y-2761934D01*
X34537134Y-2573215D01*
X34045025Y-2572786D01*
X33590211Y-2760711D01*
X33241934Y-3108381D01*
X33053215Y-3562866D01*
X33052786Y-4054975D01*
X32986786Y-4054975D01*
X32987214Y-3565025D01*
X32799289Y-3110211D01*
X32451619Y-2761934D01*
X31997134Y-2573215D01*
X31505025Y-2572786D01*
X31050211Y-2760711D01*
X30701934Y-3108381D01*
X30513215Y-3562866D01*
X30512786Y-4054975D01*
X30446786Y-4054975D01*
X30447214Y-3565025D01*
X30259289Y-3110211D01*
X29911619Y-2761934D01*
X29457134Y-2573215D01*
X28965025Y-2572786D01*
X28510211Y-2760711D01*
X28161934Y-3108381D01*
X27973215Y-3562866D01*
X27972786Y-4054975D01*
X27906786Y-4054975D01*
X27907214Y-3565025D01*
X27719289Y-3110211D01*
X27371619Y-2761934D01*
X26917134Y-2573215D01*
X26425025Y-2572786D01*
X25970211Y-2760711D01*
X25621934Y-3108381D01*
X25433215Y-3562866D01*
X25432786Y-4054975D01*
X25366786Y-4054975D01*
X25367214Y-3565025D01*
X25179289Y-3110211D01*
X24831619Y-2761934D01*
X24377134Y-2573215D01*
X23885025Y-2572786D01*
X23430211Y-2760711D01*
X23081934Y-3108381D01*
X22893215Y-3562866D01*
X22892786Y-4054975D01*
X22826786Y-4054975D01*
X22827214Y-3565025D01*
X22639289Y-3110211D01*
X22291619Y-2761934D01*
X21837134Y-2573215D01*
X21345025Y-2572786D01*
X20890211Y-2760711D01*
X20541934Y-3108381D01*
X20353215Y-3562866D01*
X20352786Y-4054975D01*
X20286786Y-4054975D01*
X20287214Y-3565025D01*
X20099289Y-3110211D01*
X19751619Y-2761934D01*
X19297134Y-2573215D01*
X18805025Y-2572786D01*
X18350211Y-2760711D01*
X18001934Y-3108381D01*
X17813215Y-3562866D01*
X17812786Y-4054975D01*
X17746786Y-4054975D01*
X17747214Y-3565025D01*
X17559289Y-3110211D01*
X17211619Y-2761934D01*
X16757134Y-2573215D01*
X16265025Y-2572786D01*
X15810211Y-2760711D01*
X15461934Y-3108381D01*
X15329152Y-3428155D01*
X15321932Y-3368070D01*
X15238452Y-3166531D01*
X15008665Y-3089533D01*
X14288198Y-3810000D01*
X13651802Y-3810000D01*
X12931335Y-3089533D01*
X12701548Y-3166531D01*
X12551858Y-3700928D01*
X819176Y-3700928D01*
X898691Y-3301182D01*
X1252723Y-2771335D01*
X13249533Y-2771335D01*
X13970000Y-3491802D01*
X14690467Y-2771335D01*
X14613469Y-2541548D01*
X14079072Y-2391858D01*
X13528070Y-2458068D01*
X13326531Y-2541548D01*
X13249533Y-2771335D01*
X1252723Y-2771335D01*
X1860994Y-1860993D01*
X3301182Y-898691D01*
X5054171Y-550000D01*
X83363473Y-550000D01*
X83138801Y-850950D01*
X83138801Y-850950D01*
G37*
X83138801Y-850950D02*
X83078561Y-996438D01*
X83178561Y-1225000D01*
X84225000Y-1225000D01*
X84225000Y-1205000D01*
X84775000Y-1205000D01*
X84775000Y-1225000D01*
X85821439Y-1225000D01*
X85921439Y-996438D01*
X85861199Y-850950D01*
X85636527Y-550000D01*
X90363473Y-550000D01*
X90138801Y-850950D01*
X90078561Y-996438D01*
X90178561Y-1225000D01*
X91225000Y-1225000D01*
X91225000Y-1205000D01*
X91775000Y-1205000D01*
X91775000Y-1225000D01*
X92821439Y-1225000D01*
X92921439Y-996438D01*
X92861199Y-850950D01*
X92636527Y-550000D01*
X94945829Y-550000D01*
X96698818Y-898691D01*
X98139007Y-1860994D01*
X99101309Y-3301182D01*
X99450000Y-5054171D01*
X99450000Y-94945829D01*
X99101309Y-96698818D01*
X98139007Y-98139006D01*
X96698818Y-99101309D01*
X94945829Y-99450000D01*
X5054171Y-99450000D01*
X3301182Y-99101309D01*
X1860994Y-98139007D01*
X898691Y-96698818D01*
X766650Y-96035000D01*
X3582143Y-96035000D01*
X3582143Y-99085000D01*
X26417857Y-99085000D01*
X26417857Y-97309518D01*
X26575188Y-97374848D01*
X26923285Y-97375151D01*
X27245000Y-97242221D01*
X27491356Y-96996295D01*
X27624848Y-96674812D01*
X27625151Y-96326715D01*
X27575000Y-96205340D01*
X27575000Y-92412361D01*
X27741356Y-92246295D01*
X27874848Y-91924812D01*
X27875151Y-91576715D01*
X27742221Y-91255000D01*
X27496295Y-91008644D01*
X27174812Y-90875152D01*
X26826715Y-90874849D01*
X26505000Y-91007779D01*
X26258644Y-91253705D01*
X26125152Y-91575188D01*
X26124849Y-91923285D01*
X26257779Y-92245000D01*
X26425000Y-92412513D01*
X26425000Y-95687536D01*
X26255000Y-95757779D01*
X26008644Y-96003705D01*
X25995649Y-96035000D01*
X3582143Y-96035000D01*
X766650Y-96035000D01*
X711348Y-95756980D01*
X850950Y-95861199D01*
X996438Y-95921439D01*
X1225000Y-95821439D01*
X1225000Y-94775000D01*
X1775000Y-94775000D01*
X1775000Y-95821439D01*
X2003562Y-95921439D01*
X2149050Y-95861199D01*
X2620552Y-95509203D01*
X2921460Y-95003565D01*
X2824484Y-94775000D01*
X1775000Y-94775000D01*
X1225000Y-94775000D01*
X1205000Y-94775000D01*
X1205000Y-94225000D01*
X1225000Y-94225000D01*
X1225000Y-93178561D01*
X1775000Y-93178561D01*
X1775000Y-94225000D01*
X2824484Y-94225000D01*
X2921460Y-93996435D01*
X2873505Y-93915851D01*
X2912721Y-93915851D01*
X3017858Y-94131713D01*
X3341977Y-94497745D01*
X3781499Y-94711879D01*
X3975000Y-94588533D01*
X3975000Y-93725000D01*
X4425000Y-93725000D01*
X4425000Y-94588533D01*
X4618501Y-94711879D01*
X5058023Y-94497745D01*
X5382142Y-94131713D01*
X5487279Y-93915851D01*
X5376487Y-93725000D01*
X4425000Y-93725000D01*
X3975000Y-93725000D01*
X3023513Y-93725000D01*
X2912721Y-93915851D01*
X2873505Y-93915851D01*
X2620552Y-93490797D01*
X2149050Y-93138801D01*
X2017058Y-93084149D01*
X2912721Y-93084149D01*
X3023513Y-93275000D01*
X3975000Y-93275000D01*
X3975000Y-92411467D01*
X4425000Y-92411467D01*
X4425000Y-93275000D01*
X5376487Y-93275000D01*
X5487279Y-93084149D01*
X5382142Y-92868287D01*
X5058023Y-92502255D01*
X4618501Y-92288121D01*
X4425000Y-92411467D01*
X3975000Y-92411467D01*
X3781499Y-92288121D01*
X3341977Y-92502255D01*
X3017858Y-92868287D01*
X2912721Y-93084149D01*
X2017058Y-93084149D01*
X2003562Y-93078561D01*
X1775000Y-93178561D01*
X1225000Y-93178561D01*
X996438Y-93078561D01*
X850950Y-93138801D01*
X550000Y-93363473D01*
X550000Y-88636527D01*
X850950Y-88861199D01*
X996438Y-88921439D01*
X1225000Y-88821439D01*
X1225000Y-87775000D01*
X1775000Y-87775000D01*
X1775000Y-88821439D01*
X2003562Y-88921439D01*
X2017057Y-88915851D01*
X2912721Y-88915851D01*
X3017858Y-89131713D01*
X3341977Y-89497745D01*
X3781499Y-89711879D01*
X3975000Y-89588533D01*
X3975000Y-88725000D01*
X4425000Y-88725000D01*
X4425000Y-89588533D01*
X4618501Y-89711879D01*
X5058023Y-89497745D01*
X5382142Y-89131713D01*
X5487279Y-88915851D01*
X5379390Y-88730000D01*
X46826302Y-88730000D01*
X46920463Y-89203379D01*
X47188611Y-89604691D01*
X47589923Y-89872839D01*
X48063302Y-89967000D01*
X48888698Y-89967000D01*
X49362077Y-89872839D01*
X49763389Y-89604691D01*
X49914338Y-89378780D01*
X50017296Y-89555288D01*
X50418809Y-89923255D01*
X50629621Y-90000000D01*
X50418809Y-90076745D01*
X50017296Y-90444712D01*
X49914338Y-90621220D01*
X49763389Y-90395309D01*
X49362077Y-90127161D01*
X48888698Y-90033000D01*
X48063302Y-90033000D01*
X47589923Y-90127161D01*
X47188611Y-90395309D01*
X46920463Y-90796621D01*
X46826302Y-91270000D01*
X46920463Y-91743379D01*
X47188611Y-92144691D01*
X47589923Y-92412839D01*
X48063302Y-92507000D01*
X48888698Y-92507000D01*
X49362077Y-92412839D01*
X49763389Y-92144691D01*
X49914338Y-91918780D01*
X50017296Y-92095288D01*
X50418809Y-92463255D01*
X50930574Y-92649560D01*
X51149000Y-92507556D01*
X51149000Y-91645000D01*
X51899000Y-91645000D01*
X51899000Y-92507556D01*
X52117426Y-92649560D01*
X52629191Y-92463255D01*
X53030704Y-92095288D01*
X53173446Y-91850577D01*
X53083527Y-91645000D01*
X51899000Y-91645000D01*
X51149000Y-91645000D01*
X51129000Y-91645000D01*
X51129000Y-90895000D01*
X51149000Y-90895000D01*
X51149000Y-90032444D01*
X51099096Y-90000000D01*
X51149000Y-89967556D01*
X51149000Y-89105000D01*
X51899000Y-89105000D01*
X51899000Y-89967556D01*
X51948904Y-90000000D01*
X51899000Y-90032444D01*
X51899000Y-90895000D01*
X53083527Y-90895000D01*
X53173446Y-90689423D01*
X53030704Y-90444712D01*
X52629191Y-90076745D01*
X52418379Y-90000000D01*
X52629191Y-89923255D01*
X53030704Y-89555288D01*
X53173446Y-89310577D01*
X53083527Y-89105000D01*
X51899000Y-89105000D01*
X51149000Y-89105000D01*
X51129000Y-89105000D01*
X51129000Y-88355000D01*
X51149000Y-88355000D01*
X51149000Y-87492444D01*
X51899000Y-87492444D01*
X51899000Y-88355000D01*
X53083527Y-88355000D01*
X53173446Y-88149423D01*
X53030704Y-87904712D01*
X52629191Y-87536745D01*
X52117426Y-87350440D01*
X51899000Y-87492444D01*
X51149000Y-87492444D01*
X50930574Y-87350440D01*
X50418809Y-87536745D01*
X50017296Y-87904712D01*
X49914338Y-88081220D01*
X49763389Y-87855309D01*
X49362077Y-87587161D01*
X48888698Y-87493000D01*
X48063302Y-87493000D01*
X47589923Y-87587161D01*
X47188611Y-87855309D01*
X46920463Y-88256621D01*
X46826302Y-88730000D01*
X5379390Y-88730000D01*
X5376487Y-88725000D01*
X4425000Y-88725000D01*
X3975000Y-88725000D01*
X3023513Y-88725000D01*
X2912721Y-88915851D01*
X2017057Y-88915851D01*
X2149050Y-88861199D01*
X2620552Y-88509203D01*
X2873504Y-88084149D01*
X2912721Y-88084149D01*
X3023513Y-88275000D01*
X3975000Y-88275000D01*
X3975000Y-87411467D01*
X4425000Y-87411467D01*
X4425000Y-88275000D01*
X5376487Y-88275000D01*
X5487279Y-88084149D01*
X5382142Y-87868287D01*
X5058023Y-87502255D01*
X4618501Y-87288121D01*
X4425000Y-87411467D01*
X3975000Y-87411467D01*
X3781499Y-87288121D01*
X3341977Y-87502255D01*
X3017858Y-87868287D01*
X2912721Y-88084149D01*
X2873504Y-88084149D01*
X2921460Y-88003565D01*
X2824484Y-87775000D01*
X1775000Y-87775000D01*
X1225000Y-87775000D01*
X1205000Y-87775000D01*
X1205000Y-87225000D01*
X1225000Y-87225000D01*
X1225000Y-86178561D01*
X1775000Y-86178561D01*
X1775000Y-87225000D01*
X2824484Y-87225000D01*
X2921460Y-86996435D01*
X2620552Y-86490797D01*
X2149050Y-86138801D01*
X2003562Y-86078561D01*
X1775000Y-86178561D01*
X1225000Y-86178561D01*
X996438Y-86078561D01*
X850950Y-86138801D01*
X550000Y-86363473D01*
X550000Y-83588665D01*
X3089533Y-83588665D01*
X3166531Y-83818452D01*
X3700928Y-83968142D01*
X4251930Y-83901932D01*
X4453469Y-83818452D01*
X4530467Y-83588665D01*
X5629533Y-83588665D01*
X5706531Y-83818452D01*
X6240928Y-83968142D01*
X6791930Y-83901932D01*
X6993469Y-83818452D01*
X7070467Y-83588665D01*
X6350000Y-82868198D01*
X5629533Y-83588665D01*
X4530467Y-83588665D01*
X3810000Y-82868198D01*
X3089533Y-83588665D01*
X550000Y-83588665D01*
X550000Y-82440928D01*
X2391858Y-82440928D01*
X2458068Y-82991930D01*
X2541548Y-83193469D01*
X2771335Y-83270467D01*
X3491802Y-82550000D01*
X4128198Y-82550000D01*
X4848665Y-83270467D01*
X5078452Y-83193469D01*
X5079701Y-83189010D01*
X5081548Y-83193469D01*
X5311335Y-83270467D01*
X6031802Y-82550000D01*
X6668198Y-82550000D01*
X7388665Y-83270467D01*
X7618452Y-83193469D01*
X7768142Y-82659072D01*
X7701932Y-82108070D01*
X7618452Y-81906531D01*
X7388665Y-81829533D01*
X6668198Y-82550000D01*
X6031802Y-82550000D01*
X5311335Y-81829533D01*
X5081548Y-81906531D01*
X5080299Y-81910990D01*
X5078452Y-81906531D01*
X4848665Y-81829533D01*
X4128198Y-82550000D01*
X3491802Y-82550000D01*
X2771335Y-81829533D01*
X2541548Y-81906531D01*
X2391858Y-82440928D01*
X550000Y-82440928D01*
X550000Y-80254975D01*
X2572786Y-80254975D01*
X2760711Y-80709789D01*
X3108381Y-81058066D01*
X3428155Y-81190848D01*
X3368070Y-81198068D01*
X3166531Y-81281548D01*
X3089533Y-81511335D01*
X3810000Y-82231802D01*
X4530467Y-81511335D01*
X4453469Y-81281548D01*
X4166454Y-81201152D01*
X4509789Y-81059289D01*
X4858066Y-80711619D01*
X5046785Y-80257134D01*
X5046786Y-80254975D01*
X5112786Y-80254975D01*
X5300711Y-80709789D01*
X5648381Y-81058066D01*
X5968155Y-81190848D01*
X5908070Y-81198068D01*
X5706531Y-81281548D01*
X5629533Y-81511335D01*
X6350000Y-82231802D01*
X7070467Y-81511335D01*
X6993469Y-81281548D01*
X6706454Y-81201152D01*
X7049789Y-81059289D01*
X7398066Y-80711619D01*
X7586785Y-80257134D01*
X7587214Y-79765025D01*
X7399289Y-79310211D01*
X7051619Y-78961934D01*
X6597134Y-78773215D01*
X6105025Y-78772786D01*
X5650211Y-78960711D01*
X5301934Y-79308381D01*
X5113215Y-79762866D01*
X5112786Y-80254975D01*
X5046786Y-80254975D01*
X5047214Y-79765025D01*
X4859289Y-79310211D01*
X4511619Y-78961934D01*
X4057134Y-78773215D01*
X3565025Y-78772786D01*
X3110211Y-78960711D01*
X2761934Y-79308381D01*
X2573215Y-79762866D01*
X2572786Y-80254975D01*
X550000Y-80254975D01*
X550000Y-77714975D01*
X2572786Y-77714975D01*
X2760711Y-78169789D01*
X3108381Y-78518066D01*
X3562866Y-78706785D01*
X4054975Y-78707214D01*
X4509789Y-78519289D01*
X4858066Y-78171619D01*
X5046785Y-77717134D01*
X5046786Y-77714975D01*
X5112786Y-77714975D01*
X5300711Y-78169789D01*
X5648381Y-78518066D01*
X6102866Y-78706785D01*
X6594975Y-78707214D01*
X7049789Y-78519289D01*
X7398066Y-78171619D01*
X7586785Y-77717134D01*
X7587214Y-77225025D01*
X7399289Y-76770211D01*
X7051619Y-76421934D01*
X6685722Y-76270000D01*
X48350302Y-76270000D01*
X48444463Y-76743379D01*
X48712611Y-77144691D01*
X49113923Y-77412839D01*
X49587302Y-77507000D01*
X50412698Y-77507000D01*
X50886077Y-77412839D01*
X51287389Y-77144691D01*
X51555537Y-76743379D01*
X51649698Y-76270000D01*
X51555537Y-75796621D01*
X51287389Y-75395309D01*
X50886077Y-75127161D01*
X50412698Y-75033000D01*
X49587302Y-75033000D01*
X49113923Y-75127161D01*
X48712611Y-75395309D01*
X48444463Y-75796621D01*
X48350302Y-76270000D01*
X6685722Y-76270000D01*
X6597134Y-76233215D01*
X6105025Y-76232786D01*
X5650211Y-76420711D01*
X5301934Y-76768381D01*
X5113215Y-77222866D01*
X5112786Y-77714975D01*
X5046786Y-77714975D01*
X5047214Y-77225025D01*
X4859289Y-76770211D01*
X4511619Y-76421934D01*
X4057134Y-76233215D01*
X3565025Y-76232786D01*
X3110211Y-76420711D01*
X2761934Y-76768381D01*
X2573215Y-77222866D01*
X2572786Y-77714975D01*
X550000Y-77714975D01*
X550000Y-75174975D01*
X2572786Y-75174975D01*
X2760711Y-75629789D01*
X3108381Y-75978066D01*
X3562866Y-76166785D01*
X4054975Y-76167214D01*
X4509789Y-75979289D01*
X4858066Y-75631619D01*
X5046785Y-75177134D01*
X5046786Y-75174975D01*
X5112786Y-75174975D01*
X5300711Y-75629789D01*
X5648381Y-75978066D01*
X6102866Y-76166785D01*
X6594975Y-76167214D01*
X7049789Y-75979289D01*
X7398066Y-75631619D01*
X7586785Y-75177134D01*
X7587214Y-74685025D01*
X7399289Y-74230211D01*
X7051619Y-73881934D01*
X6685722Y-73730000D01*
X48350302Y-73730000D01*
X48444463Y-74203379D01*
X48712611Y-74604691D01*
X49113923Y-74872839D01*
X49587302Y-74967000D01*
X50412698Y-74967000D01*
X50886077Y-74872839D01*
X51287389Y-74604691D01*
X51555537Y-74203379D01*
X51649698Y-73730000D01*
X51555537Y-73256621D01*
X51287389Y-72855309D01*
X50886077Y-72587161D01*
X50412698Y-72493000D01*
X49587302Y-72493000D01*
X49113923Y-72587161D01*
X48712611Y-72855309D01*
X48444463Y-73256621D01*
X48350302Y-73730000D01*
X6685722Y-73730000D01*
X6597134Y-73693215D01*
X6105025Y-73692786D01*
X5650211Y-73880711D01*
X5301934Y-74228381D01*
X5113215Y-74682866D01*
X5112786Y-75174975D01*
X5046786Y-75174975D01*
X5047214Y-74685025D01*
X4859289Y-74230211D01*
X4511619Y-73881934D01*
X4057134Y-73693215D01*
X3565025Y-73692786D01*
X3110211Y-73880711D01*
X2761934Y-74228381D01*
X2573215Y-74682866D01*
X2572786Y-75174975D01*
X550000Y-75174975D01*
X550000Y-72634975D01*
X2572786Y-72634975D01*
X2760711Y-73089789D01*
X3108381Y-73438066D01*
X3562866Y-73626785D01*
X4054975Y-73627214D01*
X4509789Y-73439289D01*
X4858066Y-73091619D01*
X5046785Y-72637134D01*
X5046786Y-72634975D01*
X5112786Y-72634975D01*
X5300711Y-73089789D01*
X5648381Y-73438066D01*
X6102866Y-73626785D01*
X6594975Y-73627214D01*
X7049789Y-73439289D01*
X7398066Y-73091619D01*
X7586785Y-72637134D01*
X7587214Y-72145025D01*
X7399289Y-71690211D01*
X7051619Y-71341934D01*
X6597134Y-71153215D01*
X6105025Y-71152786D01*
X5650211Y-71340711D01*
X5301934Y-71688381D01*
X5113215Y-72142866D01*
X5112786Y-72634975D01*
X5046786Y-72634975D01*
X5047214Y-72145025D01*
X4859289Y-71690211D01*
X4511619Y-71341934D01*
X4057134Y-71153215D01*
X3565025Y-71152786D01*
X3110211Y-71340711D01*
X2761934Y-71688381D01*
X2573215Y-72142866D01*
X2572786Y-72634975D01*
X550000Y-72634975D01*
X550000Y-70094975D01*
X2572786Y-70094975D01*
X2760711Y-70549789D01*
X3108381Y-70898066D01*
X3562866Y-71086785D01*
X4054975Y-71087214D01*
X4509789Y-70899289D01*
X4858066Y-70551619D01*
X5046785Y-70097134D01*
X5046786Y-70094975D01*
X5112786Y-70094975D01*
X5300711Y-70549789D01*
X5648381Y-70898066D01*
X6102866Y-71086785D01*
X6594975Y-71087214D01*
X7049789Y-70899289D01*
X7398066Y-70551619D01*
X7586785Y-70097134D01*
X7587214Y-69605025D01*
X7399289Y-69150211D01*
X7051619Y-68801934D01*
X6597134Y-68613215D01*
X6105025Y-68612786D01*
X5650211Y-68800711D01*
X5301934Y-69148381D01*
X5113215Y-69602866D01*
X5112786Y-70094975D01*
X5046786Y-70094975D01*
X5047214Y-69605025D01*
X4859289Y-69150211D01*
X4511619Y-68801934D01*
X4057134Y-68613215D01*
X3565025Y-68612786D01*
X3110211Y-68800711D01*
X2761934Y-69148381D01*
X2573215Y-69602866D01*
X2572786Y-70094975D01*
X550000Y-70094975D01*
X550000Y-67554975D01*
X2572786Y-67554975D01*
X2760711Y-68009789D01*
X3108381Y-68358066D01*
X3562866Y-68546785D01*
X4054975Y-68547214D01*
X4509789Y-68359289D01*
X4858066Y-68011619D01*
X5046785Y-67557134D01*
X5046786Y-67554975D01*
X5112786Y-67554975D01*
X5300711Y-68009789D01*
X5648381Y-68358066D01*
X6102866Y-68546785D01*
X6594975Y-68547214D01*
X7049789Y-68359289D01*
X7398066Y-68011619D01*
X7586785Y-67557134D01*
X7587214Y-67065025D01*
X7399289Y-66610211D01*
X7051619Y-66261934D01*
X6597134Y-66073215D01*
X6105025Y-66072786D01*
X5650211Y-66260711D01*
X5301934Y-66608381D01*
X5113215Y-67062866D01*
X5112786Y-67554975D01*
X5046786Y-67554975D01*
X5047214Y-67065025D01*
X4859289Y-66610211D01*
X4511619Y-66261934D01*
X4057134Y-66073215D01*
X3565025Y-66072786D01*
X3110211Y-66260711D01*
X2761934Y-66608381D01*
X2573215Y-67062866D01*
X2572786Y-67554975D01*
X550000Y-67554975D01*
X550000Y-65014975D01*
X2572786Y-65014975D01*
X2760711Y-65469789D01*
X3108381Y-65818066D01*
X3562866Y-66006785D01*
X4054975Y-66007214D01*
X4509789Y-65819289D01*
X4858066Y-65471619D01*
X5046785Y-65017134D01*
X5046786Y-65014975D01*
X5112786Y-65014975D01*
X5300711Y-65469789D01*
X5648381Y-65818066D01*
X6102866Y-66006785D01*
X6594975Y-66007214D01*
X7049789Y-65819289D01*
X7398066Y-65471619D01*
X7586785Y-65017134D01*
X7587214Y-64525025D01*
X7399289Y-64070211D01*
X7051619Y-63721934D01*
X6597134Y-63533215D01*
X6105025Y-63532786D01*
X5650211Y-63720711D01*
X5301934Y-64068381D01*
X5113215Y-64522866D01*
X5112786Y-65014975D01*
X5046786Y-65014975D01*
X5047214Y-64525025D01*
X4859289Y-64070211D01*
X4511619Y-63721934D01*
X4057134Y-63533215D01*
X3565025Y-63532786D01*
X3110211Y-63720711D01*
X2761934Y-64068381D01*
X2573215Y-64522866D01*
X2572786Y-65014975D01*
X550000Y-65014975D01*
X550000Y-62474975D01*
X2572786Y-62474975D01*
X2760711Y-62929789D01*
X3108381Y-63278066D01*
X3562866Y-63466785D01*
X4054975Y-63467214D01*
X4509789Y-63279289D01*
X4858066Y-62931619D01*
X5046785Y-62477134D01*
X5046786Y-62474975D01*
X5112786Y-62474975D01*
X5300711Y-62929789D01*
X5648381Y-63278066D01*
X6102866Y-63466785D01*
X6594975Y-63467214D01*
X7049789Y-63279289D01*
X7155978Y-63173285D01*
X38624849Y-63173285D01*
X38757779Y-63495000D01*
X38925000Y-63662513D01*
X38925000Y-66837461D01*
X38858640Y-66903705D01*
X38725148Y-67225188D01*
X38724845Y-67573285D01*
X38857775Y-67895000D01*
X39103701Y-68141356D01*
X39425184Y-68274848D01*
X39773281Y-68275151D01*
X40094996Y-68142221D01*
X40341352Y-67896295D01*
X40474844Y-67574812D01*
X40475147Y-67226715D01*
X40342217Y-66905000D01*
X40096291Y-66658644D01*
X40075000Y-66649803D01*
X40075000Y-63662361D01*
X40241356Y-63496295D01*
X40374848Y-63174812D01*
X40375151Y-62826715D01*
X40242221Y-62505000D01*
X39996295Y-62258644D01*
X39674812Y-62125152D01*
X39326715Y-62124849D01*
X39005000Y-62257779D01*
X38758644Y-62503705D01*
X38625152Y-62825188D01*
X38624849Y-63173285D01*
X7155978Y-63173285D01*
X7398066Y-62931619D01*
X7586785Y-62477134D01*
X7587214Y-61985025D01*
X7497660Y-61768285D01*
X43709849Y-61768285D01*
X43842779Y-62090000D01*
X44088705Y-62336356D01*
X44310001Y-62428247D01*
X44310001Y-64417843D01*
X44351581Y-64626883D01*
X44353770Y-64637886D01*
X44475001Y-64819320D01*
X44475001Y-67620906D01*
X44255000Y-67711809D01*
X44008644Y-67957735D01*
X43875152Y-68279218D01*
X43874849Y-68627315D01*
X44007779Y-68949030D01*
X44253705Y-69195386D01*
X44575188Y-69328878D01*
X44923285Y-69329181D01*
X45245000Y-69196251D01*
X45249793Y-69191467D01*
X45253705Y-69195386D01*
X45575188Y-69328878D01*
X45923285Y-69329181D01*
X46245000Y-69196251D01*
X46491356Y-68950325D01*
X46624848Y-68628842D01*
X46625151Y-68280745D01*
X46492221Y-67959030D01*
X46246295Y-67712674D01*
X46024999Y-67620783D01*
X46024999Y-64417157D01*
X45981230Y-64197114D01*
X45967293Y-64176256D01*
X45859999Y-64015679D01*
X45859999Y-62428124D01*
X46080000Y-62337221D01*
X46326356Y-62091295D01*
X46459848Y-61769812D01*
X46460151Y-61421715D01*
X46327221Y-61100000D01*
X46081295Y-60853644D01*
X45759812Y-60720152D01*
X45411715Y-60719849D01*
X45090000Y-60852779D01*
X45085207Y-60857563D01*
X45081295Y-60853644D01*
X44759812Y-60720152D01*
X44411715Y-60719849D01*
X44090000Y-60852779D01*
X43843644Y-61098705D01*
X43710152Y-61420188D01*
X43709849Y-61768285D01*
X7497660Y-61768285D01*
X7399289Y-61530211D01*
X7051619Y-61181934D01*
X6731845Y-61049152D01*
X6791930Y-61041932D01*
X6993469Y-60958452D01*
X7070467Y-60728665D01*
X6350000Y-60008198D01*
X5629533Y-60728665D01*
X5706531Y-60958452D01*
X5993546Y-61038848D01*
X5650211Y-61180711D01*
X5301934Y-61528381D01*
X5113215Y-61982866D01*
X5112786Y-62474975D01*
X5046786Y-62474975D01*
X5047214Y-61985025D01*
X4859289Y-61530211D01*
X4511619Y-61181934D01*
X4191845Y-61049152D01*
X4251930Y-61041932D01*
X4453469Y-60958452D01*
X4530467Y-60728665D01*
X3810000Y-60008198D01*
X3089533Y-60728665D01*
X3166531Y-60958452D01*
X3453546Y-61038848D01*
X3110211Y-61180711D01*
X2761934Y-61528381D01*
X2573215Y-61982866D01*
X2572786Y-62474975D01*
X550000Y-62474975D01*
X550000Y-59580928D01*
X2391858Y-59580928D01*
X2458068Y-60131930D01*
X2541548Y-60333469D01*
X2771335Y-60410467D01*
X3491802Y-59690000D01*
X4128198Y-59690000D01*
X4848665Y-60410467D01*
X5078452Y-60333469D01*
X5079701Y-60329010D01*
X5081548Y-60333469D01*
X5311335Y-60410467D01*
X6031802Y-59690000D01*
X6668198Y-59690000D01*
X7388665Y-60410467D01*
X7618452Y-60333469D01*
X7768142Y-59799072D01*
X7701932Y-59248070D01*
X7618452Y-59046531D01*
X7388665Y-58969533D01*
X6668198Y-59690000D01*
X6031802Y-59690000D01*
X5311335Y-58969533D01*
X5081548Y-59046531D01*
X5080299Y-59050990D01*
X5078452Y-59046531D01*
X4848665Y-58969533D01*
X4128198Y-59690000D01*
X3491802Y-59690000D01*
X2771335Y-58969533D01*
X2541548Y-59046531D01*
X2391858Y-59580928D01*
X550000Y-59580928D01*
X550000Y-58188665D01*
X3089533Y-58188665D01*
X3166531Y-58418452D01*
X3170990Y-58419701D01*
X3166531Y-58421548D01*
X3089533Y-58651335D01*
X3810000Y-59371802D01*
X4530467Y-58651335D01*
X4453469Y-58421548D01*
X4449010Y-58420299D01*
X4453469Y-58418452D01*
X4530467Y-58188665D01*
X5629533Y-58188665D01*
X5706531Y-58418452D01*
X5710990Y-58419701D01*
X5706531Y-58421548D01*
X5629533Y-58651335D01*
X6350000Y-59371802D01*
X7070467Y-58651335D01*
X6993469Y-58421548D01*
X6989010Y-58420299D01*
X6993469Y-58418452D01*
X7070467Y-58188665D01*
X7055087Y-58173285D01*
X36374849Y-58173285D01*
X36507779Y-58495000D01*
X36675000Y-58662513D01*
X36675000Y-60087639D01*
X36508644Y-60253705D01*
X36375152Y-60575188D01*
X36374849Y-60923285D01*
X36507779Y-61245000D01*
X36753705Y-61491356D01*
X37075188Y-61624848D01*
X37423285Y-61625151D01*
X37745000Y-61492221D01*
X37991356Y-61246295D01*
X38124848Y-60924812D01*
X38125151Y-60576715D01*
X37992221Y-60255000D01*
X37825000Y-60087487D01*
X37825000Y-58662361D01*
X37991356Y-58496295D01*
X38124848Y-58174812D01*
X38125151Y-57826715D01*
X37992221Y-57505000D01*
X37746295Y-57258644D01*
X37424812Y-57125152D01*
X37076715Y-57124849D01*
X36755000Y-57257779D01*
X36508644Y-57503705D01*
X36375152Y-57825188D01*
X36374849Y-58173285D01*
X7055087Y-58173285D01*
X6350000Y-57468198D01*
X5629533Y-58188665D01*
X4530467Y-58188665D01*
X3810000Y-57468198D01*
X3089533Y-58188665D01*
X550000Y-58188665D01*
X550000Y-57040928D01*
X2391858Y-57040928D01*
X2458068Y-57591930D01*
X2541548Y-57793469D01*
X2771335Y-57870467D01*
X3491802Y-57150000D01*
X4128198Y-57150000D01*
X4848665Y-57870467D01*
X5078452Y-57793469D01*
X5079701Y-57789010D01*
X5081548Y-57793469D01*
X5311335Y-57870467D01*
X6031802Y-57150000D01*
X6668198Y-57150000D01*
X7388665Y-57870467D01*
X7618452Y-57793469D01*
X7768142Y-57259072D01*
X7701932Y-56708070D01*
X7618452Y-56506531D01*
X7388665Y-56429533D01*
X6668198Y-57150000D01*
X6031802Y-57150000D01*
X5311335Y-56429533D01*
X5081548Y-56506531D01*
X5080299Y-56510990D01*
X5078452Y-56506531D01*
X4848665Y-56429533D01*
X4128198Y-57150000D01*
X3491802Y-57150000D01*
X2771335Y-56429533D01*
X2541548Y-56506531D01*
X2391858Y-57040928D01*
X550000Y-57040928D01*
X550000Y-54854975D01*
X2572786Y-54854975D01*
X2760711Y-55309789D01*
X3108381Y-55658066D01*
X3428155Y-55790848D01*
X3368070Y-55798068D01*
X3166531Y-55881548D01*
X3089533Y-56111335D01*
X3810000Y-56831802D01*
X4530467Y-56111335D01*
X4453469Y-55881548D01*
X4166454Y-55801152D01*
X4509789Y-55659289D01*
X4858066Y-55311619D01*
X5046785Y-54857134D01*
X5046786Y-54854975D01*
X5112786Y-54854975D01*
X5300711Y-55309789D01*
X5648381Y-55658066D01*
X5968155Y-55790848D01*
X5908070Y-55798068D01*
X5706531Y-55881548D01*
X5629533Y-56111335D01*
X6350000Y-56831802D01*
X7070467Y-56111335D01*
X6993469Y-55881548D01*
X6706454Y-55801152D01*
X7049789Y-55659289D01*
X7398066Y-55311619D01*
X7586785Y-54857134D01*
X7587214Y-54365025D01*
X7399289Y-53910211D01*
X7239358Y-53750000D01*
X51275000Y-53750000D01*
X51349217Y-54123117D01*
X51560571Y-54439429D01*
X53775000Y-56653858D01*
X53775000Y-62846142D01*
X52310571Y-64310571D01*
X52099217Y-64626883D01*
X52059923Y-64824429D01*
X52025000Y-65000000D01*
X52025000Y-68000000D01*
X52099217Y-68373116D01*
X52310571Y-68689429D01*
X52626884Y-68900783D01*
X53000000Y-68975000D01*
X53373116Y-68900783D01*
X53689429Y-68689429D01*
X53900783Y-68373116D01*
X53975000Y-68000000D01*
X53975000Y-65403858D01*
X55439429Y-63939429D01*
X55650783Y-63623117D01*
X55725000Y-63250000D01*
X55725000Y-61962601D01*
X55753705Y-61991356D01*
X56075188Y-62124848D01*
X56423285Y-62125151D01*
X56745000Y-61992221D01*
X56991356Y-61746295D01*
X57124848Y-61424812D01*
X57125151Y-61076715D01*
X56992221Y-60755000D01*
X56850000Y-60612530D01*
X56850000Y-60248528D01*
X57223551Y-59874977D01*
X57423285Y-59875151D01*
X57745000Y-59742221D01*
X57991356Y-59496295D01*
X58124848Y-59174812D01*
X58125151Y-58826715D01*
X57992221Y-58505000D01*
X57746295Y-58258644D01*
X57424812Y-58125152D01*
X57076715Y-58124849D01*
X56755000Y-58257779D01*
X56508644Y-58503705D01*
X56375152Y-58825188D01*
X56374977Y-59026495D01*
X55825736Y-59575736D01*
X55725000Y-59726498D01*
X55725000Y-56250000D01*
X55650783Y-55876884D01*
X55650783Y-55876883D01*
X55439429Y-55560571D01*
X52939429Y-53060571D01*
X52623117Y-52849217D01*
X52250000Y-52775000D01*
X51876883Y-52849217D01*
X51560571Y-53060571D01*
X51349217Y-53376883D01*
X51275000Y-53750000D01*
X7239358Y-53750000D01*
X7051619Y-53561934D01*
X6597134Y-53373215D01*
X6105025Y-53372786D01*
X5650211Y-53560711D01*
X5301934Y-53908381D01*
X5113215Y-54362866D01*
X5112786Y-54854975D01*
X5046786Y-54854975D01*
X5047214Y-54365025D01*
X4859289Y-53910211D01*
X4511619Y-53561934D01*
X4057134Y-53373215D01*
X3565025Y-53372786D01*
X3110211Y-53560711D01*
X2761934Y-53908381D01*
X2573215Y-54362866D01*
X2572786Y-54854975D01*
X550000Y-54854975D01*
X550000Y-52314975D01*
X2572786Y-52314975D01*
X2760711Y-52769789D01*
X3108381Y-53118066D01*
X3562866Y-53306785D01*
X4054975Y-53307214D01*
X4509789Y-53119289D01*
X4858066Y-52771619D01*
X5046785Y-52317134D01*
X5046786Y-52314975D01*
X5112786Y-52314975D01*
X5300711Y-52769789D01*
X5648381Y-53118066D01*
X6102866Y-53306785D01*
X6594975Y-53307214D01*
X7049789Y-53119289D01*
X7398066Y-52771619D01*
X7586785Y-52317134D01*
X7587214Y-51825025D01*
X7399289Y-51370211D01*
X7051619Y-51021934D01*
X6597134Y-50833215D01*
X6105025Y-50832786D01*
X5650211Y-51020711D01*
X5301934Y-51368381D01*
X5113215Y-51822866D01*
X5112786Y-52314975D01*
X5046786Y-52314975D01*
X5047214Y-51825025D01*
X4859289Y-51370211D01*
X4511619Y-51021934D01*
X4057134Y-50833215D01*
X3565025Y-50832786D01*
X3110211Y-51020711D01*
X2761934Y-51368381D01*
X2573215Y-51822866D01*
X2572786Y-52314975D01*
X550000Y-52314975D01*
X550000Y-49774975D01*
X2572786Y-49774975D01*
X2760711Y-50229789D01*
X3108381Y-50578066D01*
X3562866Y-50766785D01*
X4054975Y-50767214D01*
X4509789Y-50579289D01*
X4858066Y-50231619D01*
X5046785Y-49777134D01*
X5046786Y-49774975D01*
X5112786Y-49774975D01*
X5300711Y-50229789D01*
X5648381Y-50578066D01*
X6102866Y-50766785D01*
X6594975Y-50767214D01*
X7049789Y-50579289D01*
X7398066Y-50231619D01*
X7586785Y-49777134D01*
X7587214Y-49285025D01*
X7399289Y-48830211D01*
X7051619Y-48481934D01*
X6597134Y-48293215D01*
X6105025Y-48292786D01*
X5650211Y-48480711D01*
X5301934Y-48828381D01*
X5113215Y-49282866D01*
X5112786Y-49774975D01*
X5046786Y-49774975D01*
X5047214Y-49285025D01*
X4859289Y-48830211D01*
X4511619Y-48481934D01*
X4057134Y-48293215D01*
X3565025Y-48292786D01*
X3110211Y-48480711D01*
X2761934Y-48828381D01*
X2573215Y-49282866D01*
X2572786Y-49774975D01*
X550000Y-49774975D01*
X550000Y-47234975D01*
X2572786Y-47234975D01*
X2760711Y-47689789D01*
X3108381Y-48038066D01*
X3562866Y-48226785D01*
X4054975Y-48227214D01*
X4509789Y-48039289D01*
X4858066Y-47691619D01*
X5046785Y-47237134D01*
X5046786Y-47234975D01*
X5112786Y-47234975D01*
X5300711Y-47689789D01*
X5648381Y-48038066D01*
X6102866Y-48226785D01*
X6594975Y-48227214D01*
X7049789Y-48039289D01*
X7398066Y-47691619D01*
X7586785Y-47237134D01*
X7587214Y-46745025D01*
X7399289Y-46290211D01*
X7051619Y-45941934D01*
X6597134Y-45753215D01*
X6105025Y-45752786D01*
X5650211Y-45940711D01*
X5301934Y-46288381D01*
X5113215Y-46742866D01*
X5112786Y-47234975D01*
X5046786Y-47234975D01*
X5047214Y-46745025D01*
X4859289Y-46290211D01*
X4511619Y-45941934D01*
X4057134Y-45753215D01*
X3565025Y-45752786D01*
X3110211Y-45940711D01*
X2761934Y-46288381D01*
X2573215Y-46742866D01*
X2572786Y-47234975D01*
X550000Y-47234975D01*
X550000Y-44694975D01*
X2572786Y-44694975D01*
X2760711Y-45149789D01*
X3108381Y-45498066D01*
X3562866Y-45686785D01*
X4054975Y-45687214D01*
X4509789Y-45499289D01*
X4858066Y-45151619D01*
X5046785Y-44697134D01*
X5046786Y-44694975D01*
X5112786Y-44694975D01*
X5300711Y-45149789D01*
X5648381Y-45498066D01*
X6102866Y-45686785D01*
X6594975Y-45687214D01*
X7049789Y-45499289D01*
X7398066Y-45151619D01*
X7586785Y-44697134D01*
X7587214Y-44205025D01*
X7399289Y-43750211D01*
X7349167Y-43700001D01*
X36724999Y-43700001D01*
X36724999Y-44799999D01*
X36758848Y-44970168D01*
X36768768Y-45020042D01*
X36893413Y-45206585D01*
X39361814Y-47674987D01*
X39361814Y-49587639D01*
X39195458Y-49753705D01*
X39061966Y-50075188D01*
X39061663Y-50423285D01*
X39194593Y-50745000D01*
X39440519Y-50991356D01*
X39762002Y-51124848D01*
X40110099Y-51125151D01*
X40431814Y-50992221D01*
X40678170Y-50746295D01*
X40811662Y-50424812D01*
X40811965Y-50076715D01*
X40679035Y-49755000D01*
X40511814Y-49587487D01*
X40511814Y-47436814D01*
X40468045Y-47216771D01*
X40343401Y-47030228D01*
X37874999Y-44561827D01*
X37874999Y-43938173D01*
X37938226Y-43874946D01*
X38173285Y-43875151D01*
X38495000Y-43742221D01*
X38741356Y-43496295D01*
X38874848Y-43174812D01*
X38875151Y-42826715D01*
X38742221Y-42505000D01*
X38496295Y-42258644D01*
X38299811Y-42177056D01*
X72628620Y-42177056D01*
X72761550Y-42498771D01*
X73007476Y-42745127D01*
X73328959Y-42878619D01*
X73530266Y-42878794D01*
X75421906Y-44770434D01*
X75421732Y-44970168D01*
X75554662Y-45291883D01*
X75800588Y-45538239D01*
X76122071Y-45671731D01*
X76470168Y-45672034D01*
X76791883Y-45539104D01*
X77038239Y-45293178D01*
X77171731Y-44971695D01*
X77172034Y-44623598D01*
X77069340Y-44375061D01*
X77173285Y-44375151D01*
X77495000Y-44242221D01*
X77741356Y-43996295D01*
X77874848Y-43674812D01*
X77875151Y-43326715D01*
X77791819Y-43125037D01*
X77923285Y-43125151D01*
X78245000Y-42992221D01*
X78491356Y-42746295D01*
X78620973Y-42434145D01*
X79875054Y-43688226D01*
X79874849Y-43923285D01*
X80007779Y-44245000D01*
X80253705Y-44491356D01*
X80575188Y-44624848D01*
X80923285Y-44625151D01*
X81245000Y-44492221D01*
X81491356Y-44246295D01*
X81624848Y-43924812D01*
X81625151Y-43576715D01*
X81492221Y-43255000D01*
X81246295Y-43008644D01*
X80924812Y-42875152D01*
X80688118Y-42874946D01*
X80323170Y-42509998D01*
X80634244Y-42381465D01*
X80880600Y-42135539D01*
X81014092Y-41814056D01*
X81014278Y-41600300D01*
X81254020Y-41501241D01*
X81500376Y-41255315D01*
X81633868Y-40933832D01*
X81633911Y-40884129D01*
X81682305Y-40884171D01*
X82004020Y-40751241D01*
X82250376Y-40505315D01*
X82383868Y-40183832D01*
X82384171Y-39835735D01*
X82251241Y-39514020D01*
X82005315Y-39267664D01*
X81683832Y-39134172D01*
X81447139Y-39133966D01*
X79095868Y-36782696D01*
X79096073Y-36547637D01*
X78963143Y-36225922D01*
X78717217Y-35979566D01*
X78395734Y-35846074D01*
X78047637Y-35845771D01*
X77725922Y-35978701D01*
X77479566Y-36224627D01*
X77474377Y-36237124D01*
X77246295Y-36008644D01*
X76924812Y-35875152D01*
X76576715Y-35874849D01*
X76255000Y-36007779D01*
X76008644Y-36253705D01*
X75875152Y-36575188D01*
X75874849Y-36923285D01*
X76007779Y-37245000D01*
X76253705Y-37491356D01*
X76575188Y-37624848D01*
X76811882Y-37625054D01*
X76816074Y-37629246D01*
X76505000Y-37757779D01*
X76258644Y-38003705D01*
X76125152Y-38325188D01*
X76125109Y-38374891D01*
X76076715Y-38374849D01*
X75755000Y-38507779D01*
X75508644Y-38753705D01*
X75375152Y-39075188D01*
X75375109Y-39124891D01*
X75326715Y-39124849D01*
X75005000Y-39257779D01*
X74758644Y-39503705D01*
X74625152Y-39825188D01*
X74624888Y-40128876D01*
X74330486Y-40128620D01*
X74008771Y-40261550D01*
X73762415Y-40507476D01*
X73628923Y-40828959D01*
X73628662Y-41128880D01*
X73330486Y-41128620D01*
X73008771Y-41261550D01*
X72762415Y-41507476D01*
X72628923Y-41828959D01*
X72628620Y-42177056D01*
X38299811Y-42177056D01*
X38174812Y-42125152D01*
X37826715Y-42124849D01*
X37505000Y-42257779D01*
X37258644Y-42503705D01*
X37125152Y-42825188D01*
X37124946Y-43061882D01*
X36893413Y-43293415D01*
X36768768Y-43479958D01*
X36724999Y-43700001D01*
X7349167Y-43700001D01*
X7051619Y-43401934D01*
X6597134Y-43213215D01*
X6105025Y-43212786D01*
X5650211Y-43400711D01*
X5301934Y-43748381D01*
X5113215Y-44202866D01*
X5112786Y-44694975D01*
X5046786Y-44694975D01*
X5047214Y-44205025D01*
X4859289Y-43750211D01*
X4511619Y-43401934D01*
X4057134Y-43213215D01*
X3565025Y-43212786D01*
X3110211Y-43400711D01*
X2761934Y-43748381D01*
X2573215Y-44202866D01*
X2572786Y-44694975D01*
X550000Y-44694975D01*
X550000Y-42154975D01*
X2572786Y-42154975D01*
X2760711Y-42609789D01*
X3108381Y-42958066D01*
X3562866Y-43146785D01*
X4054975Y-43147214D01*
X4509789Y-42959289D01*
X4858066Y-42611619D01*
X5046785Y-42157134D01*
X5046786Y-42154975D01*
X5112786Y-42154975D01*
X5300711Y-42609789D01*
X5648381Y-42958066D01*
X6102866Y-43146785D01*
X6594975Y-43147214D01*
X7049789Y-42959289D01*
X7398066Y-42611619D01*
X7586785Y-42157134D01*
X7587214Y-41665025D01*
X7399289Y-41210211D01*
X7051619Y-40861934D01*
X6597134Y-40673215D01*
X6105025Y-40672786D01*
X5650211Y-40860711D01*
X5301934Y-41208381D01*
X5113215Y-41662866D01*
X5112786Y-42154975D01*
X5046786Y-42154975D01*
X5047214Y-41665025D01*
X4859289Y-41210211D01*
X4511619Y-40861934D01*
X4057134Y-40673215D01*
X3565025Y-40672786D01*
X3110211Y-40860711D01*
X2761934Y-41208381D01*
X2573215Y-41662866D01*
X2572786Y-42154975D01*
X550000Y-42154975D01*
X550000Y-39614975D01*
X2572786Y-39614975D01*
X2760711Y-40069789D01*
X3108381Y-40418066D01*
X3562866Y-40606785D01*
X4054975Y-40607214D01*
X4509789Y-40419289D01*
X4858066Y-40071619D01*
X5046785Y-39617134D01*
X5046786Y-39614975D01*
X5112786Y-39614975D01*
X5300711Y-40069789D01*
X5648381Y-40418066D01*
X6102866Y-40606785D01*
X6594975Y-40607214D01*
X7049789Y-40419289D01*
X7398066Y-40071619D01*
X7586785Y-39617134D01*
X7587214Y-39125025D01*
X7399289Y-38670211D01*
X7051619Y-38321934D01*
X6597134Y-38133215D01*
X6105025Y-38132786D01*
X5650211Y-38320711D01*
X5301934Y-38668381D01*
X5113215Y-39122866D01*
X5112786Y-39614975D01*
X5046786Y-39614975D01*
X5047214Y-39125025D01*
X4859289Y-38670211D01*
X4511619Y-38321934D01*
X4057134Y-38133215D01*
X3565025Y-38132786D01*
X3110211Y-38320711D01*
X2761934Y-38668381D01*
X2573215Y-39122866D01*
X2572786Y-39614975D01*
X550000Y-39614975D01*
X550000Y-37074975D01*
X2572786Y-37074975D01*
X2760711Y-37529789D01*
X3108381Y-37878066D01*
X3562866Y-38066785D01*
X4054975Y-38067214D01*
X4509789Y-37879289D01*
X4858066Y-37531619D01*
X5046785Y-37077134D01*
X5046786Y-37074975D01*
X5112786Y-37074975D01*
X5300711Y-37529789D01*
X5648381Y-37878066D01*
X6102866Y-38066785D01*
X6594975Y-38067214D01*
X7049789Y-37879289D01*
X7398066Y-37531619D01*
X7586785Y-37077134D01*
X7587214Y-36585025D01*
X7399289Y-36130211D01*
X7051619Y-35781934D01*
X6731845Y-35649152D01*
X6791930Y-35641932D01*
X6993469Y-35558452D01*
X7070467Y-35328665D01*
X6350000Y-34608198D01*
X5629533Y-35328665D01*
X5706531Y-35558452D01*
X5993546Y-35638848D01*
X5650211Y-35780711D01*
X5301934Y-36128381D01*
X5113215Y-36582866D01*
X5112786Y-37074975D01*
X5046786Y-37074975D01*
X5047214Y-36585025D01*
X4859289Y-36130211D01*
X4511619Y-35781934D01*
X4191845Y-35649152D01*
X4251930Y-35641932D01*
X4453469Y-35558452D01*
X4530467Y-35328665D01*
X3810000Y-34608198D01*
X3089533Y-35328665D01*
X3166531Y-35558452D01*
X3453546Y-35638848D01*
X3110211Y-35780711D01*
X2761934Y-36128381D01*
X2573215Y-36582866D01*
X2572786Y-37074975D01*
X550000Y-37074975D01*
X550000Y-34180928D01*
X2391858Y-34180928D01*
X2458068Y-34731930D01*
X2541548Y-34933469D01*
X2771335Y-35010467D01*
X3491802Y-34290000D01*
X4128198Y-34290000D01*
X4848665Y-35010467D01*
X5078452Y-34933469D01*
X5079701Y-34929010D01*
X5081548Y-34933469D01*
X5311335Y-35010467D01*
X6031802Y-34290000D01*
X6668198Y-34290000D01*
X7388665Y-35010467D01*
X7618452Y-34933469D01*
X7768142Y-34399072D01*
X7701932Y-33848070D01*
X7618452Y-33646531D01*
X7388665Y-33569533D01*
X6668198Y-34290000D01*
X6031802Y-34290000D01*
X5311335Y-33569533D01*
X5081548Y-33646531D01*
X5080299Y-33650990D01*
X5078452Y-33646531D01*
X4848665Y-33569533D01*
X4128198Y-34290000D01*
X3491802Y-34290000D01*
X2771335Y-33569533D01*
X2541548Y-33646531D01*
X2391858Y-34180928D01*
X550000Y-34180928D01*
X550000Y-32788665D01*
X3089533Y-32788665D01*
X3166531Y-33018452D01*
X3170990Y-33019701D01*
X3166531Y-33021548D01*
X3089533Y-33251335D01*
X3810000Y-33971802D01*
X4530467Y-33251335D01*
X4453469Y-33021548D01*
X4449010Y-33020299D01*
X4453469Y-33018452D01*
X4530467Y-32788665D01*
X5629533Y-32788665D01*
X5706531Y-33018452D01*
X5710990Y-33019701D01*
X5706531Y-33021548D01*
X5629533Y-33251335D01*
X6350000Y-33971802D01*
X7070467Y-33251335D01*
X6993469Y-33021548D01*
X6989010Y-33020299D01*
X6993469Y-33018452D01*
X7070467Y-32788665D01*
X6350000Y-32068198D01*
X5629533Y-32788665D01*
X4530467Y-32788665D01*
X3810000Y-32068198D01*
X3089533Y-32788665D01*
X550000Y-32788665D01*
X550000Y-31640928D01*
X2391858Y-31640928D01*
X2458068Y-32191930D01*
X2541548Y-32393469D01*
X2771335Y-32470467D01*
X3491802Y-31750000D01*
X4128198Y-31750000D01*
X4848665Y-32470467D01*
X5078452Y-32393469D01*
X5079701Y-32389010D01*
X5081548Y-32393469D01*
X5311335Y-32470467D01*
X6031802Y-31750000D01*
X6668198Y-31750000D01*
X7388665Y-32470467D01*
X7618452Y-32393469D01*
X7768142Y-31859072D01*
X7701932Y-31308070D01*
X7618452Y-31106531D01*
X7388665Y-31029533D01*
X6668198Y-31750000D01*
X6031802Y-31750000D01*
X5311335Y-31029533D01*
X5081548Y-31106531D01*
X5080299Y-31110990D01*
X5078452Y-31106531D01*
X4848665Y-31029533D01*
X4128198Y-31750000D01*
X3491802Y-31750000D01*
X2771335Y-31029533D01*
X2541548Y-31106531D01*
X2391858Y-31640928D01*
X550000Y-31640928D01*
X550000Y-29454975D01*
X2572786Y-29454975D01*
X2760711Y-29909789D01*
X3108381Y-30258066D01*
X3428155Y-30390848D01*
X3368070Y-30398068D01*
X3166531Y-30481548D01*
X3089533Y-30711335D01*
X3810000Y-31431802D01*
X4530467Y-30711335D01*
X4453469Y-30481548D01*
X4166454Y-30401152D01*
X4509789Y-30259289D01*
X4858066Y-29911619D01*
X5046785Y-29457134D01*
X5046786Y-29454975D01*
X5112786Y-29454975D01*
X5300711Y-29909789D01*
X5648381Y-30258066D01*
X5968155Y-30390848D01*
X5908070Y-30398068D01*
X5706531Y-30481548D01*
X5629533Y-30711335D01*
X6350000Y-31431802D01*
X7070467Y-30711335D01*
X6993469Y-30481548D01*
X6706454Y-30401152D01*
X7049789Y-30259289D01*
X7398066Y-29911619D01*
X7586785Y-29457134D01*
X7587214Y-28965025D01*
X7399289Y-28510211D01*
X7051619Y-28161934D01*
X6597134Y-27973215D01*
X6105025Y-27972786D01*
X5650211Y-28160711D01*
X5301934Y-28508381D01*
X5113215Y-28962866D01*
X5112786Y-29454975D01*
X5046786Y-29454975D01*
X5047214Y-28965025D01*
X4859289Y-28510211D01*
X4511619Y-28161934D01*
X4057134Y-27973215D01*
X3565025Y-27972786D01*
X3110211Y-28160711D01*
X2761934Y-28508381D01*
X2573215Y-28962866D01*
X2572786Y-29454975D01*
X550000Y-29454975D01*
X550000Y-26914975D01*
X2572786Y-26914975D01*
X2760711Y-27369789D01*
X3108381Y-27718066D01*
X3562866Y-27906785D01*
X4054975Y-27907214D01*
X4509789Y-27719289D01*
X4858066Y-27371619D01*
X5046785Y-26917134D01*
X5046786Y-26914975D01*
X5112786Y-26914975D01*
X5300711Y-27369789D01*
X5648381Y-27718066D01*
X6102866Y-27906785D01*
X6594975Y-27907214D01*
X7049789Y-27719289D01*
X7398066Y-27371619D01*
X7586785Y-26917134D01*
X7587214Y-26425025D01*
X7399289Y-25970211D01*
X7051619Y-25621934D01*
X6597134Y-25433215D01*
X6105025Y-25432786D01*
X5650211Y-25620711D01*
X5301934Y-25968381D01*
X5113215Y-26422866D01*
X5112786Y-26914975D01*
X5046786Y-26914975D01*
X5047214Y-26425025D01*
X4859289Y-25970211D01*
X4511619Y-25621934D01*
X4057134Y-25433215D01*
X3565025Y-25432786D01*
X3110211Y-25620711D01*
X2761934Y-25968381D01*
X2573215Y-26422866D01*
X2572786Y-26914975D01*
X550000Y-26914975D01*
X550000Y-24374975D01*
X2572786Y-24374975D01*
X2760711Y-24829789D01*
X3108381Y-25178066D01*
X3562866Y-25366785D01*
X4054975Y-25367214D01*
X4509789Y-25179289D01*
X4858066Y-24831619D01*
X5046785Y-24377134D01*
X5046786Y-24374975D01*
X5112786Y-24374975D01*
X5300711Y-24829789D01*
X5648381Y-25178066D01*
X6102866Y-25366785D01*
X6594975Y-25367214D01*
X7049789Y-25179289D01*
X7255665Y-24973771D01*
X63675335Y-24973771D01*
X63808265Y-25295486D01*
X64054191Y-25541842D01*
X64375674Y-25675334D01*
X64723771Y-25675637D01*
X64875119Y-25613101D01*
X64874849Y-25923285D01*
X64899766Y-25983590D01*
X64751929Y-26044675D01*
X64505573Y-26290601D01*
X64372081Y-26612084D01*
X64371778Y-26960181D01*
X64504708Y-27281896D01*
X64750634Y-27528252D01*
X65072117Y-27661744D01*
X65420214Y-27662047D01*
X65741929Y-27529117D01*
X65908616Y-27362721D01*
X65931933Y-27419154D01*
X66177859Y-27665510D01*
X66499342Y-27799002D01*
X66847439Y-27799305D01*
X66867128Y-27791170D01*
X67108072Y-28032535D01*
X67429555Y-28166027D01*
X67777652Y-28166330D01*
X68099367Y-28033400D01*
X68345723Y-27787474D01*
X68479215Y-27465991D01*
X68479518Y-27117894D01*
X68346588Y-26796179D01*
X68179367Y-26628666D01*
X68179367Y-25472969D01*
X68135598Y-25252926D01*
X68082235Y-25173063D01*
X68010954Y-25066383D01*
X67685753Y-24741183D01*
X70751896Y-21675040D01*
X73633061Y-21675039D01*
X73853104Y-21631270D01*
X74039647Y-21506625D01*
X75656586Y-19889686D01*
X75656594Y-19889674D01*
X76221269Y-19325000D01*
X78000000Y-19325000D01*
X78220043Y-19281231D01*
X78406586Y-19156586D01*
X78688226Y-18874946D01*
X78923285Y-18875151D01*
X79245000Y-18742221D01*
X79491356Y-18496295D01*
X79624848Y-18174812D01*
X79625151Y-17826715D01*
X79492221Y-17505000D01*
X79246295Y-17258644D01*
X78924812Y-17125152D01*
X78576715Y-17124849D01*
X78255000Y-17257779D01*
X78250207Y-17262563D01*
X78246295Y-17258644D01*
X77924812Y-17125152D01*
X77685195Y-17124943D01*
X77731232Y-17056044D01*
X77775001Y-16836001D01*
X77775001Y-15950001D01*
X77731232Y-15729958D01*
X77715251Y-15706041D01*
X77624938Y-15570878D01*
X77625151Y-15326715D01*
X77492221Y-15005000D01*
X77246295Y-14758644D01*
X76924812Y-14625152D01*
X76711727Y-14624967D01*
X76647566Y-14469685D01*
X76401640Y-14223329D01*
X76080157Y-14089837D01*
X75732060Y-14089534D01*
X75410345Y-14222464D01*
X75163989Y-14468390D01*
X75030497Y-14789873D01*
X75030194Y-15137970D01*
X75163124Y-15459685D01*
X75330345Y-15627198D01*
X75330345Y-15648975D01*
X75218769Y-15815959D01*
X75175000Y-16036002D01*
X75175000Y-16446129D01*
X72696130Y-18925000D01*
X69850972Y-18925000D01*
X69630929Y-18968769D01*
X69444385Y-19093414D01*
X64612260Y-23925540D01*
X64377201Y-23925335D01*
X64055486Y-24058265D01*
X63809130Y-24304191D01*
X63675638Y-24625674D01*
X63675335Y-24973771D01*
X7255665Y-24973771D01*
X7398066Y-24831619D01*
X7586785Y-24377134D01*
X7587214Y-23885025D01*
X7399289Y-23430211D01*
X7051619Y-23081934D01*
X6597134Y-22893215D01*
X6105025Y-22892786D01*
X5650211Y-23080711D01*
X5301934Y-23428381D01*
X5113215Y-23882866D01*
X5112786Y-24374975D01*
X5046786Y-24374975D01*
X5047214Y-23885025D01*
X4859289Y-23430211D01*
X4511619Y-23081934D01*
X4057134Y-22893215D01*
X3565025Y-22892786D01*
X3110211Y-23080711D01*
X2761934Y-23428381D01*
X2573215Y-23882866D01*
X2572786Y-24374975D01*
X550000Y-24374975D01*
X550000Y-21834975D01*
X2572786Y-21834975D01*
X2760711Y-22289789D01*
X3108381Y-22638066D01*
X3562866Y-22826785D01*
X4054975Y-22827214D01*
X4509789Y-22639289D01*
X4858066Y-22291619D01*
X5046785Y-21837134D01*
X5046786Y-21834975D01*
X5112786Y-21834975D01*
X5300711Y-22289789D01*
X5648381Y-22638066D01*
X6102866Y-22826785D01*
X6594975Y-22827214D01*
X7049789Y-22639289D01*
X7398066Y-22291619D01*
X7586785Y-21837134D01*
X7587214Y-21345025D01*
X7399289Y-20890211D01*
X7051619Y-20541934D01*
X6597134Y-20353215D01*
X6105025Y-20352786D01*
X5650211Y-20540711D01*
X5301934Y-20888381D01*
X5113215Y-21342866D01*
X5112786Y-21834975D01*
X5046786Y-21834975D01*
X5047214Y-21345025D01*
X4859289Y-20890211D01*
X4511619Y-20541934D01*
X4057134Y-20353215D01*
X3565025Y-20352786D01*
X3110211Y-20540711D01*
X2761934Y-20888381D01*
X2573215Y-21342866D01*
X2572786Y-21834975D01*
X550000Y-21834975D01*
X550000Y-19294975D01*
X2572786Y-19294975D01*
X2760711Y-19749789D01*
X3108381Y-20098066D01*
X3562866Y-20286785D01*
X4054975Y-20287214D01*
X4509789Y-20099289D01*
X4858066Y-19751619D01*
X5046785Y-19297134D01*
X5046786Y-19294975D01*
X5112786Y-19294975D01*
X5300711Y-19749789D01*
X5648381Y-20098066D01*
X6102866Y-20286785D01*
X6594975Y-20287214D01*
X7049789Y-20099289D01*
X7398066Y-19751619D01*
X7586785Y-19297134D01*
X7586808Y-19270000D01*
X18670302Y-19270000D01*
X18764463Y-19743379D01*
X19032611Y-20144691D01*
X19433923Y-20412839D01*
X19907302Y-20507000D01*
X20732698Y-20507000D01*
X21206077Y-20412839D01*
X21607389Y-20144691D01*
X21875537Y-19743379D01*
X21969698Y-19270000D01*
X23750302Y-19270000D01*
X23844463Y-19743379D01*
X24112611Y-20144691D01*
X24513923Y-20412839D01*
X24987302Y-20507000D01*
X25812698Y-20507000D01*
X26286077Y-20412839D01*
X26687389Y-20144691D01*
X26955537Y-19743379D01*
X27049698Y-19270000D01*
X26955537Y-18796621D01*
X26687389Y-18395309D01*
X26286077Y-18127161D01*
X25812698Y-18033000D01*
X24987302Y-18033000D01*
X24513923Y-18127161D01*
X24112611Y-18395309D01*
X23844463Y-18796621D01*
X23750302Y-19270000D01*
X21969698Y-19270000D01*
X21875537Y-18796621D01*
X21607389Y-18395309D01*
X21206077Y-18127161D01*
X20732698Y-18033000D01*
X19907302Y-18033000D01*
X19433923Y-18127161D01*
X19032611Y-18395309D01*
X18764463Y-18796621D01*
X18670302Y-19270000D01*
X7586808Y-19270000D01*
X7587214Y-18805025D01*
X7399289Y-18350211D01*
X7051619Y-18001934D01*
X6597134Y-17813215D01*
X6105025Y-17812786D01*
X5650211Y-18000711D01*
X5301934Y-18348381D01*
X5113215Y-18802866D01*
X5112786Y-19294975D01*
X5046786Y-19294975D01*
X5047214Y-18805025D01*
X4859289Y-18350211D01*
X4511619Y-18001934D01*
X4057134Y-17813215D01*
X3565025Y-17812786D01*
X3110211Y-18000711D01*
X2761934Y-18348381D01*
X2573215Y-18802866D01*
X2572786Y-19294975D01*
X550000Y-19294975D01*
X550000Y-16754975D01*
X2572786Y-16754975D01*
X2760711Y-17209789D01*
X3108381Y-17558066D01*
X3562866Y-17746785D01*
X4054975Y-17747214D01*
X4509789Y-17559289D01*
X4858066Y-17211619D01*
X5046785Y-16757134D01*
X5046786Y-16754975D01*
X5112786Y-16754975D01*
X5300711Y-17209789D01*
X5648381Y-17558066D01*
X6102866Y-17746785D01*
X6594975Y-17747214D01*
X7049789Y-17559289D01*
X7398066Y-17211619D01*
X7586785Y-16757134D01*
X7586808Y-16730000D01*
X18670302Y-16730000D01*
X18764463Y-17203379D01*
X19032611Y-17604691D01*
X19433923Y-17872839D01*
X19907302Y-17967000D01*
X20732698Y-17967000D01*
X21206077Y-17872839D01*
X21607389Y-17604691D01*
X21875537Y-17203379D01*
X21969698Y-16730000D01*
X23750302Y-16730000D01*
X23844463Y-17203379D01*
X24112611Y-17604691D01*
X24513923Y-17872839D01*
X24987302Y-17967000D01*
X25812698Y-17967000D01*
X26286077Y-17872839D01*
X26687389Y-17604691D01*
X26955537Y-17203379D01*
X26961525Y-17173275D01*
X53624849Y-17173275D01*
X53757779Y-17494990D01*
X54003705Y-17741346D01*
X54325188Y-17874838D01*
X54673285Y-17875141D01*
X54995000Y-17742211D01*
X55241356Y-17496285D01*
X55374848Y-17174802D01*
X55375054Y-16938118D01*
X55871545Y-16441627D01*
X56199326Y-16441912D01*
X56521041Y-16308982D01*
X56767397Y-16063056D01*
X56900889Y-15741573D01*
X56901192Y-15393476D01*
X56768262Y-15071761D01*
X56522336Y-14825405D01*
X56200853Y-14691913D01*
X55852756Y-14691610D01*
X55531041Y-14824540D01*
X55284685Y-15070466D01*
X55151193Y-15391949D01*
X55151068Y-15535760D01*
X54561784Y-16125044D01*
X54326715Y-16124839D01*
X54005000Y-16257769D01*
X53758644Y-16503695D01*
X53625152Y-16825178D01*
X53624849Y-17173275D01*
X26961525Y-17173275D01*
X27049698Y-16730000D01*
X26955537Y-16256621D01*
X26687389Y-15855309D01*
X26286077Y-15587161D01*
X25812698Y-15493000D01*
X24987302Y-15493000D01*
X24513923Y-15587161D01*
X24112611Y-15855309D01*
X23844463Y-16256621D01*
X23750302Y-16730000D01*
X21969698Y-16730000D01*
X21875537Y-16256621D01*
X21607389Y-15855309D01*
X21206077Y-15587161D01*
X20732698Y-15493000D01*
X19907302Y-15493000D01*
X19433923Y-15587161D01*
X19032611Y-15855309D01*
X18764463Y-16256621D01*
X18670302Y-16730000D01*
X7586808Y-16730000D01*
X7587214Y-16265025D01*
X7399289Y-15810211D01*
X7051619Y-15461934D01*
X6597134Y-15273215D01*
X6105025Y-15272786D01*
X5650211Y-15460711D01*
X5301934Y-15808381D01*
X5113215Y-16262866D01*
X5112786Y-16754975D01*
X5046786Y-16754975D01*
X5047214Y-16265025D01*
X4859289Y-15810211D01*
X4511619Y-15461934D01*
X4057134Y-15273215D01*
X3565025Y-15272786D01*
X3110211Y-15460711D01*
X2761934Y-15808381D01*
X2573215Y-16262866D01*
X2572786Y-16754975D01*
X550000Y-16754975D01*
X550000Y-14214975D01*
X2572786Y-14214975D01*
X2760711Y-14669789D01*
X3108381Y-15018066D01*
X3562866Y-15206785D01*
X4054975Y-15207214D01*
X4509789Y-15019289D01*
X4858066Y-14671619D01*
X5046785Y-14217134D01*
X5046786Y-14214975D01*
X5112786Y-14214975D01*
X5300711Y-14669789D01*
X5648381Y-15018066D01*
X6102866Y-15206785D01*
X6594975Y-15207214D01*
X7049789Y-15019289D01*
X7398066Y-14671619D01*
X7586785Y-14217134D01*
X7587214Y-13725025D01*
X7399289Y-13270211D01*
X7051619Y-12921934D01*
X6597134Y-12733215D01*
X6105025Y-12732786D01*
X5650211Y-12920711D01*
X5301934Y-13268381D01*
X5113215Y-13722866D01*
X5112786Y-14214975D01*
X5046786Y-14214975D01*
X5047214Y-13725025D01*
X4859289Y-13270211D01*
X4511619Y-12921934D01*
X4057134Y-12733215D01*
X3565025Y-12732786D01*
X3110211Y-12920711D01*
X2761934Y-13268381D01*
X2573215Y-13722866D01*
X2572786Y-14214975D01*
X550000Y-14214975D01*
X550000Y-11674975D01*
X2572786Y-11674975D01*
X2760711Y-12129789D01*
X3108381Y-12478066D01*
X3562866Y-12666785D01*
X4054975Y-12667214D01*
X4509789Y-12479289D01*
X4858066Y-12131619D01*
X5046785Y-11677134D01*
X5046786Y-11674975D01*
X5112786Y-11674975D01*
X5300711Y-12129789D01*
X5648381Y-12478066D01*
X6102866Y-12666785D01*
X6594975Y-12667214D01*
X7049789Y-12479289D01*
X7398066Y-12131619D01*
X7463812Y-11973285D01*
X50924849Y-11973285D01*
X51057779Y-12295000D01*
X51303705Y-12541356D01*
X51625188Y-12674848D01*
X51861882Y-12675054D01*
X52025054Y-12838226D01*
X52024849Y-13073285D01*
X52157779Y-13395000D01*
X52403705Y-13641356D01*
X52725188Y-13774848D01*
X53073285Y-13775151D01*
X53395000Y-13642221D01*
X53641356Y-13396295D01*
X53774848Y-13074812D01*
X53775151Y-12726715D01*
X53642221Y-12405000D01*
X53396295Y-12158644D01*
X53074812Y-12025152D01*
X52838118Y-12024946D01*
X52674946Y-11861774D01*
X52675151Y-11626715D01*
X52542221Y-11305000D01*
X52296295Y-11058644D01*
X51974812Y-10925152D01*
X51626715Y-10924849D01*
X51305000Y-11057779D01*
X51058644Y-11303705D01*
X50925152Y-11625188D01*
X50924849Y-11973285D01*
X7463812Y-11973285D01*
X7586785Y-11677134D01*
X7587214Y-11185025D01*
X7399289Y-10730211D01*
X7051619Y-10381934D01*
X6731845Y-10249152D01*
X6791930Y-10241932D01*
X6993469Y-10158452D01*
X7070467Y-9928665D01*
X6350000Y-9208198D01*
X5629533Y-9928665D01*
X5706531Y-10158452D01*
X5993546Y-10238848D01*
X5650211Y-10380711D01*
X5301934Y-10728381D01*
X5113215Y-11182866D01*
X5112786Y-11674975D01*
X5046786Y-11674975D01*
X5047214Y-11185025D01*
X4859289Y-10730211D01*
X4511619Y-10381934D01*
X4191845Y-10249152D01*
X4251930Y-10241932D01*
X4453469Y-10158452D01*
X4530467Y-9928665D01*
X3810000Y-9208198D01*
X3089533Y-9928665D01*
X3166531Y-10158452D01*
X3453546Y-10238848D01*
X3110211Y-10380711D01*
X2761934Y-10728381D01*
X2573215Y-11182866D01*
X2572786Y-11674975D01*
X550000Y-11674975D01*
X550000Y-8780928D01*
X2391858Y-8780928D01*
X2458068Y-9331930D01*
X2541548Y-9533469D01*
X2771335Y-9610467D01*
X3491802Y-8890000D01*
X4128198Y-8890000D01*
X4848665Y-9610467D01*
X5078452Y-9533469D01*
X5079701Y-9529010D01*
X5081548Y-9533469D01*
X5311335Y-9610467D01*
X6031802Y-8890000D01*
X6668198Y-8890000D01*
X7388665Y-9610467D01*
X7618452Y-9533469D01*
X7768142Y-8999072D01*
X7701932Y-8448070D01*
X7618452Y-8246531D01*
X7388665Y-8169533D01*
X6668198Y-8890000D01*
X6031802Y-8890000D01*
X5311335Y-8169533D01*
X5081548Y-8246531D01*
X5080299Y-8250990D01*
X5078452Y-8246531D01*
X4848665Y-8169533D01*
X4128198Y-8890000D01*
X3491802Y-8890000D01*
X2771335Y-8169533D01*
X2541548Y-8246531D01*
X2391858Y-8780928D01*
X550000Y-8780928D01*
X550000Y-7851335D01*
X3089533Y-7851335D01*
X3810000Y-8571802D01*
X4530467Y-7851335D01*
X5629533Y-7851335D01*
X6350000Y-8571802D01*
X6810802Y-8111000D01*
X46213695Y-8111000D01*
X46213695Y-10397000D01*
X46250561Y-10582335D01*
X46355545Y-10739455D01*
X46512665Y-10844439D01*
X46698000Y-10881305D01*
X48222000Y-10881305D01*
X48407335Y-10844439D01*
X48564455Y-10739455D01*
X48669439Y-10582335D01*
X48706305Y-10397000D01*
X48706305Y-8111000D01*
X48669439Y-7925665D01*
X48564455Y-7768545D01*
X48407335Y-7663561D01*
X48222000Y-7626695D01*
X48135184Y-7626695D01*
X48334691Y-7493389D01*
X48602839Y-7092077D01*
X48697000Y-6618698D01*
X48697000Y-5793302D01*
X48763000Y-5793302D01*
X48763000Y-6618698D01*
X48857161Y-7092077D01*
X49125309Y-7493389D01*
X49479423Y-7730000D01*
X49125309Y-7966611D01*
X48857161Y-8367923D01*
X48763000Y-8841302D01*
X48763000Y-9666698D01*
X48857161Y-10140077D01*
X49125309Y-10541389D01*
X49526621Y-10809537D01*
X50000000Y-10903698D01*
X50473379Y-10809537D01*
X50874691Y-10541389D01*
X51142839Y-10140077D01*
X51237000Y-9666698D01*
X51237000Y-8841302D01*
X51142839Y-8367923D01*
X50874691Y-7966611D01*
X50520577Y-7730000D01*
X50874691Y-7493389D01*
X51142839Y-7092077D01*
X51186702Y-6871565D01*
X51346745Y-7311191D01*
X51714712Y-7712704D01*
X51891220Y-7815662D01*
X51665309Y-7966611D01*
X51397161Y-8367923D01*
X51303000Y-8841302D01*
X51303000Y-9666698D01*
X51397161Y-10140077D01*
X51665309Y-10541389D01*
X52066621Y-10809537D01*
X52540000Y-10903698D01*
X53013379Y-10809537D01*
X53414691Y-10541389D01*
X53682839Y-10140077D01*
X53777000Y-9666698D01*
X53777000Y-8841302D01*
X53682839Y-8367923D01*
X53414691Y-7966611D01*
X53188780Y-7815662D01*
X53365288Y-7712704D01*
X53733255Y-7311191D01*
X53919560Y-6799426D01*
X53777556Y-6581000D01*
X52915000Y-6581000D01*
X52915000Y-6601000D01*
X52165000Y-6601000D01*
X52165000Y-6581000D01*
X52145000Y-6581000D01*
X52145000Y-5831000D01*
X52165000Y-5831000D01*
X52165000Y-4646473D01*
X52915000Y-4646473D01*
X52915000Y-5831000D01*
X53777556Y-5831000D01*
X53919560Y-5612574D01*
X53733255Y-5100809D01*
X53365288Y-4699296D01*
X53120577Y-4556554D01*
X52915000Y-4646473D01*
X52165000Y-4646473D01*
X51959423Y-4556554D01*
X51714712Y-4699296D01*
X51346745Y-5100809D01*
X51186702Y-5540435D01*
X51142839Y-5319923D01*
X50874691Y-4918611D01*
X50473379Y-4650463D01*
X50000000Y-4556302D01*
X49526621Y-4650463D01*
X49125309Y-4918611D01*
X48857161Y-5319923D01*
X48763000Y-5793302D01*
X48697000Y-5793302D01*
X48602839Y-5319923D01*
X48334691Y-4918611D01*
X47933379Y-4650463D01*
X47460000Y-4556302D01*
X46986621Y-4650463D01*
X46585309Y-4918611D01*
X46317161Y-5319923D01*
X46223000Y-5793302D01*
X46223000Y-6618698D01*
X46317161Y-7092077D01*
X46585309Y-7493389D01*
X46784816Y-7626695D01*
X46698000Y-7626695D01*
X46512665Y-7663561D01*
X46355545Y-7768545D01*
X46250561Y-7925665D01*
X46213695Y-8111000D01*
X6810802Y-8111000D01*
X7070467Y-7851335D01*
X6993469Y-7621548D01*
X6459072Y-7471858D01*
X5908070Y-7538068D01*
X5706531Y-7621548D01*
X5629533Y-7851335D01*
X4530467Y-7851335D01*
X4453469Y-7621548D01*
X3919072Y-7471858D01*
X3368070Y-7538068D01*
X3166531Y-7621548D01*
X3089533Y-7851335D01*
X550000Y-7851335D01*
X550000Y-7388665D01*
X13249533Y-7388665D01*
X13326531Y-7618452D01*
X13860928Y-7768142D01*
X14411930Y-7701932D01*
X14613469Y-7618452D01*
X14690467Y-7388665D01*
X13970000Y-6668198D01*
X13249533Y-7388665D01*
X550000Y-7388665D01*
X550000Y-6240928D01*
X12551858Y-6240928D01*
X12618068Y-6791930D01*
X12701548Y-6993469D01*
X12931335Y-7070467D01*
X13651802Y-6350000D01*
X14288198Y-6350000D01*
X15008665Y-7070467D01*
X15238452Y-6993469D01*
X15318848Y-6706454D01*
X15460711Y-7049789D01*
X15808381Y-7398066D01*
X16262866Y-7586785D01*
X16754975Y-7587214D01*
X17209789Y-7399289D01*
X17558066Y-7051619D01*
X17746785Y-6597134D01*
X17746786Y-6594975D01*
X17812786Y-6594975D01*
X18000711Y-7049789D01*
X18348381Y-7398066D01*
X18802866Y-7586785D01*
X19294975Y-7587214D01*
X19749789Y-7399289D01*
X20098066Y-7051619D01*
X20286785Y-6597134D01*
X20286786Y-6594975D01*
X20352786Y-6594975D01*
X20540711Y-7049789D01*
X20888381Y-7398066D01*
X21342866Y-7586785D01*
X21834975Y-7587214D01*
X22289789Y-7399289D01*
X22638066Y-7051619D01*
X22826785Y-6597134D01*
X22826786Y-6594975D01*
X22892786Y-6594975D01*
X23080711Y-7049789D01*
X23428381Y-7398066D01*
X23882866Y-7586785D01*
X24374975Y-7587214D01*
X24829789Y-7399289D01*
X25178066Y-7051619D01*
X25366785Y-6597134D01*
X25366786Y-6594975D01*
X25432786Y-6594975D01*
X25620711Y-7049789D01*
X25968381Y-7398066D01*
X26422866Y-7586785D01*
X26914975Y-7587214D01*
X27369789Y-7399289D01*
X27718066Y-7051619D01*
X27906785Y-6597134D01*
X27906786Y-6594975D01*
X27972786Y-6594975D01*
X28160711Y-7049789D01*
X28508381Y-7398066D01*
X28962866Y-7586785D01*
X29454975Y-7587214D01*
X29909789Y-7399289D01*
X30258066Y-7051619D01*
X30446785Y-6597134D01*
X30446786Y-6594975D01*
X30512786Y-6594975D01*
X30700711Y-7049789D01*
X31048381Y-7398066D01*
X31502866Y-7586785D01*
X31994975Y-7587214D01*
X32449789Y-7399289D01*
X32798066Y-7051619D01*
X32986785Y-6597134D01*
X32986786Y-6594975D01*
X33052786Y-6594975D01*
X33240711Y-7049789D01*
X33588381Y-7398066D01*
X34042866Y-7586785D01*
X34534975Y-7587214D01*
X34989789Y-7399289D01*
X35000431Y-7388665D01*
X36109533Y-7388665D01*
X36186531Y-7618452D01*
X36720928Y-7768142D01*
X37271930Y-7701932D01*
X37473469Y-7618452D01*
X37550467Y-7388665D01*
X36830000Y-6668198D01*
X36109533Y-7388665D01*
X35000431Y-7388665D01*
X35338066Y-7051619D01*
X35470848Y-6731845D01*
X35478068Y-6791930D01*
X35561548Y-6993469D01*
X35791335Y-7070467D01*
X36511802Y-6350000D01*
X37148198Y-6350000D01*
X37868665Y-7070467D01*
X38098452Y-6993469D01*
X38248142Y-6459072D01*
X38181932Y-5908070D01*
X38098452Y-5706531D01*
X37868665Y-5629533D01*
X37148198Y-6350000D01*
X36511802Y-6350000D01*
X35791335Y-5629533D01*
X35561548Y-5706531D01*
X35481152Y-5993546D01*
X35339289Y-5650211D01*
X34991619Y-5301934D01*
X34537134Y-5113215D01*
X34045025Y-5112786D01*
X33590211Y-5300711D01*
X33241934Y-5648381D01*
X33053215Y-6102866D01*
X33052786Y-6594975D01*
X32986786Y-6594975D01*
X32987214Y-6105025D01*
X32799289Y-5650211D01*
X32451619Y-5301934D01*
X31997134Y-5113215D01*
X31505025Y-5112786D01*
X31050211Y-5300711D01*
X30701934Y-5648381D01*
X30513215Y-6102866D01*
X30512786Y-6594975D01*
X30446786Y-6594975D01*
X30447214Y-6105025D01*
X30259289Y-5650211D01*
X29911619Y-5301934D01*
X29457134Y-5113215D01*
X28965025Y-5112786D01*
X28510211Y-5300711D01*
X28161934Y-5648381D01*
X27973215Y-6102866D01*
X27972786Y-6594975D01*
X27906786Y-6594975D01*
X27907214Y-6105025D01*
X27719289Y-5650211D01*
X27371619Y-5301934D01*
X26917134Y-5113215D01*
X26425025Y-5112786D01*
X25970211Y-5300711D01*
X25621934Y-5648381D01*
X25433215Y-6102866D01*
X25432786Y-6594975D01*
X25366786Y-6594975D01*
X25367214Y-6105025D01*
X25179289Y-5650211D01*
X24831619Y-5301934D01*
X24377134Y-5113215D01*
X23885025Y-5112786D01*
X23430211Y-5300711D01*
X23081934Y-5648381D01*
X22893215Y-6102866D01*
X22892786Y-6594975D01*
X22826786Y-6594975D01*
X22827214Y-6105025D01*
X22639289Y-5650211D01*
X22291619Y-5301934D01*
X21837134Y-5113215D01*
X21345025Y-5112786D01*
X20890211Y-5300711D01*
X20541934Y-5648381D01*
X20353215Y-6102866D01*
X20352786Y-6594975D01*
X20286786Y-6594975D01*
X20287214Y-6105025D01*
X20099289Y-5650211D01*
X19751619Y-5301934D01*
X19297134Y-5113215D01*
X18805025Y-5112786D01*
X18350211Y-5300711D01*
X18001934Y-5648381D01*
X17813215Y-6102866D01*
X17812786Y-6594975D01*
X17746786Y-6594975D01*
X17747214Y-6105025D01*
X17559289Y-5650211D01*
X17211619Y-5301934D01*
X16757134Y-5113215D01*
X16265025Y-5112786D01*
X15810211Y-5300711D01*
X15461934Y-5648381D01*
X15329152Y-5968155D01*
X15321932Y-5908070D01*
X15238452Y-5706531D01*
X15008665Y-5629533D01*
X14288198Y-6350000D01*
X13651802Y-6350000D01*
X12931335Y-5629533D01*
X12701548Y-5706531D01*
X12551858Y-6240928D01*
X550000Y-6240928D01*
X550000Y-5054171D01*
X590877Y-4848665D01*
X13249533Y-4848665D01*
X13326531Y-5078452D01*
X13330990Y-5079701D01*
X13326531Y-5081548D01*
X13249533Y-5311335D01*
X13970000Y-6031802D01*
X14690467Y-5311335D01*
X14613469Y-5081548D01*
X14609010Y-5080299D01*
X14613469Y-5078452D01*
X14690467Y-4848665D01*
X13970000Y-4128198D01*
X13249533Y-4848665D01*
X590877Y-4848665D01*
X819176Y-3700928D01*
X12551858Y-3700928D01*
X12618068Y-4251930D01*
X12701548Y-4453469D01*
X12931335Y-4530467D01*
X13651802Y-3810000D01*
X14288198Y-3810000D01*
X15008665Y-4530467D01*
X15238452Y-4453469D01*
X15318848Y-4166454D01*
X15460711Y-4509789D01*
X15808381Y-4858066D01*
X16262866Y-5046785D01*
X16754975Y-5047214D01*
X17209789Y-4859289D01*
X17558066Y-4511619D01*
X17746785Y-4057134D01*
X17746786Y-4054975D01*
X17812786Y-4054975D01*
X18000711Y-4509789D01*
X18348381Y-4858066D01*
X18802866Y-5046785D01*
X19294975Y-5047214D01*
X19749789Y-4859289D01*
X20098066Y-4511619D01*
X20286785Y-4057134D01*
X20286786Y-4054975D01*
X20352786Y-4054975D01*
X20540711Y-4509789D01*
X20888381Y-4858066D01*
X21342866Y-5046785D01*
X21834975Y-5047214D01*
X22289789Y-4859289D01*
X22638066Y-4511619D01*
X22826785Y-4057134D01*
X22826786Y-4054975D01*
X22892786Y-4054975D01*
X23080711Y-4509789D01*
X23428381Y-4858066D01*
X23882866Y-5046785D01*
X24374975Y-5047214D01*
X24829789Y-4859289D01*
X25178066Y-4511619D01*
X25366785Y-4057134D01*
X25366786Y-4054975D01*
X25432786Y-4054975D01*
X25620711Y-4509789D01*
X25968381Y-4858066D01*
X26422866Y-5046785D01*
X26914975Y-5047214D01*
X27369789Y-4859289D01*
X27718066Y-4511619D01*
X27906785Y-4057134D01*
X27906786Y-4054975D01*
X27972786Y-4054975D01*
X28160711Y-4509789D01*
X28508381Y-4858066D01*
X28962866Y-5046785D01*
X29454975Y-5047214D01*
X29909789Y-4859289D01*
X30258066Y-4511619D01*
X30446785Y-4057134D01*
X30446786Y-4054975D01*
X30512786Y-4054975D01*
X30700711Y-4509789D01*
X31048381Y-4858066D01*
X31502866Y-5046785D01*
X31994975Y-5047214D01*
X32449789Y-4859289D01*
X32798066Y-4511619D01*
X32986785Y-4057134D01*
X32986786Y-4054975D01*
X33052786Y-4054975D01*
X33240711Y-4509789D01*
X33588381Y-4858066D01*
X34042866Y-5046785D01*
X34534975Y-5047214D01*
X34989789Y-4859289D01*
X35000431Y-4848665D01*
X36109533Y-4848665D01*
X36186531Y-5078452D01*
X36190990Y-5079701D01*
X36186531Y-5081548D01*
X36109533Y-5311335D01*
X36830000Y-6031802D01*
X37550467Y-5311335D01*
X37473469Y-5081548D01*
X37469010Y-5080299D01*
X37473469Y-5078452D01*
X37550467Y-4848665D01*
X36830000Y-4128198D01*
X36109533Y-4848665D01*
X35000431Y-4848665D01*
X35338066Y-4511619D01*
X35470848Y-4191845D01*
X35478068Y-4251930D01*
X35561548Y-4453469D01*
X35791335Y-4530467D01*
X36511802Y-3810000D01*
X37148198Y-3810000D01*
X37868665Y-4530467D01*
X38098452Y-4453469D01*
X38248142Y-3919072D01*
X38181932Y-3368070D01*
X38098452Y-3166531D01*
X37868665Y-3089533D01*
X37148198Y-3810000D01*
X36511802Y-3810000D01*
X35791335Y-3089533D01*
X35561548Y-3166531D01*
X35481152Y-3453546D01*
X35339289Y-3110211D01*
X35001004Y-2771335D01*
X36109533Y-2771335D01*
X36830000Y-3491802D01*
X37550467Y-2771335D01*
X37488801Y-2587302D01*
X69493000Y-2587302D01*
X69493000Y-3412698D01*
X69587161Y-3886077D01*
X69855309Y-4287389D01*
X70256621Y-4555537D01*
X70730000Y-4649698D01*
X71203379Y-4555537D01*
X71604691Y-4287389D01*
X71872839Y-3886077D01*
X71967000Y-3412698D01*
X71967000Y-2587302D01*
X72033000Y-2587302D01*
X72033000Y-3412698D01*
X72127161Y-3886077D01*
X72395309Y-4287389D01*
X72796621Y-4555537D01*
X73270000Y-4649698D01*
X73426837Y-4618501D01*
X84288121Y-4618501D01*
X84502255Y-5058023D01*
X84868287Y-5382142D01*
X85084149Y-5487279D01*
X85275000Y-5376487D01*
X85275000Y-4425000D01*
X85725000Y-4425000D01*
X85725000Y-5376487D01*
X85915851Y-5487279D01*
X86131713Y-5382142D01*
X86497745Y-5058023D01*
X86711879Y-4618501D01*
X89288121Y-4618501D01*
X89502255Y-5058023D01*
X89868287Y-5382142D01*
X90084149Y-5487279D01*
X90275000Y-5376487D01*
X90275000Y-4425000D01*
X90725000Y-4425000D01*
X90725000Y-5376487D01*
X90915851Y-5487279D01*
X91131713Y-5382142D01*
X91497745Y-5058023D01*
X91711879Y-4618501D01*
X91588533Y-4425000D01*
X90725000Y-4425000D01*
X90275000Y-4425000D01*
X89411467Y-4425000D01*
X89288121Y-4618501D01*
X86711879Y-4618501D01*
X86588533Y-4425000D01*
X85725000Y-4425000D01*
X85275000Y-4425000D01*
X84411467Y-4425000D01*
X84288121Y-4618501D01*
X73426837Y-4618501D01*
X73743379Y-4555537D01*
X74144691Y-4287389D01*
X74412839Y-3886077D01*
X74433640Y-3781499D01*
X84288121Y-3781499D01*
X84411467Y-3975000D01*
X85275000Y-3975000D01*
X85275000Y-3023513D01*
X85725000Y-3023513D01*
X85725000Y-3975000D01*
X86588533Y-3975000D01*
X86711879Y-3781499D01*
X89288121Y-3781499D01*
X89411467Y-3975000D01*
X90275000Y-3975000D01*
X90275000Y-3023513D01*
X90725000Y-3023513D01*
X90725000Y-3975000D01*
X91588533Y-3975000D01*
X91711879Y-3781499D01*
X91497745Y-3341977D01*
X91131713Y-3017858D01*
X90915851Y-2912721D01*
X90725000Y-3023513D01*
X90275000Y-3023513D01*
X90084149Y-2912721D01*
X89868287Y-3017858D01*
X89502255Y-3341977D01*
X89288121Y-3781499D01*
X86711879Y-3781499D01*
X86497745Y-3341977D01*
X86131713Y-3017858D01*
X85915851Y-2912721D01*
X85725000Y-3023513D01*
X85275000Y-3023513D01*
X85084149Y-2912721D01*
X84868287Y-3017858D01*
X84502255Y-3341977D01*
X84288121Y-3781499D01*
X74433640Y-3781499D01*
X74507000Y-3412698D01*
X74507000Y-2587302D01*
X74412839Y-2113923D01*
X74339099Y-2003562D01*
X83078561Y-2003562D01*
X83138801Y-2149050D01*
X83490797Y-2620552D01*
X83996435Y-2921460D01*
X84225000Y-2824484D01*
X84225000Y-1775000D01*
X84775000Y-1775000D01*
X84775000Y-2824484D01*
X85003565Y-2921460D01*
X85509203Y-2620552D01*
X85861199Y-2149050D01*
X85921439Y-2003562D01*
X90078561Y-2003562D01*
X90138801Y-2149050D01*
X90490797Y-2620552D01*
X90996435Y-2921460D01*
X91225000Y-2824484D01*
X91225000Y-1775000D01*
X91775000Y-1775000D01*
X91775000Y-2824484D01*
X92003565Y-2921460D01*
X92509203Y-2620552D01*
X92861199Y-2149050D01*
X92921439Y-2003562D01*
X92821439Y-1775000D01*
X91775000Y-1775000D01*
X91225000Y-1775000D01*
X90178561Y-1775000D01*
X90078561Y-2003562D01*
X85921439Y-2003562D01*
X85821439Y-1775000D01*
X84775000Y-1775000D01*
X84225000Y-1775000D01*
X83178561Y-1775000D01*
X83078561Y-2003562D01*
X74339099Y-2003562D01*
X74144691Y-1712611D01*
X73743379Y-1444463D01*
X73270000Y-1350302D01*
X72796621Y-1444463D01*
X72395309Y-1712611D01*
X72127161Y-2113923D01*
X72033000Y-2587302D01*
X71967000Y-2587302D01*
X71872839Y-2113923D01*
X71604691Y-1712611D01*
X71203379Y-1444463D01*
X70730000Y-1350302D01*
X70256621Y-1444463D01*
X69855309Y-1712611D01*
X69587161Y-2113923D01*
X69493000Y-2587302D01*
X37488801Y-2587302D01*
X37473469Y-2541548D01*
X36939072Y-2391858D01*
X36388070Y-2458068D01*
X36186531Y-2541548D01*
X36109533Y-2771335D01*
X35001004Y-2771335D01*
X34991619Y-2761934D01*
X34537134Y-2573215D01*
X34045025Y-2572786D01*
X33590211Y-2760711D01*
X33241934Y-3108381D01*
X33053215Y-3562866D01*
X33052786Y-4054975D01*
X32986786Y-4054975D01*
X32987214Y-3565025D01*
X32799289Y-3110211D01*
X32451619Y-2761934D01*
X31997134Y-2573215D01*
X31505025Y-2572786D01*
X31050211Y-2760711D01*
X30701934Y-3108381D01*
X30513215Y-3562866D01*
X30512786Y-4054975D01*
X30446786Y-4054975D01*
X30447214Y-3565025D01*
X30259289Y-3110211D01*
X29911619Y-2761934D01*
X29457134Y-2573215D01*
X28965025Y-2572786D01*
X28510211Y-2760711D01*
X28161934Y-3108381D01*
X27973215Y-3562866D01*
X27972786Y-4054975D01*
X27906786Y-4054975D01*
X27907214Y-3565025D01*
X27719289Y-3110211D01*
X27371619Y-2761934D01*
X26917134Y-2573215D01*
X26425025Y-2572786D01*
X25970211Y-2760711D01*
X25621934Y-3108381D01*
X25433215Y-3562866D01*
X25432786Y-4054975D01*
X25366786Y-4054975D01*
X25367214Y-3565025D01*
X25179289Y-3110211D01*
X24831619Y-2761934D01*
X24377134Y-2573215D01*
X23885025Y-2572786D01*
X23430211Y-2760711D01*
X23081934Y-3108381D01*
X22893215Y-3562866D01*
X22892786Y-4054975D01*
X22826786Y-4054975D01*
X22827214Y-3565025D01*
X22639289Y-3110211D01*
X22291619Y-2761934D01*
X21837134Y-2573215D01*
X21345025Y-2572786D01*
X20890211Y-2760711D01*
X20541934Y-3108381D01*
X20353215Y-3562866D01*
X20352786Y-4054975D01*
X20286786Y-4054975D01*
X20287214Y-3565025D01*
X20099289Y-3110211D01*
X19751619Y-2761934D01*
X19297134Y-2573215D01*
X18805025Y-2572786D01*
X18350211Y-2760711D01*
X18001934Y-3108381D01*
X17813215Y-3562866D01*
X17812786Y-4054975D01*
X17746786Y-4054975D01*
X17747214Y-3565025D01*
X17559289Y-3110211D01*
X17211619Y-2761934D01*
X16757134Y-2573215D01*
X16265025Y-2572786D01*
X15810211Y-2760711D01*
X15461934Y-3108381D01*
X15329152Y-3428155D01*
X15321932Y-3368070D01*
X15238452Y-3166531D01*
X15008665Y-3089533D01*
X14288198Y-3810000D01*
X13651802Y-3810000D01*
X12931335Y-3089533D01*
X12701548Y-3166531D01*
X12551858Y-3700928D01*
X819176Y-3700928D01*
X898691Y-3301182D01*
X1252723Y-2771335D01*
X13249533Y-2771335D01*
X13970000Y-3491802D01*
X14690467Y-2771335D01*
X14613469Y-2541548D01*
X14079072Y-2391858D01*
X13528070Y-2458068D01*
X13326531Y-2541548D01*
X13249533Y-2771335D01*
X1252723Y-2771335D01*
X1860994Y-1860993D01*
X3301182Y-898691D01*
X5054171Y-550000D01*
X83363473Y-550000D01*
X83138801Y-850950D01*
M02*
