G04 #@! TF.FileFunction,Legend,Bot*
%FSLAX46Y46*%
G04 Gerber Fmt 4.6, Leading zero omitted, Abs format (unit mm)*
G04 Created by KiCad (PCBNEW (2016-03-18 BZR 6629, Git 60d93d0)-product) date Tue 22 Mar 2016 11:04:14 AM EDT*
%MOMM*%
G01*
G04 APERTURE LIST*
%ADD10C,0.100000*%
%ADD11C,0.200000*%
%ADD12C,0.250000*%
%ADD13C,0.010000*%
%ADD14O,1.750000X1.750000*%
%ADD15O,1.450000X1.250000*%
%ADD16O,1.250000X1.450000*%
%ADD17O,2.286000X1.524000*%
%ADD18O,1.524000X2.286000*%
%ADD19C,1.524000*%
%ADD20R,1.524000X2.286000*%
G04 APERTURE END LIST*
D10*
D11*
X83768452Y-98147619D02*
X83644643Y-98223810D01*
X83377976Y-98223810D01*
X83235119Y-98147619D01*
X83149405Y-97995238D01*
X83139881Y-97919048D01*
X83187500Y-97766667D01*
X83311309Y-97690476D01*
X83511309Y-97690476D01*
X83635120Y-97614286D01*
X83682738Y-97461905D01*
X83673214Y-97385714D01*
X83587501Y-97233333D01*
X83444643Y-97157143D01*
X83244643Y-97157143D01*
X83120834Y-97233333D01*
X82035119Y-98147619D02*
X82177977Y-98223810D01*
X82444643Y-98223810D01*
X82568453Y-98147619D01*
X82616072Y-97995238D01*
X82539881Y-97385714D01*
X82454168Y-97233333D01*
X82311310Y-97157143D01*
X82044644Y-97157143D01*
X81920834Y-97233333D01*
X81873215Y-97385714D01*
X81892263Y-97538095D01*
X82577976Y-97690476D01*
X81377977Y-98223810D02*
X81244644Y-97157143D01*
X81263691Y-97309524D02*
X81187501Y-97233333D01*
X81044644Y-97157143D01*
X80844644Y-97157143D01*
X80720834Y-97233333D01*
X80673215Y-97385714D01*
X80777977Y-98223810D01*
X80673215Y-97385714D02*
X80587501Y-97233333D01*
X80444644Y-97157143D01*
X80244644Y-97157143D01*
X80120834Y-97233333D01*
X80073215Y-97385714D01*
X80177977Y-98223810D01*
X79511310Y-98223810D02*
X79377977Y-97157143D01*
X79311310Y-96623810D02*
X79387500Y-96700000D01*
X79330358Y-96776190D01*
X79254167Y-96700000D01*
X79311310Y-96623810D01*
X79330358Y-96776190D01*
X78244643Y-98223810D02*
X78139881Y-97385714D01*
X78187500Y-97233333D01*
X78311310Y-97157143D01*
X78577976Y-97157143D01*
X78720834Y-97233333D01*
X78235119Y-98147619D02*
X78377976Y-98223810D01*
X78711309Y-98223810D01*
X78835119Y-98147619D01*
X78882738Y-97995238D01*
X78863690Y-97842857D01*
X78777976Y-97690476D01*
X78635119Y-97614286D01*
X78301786Y-97614286D01*
X78158929Y-97538095D01*
X77444643Y-97157143D02*
X77577976Y-98223810D01*
X77463690Y-97309524D02*
X77387500Y-97233333D01*
X77244643Y-97157143D01*
X77044643Y-97157143D01*
X76920833Y-97233333D01*
X76873214Y-97385714D01*
X76977976Y-98223810D01*
X75711309Y-98223810D02*
X75606547Y-97385714D01*
X75654166Y-97233333D01*
X75777976Y-97157143D01*
X76044642Y-97157143D01*
X76187500Y-97233333D01*
X75701785Y-98147619D02*
X75844642Y-98223810D01*
X76177975Y-98223810D01*
X76301785Y-98147619D01*
X76349404Y-97995238D01*
X76330356Y-97842857D01*
X76244642Y-97690476D01*
X76101785Y-97614286D01*
X75768452Y-97614286D01*
X75625595Y-97538095D01*
X74844642Y-98223810D02*
X74968451Y-98147619D01*
X75016071Y-97995238D01*
X74844642Y-96623810D01*
X74111309Y-98223810D02*
X74235118Y-98147619D01*
X74292262Y-98071429D01*
X74339880Y-97919048D01*
X74282737Y-97461905D01*
X74197023Y-97309524D01*
X74120833Y-97233333D01*
X73977976Y-97157143D01*
X73777976Y-97157143D01*
X73654166Y-97233333D01*
X73597023Y-97309524D01*
X73549404Y-97461905D01*
X73606547Y-97919048D01*
X73692262Y-98071429D01*
X73768451Y-98147619D01*
X73911309Y-98223810D01*
X74111309Y-98223810D01*
X72311309Y-97157143D02*
X72473214Y-98452381D01*
X72558927Y-98604762D01*
X72635118Y-98680952D01*
X72777975Y-98757143D01*
X72977975Y-98757143D01*
X73101785Y-98680952D01*
X72435118Y-98147619D02*
X72577975Y-98223810D01*
X72844642Y-98223810D01*
X72968451Y-98147619D01*
X73025595Y-98071429D01*
X73073213Y-97919048D01*
X73016070Y-97461905D01*
X72930356Y-97309524D01*
X72854166Y-97233333D01*
X72711309Y-97157143D01*
X72444642Y-97157143D01*
X72320833Y-97233333D01*
D12*
X93266668Y-98147619D02*
X93400001Y-98223810D01*
X93666668Y-98223810D01*
X93800001Y-98147619D01*
X93866668Y-98071429D01*
X93933334Y-97919048D01*
X93933334Y-97461905D01*
X93866668Y-97309524D01*
X93800001Y-97233333D01*
X93666668Y-97157143D01*
X93400001Y-97157143D01*
X93266668Y-97233333D01*
X92666668Y-97157143D02*
X92666668Y-98757143D01*
X92666668Y-97233333D02*
X92533334Y-97157143D01*
X92266668Y-97157143D01*
X92133334Y-97233333D01*
X92066668Y-97309524D01*
X92000001Y-97461905D01*
X92000001Y-97919048D01*
X92066668Y-98071429D01*
X92133334Y-98147619D01*
X92266668Y-98223810D01*
X92533334Y-98223810D01*
X92666668Y-98147619D01*
X90800001Y-98223810D02*
X90800001Y-97385714D01*
X90866667Y-97233333D01*
X91000001Y-97157143D01*
X91266667Y-97157143D01*
X91400001Y-97233333D01*
X90800001Y-98147619D02*
X90933334Y-98223810D01*
X91266667Y-98223810D01*
X91400001Y-98147619D01*
X91466667Y-97995238D01*
X91466667Y-97842857D01*
X91400001Y-97690476D01*
X91266667Y-97614286D01*
X90933334Y-97614286D01*
X90800001Y-97538095D01*
X90266667Y-97157143D02*
X89933334Y-98223810D01*
X89600000Y-97157143D01*
X88866667Y-98223810D02*
X89000000Y-98147619D01*
X89066667Y-97995238D01*
X89066667Y-96623810D01*
X88333334Y-98223810D02*
X88333334Y-97157143D01*
X88333334Y-96623810D02*
X88400000Y-96700000D01*
X88333334Y-96776190D01*
X88266667Y-96700000D01*
X88333334Y-96623810D01*
X88333334Y-96776190D01*
X87666667Y-97157143D02*
X87666667Y-98223810D01*
X87666667Y-97309524D02*
X87600000Y-97233333D01*
X87466667Y-97157143D01*
X87266667Y-97157143D01*
X87133333Y-97233333D01*
X87066667Y-97385714D01*
X87066667Y-98223810D01*
X85800000Y-98223810D02*
X85800000Y-97385714D01*
X85866666Y-97233333D01*
X86000000Y-97157143D01*
X86266666Y-97157143D01*
X86400000Y-97233333D01*
X85800000Y-98147619D02*
X85933333Y-98223810D01*
X86266666Y-98223810D01*
X86400000Y-98147619D01*
X86466666Y-97995238D01*
X86466666Y-97842857D01*
X86400000Y-97690476D01*
X86266666Y-97614286D01*
X85933333Y-97614286D01*
X85800000Y-97538095D01*
X84133333Y-96547619D02*
X85333333Y-98604762D01*
D11*
X19000000Y-86500000D02*
G75*
G03X19000000Y-86500000I-5500000J0D01*
G01*
X92000000Y-86500000D02*
G75*
G03X92000000Y-86500000I-5500000J0D01*
G01*
X92000000Y-13500000D02*
G75*
G03X92000000Y-13500000I-5500000J0D01*
G01*
X19000000Y-13500000D02*
G75*
G03X19000000Y-13500000I-5500000J0D01*
G01*
D13*
G36*
X86136340Y-10983947D02*
X85734033Y-11092888D01*
X85427828Y-11221157D01*
X85185087Y-11373952D01*
X84970563Y-11574466D01*
X84787431Y-11813450D01*
X84638868Y-12081655D01*
X84528049Y-12369833D01*
X84458152Y-12668735D01*
X84432351Y-12969112D01*
X84453823Y-13261715D01*
X84525745Y-13537296D01*
X84585603Y-13673679D01*
X84707477Y-13864550D01*
X84859795Y-14013134D01*
X85050343Y-14124440D01*
X85286908Y-14203476D01*
X85464964Y-14239260D01*
X85792326Y-14304353D01*
X86067585Y-14387037D01*
X86300743Y-14491672D01*
X86501805Y-14622617D01*
X86654889Y-14757808D01*
X86810568Y-14943682D01*
X86910970Y-15140404D01*
X86961996Y-15362479D01*
X86971500Y-15536095D01*
X86966611Y-15664728D01*
X86949489Y-15787555D01*
X86916453Y-15914293D01*
X86863819Y-16054660D01*
X86787906Y-16218376D01*
X86685031Y-16415158D01*
X86551514Y-16654724D01*
X86539996Y-16674980D01*
X86397382Y-16927613D01*
X86284205Y-17134109D01*
X86196971Y-17302627D01*
X86132189Y-17441323D01*
X86086366Y-17558358D01*
X86056010Y-17661888D01*
X86037629Y-17760073D01*
X86027731Y-17861070D01*
X86026964Y-17873500D01*
X86022072Y-18004138D01*
X86029187Y-18097476D01*
X86053152Y-18179304D01*
X86098809Y-18275417D01*
X86104462Y-18286250D01*
X86226455Y-18455519D01*
X86393026Y-18595102D01*
X86587310Y-18691348D01*
X86616621Y-18700848D01*
X86743836Y-18726250D01*
X86913838Y-18742309D01*
X87106566Y-18748740D01*
X87301957Y-18745260D01*
X87479948Y-18731586D01*
X87589391Y-18714588D01*
X87843875Y-18648593D01*
X88055894Y-18560386D01*
X88245470Y-18439043D01*
X88432626Y-18273646D01*
X88473356Y-18232436D01*
X88703531Y-17956652D01*
X88917944Y-17620482D01*
X89115892Y-17225228D01*
X89296671Y-16772193D01*
X89357158Y-16595981D01*
X89508615Y-16080373D01*
X89626240Y-15558686D01*
X89709094Y-15040478D01*
X89756235Y-14535306D01*
X89766725Y-14052724D01*
X89739623Y-13602291D01*
X89686129Y-13250849D01*
X89591161Y-12855078D01*
X89474857Y-12513352D01*
X89331788Y-12218242D01*
X89156528Y-11962318D01*
X88943651Y-11738152D01*
X88687730Y-11538313D01*
X88383339Y-11355373D01*
X88252420Y-11288043D01*
X87837443Y-11114575D01*
X87411693Y-10997274D01*
X86981823Y-10936298D01*
X86554488Y-10931803D01*
X86136340Y-10983947D01*
X86136340Y-10983947D01*
G37*
X86136340Y-10983947D02*
X85734033Y-11092888D01*
X85427828Y-11221157D01*
X85185087Y-11373952D01*
X84970563Y-11574466D01*
X84787431Y-11813450D01*
X84638868Y-12081655D01*
X84528049Y-12369833D01*
X84458152Y-12668735D01*
X84432351Y-12969112D01*
X84453823Y-13261715D01*
X84525745Y-13537296D01*
X84585603Y-13673679D01*
X84707477Y-13864550D01*
X84859795Y-14013134D01*
X85050343Y-14124440D01*
X85286908Y-14203476D01*
X85464964Y-14239260D01*
X85792326Y-14304353D01*
X86067585Y-14387037D01*
X86300743Y-14491672D01*
X86501805Y-14622617D01*
X86654889Y-14757808D01*
X86810568Y-14943682D01*
X86910970Y-15140404D01*
X86961996Y-15362479D01*
X86971500Y-15536095D01*
X86966611Y-15664728D01*
X86949489Y-15787555D01*
X86916453Y-15914293D01*
X86863819Y-16054660D01*
X86787906Y-16218376D01*
X86685031Y-16415158D01*
X86551514Y-16654724D01*
X86539996Y-16674980D01*
X86397382Y-16927613D01*
X86284205Y-17134109D01*
X86196971Y-17302627D01*
X86132189Y-17441323D01*
X86086366Y-17558358D01*
X86056010Y-17661888D01*
X86037629Y-17760073D01*
X86027731Y-17861070D01*
X86026964Y-17873500D01*
X86022072Y-18004138D01*
X86029187Y-18097476D01*
X86053152Y-18179304D01*
X86098809Y-18275417D01*
X86104462Y-18286250D01*
X86226455Y-18455519D01*
X86393026Y-18595102D01*
X86587310Y-18691348D01*
X86616621Y-18700848D01*
X86743836Y-18726250D01*
X86913838Y-18742309D01*
X87106566Y-18748740D01*
X87301957Y-18745260D01*
X87479948Y-18731586D01*
X87589391Y-18714588D01*
X87843875Y-18648593D01*
X88055894Y-18560386D01*
X88245470Y-18439043D01*
X88432626Y-18273646D01*
X88473356Y-18232436D01*
X88703531Y-17956652D01*
X88917944Y-17620482D01*
X89115892Y-17225228D01*
X89296671Y-16772193D01*
X89357158Y-16595981D01*
X89508615Y-16080373D01*
X89626240Y-15558686D01*
X89709094Y-15040478D01*
X89756235Y-14535306D01*
X89766725Y-14052724D01*
X89739623Y-13602291D01*
X89686129Y-13250849D01*
X89591161Y-12855078D01*
X89474857Y-12513352D01*
X89331788Y-12218242D01*
X89156528Y-11962318D01*
X88943651Y-11738152D01*
X88687730Y-11538313D01*
X88383339Y-11355373D01*
X88252420Y-11288043D01*
X87837443Y-11114575D01*
X87411693Y-10997274D01*
X86981823Y-10936298D01*
X86554488Y-10931803D01*
X86136340Y-10983947D01*
G36*
X89636998Y-10844976D02*
X89488809Y-10898471D01*
X89375960Y-10979226D01*
X89253306Y-11116299D01*
X89184990Y-11264907D01*
X89162349Y-11444518D01*
X89162251Y-11459446D01*
X89169255Y-11568421D01*
X89198582Y-11647441D01*
X89262706Y-11729283D01*
X89266529Y-11733469D01*
X89351302Y-11810990D01*
X89438281Y-11848680D01*
X89512591Y-11859687D01*
X89619602Y-11860053D01*
X89713213Y-11845764D01*
X89733750Y-11838864D01*
X89874040Y-11748955D01*
X89992401Y-11614995D01*
X90076454Y-11455710D01*
X90113814Y-11289826D01*
X90114632Y-11262827D01*
X90088537Y-11101059D01*
X90017429Y-10974436D01*
X89911605Y-10886912D01*
X89781362Y-10842441D01*
X89636998Y-10844976D01*
X89636998Y-10844976D01*
G37*
X89636998Y-10844976D02*
X89488809Y-10898471D01*
X89375960Y-10979226D01*
X89253306Y-11116299D01*
X89184990Y-11264907D01*
X89162349Y-11444518D01*
X89162251Y-11459446D01*
X89169255Y-11568421D01*
X89198582Y-11647441D01*
X89262706Y-11729283D01*
X89266529Y-11733469D01*
X89351302Y-11810990D01*
X89438281Y-11848680D01*
X89512591Y-11859687D01*
X89619602Y-11860053D01*
X89713213Y-11845764D01*
X89733750Y-11838864D01*
X89874040Y-11748955D01*
X89992401Y-11614995D01*
X90076454Y-11455710D01*
X90113814Y-11289826D01*
X90114632Y-11262827D01*
X90088537Y-11101059D01*
X90017429Y-10974436D01*
X89911605Y-10886912D01*
X89781362Y-10842441D01*
X89636998Y-10844976D01*
G36*
X83553291Y-9257378D02*
X83444345Y-9269807D01*
X83350160Y-9296697D01*
X83256750Y-9337577D01*
X83037782Y-9475353D01*
X82864269Y-9650680D01*
X82737330Y-9855651D01*
X82658084Y-10082359D01*
X82627649Y-10322897D01*
X82647145Y-10569357D01*
X82717690Y-10813832D01*
X82840402Y-11048414D01*
X82988181Y-11235861D01*
X83184455Y-11412374D01*
X83397787Y-11535383D01*
X83593925Y-11602530D01*
X83789359Y-11640627D01*
X83962920Y-11642365D01*
X84144621Y-11607991D01*
X84147994Y-11607086D01*
X84386073Y-11513544D01*
X84584672Y-11376733D01*
X84742377Y-11204204D01*
X84857780Y-11003509D01*
X84929470Y-10782199D01*
X84956036Y-10547828D01*
X84936066Y-10307945D01*
X84868152Y-10070104D01*
X84750882Y-9841856D01*
X84582846Y-9630752D01*
X84527286Y-9576466D01*
X84337164Y-9424598D01*
X84144435Y-9325021D01*
X83931204Y-9270769D01*
X83701250Y-9254897D01*
X83553291Y-9257378D01*
X83553291Y-9257378D01*
G37*
X83553291Y-9257378D02*
X83444345Y-9269807D01*
X83350160Y-9296697D01*
X83256750Y-9337577D01*
X83037782Y-9475353D01*
X82864269Y-9650680D01*
X82737330Y-9855651D01*
X82658084Y-10082359D01*
X82627649Y-10322897D01*
X82647145Y-10569357D01*
X82717690Y-10813832D01*
X82840402Y-11048414D01*
X82988181Y-11235861D01*
X83184455Y-11412374D01*
X83397787Y-11535383D01*
X83593925Y-11602530D01*
X83789359Y-11640627D01*
X83962920Y-11642365D01*
X84144621Y-11607991D01*
X84147994Y-11607086D01*
X84386073Y-11513544D01*
X84584672Y-11376733D01*
X84742377Y-11204204D01*
X84857780Y-11003509D01*
X84929470Y-10782199D01*
X84956036Y-10547828D01*
X84936066Y-10307945D01*
X84868152Y-10070104D01*
X84750882Y-9841856D01*
X84582846Y-9630752D01*
X84527286Y-9576466D01*
X84337164Y-9424598D01*
X84144435Y-9325021D01*
X83931204Y-9270769D01*
X83701250Y-9254897D01*
X83553291Y-9257378D01*
G36*
X88562385Y-9943783D02*
X88399097Y-10010106D01*
X88251047Y-10131728D01*
X88130789Y-10292715D01*
X88064426Y-10461849D01*
X88051076Y-10629698D01*
X88089860Y-10786830D01*
X88179896Y-10923811D01*
X88320304Y-11031210D01*
X88335797Y-11039312D01*
X88474124Y-11093800D01*
X88602342Y-11103731D01*
X88737350Y-11076320D01*
X88813544Y-11037034D01*
X88905199Y-10966173D01*
X88965941Y-10907000D01*
X89086557Y-10741700D01*
X89155263Y-10570333D01*
X89172630Y-10402036D01*
X89139232Y-10245950D01*
X89055642Y-10111213D01*
X88922433Y-10006963D01*
X88909051Y-9999908D01*
X88732772Y-9940303D01*
X88562385Y-9943783D01*
X88562385Y-9943783D01*
G37*
X88562385Y-9943783D02*
X88399097Y-10010106D01*
X88251047Y-10131728D01*
X88130789Y-10292715D01*
X88064426Y-10461849D01*
X88051076Y-10629698D01*
X88089860Y-10786830D01*
X88179896Y-10923811D01*
X88320304Y-11031210D01*
X88335797Y-11039312D01*
X88474124Y-11093800D01*
X88602342Y-11103731D01*
X88737350Y-11076320D01*
X88813544Y-11037034D01*
X88905199Y-10966173D01*
X88965941Y-10907000D01*
X89086557Y-10741700D01*
X89155263Y-10570333D01*
X89172630Y-10402036D01*
X89139232Y-10245950D01*
X89055642Y-10111213D01*
X88922433Y-10006963D01*
X88909051Y-9999908D01*
X88732772Y-9940303D01*
X88562385Y-9943783D01*
G36*
X87268408Y-9395066D02*
X87113429Y-9460723D01*
X87002064Y-9552751D01*
X86897637Y-9701683D01*
X86833786Y-9877361D01*
X86809752Y-10066099D01*
X86824772Y-10254210D01*
X86878087Y-10428007D01*
X86968936Y-10573803D01*
X87063508Y-10658056D01*
X87198293Y-10713784D01*
X87355290Y-10727039D01*
X87507642Y-10695651D01*
X87511250Y-10694239D01*
X87653210Y-10605890D01*
X87764246Y-10473662D01*
X87841990Y-10310393D01*
X87884074Y-10128919D01*
X87888129Y-9942079D01*
X87851788Y-9762710D01*
X87772684Y-9603651D01*
X87723559Y-9543236D01*
X87583998Y-9436183D01*
X87428773Y-9386840D01*
X87268408Y-9395066D01*
X87268408Y-9395066D01*
G37*
X87268408Y-9395066D02*
X87113429Y-9460723D01*
X87002064Y-9552751D01*
X86897637Y-9701683D01*
X86833786Y-9877361D01*
X86809752Y-10066099D01*
X86824772Y-10254210D01*
X86878087Y-10428007D01*
X86968936Y-10573803D01*
X87063508Y-10658056D01*
X87198293Y-10713784D01*
X87355290Y-10727039D01*
X87507642Y-10695651D01*
X87511250Y-10694239D01*
X87653210Y-10605890D01*
X87764246Y-10473662D01*
X87841990Y-10310393D01*
X87884074Y-10128919D01*
X87888129Y-9942079D01*
X87851788Y-9762710D01*
X87772684Y-9603651D01*
X87723559Y-9543236D01*
X87583998Y-9436183D01*
X87428773Y-9386840D01*
X87268408Y-9395066D01*
G36*
X85895654Y-9402133D02*
X85702456Y-9443407D01*
X85546144Y-9532950D01*
X85432345Y-9664866D01*
X85366683Y-9833257D01*
X85352369Y-9971695D01*
X85374166Y-10177258D01*
X85435355Y-10367900D01*
X85529216Y-10529949D01*
X85649028Y-10649733D01*
X85701565Y-10682158D01*
X85821500Y-10718362D01*
X85968105Y-10727387D01*
X86110728Y-10709380D01*
X86193625Y-10679820D01*
X86357045Y-10563648D01*
X86467601Y-10415811D01*
X86523899Y-10241831D01*
X86524548Y-10047230D01*
X86468156Y-9837530D01*
X86428384Y-9748794D01*
X86327538Y-9581825D01*
X86216283Y-9472210D01*
X86085185Y-9413808D01*
X85924811Y-9400481D01*
X85895654Y-9402133D01*
X85895654Y-9402133D01*
G37*
X85895654Y-9402133D02*
X85702456Y-9443407D01*
X85546144Y-9532950D01*
X85432345Y-9664866D01*
X85366683Y-9833257D01*
X85352369Y-9971695D01*
X85374166Y-10177258D01*
X85435355Y-10367900D01*
X85529216Y-10529949D01*
X85649028Y-10649733D01*
X85701565Y-10682158D01*
X85821500Y-10718362D01*
X85968105Y-10727387D01*
X86110728Y-10709380D01*
X86193625Y-10679820D01*
X86357045Y-10563648D01*
X86467601Y-10415811D01*
X86523899Y-10241831D01*
X86524548Y-10047230D01*
X86468156Y-9837530D01*
X86428384Y-9748794D01*
X86327538Y-9581825D01*
X86216283Y-9472210D01*
X86085185Y-9413808D01*
X85924811Y-9400481D01*
X85895654Y-9402133D01*
G36*
X12270356Y-10771669D02*
X11834384Y-10878137D01*
X11402279Y-11046600D01*
X11315831Y-11088043D01*
X10991383Y-11266468D01*
X10717491Y-11458938D01*
X10488726Y-11672884D01*
X10299663Y-11915733D01*
X10144874Y-12194917D01*
X10018933Y-12517863D01*
X9916413Y-12892001D01*
X9882122Y-13050849D01*
X9822231Y-13466329D01*
X9800733Y-13922104D01*
X9816687Y-14408618D01*
X9869154Y-14916314D01*
X9957195Y-15435636D01*
X10079868Y-15957026D01*
X10211093Y-16395981D01*
X10310478Y-16673594D01*
X10424758Y-16953181D01*
X10547121Y-17220192D01*
X10670755Y-17460072D01*
X10788847Y-17658271D01*
X10830534Y-17719188D01*
X11020051Y-17953739D01*
X11225528Y-18155620D01*
X11435793Y-18315013D01*
X11622893Y-18415287D01*
X11827765Y-18480729D01*
X12070804Y-18526745D01*
X12329982Y-18551550D01*
X12583269Y-18553361D01*
X12808637Y-18530391D01*
X12874622Y-18516707D01*
X13094609Y-18436601D01*
X13281232Y-18314331D01*
X13422812Y-18157813D01*
X13437286Y-18135385D01*
X13485013Y-18052278D01*
X13513599Y-17979412D01*
X13527758Y-17895561D01*
X13532202Y-17779497D01*
X13532276Y-17707599D01*
X13529970Y-17606288D01*
X13521729Y-17514535D01*
X13504244Y-17424253D01*
X13474208Y-17327353D01*
X13428316Y-17215750D01*
X13363259Y-17081354D01*
X13275731Y-16916078D01*
X13162425Y-16711836D01*
X13028255Y-16474980D01*
X12892255Y-16231760D01*
X12787179Y-16032064D01*
X12709344Y-15866174D01*
X12655068Y-15724371D01*
X12620670Y-15596938D01*
X12602466Y-15474155D01*
X12596776Y-15346306D01*
X12596750Y-15336095D01*
X12617458Y-15088380D01*
X12683513Y-14875921D01*
X12800817Y-14684213D01*
X12913362Y-14557808D01*
X13095012Y-14401083D01*
X13300259Y-14274371D01*
X13539108Y-14173314D01*
X13821559Y-14093552D01*
X14103287Y-14039260D01*
X14373189Y-13978151D01*
X14592119Y-13887959D01*
X14767862Y-13763676D01*
X14908208Y-13600293D01*
X14982648Y-13473679D01*
X15082120Y-13212051D01*
X15130425Y-12925447D01*
X15129467Y-12623756D01*
X15081152Y-12316867D01*
X14987385Y-12014668D01*
X14850071Y-11727048D01*
X14671114Y-11463896D01*
X14573961Y-11352326D01*
X14365147Y-11164489D01*
X14124571Y-11012836D01*
X13845575Y-10894549D01*
X13521505Y-10806808D01*
X13145704Y-10746794D01*
X13143896Y-10746584D01*
X12707693Y-10727662D01*
X12270356Y-10771669D01*
X12270356Y-10771669D01*
G37*
X12270356Y-10771669D02*
X11834384Y-10878137D01*
X11402279Y-11046600D01*
X11315831Y-11088043D01*
X10991383Y-11266468D01*
X10717491Y-11458938D01*
X10488726Y-11672884D01*
X10299663Y-11915733D01*
X10144874Y-12194917D01*
X10018933Y-12517863D01*
X9916413Y-12892001D01*
X9882122Y-13050849D01*
X9822231Y-13466329D01*
X9800733Y-13922104D01*
X9816687Y-14408618D01*
X9869154Y-14916314D01*
X9957195Y-15435636D01*
X10079868Y-15957026D01*
X10211093Y-16395981D01*
X10310478Y-16673594D01*
X10424758Y-16953181D01*
X10547121Y-17220192D01*
X10670755Y-17460072D01*
X10788847Y-17658271D01*
X10830534Y-17719188D01*
X11020051Y-17953739D01*
X11225528Y-18155620D01*
X11435793Y-18315013D01*
X11622893Y-18415287D01*
X11827765Y-18480729D01*
X12070804Y-18526745D01*
X12329982Y-18551550D01*
X12583269Y-18553361D01*
X12808637Y-18530391D01*
X12874622Y-18516707D01*
X13094609Y-18436601D01*
X13281232Y-18314331D01*
X13422812Y-18157813D01*
X13437286Y-18135385D01*
X13485013Y-18052278D01*
X13513599Y-17979412D01*
X13527758Y-17895561D01*
X13532202Y-17779497D01*
X13532276Y-17707599D01*
X13529970Y-17606288D01*
X13521729Y-17514535D01*
X13504244Y-17424253D01*
X13474208Y-17327353D01*
X13428316Y-17215750D01*
X13363259Y-17081354D01*
X13275731Y-16916078D01*
X13162425Y-16711836D01*
X13028255Y-16474980D01*
X12892255Y-16231760D01*
X12787179Y-16032064D01*
X12709344Y-15866174D01*
X12655068Y-15724371D01*
X12620670Y-15596938D01*
X12602466Y-15474155D01*
X12596776Y-15346306D01*
X12596750Y-15336095D01*
X12617458Y-15088380D01*
X12683513Y-14875921D01*
X12800817Y-14684213D01*
X12913362Y-14557808D01*
X13095012Y-14401083D01*
X13300259Y-14274371D01*
X13539108Y-14173314D01*
X13821559Y-14093552D01*
X14103287Y-14039260D01*
X14373189Y-13978151D01*
X14592119Y-13887959D01*
X14767862Y-13763676D01*
X14908208Y-13600293D01*
X14982648Y-13473679D01*
X15082120Y-13212051D01*
X15130425Y-12925447D01*
X15129467Y-12623756D01*
X15081152Y-12316867D01*
X14987385Y-12014668D01*
X14850071Y-11727048D01*
X14671114Y-11463896D01*
X14573961Y-11352326D01*
X14365147Y-11164489D01*
X14124571Y-11012836D01*
X13845575Y-10894549D01*
X13521505Y-10806808D01*
X13145704Y-10746794D01*
X13143896Y-10746584D01*
X12707693Y-10727662D01*
X12270356Y-10771669D01*
G36*
X9752741Y-10647867D02*
X9622900Y-10707173D01*
X9520731Y-10816812D01*
X9517814Y-10821526D01*
X9461410Y-10967245D01*
X9456650Y-11120230D01*
X9496059Y-11271086D01*
X9572164Y-11410416D01*
X9677490Y-11528825D01*
X9804562Y-11616916D01*
X9945908Y-11665293D01*
X10094052Y-11664561D01*
X10170465Y-11641988D01*
X10233351Y-11600725D01*
X10305738Y-11532262D01*
X10321278Y-11514565D01*
X10378329Y-11428868D01*
X10402693Y-11333199D01*
X10406000Y-11256544D01*
X10385993Y-11074773D01*
X10320324Y-10924474D01*
X10200520Y-10786724D01*
X10192291Y-10779226D01*
X10049035Y-10683166D01*
X9898652Y-10639622D01*
X9752741Y-10647867D01*
X9752741Y-10647867D01*
G37*
X9752741Y-10647867D02*
X9622900Y-10707173D01*
X9520731Y-10816812D01*
X9517814Y-10821526D01*
X9461410Y-10967245D01*
X9456650Y-11120230D01*
X9496059Y-11271086D01*
X9572164Y-11410416D01*
X9677490Y-11528825D01*
X9804562Y-11616916D01*
X9945908Y-11665293D01*
X10094052Y-11664561D01*
X10170465Y-11641988D01*
X10233351Y-11600725D01*
X10305738Y-11532262D01*
X10321278Y-11514565D01*
X10378329Y-11428868D01*
X10402693Y-11333199D01*
X10406000Y-11256544D01*
X10385993Y-11074773D01*
X10320324Y-10924474D01*
X10200520Y-10786724D01*
X10192291Y-10779226D01*
X10049035Y-10683166D01*
X9898652Y-10639622D01*
X9752741Y-10647867D01*
G36*
X15619053Y-9073566D02*
X15408090Y-9131143D01*
X15216218Y-9234594D01*
X15040965Y-9376466D01*
X14859193Y-9581245D01*
X14727616Y-9806766D01*
X14645537Y-10045014D01*
X14612262Y-10287977D01*
X14627094Y-10527642D01*
X14689339Y-10755996D01*
X14798301Y-10965026D01*
X14953285Y-11146718D01*
X15153595Y-11293061D01*
X15209865Y-11322787D01*
X15450115Y-11408838D01*
X15700768Y-11439671D01*
X15946008Y-11413657D01*
X15988146Y-11402871D01*
X16235138Y-11303296D01*
X16453324Y-11156188D01*
X16637621Y-10970226D01*
X16782942Y-10754088D01*
X16884204Y-10516451D01*
X16936322Y-10265993D01*
X16934211Y-10011393D01*
X16900689Y-9845467D01*
X16799685Y-9594333D01*
X16652132Y-9386261D01*
X16457142Y-9220183D01*
X16311500Y-9137577D01*
X16209657Y-9093592D01*
X16115140Y-9068177D01*
X16003697Y-9056818D01*
X15867000Y-9054897D01*
X15619053Y-9073566D01*
X15619053Y-9073566D01*
G37*
X15619053Y-9073566D02*
X15408090Y-9131143D01*
X15216218Y-9234594D01*
X15040965Y-9376466D01*
X14859193Y-9581245D01*
X14727616Y-9806766D01*
X14645537Y-10045014D01*
X14612262Y-10287977D01*
X14627094Y-10527642D01*
X14689339Y-10755996D01*
X14798301Y-10965026D01*
X14953285Y-11146718D01*
X15153595Y-11293061D01*
X15209865Y-11322787D01*
X15450115Y-11408838D01*
X15700768Y-11439671D01*
X15946008Y-11413657D01*
X15988146Y-11402871D01*
X16235138Y-11303296D01*
X16453324Y-11156188D01*
X16637621Y-10970226D01*
X16782942Y-10754088D01*
X16884204Y-10516451D01*
X16936322Y-10265993D01*
X16934211Y-10011393D01*
X16900689Y-9845467D01*
X16799685Y-9594333D01*
X16652132Y-9386261D01*
X16457142Y-9220183D01*
X16311500Y-9137577D01*
X16209657Y-9093592D01*
X16115140Y-9068177D01*
X16003697Y-9056818D01*
X15867000Y-9054897D01*
X15619053Y-9073566D01*
G36*
X10659200Y-9799908D02*
X10521940Y-9901172D01*
X10434187Y-10033733D01*
X10396525Y-10188409D01*
X10409535Y-10356018D01*
X10473801Y-10527377D01*
X10589906Y-10693304D01*
X10601676Y-10706312D01*
X10748994Y-10833034D01*
X10901165Y-10896953D01*
X11061395Y-10898747D01*
X11232454Y-10839312D01*
X11377474Y-10735124D01*
X11472204Y-10600482D01*
X11515763Y-10444818D01*
X11507270Y-10277564D01*
X11445844Y-10108153D01*
X11330605Y-9946017D01*
X11317204Y-9931728D01*
X11161814Y-9805679D01*
X10998172Y-9742242D01*
X10827488Y-9741659D01*
X10659200Y-9799908D01*
X10659200Y-9799908D01*
G37*
X10659200Y-9799908D02*
X10521940Y-9901172D01*
X10434187Y-10033733D01*
X10396525Y-10188409D01*
X10409535Y-10356018D01*
X10473801Y-10527377D01*
X10589906Y-10693304D01*
X10601676Y-10706312D01*
X10748994Y-10833034D01*
X10901165Y-10896953D01*
X11061395Y-10898747D01*
X11232454Y-10839312D01*
X11377474Y-10735124D01*
X11472204Y-10600482D01*
X11515763Y-10444818D01*
X11507270Y-10277564D01*
X11445844Y-10108153D01*
X11330605Y-9946017D01*
X11317204Y-9931728D01*
X11161814Y-9805679D01*
X10998172Y-9742242D01*
X10827488Y-9741659D01*
X10659200Y-9799908D01*
G36*
X13506634Y-9208784D02*
X13371465Y-9259523D01*
X13257656Y-9360488D01*
X13155772Y-9517819D01*
X13139867Y-9548794D01*
X13059620Y-9763730D01*
X13038241Y-9965738D01*
X13075058Y-10150433D01*
X13169400Y-10313433D01*
X13272619Y-10414937D01*
X13403967Y-10487300D01*
X13560075Y-10524829D01*
X13718555Y-10525475D01*
X13857017Y-10487188D01*
X13886164Y-10471115D01*
X14024114Y-10348579D01*
X14128835Y-10180910D01*
X14194626Y-9980197D01*
X14215882Y-9771695D01*
X14187805Y-9580992D01*
X14107598Y-9422576D01*
X13980885Y-9302346D01*
X13813292Y-9226200D01*
X13672597Y-9202133D01*
X13506634Y-9208784D01*
X13506634Y-9208784D01*
G37*
X13506634Y-9208784D02*
X13371465Y-9259523D01*
X13257656Y-9360488D01*
X13155772Y-9517819D01*
X13139867Y-9548794D01*
X13059620Y-9763730D01*
X13038241Y-9965738D01*
X13075058Y-10150433D01*
X13169400Y-10313433D01*
X13272619Y-10414937D01*
X13403967Y-10487300D01*
X13560075Y-10524829D01*
X13718555Y-10525475D01*
X13857017Y-10487188D01*
X13886164Y-10471115D01*
X14024114Y-10348579D01*
X14128835Y-10180910D01*
X14194626Y-9980197D01*
X14215882Y-9771695D01*
X14187805Y-9580992D01*
X14107598Y-9422576D01*
X13980885Y-9302346D01*
X13813292Y-9226200D01*
X13672597Y-9202133D01*
X13506634Y-9208784D01*
G36*
X11987010Y-9233789D02*
X11863405Y-9324949D01*
X11764867Y-9455778D01*
X11699692Y-9621943D01*
X11676178Y-9817549D01*
X11698781Y-10015833D01*
X11762028Y-10190627D01*
X11858217Y-10335979D01*
X11979648Y-10445936D01*
X12118620Y-10514545D01*
X12267431Y-10535853D01*
X12418381Y-10503906D01*
X12504743Y-10458056D01*
X12623873Y-10342969D01*
X12706031Y-10189394D01*
X12750457Y-10011006D01*
X12756392Y-9821479D01*
X12723075Y-9634488D01*
X12649746Y-9463708D01*
X12566187Y-9352538D01*
X12425271Y-9241673D01*
X12276240Y-9187817D01*
X12127387Y-9186633D01*
X11987010Y-9233789D01*
X11987010Y-9233789D01*
G37*
X11987010Y-9233789D02*
X11863405Y-9324949D01*
X11764867Y-9455778D01*
X11699692Y-9621943D01*
X11676178Y-9817549D01*
X11698781Y-10015833D01*
X11762028Y-10190627D01*
X11858217Y-10335979D01*
X11979648Y-10445936D01*
X12118620Y-10514545D01*
X12267431Y-10535853D01*
X12418381Y-10503906D01*
X12504743Y-10458056D01*
X12623873Y-10342969D01*
X12706031Y-10189394D01*
X12750457Y-10011006D01*
X12756392Y-9821479D01*
X12723075Y-9634488D01*
X12649746Y-9463708D01*
X12566187Y-9352538D01*
X12425271Y-9241673D01*
X12276240Y-9187817D01*
X12127387Y-9186633D01*
X11987010Y-9233789D01*
%LPC*%
D14*
X1500000Y-87500000D03*
X1500000Y-94500000D03*
D15*
X4200000Y-88500000D03*
X4200000Y-93500000D03*
D14*
X91500000Y-1500000D03*
X84500000Y-1500000D03*
D16*
X90500000Y-4200000D03*
X85500000Y-4200000D03*
D17*
X50000000Y-73730000D03*
X50000000Y-76270000D03*
D18*
X70730000Y-3000000D03*
X73270000Y-3000000D03*
D17*
X48476000Y-88730000D03*
X48476000Y-91270000D03*
X51524000Y-88730000D03*
X51524000Y-91270000D03*
D19*
X3810000Y-59690000D03*
X3810000Y-62230000D03*
X3810000Y-64770000D03*
X3810000Y-67310000D03*
X3810000Y-69850000D03*
X3810000Y-72390000D03*
X3810000Y-74930000D03*
X3810000Y-77470000D03*
X3810000Y-80010000D03*
X3810000Y-82550000D03*
X6350000Y-67310000D03*
X6350000Y-59690000D03*
X6350000Y-62230000D03*
X6350000Y-64770000D03*
X6350000Y-69850000D03*
X6350000Y-80010000D03*
X6350000Y-72390000D03*
X6350000Y-74930000D03*
X6350000Y-77470000D03*
X6350000Y-82550000D03*
X3810000Y-34290000D03*
X3810000Y-36830000D03*
X3810000Y-39370000D03*
X3810000Y-41910000D03*
X3810000Y-44450000D03*
X3810000Y-46990000D03*
X3810000Y-49530000D03*
X3810000Y-52070000D03*
X3810000Y-54610000D03*
X3810000Y-57150000D03*
X6350000Y-41910000D03*
X6350000Y-34290000D03*
X6350000Y-36830000D03*
X6350000Y-39370000D03*
X6350000Y-44450000D03*
X6350000Y-54610000D03*
X6350000Y-46990000D03*
X6350000Y-49530000D03*
X6350000Y-52070000D03*
X6350000Y-57150000D03*
X3810000Y-8890000D03*
X3810000Y-11430000D03*
X3810000Y-13970000D03*
X3810000Y-16510000D03*
X3810000Y-19050000D03*
X3810000Y-21590000D03*
X3810000Y-24130000D03*
X3810000Y-26670000D03*
X3810000Y-29210000D03*
X3810000Y-31750000D03*
X6350000Y-16510000D03*
X6350000Y-8890000D03*
X6350000Y-11430000D03*
X6350000Y-13970000D03*
X6350000Y-19050000D03*
X6350000Y-29210000D03*
X6350000Y-21590000D03*
X6350000Y-24130000D03*
X6350000Y-26670000D03*
X6350000Y-31750000D03*
X36830000Y-3810000D03*
X34290000Y-3810000D03*
X31750000Y-3810000D03*
X29210000Y-3810000D03*
X26670000Y-3810000D03*
X24130000Y-3810000D03*
X21590000Y-3810000D03*
X19050000Y-3810000D03*
X16510000Y-3810000D03*
X13970000Y-3810000D03*
X29210000Y-6350000D03*
X36830000Y-6350000D03*
X34290000Y-6350000D03*
X31750000Y-6350000D03*
X26670000Y-6350000D03*
X16510000Y-6350000D03*
X24130000Y-6350000D03*
X21590000Y-6350000D03*
X19050000Y-6350000D03*
X13970000Y-6350000D03*
D17*
X25400000Y-19270000D03*
X25400000Y-16730000D03*
X20320000Y-19270000D03*
X20320000Y-16730000D03*
D20*
X47460000Y-9254000D03*
D18*
X50000000Y-9254000D03*
X52540000Y-9254000D03*
X47460000Y-6206000D03*
X50000000Y-6206000D03*
X52540000Y-6206000D03*
M02*
