G04 #@! TF.FileFunction,Soldermask,Bot*
%FSLAX46Y46*%
G04 Gerber Fmt 4.6, Leading zero omitted, Abs format (unit mm)*
G04 Created by KiCad (PCBNEW (2016-03-18 BZR 6629, Git 60d93d0)-product) date Tue 22 Mar 2016 11:04:14 AM EDT*
%MOMM*%
G01*
G04 APERTURE LIST*
%ADD10C,0.100000*%
G04 APERTURE END LIST*
D10*
G36*
X1675848Y-93638624D02*
X1675868Y-93638630D01*
X1675943Y-93638638D01*
X1839076Y-93689136D01*
X1989294Y-93770358D01*
X2120874Y-93879211D01*
X2228806Y-94011548D01*
X2308978Y-94162329D01*
X2358336Y-94325811D01*
X2375000Y-94495766D01*
X2375000Y-94504306D01*
X2374951Y-94511292D01*
X2374915Y-94516451D01*
X2355879Y-94686157D01*
X2304243Y-94848933D01*
X2221974Y-94998580D01*
X2112205Y-95129398D01*
X1979118Y-95236403D01*
X1827781Y-95315520D01*
X1663959Y-95363735D01*
X1663889Y-95363741D01*
X1663870Y-95363747D01*
X1493893Y-95379216D01*
X1324152Y-95361376D01*
X1324132Y-95361370D01*
X1324057Y-95361362D01*
X1160924Y-95310864D01*
X1010706Y-95229642D01*
X879126Y-95120789D01*
X771194Y-94988452D01*
X691022Y-94837671D01*
X641664Y-94674189D01*
X625000Y-94504234D01*
X625000Y-94495694D01*
X625057Y-94487585D01*
X625085Y-94483549D01*
X644121Y-94313843D01*
X695757Y-94151067D01*
X778026Y-94001420D01*
X887795Y-93870602D01*
X1020882Y-93763597D01*
X1172219Y-93684480D01*
X1336041Y-93636265D01*
X1336111Y-93636259D01*
X1336130Y-93636253D01*
X1506107Y-93620784D01*
X1675848Y-93638624D01*
X1675848Y-93638624D01*
G37*
G36*
X4308198Y-92875032D02*
X4308205Y-92875033D01*
X4312234Y-92875061D01*
X4433453Y-92888658D01*
X4549722Y-92925540D01*
X4656612Y-92984304D01*
X4750053Y-93062710D01*
X4826486Y-93157773D01*
X4882998Y-93265871D01*
X4917438Y-93382887D01*
X4917445Y-93382960D01*
X4917449Y-93382975D01*
X4928496Y-93504362D01*
X4915756Y-93625579D01*
X4915751Y-93625594D01*
X4915743Y-93625674D01*
X4879672Y-93742197D01*
X4821656Y-93849496D01*
X4743904Y-93943482D01*
X4649378Y-94020576D01*
X4541677Y-94077841D01*
X4424904Y-94113097D01*
X4303508Y-94125000D01*
X4096424Y-94125000D01*
X4091802Y-94124968D01*
X4091795Y-94124967D01*
X4087766Y-94124939D01*
X3966547Y-94111342D01*
X3850278Y-94074460D01*
X3743388Y-94015696D01*
X3649947Y-93937290D01*
X3573514Y-93842227D01*
X3517002Y-93734129D01*
X3482562Y-93617113D01*
X3482555Y-93617040D01*
X3482551Y-93617025D01*
X3471504Y-93495638D01*
X3484244Y-93374421D01*
X3484249Y-93374406D01*
X3484257Y-93374326D01*
X3520328Y-93257803D01*
X3578344Y-93150504D01*
X3656096Y-93056518D01*
X3750622Y-92979424D01*
X3858323Y-92922159D01*
X3975096Y-92886903D01*
X4096492Y-92875000D01*
X4303576Y-92875000D01*
X4308198Y-92875032D01*
X4308198Y-92875032D01*
G37*
G36*
X48868387Y-90508041D02*
X48873169Y-90508074D01*
X49020959Y-90524652D01*
X49162714Y-90569619D01*
X49293035Y-90641264D01*
X49406958Y-90736857D01*
X49500144Y-90852757D01*
X49569044Y-90984550D01*
X49611033Y-91127215D01*
X49611039Y-91127282D01*
X49611047Y-91127309D01*
X49624516Y-91275313D01*
X49608981Y-91423127D01*
X49608973Y-91423152D01*
X49608966Y-91423221D01*
X49564990Y-91565287D01*
X49494257Y-91696105D01*
X49399461Y-91810693D01*
X49284214Y-91904686D01*
X49152906Y-91974504D01*
X49010537Y-92017488D01*
X48862530Y-92032000D01*
X48089397Y-92032000D01*
X48083613Y-92031959D01*
X48078831Y-92031926D01*
X47931041Y-92015348D01*
X47789286Y-91970381D01*
X47658965Y-91898736D01*
X47545042Y-91803143D01*
X47451856Y-91687243D01*
X47382956Y-91555450D01*
X47340967Y-91412785D01*
X47340961Y-91412718D01*
X47340953Y-91412691D01*
X47327484Y-91264687D01*
X47343019Y-91116873D01*
X47343027Y-91116848D01*
X47343034Y-91116779D01*
X47387010Y-90974713D01*
X47457743Y-90843895D01*
X47552539Y-90729307D01*
X47667786Y-90635314D01*
X47799094Y-90565496D01*
X47941463Y-90522512D01*
X48089470Y-90508000D01*
X48862603Y-90508000D01*
X48868387Y-90508041D01*
X48868387Y-90508041D01*
G37*
G36*
X51916387Y-90508041D02*
X51921169Y-90508074D01*
X52068959Y-90524652D01*
X52210714Y-90569619D01*
X52341035Y-90641264D01*
X52454958Y-90736857D01*
X52548144Y-90852757D01*
X52617044Y-90984550D01*
X52659033Y-91127215D01*
X52659039Y-91127282D01*
X52659047Y-91127309D01*
X52672516Y-91275313D01*
X52656981Y-91423127D01*
X52656973Y-91423152D01*
X52656966Y-91423221D01*
X52612990Y-91565287D01*
X52542257Y-91696105D01*
X52447461Y-91810693D01*
X52332214Y-91904686D01*
X52200906Y-91974504D01*
X52058537Y-92017488D01*
X51910530Y-92032000D01*
X51137397Y-92032000D01*
X51131613Y-92031959D01*
X51126831Y-92031926D01*
X50979041Y-92015348D01*
X50837286Y-91970381D01*
X50706965Y-91898736D01*
X50593042Y-91803143D01*
X50499856Y-91687243D01*
X50430956Y-91555450D01*
X50388967Y-91412785D01*
X50388961Y-91412718D01*
X50388953Y-91412691D01*
X50375484Y-91264687D01*
X50391019Y-91116873D01*
X50391027Y-91116848D01*
X50391034Y-91116779D01*
X50435010Y-90974713D01*
X50505743Y-90843895D01*
X50600539Y-90729307D01*
X50715786Y-90635314D01*
X50847094Y-90565496D01*
X50989463Y-90522512D01*
X51137470Y-90508000D01*
X51910603Y-90508000D01*
X51916387Y-90508041D01*
X51916387Y-90508041D01*
G37*
G36*
X48868387Y-87968041D02*
X48873169Y-87968074D01*
X49020959Y-87984652D01*
X49162714Y-88029619D01*
X49293035Y-88101264D01*
X49406958Y-88196857D01*
X49500144Y-88312757D01*
X49569044Y-88444550D01*
X49611033Y-88587215D01*
X49611039Y-88587282D01*
X49611047Y-88587309D01*
X49624516Y-88735313D01*
X49608981Y-88883127D01*
X49608973Y-88883152D01*
X49608966Y-88883221D01*
X49564990Y-89025287D01*
X49494257Y-89156105D01*
X49399461Y-89270693D01*
X49284214Y-89364686D01*
X49152906Y-89434504D01*
X49010537Y-89477488D01*
X48862530Y-89492000D01*
X48089397Y-89492000D01*
X48083613Y-89491959D01*
X48078831Y-89491926D01*
X47931041Y-89475348D01*
X47789286Y-89430381D01*
X47658965Y-89358736D01*
X47545042Y-89263143D01*
X47451856Y-89147243D01*
X47382956Y-89015450D01*
X47340967Y-88872785D01*
X47340961Y-88872718D01*
X47340953Y-88872691D01*
X47327484Y-88724687D01*
X47343019Y-88576873D01*
X47343027Y-88576848D01*
X47343034Y-88576779D01*
X47387010Y-88434713D01*
X47457743Y-88303895D01*
X47552539Y-88189307D01*
X47667786Y-88095314D01*
X47799094Y-88025496D01*
X47941463Y-87982512D01*
X48089470Y-87968000D01*
X48862603Y-87968000D01*
X48868387Y-87968041D01*
X48868387Y-87968041D01*
G37*
G36*
X51916387Y-87968041D02*
X51921169Y-87968074D01*
X52068959Y-87984652D01*
X52210714Y-88029619D01*
X52341035Y-88101264D01*
X52454958Y-88196857D01*
X52548144Y-88312757D01*
X52617044Y-88444550D01*
X52659033Y-88587215D01*
X52659039Y-88587282D01*
X52659047Y-88587309D01*
X52672516Y-88735313D01*
X52656981Y-88883127D01*
X52656973Y-88883152D01*
X52656966Y-88883221D01*
X52612990Y-89025287D01*
X52542257Y-89156105D01*
X52447461Y-89270693D01*
X52332214Y-89364686D01*
X52200906Y-89434504D01*
X52058537Y-89477488D01*
X51910530Y-89492000D01*
X51137397Y-89492000D01*
X51131613Y-89491959D01*
X51126831Y-89491926D01*
X50979041Y-89475348D01*
X50837286Y-89430381D01*
X50706965Y-89358736D01*
X50593042Y-89263143D01*
X50499856Y-89147243D01*
X50430956Y-89015450D01*
X50388967Y-88872785D01*
X50388961Y-88872718D01*
X50388953Y-88872691D01*
X50375484Y-88724687D01*
X50391019Y-88576873D01*
X50391027Y-88576848D01*
X50391034Y-88576779D01*
X50435010Y-88434713D01*
X50505743Y-88303895D01*
X50600539Y-88189307D01*
X50715786Y-88095314D01*
X50847094Y-88025496D01*
X50989463Y-87982512D01*
X51137470Y-87968000D01*
X51910603Y-87968000D01*
X51916387Y-87968041D01*
X51916387Y-87968041D01*
G37*
G36*
X4308198Y-87875032D02*
X4308205Y-87875033D01*
X4312234Y-87875061D01*
X4433453Y-87888658D01*
X4549722Y-87925540D01*
X4656612Y-87984304D01*
X4750053Y-88062710D01*
X4826486Y-88157773D01*
X4882998Y-88265871D01*
X4917438Y-88382887D01*
X4917445Y-88382960D01*
X4917449Y-88382975D01*
X4928496Y-88504362D01*
X4915756Y-88625579D01*
X4915751Y-88625594D01*
X4915743Y-88625674D01*
X4879672Y-88742197D01*
X4821656Y-88849496D01*
X4743904Y-88943482D01*
X4649378Y-89020576D01*
X4541677Y-89077841D01*
X4424904Y-89113097D01*
X4303508Y-89125000D01*
X4096424Y-89125000D01*
X4091802Y-89124968D01*
X4091795Y-89124967D01*
X4087766Y-89124939D01*
X3966547Y-89111342D01*
X3850278Y-89074460D01*
X3743388Y-89015696D01*
X3649947Y-88937290D01*
X3573514Y-88842227D01*
X3517002Y-88734129D01*
X3482562Y-88617113D01*
X3482555Y-88617040D01*
X3482551Y-88617025D01*
X3471504Y-88495638D01*
X3484244Y-88374421D01*
X3484249Y-88374406D01*
X3484257Y-88374326D01*
X3520328Y-88257803D01*
X3578344Y-88150504D01*
X3656096Y-88056518D01*
X3750622Y-87979424D01*
X3858323Y-87922159D01*
X3975096Y-87886903D01*
X4096492Y-87875000D01*
X4303576Y-87875000D01*
X4308198Y-87875032D01*
X4308198Y-87875032D01*
G37*
G36*
X1675848Y-86638624D02*
X1675868Y-86638630D01*
X1675943Y-86638638D01*
X1839076Y-86689136D01*
X1989294Y-86770358D01*
X2120874Y-86879211D01*
X2228806Y-87011548D01*
X2308978Y-87162329D01*
X2358336Y-87325811D01*
X2375000Y-87495766D01*
X2375000Y-87504306D01*
X2374951Y-87511292D01*
X2374915Y-87516451D01*
X2355879Y-87686157D01*
X2304243Y-87848933D01*
X2221974Y-87998580D01*
X2112205Y-88129398D01*
X1979118Y-88236403D01*
X1827781Y-88315520D01*
X1663959Y-88363735D01*
X1663889Y-88363741D01*
X1663870Y-88363747D01*
X1493893Y-88379216D01*
X1324152Y-88361376D01*
X1324132Y-88361370D01*
X1324057Y-88361362D01*
X1160924Y-88310864D01*
X1010706Y-88229642D01*
X879126Y-88120789D01*
X771194Y-87988452D01*
X691022Y-87837671D01*
X641664Y-87674189D01*
X625000Y-87504234D01*
X625000Y-87495694D01*
X625057Y-87487585D01*
X625085Y-87483549D01*
X644121Y-87313843D01*
X695757Y-87151067D01*
X778026Y-87001420D01*
X887795Y-86870602D01*
X1020882Y-86763597D01*
X1172219Y-86684480D01*
X1336041Y-86636265D01*
X1336111Y-86636259D01*
X1336130Y-86636253D01*
X1506107Y-86620784D01*
X1675848Y-86638624D01*
X1675848Y-86638624D01*
G37*
G36*
X3890038Y-81788504D02*
X4036423Y-81818553D01*
X4174180Y-81876460D01*
X4298071Y-81960025D01*
X4403367Y-82066059D01*
X4486065Y-82190530D01*
X4543011Y-82328691D01*
X4571901Y-82474595D01*
X4571901Y-82474614D01*
X4572033Y-82475282D01*
X4569649Y-82645966D01*
X4569498Y-82646629D01*
X4569498Y-82646651D01*
X4536547Y-82791687D01*
X4475764Y-82928207D01*
X4389623Y-83050319D01*
X4281408Y-83153371D01*
X4155230Y-83233446D01*
X4015908Y-83287485D01*
X3868744Y-83313435D01*
X3719340Y-83310304D01*
X3573388Y-83278215D01*
X3436449Y-83218388D01*
X3313739Y-83133102D01*
X3209934Y-83025609D01*
X3128983Y-82899998D01*
X3073971Y-82761051D01*
X3046994Y-82614071D01*
X3049081Y-82464652D01*
X3080151Y-82318476D01*
X3139019Y-82181126D01*
X3223446Y-82057824D01*
X3330216Y-81953268D01*
X3455259Y-81871442D01*
X3593811Y-81815463D01*
X3740604Y-81787461D01*
X3890038Y-81788504D01*
X3890038Y-81788504D01*
G37*
G36*
X6430038Y-81788504D02*
X6576423Y-81818553D01*
X6714180Y-81876460D01*
X6838071Y-81960025D01*
X6943367Y-82066059D01*
X7026065Y-82190530D01*
X7083011Y-82328691D01*
X7111901Y-82474595D01*
X7111901Y-82474614D01*
X7112033Y-82475282D01*
X7109649Y-82645966D01*
X7109498Y-82646629D01*
X7109498Y-82646651D01*
X7076547Y-82791687D01*
X7015764Y-82928207D01*
X6929623Y-83050319D01*
X6821408Y-83153371D01*
X6695230Y-83233446D01*
X6555908Y-83287485D01*
X6408744Y-83313435D01*
X6259340Y-83310304D01*
X6113388Y-83278215D01*
X5976449Y-83218388D01*
X5853739Y-83133102D01*
X5749934Y-83025609D01*
X5668983Y-82899998D01*
X5613971Y-82761051D01*
X5586994Y-82614071D01*
X5589081Y-82464652D01*
X5620151Y-82318476D01*
X5679019Y-82181126D01*
X5763446Y-82057824D01*
X5870216Y-81953268D01*
X5995259Y-81871442D01*
X6133811Y-81815463D01*
X6280604Y-81787461D01*
X6430038Y-81788504D01*
X6430038Y-81788504D01*
G37*
G36*
X3890038Y-79248504D02*
X4036423Y-79278553D01*
X4174180Y-79336460D01*
X4298071Y-79420025D01*
X4403367Y-79526059D01*
X4486065Y-79650530D01*
X4543011Y-79788691D01*
X4571901Y-79934595D01*
X4571901Y-79934614D01*
X4572033Y-79935282D01*
X4569649Y-80105966D01*
X4569498Y-80106629D01*
X4569498Y-80106651D01*
X4536547Y-80251687D01*
X4475764Y-80388207D01*
X4389623Y-80510319D01*
X4281408Y-80613371D01*
X4155230Y-80693446D01*
X4015908Y-80747485D01*
X3868744Y-80773435D01*
X3719340Y-80770304D01*
X3573388Y-80738215D01*
X3436449Y-80678388D01*
X3313739Y-80593102D01*
X3209934Y-80485609D01*
X3128983Y-80359998D01*
X3073971Y-80221051D01*
X3046994Y-80074071D01*
X3049081Y-79924652D01*
X3080151Y-79778476D01*
X3139019Y-79641126D01*
X3223446Y-79517824D01*
X3330216Y-79413268D01*
X3455259Y-79331442D01*
X3593811Y-79275463D01*
X3740604Y-79247461D01*
X3890038Y-79248504D01*
X3890038Y-79248504D01*
G37*
G36*
X6430038Y-79248504D02*
X6576423Y-79278553D01*
X6714180Y-79336460D01*
X6838071Y-79420025D01*
X6943367Y-79526059D01*
X7026065Y-79650530D01*
X7083011Y-79788691D01*
X7111901Y-79934595D01*
X7111901Y-79934614D01*
X7112033Y-79935282D01*
X7109649Y-80105966D01*
X7109498Y-80106629D01*
X7109498Y-80106651D01*
X7076547Y-80251687D01*
X7015764Y-80388207D01*
X6929623Y-80510319D01*
X6821408Y-80613371D01*
X6695230Y-80693446D01*
X6555908Y-80747485D01*
X6408744Y-80773435D01*
X6259340Y-80770304D01*
X6113388Y-80738215D01*
X5976449Y-80678388D01*
X5853739Y-80593102D01*
X5749934Y-80485609D01*
X5668983Y-80359998D01*
X5613971Y-80221051D01*
X5586994Y-80074071D01*
X5589081Y-79924652D01*
X5620151Y-79778476D01*
X5679019Y-79641126D01*
X5763446Y-79517824D01*
X5870216Y-79413268D01*
X5995259Y-79331442D01*
X6133811Y-79275463D01*
X6280604Y-79247461D01*
X6430038Y-79248504D01*
X6430038Y-79248504D01*
G37*
G36*
X6430038Y-76708504D02*
X6576423Y-76738553D01*
X6714180Y-76796460D01*
X6838071Y-76880025D01*
X6943367Y-76986059D01*
X7026065Y-77110530D01*
X7083011Y-77248691D01*
X7111901Y-77394595D01*
X7111901Y-77394614D01*
X7112033Y-77395282D01*
X7109649Y-77565966D01*
X7109498Y-77566629D01*
X7109498Y-77566651D01*
X7076547Y-77711687D01*
X7015764Y-77848207D01*
X6929623Y-77970319D01*
X6821408Y-78073371D01*
X6695230Y-78153446D01*
X6555908Y-78207485D01*
X6408744Y-78233435D01*
X6259340Y-78230304D01*
X6113388Y-78198215D01*
X5976449Y-78138388D01*
X5853739Y-78053102D01*
X5749934Y-77945609D01*
X5668983Y-77819998D01*
X5613971Y-77681051D01*
X5586994Y-77534071D01*
X5589081Y-77384652D01*
X5620151Y-77238476D01*
X5679019Y-77101126D01*
X5763446Y-76977824D01*
X5870216Y-76873268D01*
X5995259Y-76791442D01*
X6133811Y-76735463D01*
X6280604Y-76707461D01*
X6430038Y-76708504D01*
X6430038Y-76708504D01*
G37*
G36*
X3890038Y-76708504D02*
X4036423Y-76738553D01*
X4174180Y-76796460D01*
X4298071Y-76880025D01*
X4403367Y-76986059D01*
X4486065Y-77110530D01*
X4543011Y-77248691D01*
X4571901Y-77394595D01*
X4571901Y-77394614D01*
X4572033Y-77395282D01*
X4569649Y-77565966D01*
X4569498Y-77566629D01*
X4569498Y-77566651D01*
X4536547Y-77711687D01*
X4475764Y-77848207D01*
X4389623Y-77970319D01*
X4281408Y-78073371D01*
X4155230Y-78153446D01*
X4015908Y-78207485D01*
X3868744Y-78233435D01*
X3719340Y-78230304D01*
X3573388Y-78198215D01*
X3436449Y-78138388D01*
X3313739Y-78053102D01*
X3209934Y-77945609D01*
X3128983Y-77819998D01*
X3073971Y-77681051D01*
X3046994Y-77534071D01*
X3049081Y-77384652D01*
X3080151Y-77238476D01*
X3139019Y-77101126D01*
X3223446Y-76977824D01*
X3330216Y-76873268D01*
X3455259Y-76791442D01*
X3593811Y-76735463D01*
X3740604Y-76707461D01*
X3890038Y-76708504D01*
X3890038Y-76708504D01*
G37*
G36*
X50392387Y-75508041D02*
X50397169Y-75508074D01*
X50544959Y-75524652D01*
X50686714Y-75569619D01*
X50817035Y-75641264D01*
X50930958Y-75736857D01*
X51024144Y-75852757D01*
X51093044Y-75984550D01*
X51135033Y-76127215D01*
X51135039Y-76127282D01*
X51135047Y-76127309D01*
X51148516Y-76275313D01*
X51132981Y-76423127D01*
X51132973Y-76423152D01*
X51132966Y-76423221D01*
X51088990Y-76565287D01*
X51018257Y-76696105D01*
X50923461Y-76810693D01*
X50808214Y-76904686D01*
X50676906Y-76974504D01*
X50534537Y-77017488D01*
X50386530Y-77032000D01*
X49613397Y-77032000D01*
X49607613Y-77031959D01*
X49602831Y-77031926D01*
X49455041Y-77015348D01*
X49313286Y-76970381D01*
X49182965Y-76898736D01*
X49069042Y-76803143D01*
X48975856Y-76687243D01*
X48906956Y-76555450D01*
X48864967Y-76412785D01*
X48864961Y-76412718D01*
X48864953Y-76412691D01*
X48851484Y-76264687D01*
X48867019Y-76116873D01*
X48867027Y-76116848D01*
X48867034Y-76116779D01*
X48911010Y-75974713D01*
X48981743Y-75843895D01*
X49076539Y-75729307D01*
X49191786Y-75635314D01*
X49323094Y-75565496D01*
X49465463Y-75522512D01*
X49613470Y-75508000D01*
X50386603Y-75508000D01*
X50392387Y-75508041D01*
X50392387Y-75508041D01*
G37*
G36*
X3890038Y-74168504D02*
X4036423Y-74198553D01*
X4174180Y-74256460D01*
X4298071Y-74340025D01*
X4403367Y-74446059D01*
X4486065Y-74570530D01*
X4543011Y-74708691D01*
X4571901Y-74854595D01*
X4571901Y-74854614D01*
X4572033Y-74855282D01*
X4569649Y-75025966D01*
X4569498Y-75026629D01*
X4569498Y-75026651D01*
X4536547Y-75171687D01*
X4475764Y-75308207D01*
X4389623Y-75430319D01*
X4281408Y-75533371D01*
X4155230Y-75613446D01*
X4015908Y-75667485D01*
X3868744Y-75693435D01*
X3719340Y-75690304D01*
X3573388Y-75658215D01*
X3436449Y-75598388D01*
X3313739Y-75513102D01*
X3209934Y-75405609D01*
X3128983Y-75279998D01*
X3073971Y-75141051D01*
X3046994Y-74994071D01*
X3049081Y-74844652D01*
X3080151Y-74698476D01*
X3139019Y-74561126D01*
X3223446Y-74437824D01*
X3330216Y-74333268D01*
X3455259Y-74251442D01*
X3593811Y-74195463D01*
X3740604Y-74167461D01*
X3890038Y-74168504D01*
X3890038Y-74168504D01*
G37*
G36*
X6430038Y-74168504D02*
X6576423Y-74198553D01*
X6714180Y-74256460D01*
X6838071Y-74340025D01*
X6943367Y-74446059D01*
X7026065Y-74570530D01*
X7083011Y-74708691D01*
X7111901Y-74854595D01*
X7111901Y-74854614D01*
X7112033Y-74855282D01*
X7109649Y-75025966D01*
X7109498Y-75026629D01*
X7109498Y-75026651D01*
X7076547Y-75171687D01*
X7015764Y-75308207D01*
X6929623Y-75430319D01*
X6821408Y-75533371D01*
X6695230Y-75613446D01*
X6555908Y-75667485D01*
X6408744Y-75693435D01*
X6259340Y-75690304D01*
X6113388Y-75658215D01*
X5976449Y-75598388D01*
X5853739Y-75513102D01*
X5749934Y-75405609D01*
X5668983Y-75279998D01*
X5613971Y-75141051D01*
X5586994Y-74994071D01*
X5589081Y-74844652D01*
X5620151Y-74698476D01*
X5679019Y-74561126D01*
X5763446Y-74437824D01*
X5870216Y-74333268D01*
X5995259Y-74251442D01*
X6133811Y-74195463D01*
X6280604Y-74167461D01*
X6430038Y-74168504D01*
X6430038Y-74168504D01*
G37*
G36*
X50392387Y-72968041D02*
X50397169Y-72968074D01*
X50544959Y-72984652D01*
X50686714Y-73029619D01*
X50817035Y-73101264D01*
X50930958Y-73196857D01*
X51024144Y-73312757D01*
X51093044Y-73444550D01*
X51135033Y-73587215D01*
X51135039Y-73587282D01*
X51135047Y-73587309D01*
X51148516Y-73735313D01*
X51132981Y-73883127D01*
X51132973Y-73883152D01*
X51132966Y-73883221D01*
X51088990Y-74025287D01*
X51018257Y-74156105D01*
X50923461Y-74270693D01*
X50808214Y-74364686D01*
X50676906Y-74434504D01*
X50534537Y-74477488D01*
X50386530Y-74492000D01*
X49613397Y-74492000D01*
X49607613Y-74491959D01*
X49602831Y-74491926D01*
X49455041Y-74475348D01*
X49313286Y-74430381D01*
X49182965Y-74358736D01*
X49069042Y-74263143D01*
X48975856Y-74147243D01*
X48906956Y-74015450D01*
X48864967Y-73872785D01*
X48864961Y-73872718D01*
X48864953Y-73872691D01*
X48851484Y-73724687D01*
X48867019Y-73576873D01*
X48867027Y-73576848D01*
X48867034Y-73576779D01*
X48911010Y-73434713D01*
X48981743Y-73303895D01*
X49076539Y-73189307D01*
X49191786Y-73095314D01*
X49323094Y-73025496D01*
X49465463Y-72982512D01*
X49613470Y-72968000D01*
X50386603Y-72968000D01*
X50392387Y-72968041D01*
X50392387Y-72968041D01*
G37*
G36*
X6430038Y-71628504D02*
X6576423Y-71658553D01*
X6714180Y-71716460D01*
X6838071Y-71800025D01*
X6943367Y-71906059D01*
X7026065Y-72030530D01*
X7083011Y-72168691D01*
X7111901Y-72314595D01*
X7111901Y-72314614D01*
X7112033Y-72315282D01*
X7109649Y-72485966D01*
X7109498Y-72486629D01*
X7109498Y-72486651D01*
X7076547Y-72631687D01*
X7015764Y-72768207D01*
X6929623Y-72890319D01*
X6821408Y-72993371D01*
X6695230Y-73073446D01*
X6555908Y-73127485D01*
X6408744Y-73153435D01*
X6259340Y-73150304D01*
X6113388Y-73118215D01*
X5976449Y-73058388D01*
X5853739Y-72973102D01*
X5749934Y-72865609D01*
X5668983Y-72739998D01*
X5613971Y-72601051D01*
X5586994Y-72454071D01*
X5589081Y-72304652D01*
X5620151Y-72158476D01*
X5679019Y-72021126D01*
X5763446Y-71897824D01*
X5870216Y-71793268D01*
X5995259Y-71711442D01*
X6133811Y-71655463D01*
X6280604Y-71627461D01*
X6430038Y-71628504D01*
X6430038Y-71628504D01*
G37*
G36*
X3890038Y-71628504D02*
X4036423Y-71658553D01*
X4174180Y-71716460D01*
X4298071Y-71800025D01*
X4403367Y-71906059D01*
X4486065Y-72030530D01*
X4543011Y-72168691D01*
X4571901Y-72314595D01*
X4571901Y-72314614D01*
X4572033Y-72315282D01*
X4569649Y-72485966D01*
X4569498Y-72486629D01*
X4569498Y-72486651D01*
X4536547Y-72631687D01*
X4475764Y-72768207D01*
X4389623Y-72890319D01*
X4281408Y-72993371D01*
X4155230Y-73073446D01*
X4015908Y-73127485D01*
X3868744Y-73153435D01*
X3719340Y-73150304D01*
X3573388Y-73118215D01*
X3436449Y-73058388D01*
X3313739Y-72973102D01*
X3209934Y-72865609D01*
X3128983Y-72739998D01*
X3073971Y-72601051D01*
X3046994Y-72454071D01*
X3049081Y-72304652D01*
X3080151Y-72158476D01*
X3139019Y-72021126D01*
X3223446Y-71897824D01*
X3330216Y-71793268D01*
X3455259Y-71711442D01*
X3593811Y-71655463D01*
X3740604Y-71627461D01*
X3890038Y-71628504D01*
X3890038Y-71628504D01*
G37*
G36*
X6430038Y-69088504D02*
X6576423Y-69118553D01*
X6714180Y-69176460D01*
X6838071Y-69260025D01*
X6943367Y-69366059D01*
X7026065Y-69490530D01*
X7083011Y-69628691D01*
X7111901Y-69774595D01*
X7111901Y-69774614D01*
X7112033Y-69775282D01*
X7109649Y-69945966D01*
X7109498Y-69946629D01*
X7109498Y-69946651D01*
X7076547Y-70091687D01*
X7015764Y-70228207D01*
X6929623Y-70350319D01*
X6821408Y-70453371D01*
X6695230Y-70533446D01*
X6555908Y-70587485D01*
X6408744Y-70613435D01*
X6259340Y-70610304D01*
X6113388Y-70578215D01*
X5976449Y-70518388D01*
X5853739Y-70433102D01*
X5749934Y-70325609D01*
X5668983Y-70199998D01*
X5613971Y-70061051D01*
X5586994Y-69914071D01*
X5589081Y-69764652D01*
X5620151Y-69618476D01*
X5679019Y-69481126D01*
X5763446Y-69357824D01*
X5870216Y-69253268D01*
X5995259Y-69171442D01*
X6133811Y-69115463D01*
X6280604Y-69087461D01*
X6430038Y-69088504D01*
X6430038Y-69088504D01*
G37*
G36*
X3890038Y-69088504D02*
X4036423Y-69118553D01*
X4174180Y-69176460D01*
X4298071Y-69260025D01*
X4403367Y-69366059D01*
X4486065Y-69490530D01*
X4543011Y-69628691D01*
X4571901Y-69774595D01*
X4571901Y-69774614D01*
X4572033Y-69775282D01*
X4569649Y-69945966D01*
X4569498Y-69946629D01*
X4569498Y-69946651D01*
X4536547Y-70091687D01*
X4475764Y-70228207D01*
X4389623Y-70350319D01*
X4281408Y-70453371D01*
X4155230Y-70533446D01*
X4015908Y-70587485D01*
X3868744Y-70613435D01*
X3719340Y-70610304D01*
X3573388Y-70578215D01*
X3436449Y-70518388D01*
X3313739Y-70433102D01*
X3209934Y-70325609D01*
X3128983Y-70199998D01*
X3073971Y-70061051D01*
X3046994Y-69914071D01*
X3049081Y-69764652D01*
X3080151Y-69618476D01*
X3139019Y-69481126D01*
X3223446Y-69357824D01*
X3330216Y-69253268D01*
X3455259Y-69171442D01*
X3593811Y-69115463D01*
X3740604Y-69087461D01*
X3890038Y-69088504D01*
X3890038Y-69088504D01*
G37*
G36*
X3890038Y-66548504D02*
X4036423Y-66578553D01*
X4174180Y-66636460D01*
X4298071Y-66720025D01*
X4403367Y-66826059D01*
X4486065Y-66950530D01*
X4543011Y-67088691D01*
X4571901Y-67234595D01*
X4571901Y-67234614D01*
X4572033Y-67235282D01*
X4569649Y-67405966D01*
X4569498Y-67406629D01*
X4569498Y-67406651D01*
X4536547Y-67551687D01*
X4475764Y-67688207D01*
X4389623Y-67810319D01*
X4281408Y-67913371D01*
X4155230Y-67993446D01*
X4015908Y-68047485D01*
X3868744Y-68073435D01*
X3719340Y-68070304D01*
X3573388Y-68038215D01*
X3436449Y-67978388D01*
X3313739Y-67893102D01*
X3209934Y-67785609D01*
X3128983Y-67659998D01*
X3073971Y-67521051D01*
X3046994Y-67374071D01*
X3049081Y-67224652D01*
X3080151Y-67078476D01*
X3139019Y-66941126D01*
X3223446Y-66817824D01*
X3330216Y-66713268D01*
X3455259Y-66631442D01*
X3593811Y-66575463D01*
X3740604Y-66547461D01*
X3890038Y-66548504D01*
X3890038Y-66548504D01*
G37*
G36*
X6430038Y-66548504D02*
X6576423Y-66578553D01*
X6714180Y-66636460D01*
X6838071Y-66720025D01*
X6943367Y-66826059D01*
X7026065Y-66950530D01*
X7083011Y-67088691D01*
X7111901Y-67234595D01*
X7111901Y-67234614D01*
X7112033Y-67235282D01*
X7109649Y-67405966D01*
X7109498Y-67406629D01*
X7109498Y-67406651D01*
X7076547Y-67551687D01*
X7015764Y-67688207D01*
X6929623Y-67810319D01*
X6821408Y-67913371D01*
X6695230Y-67993446D01*
X6555908Y-68047485D01*
X6408744Y-68073435D01*
X6259340Y-68070304D01*
X6113388Y-68038215D01*
X5976449Y-67978388D01*
X5853739Y-67893102D01*
X5749934Y-67785609D01*
X5668983Y-67659998D01*
X5613971Y-67521051D01*
X5586994Y-67374071D01*
X5589081Y-67224652D01*
X5620151Y-67078476D01*
X5679019Y-66941126D01*
X5763446Y-66817824D01*
X5870216Y-66713268D01*
X5995259Y-66631442D01*
X6133811Y-66575463D01*
X6280604Y-66547461D01*
X6430038Y-66548504D01*
X6430038Y-66548504D01*
G37*
G36*
X3890038Y-64008504D02*
X4036423Y-64038553D01*
X4174180Y-64096460D01*
X4298071Y-64180025D01*
X4403367Y-64286059D01*
X4486065Y-64410530D01*
X4543011Y-64548691D01*
X4571901Y-64694595D01*
X4571901Y-64694614D01*
X4572033Y-64695282D01*
X4569649Y-64865966D01*
X4569498Y-64866629D01*
X4569498Y-64866651D01*
X4536547Y-65011687D01*
X4475764Y-65148207D01*
X4389623Y-65270319D01*
X4281408Y-65373371D01*
X4155230Y-65453446D01*
X4015908Y-65507485D01*
X3868744Y-65533435D01*
X3719340Y-65530304D01*
X3573388Y-65498215D01*
X3436449Y-65438388D01*
X3313739Y-65353102D01*
X3209934Y-65245609D01*
X3128983Y-65119998D01*
X3073971Y-64981051D01*
X3046994Y-64834071D01*
X3049081Y-64684652D01*
X3080151Y-64538476D01*
X3139019Y-64401126D01*
X3223446Y-64277824D01*
X3330216Y-64173268D01*
X3455259Y-64091442D01*
X3593811Y-64035463D01*
X3740604Y-64007461D01*
X3890038Y-64008504D01*
X3890038Y-64008504D01*
G37*
G36*
X6430038Y-64008504D02*
X6576423Y-64038553D01*
X6714180Y-64096460D01*
X6838071Y-64180025D01*
X6943367Y-64286059D01*
X7026065Y-64410530D01*
X7083011Y-64548691D01*
X7111901Y-64694595D01*
X7111901Y-64694614D01*
X7112033Y-64695282D01*
X7109649Y-64865966D01*
X7109498Y-64866629D01*
X7109498Y-64866651D01*
X7076547Y-65011687D01*
X7015764Y-65148207D01*
X6929623Y-65270319D01*
X6821408Y-65373371D01*
X6695230Y-65453446D01*
X6555908Y-65507485D01*
X6408744Y-65533435D01*
X6259340Y-65530304D01*
X6113388Y-65498215D01*
X5976449Y-65438388D01*
X5853739Y-65353102D01*
X5749934Y-65245609D01*
X5668983Y-65119998D01*
X5613971Y-64981051D01*
X5586994Y-64834071D01*
X5589081Y-64684652D01*
X5620151Y-64538476D01*
X5679019Y-64401126D01*
X5763446Y-64277824D01*
X5870216Y-64173268D01*
X5995259Y-64091442D01*
X6133811Y-64035463D01*
X6280604Y-64007461D01*
X6430038Y-64008504D01*
X6430038Y-64008504D01*
G37*
G36*
X6430038Y-61468504D02*
X6576423Y-61498553D01*
X6714180Y-61556460D01*
X6838071Y-61640025D01*
X6943367Y-61746059D01*
X7026065Y-61870530D01*
X7083011Y-62008691D01*
X7111901Y-62154595D01*
X7111901Y-62154614D01*
X7112033Y-62155282D01*
X7109649Y-62325966D01*
X7109498Y-62326629D01*
X7109498Y-62326651D01*
X7076547Y-62471687D01*
X7015764Y-62608207D01*
X6929623Y-62730319D01*
X6821408Y-62833371D01*
X6695230Y-62913446D01*
X6555908Y-62967485D01*
X6408744Y-62993435D01*
X6259340Y-62990304D01*
X6113388Y-62958215D01*
X5976449Y-62898388D01*
X5853739Y-62813102D01*
X5749934Y-62705609D01*
X5668983Y-62579998D01*
X5613971Y-62441051D01*
X5586994Y-62294071D01*
X5589081Y-62144652D01*
X5620151Y-61998476D01*
X5679019Y-61861126D01*
X5763446Y-61737824D01*
X5870216Y-61633268D01*
X5995259Y-61551442D01*
X6133811Y-61495463D01*
X6280604Y-61467461D01*
X6430038Y-61468504D01*
X6430038Y-61468504D01*
G37*
G36*
X3890038Y-61468504D02*
X4036423Y-61498553D01*
X4174180Y-61556460D01*
X4298071Y-61640025D01*
X4403367Y-61746059D01*
X4486065Y-61870530D01*
X4543011Y-62008691D01*
X4571901Y-62154595D01*
X4571901Y-62154614D01*
X4572033Y-62155282D01*
X4569649Y-62325966D01*
X4569498Y-62326629D01*
X4569498Y-62326651D01*
X4536547Y-62471687D01*
X4475764Y-62608207D01*
X4389623Y-62730319D01*
X4281408Y-62833371D01*
X4155230Y-62913446D01*
X4015908Y-62967485D01*
X3868744Y-62993435D01*
X3719340Y-62990304D01*
X3573388Y-62958215D01*
X3436449Y-62898388D01*
X3313739Y-62813102D01*
X3209934Y-62705609D01*
X3128983Y-62579998D01*
X3073971Y-62441051D01*
X3046994Y-62294071D01*
X3049081Y-62144652D01*
X3080151Y-61998476D01*
X3139019Y-61861126D01*
X3223446Y-61737824D01*
X3330216Y-61633268D01*
X3455259Y-61551442D01*
X3593811Y-61495463D01*
X3740604Y-61467461D01*
X3890038Y-61468504D01*
X3890038Y-61468504D01*
G37*
G36*
X3890038Y-58928504D02*
X4036423Y-58958553D01*
X4174180Y-59016460D01*
X4298071Y-59100025D01*
X4403367Y-59206059D01*
X4486065Y-59330530D01*
X4543011Y-59468691D01*
X4571901Y-59614595D01*
X4571901Y-59614614D01*
X4572033Y-59615282D01*
X4569649Y-59785966D01*
X4569498Y-59786629D01*
X4569498Y-59786651D01*
X4536547Y-59931687D01*
X4475764Y-60068207D01*
X4389623Y-60190319D01*
X4281408Y-60293371D01*
X4155230Y-60373446D01*
X4015908Y-60427485D01*
X3868744Y-60453435D01*
X3719340Y-60450304D01*
X3573388Y-60418215D01*
X3436449Y-60358388D01*
X3313739Y-60273102D01*
X3209934Y-60165609D01*
X3128983Y-60039998D01*
X3073971Y-59901051D01*
X3046994Y-59754071D01*
X3049081Y-59604652D01*
X3080151Y-59458476D01*
X3139019Y-59321126D01*
X3223446Y-59197824D01*
X3330216Y-59093268D01*
X3455259Y-59011442D01*
X3593811Y-58955463D01*
X3740604Y-58927461D01*
X3890038Y-58928504D01*
X3890038Y-58928504D01*
G37*
G36*
X6430038Y-58928504D02*
X6576423Y-58958553D01*
X6714180Y-59016460D01*
X6838071Y-59100025D01*
X6943367Y-59206059D01*
X7026065Y-59330530D01*
X7083011Y-59468691D01*
X7111901Y-59614595D01*
X7111901Y-59614614D01*
X7112033Y-59615282D01*
X7109649Y-59785966D01*
X7109498Y-59786629D01*
X7109498Y-59786651D01*
X7076547Y-59931687D01*
X7015764Y-60068207D01*
X6929623Y-60190319D01*
X6821408Y-60293371D01*
X6695230Y-60373446D01*
X6555908Y-60427485D01*
X6408744Y-60453435D01*
X6259340Y-60450304D01*
X6113388Y-60418215D01*
X5976449Y-60358388D01*
X5853739Y-60273102D01*
X5749934Y-60165609D01*
X5668983Y-60039998D01*
X5613971Y-59901051D01*
X5586994Y-59754071D01*
X5589081Y-59604652D01*
X5620151Y-59458476D01*
X5679019Y-59321126D01*
X5763446Y-59197824D01*
X5870216Y-59093268D01*
X5995259Y-59011442D01*
X6133811Y-58955463D01*
X6280604Y-58927461D01*
X6430038Y-58928504D01*
X6430038Y-58928504D01*
G37*
G36*
X3890038Y-56388504D02*
X4036423Y-56418553D01*
X4174180Y-56476460D01*
X4298071Y-56560025D01*
X4403367Y-56666059D01*
X4486065Y-56790530D01*
X4543011Y-56928691D01*
X4571901Y-57074595D01*
X4571901Y-57074614D01*
X4572033Y-57075282D01*
X4569649Y-57245966D01*
X4569498Y-57246629D01*
X4569498Y-57246651D01*
X4536547Y-57391687D01*
X4475764Y-57528207D01*
X4389623Y-57650319D01*
X4281408Y-57753371D01*
X4155230Y-57833446D01*
X4015908Y-57887485D01*
X3868744Y-57913435D01*
X3719340Y-57910304D01*
X3573388Y-57878215D01*
X3436449Y-57818388D01*
X3313739Y-57733102D01*
X3209934Y-57625609D01*
X3128983Y-57499998D01*
X3073971Y-57361051D01*
X3046994Y-57214071D01*
X3049081Y-57064652D01*
X3080151Y-56918476D01*
X3139019Y-56781126D01*
X3223446Y-56657824D01*
X3330216Y-56553268D01*
X3455259Y-56471442D01*
X3593811Y-56415463D01*
X3740604Y-56387461D01*
X3890038Y-56388504D01*
X3890038Y-56388504D01*
G37*
G36*
X6430038Y-56388504D02*
X6576423Y-56418553D01*
X6714180Y-56476460D01*
X6838071Y-56560025D01*
X6943367Y-56666059D01*
X7026065Y-56790530D01*
X7083011Y-56928691D01*
X7111901Y-57074595D01*
X7111901Y-57074614D01*
X7112033Y-57075282D01*
X7109649Y-57245966D01*
X7109498Y-57246629D01*
X7109498Y-57246651D01*
X7076547Y-57391687D01*
X7015764Y-57528207D01*
X6929623Y-57650319D01*
X6821408Y-57753371D01*
X6695230Y-57833446D01*
X6555908Y-57887485D01*
X6408744Y-57913435D01*
X6259340Y-57910304D01*
X6113388Y-57878215D01*
X5976449Y-57818388D01*
X5853739Y-57733102D01*
X5749934Y-57625609D01*
X5668983Y-57499998D01*
X5613971Y-57361051D01*
X5586994Y-57214071D01*
X5589081Y-57064652D01*
X5620151Y-56918476D01*
X5679019Y-56781126D01*
X5763446Y-56657824D01*
X5870216Y-56553268D01*
X5995259Y-56471442D01*
X6133811Y-56415463D01*
X6280604Y-56387461D01*
X6430038Y-56388504D01*
X6430038Y-56388504D01*
G37*
G36*
X3890038Y-53848504D02*
X4036423Y-53878553D01*
X4174180Y-53936460D01*
X4298071Y-54020025D01*
X4403367Y-54126059D01*
X4486065Y-54250530D01*
X4543011Y-54388691D01*
X4571901Y-54534595D01*
X4571901Y-54534614D01*
X4572033Y-54535282D01*
X4569649Y-54705966D01*
X4569498Y-54706629D01*
X4569498Y-54706651D01*
X4536547Y-54851687D01*
X4475764Y-54988207D01*
X4389623Y-55110319D01*
X4281408Y-55213371D01*
X4155230Y-55293446D01*
X4015908Y-55347485D01*
X3868744Y-55373435D01*
X3719340Y-55370304D01*
X3573388Y-55338215D01*
X3436449Y-55278388D01*
X3313739Y-55193102D01*
X3209934Y-55085609D01*
X3128983Y-54959998D01*
X3073971Y-54821051D01*
X3046994Y-54674071D01*
X3049081Y-54524652D01*
X3080151Y-54378476D01*
X3139019Y-54241126D01*
X3223446Y-54117824D01*
X3330216Y-54013268D01*
X3455259Y-53931442D01*
X3593811Y-53875463D01*
X3740604Y-53847461D01*
X3890038Y-53848504D01*
X3890038Y-53848504D01*
G37*
G36*
X6430038Y-53848504D02*
X6576423Y-53878553D01*
X6714180Y-53936460D01*
X6838071Y-54020025D01*
X6943367Y-54126059D01*
X7026065Y-54250530D01*
X7083011Y-54388691D01*
X7111901Y-54534595D01*
X7111901Y-54534614D01*
X7112033Y-54535282D01*
X7109649Y-54705966D01*
X7109498Y-54706629D01*
X7109498Y-54706651D01*
X7076547Y-54851687D01*
X7015764Y-54988207D01*
X6929623Y-55110319D01*
X6821408Y-55213371D01*
X6695230Y-55293446D01*
X6555908Y-55347485D01*
X6408744Y-55373435D01*
X6259340Y-55370304D01*
X6113388Y-55338215D01*
X5976449Y-55278388D01*
X5853739Y-55193102D01*
X5749934Y-55085609D01*
X5668983Y-54959998D01*
X5613971Y-54821051D01*
X5586994Y-54674071D01*
X5589081Y-54524652D01*
X5620151Y-54378476D01*
X5679019Y-54241126D01*
X5763446Y-54117824D01*
X5870216Y-54013268D01*
X5995259Y-53931442D01*
X6133811Y-53875463D01*
X6280604Y-53847461D01*
X6430038Y-53848504D01*
X6430038Y-53848504D01*
G37*
G36*
X3890038Y-51308504D02*
X4036423Y-51338553D01*
X4174180Y-51396460D01*
X4298071Y-51480025D01*
X4403367Y-51586059D01*
X4486065Y-51710530D01*
X4543011Y-51848691D01*
X4571901Y-51994595D01*
X4571901Y-51994614D01*
X4572033Y-51995282D01*
X4569649Y-52165966D01*
X4569498Y-52166629D01*
X4569498Y-52166651D01*
X4536547Y-52311687D01*
X4475764Y-52448207D01*
X4389623Y-52570319D01*
X4281408Y-52673371D01*
X4155230Y-52753446D01*
X4015908Y-52807485D01*
X3868744Y-52833435D01*
X3719340Y-52830304D01*
X3573388Y-52798215D01*
X3436449Y-52738388D01*
X3313739Y-52653102D01*
X3209934Y-52545609D01*
X3128983Y-52419998D01*
X3073971Y-52281051D01*
X3046994Y-52134071D01*
X3049081Y-51984652D01*
X3080151Y-51838476D01*
X3139019Y-51701126D01*
X3223446Y-51577824D01*
X3330216Y-51473268D01*
X3455259Y-51391442D01*
X3593811Y-51335463D01*
X3740604Y-51307461D01*
X3890038Y-51308504D01*
X3890038Y-51308504D01*
G37*
G36*
X6430038Y-51308504D02*
X6576423Y-51338553D01*
X6714180Y-51396460D01*
X6838071Y-51480025D01*
X6943367Y-51586059D01*
X7026065Y-51710530D01*
X7083011Y-51848691D01*
X7111901Y-51994595D01*
X7111901Y-51994614D01*
X7112033Y-51995282D01*
X7109649Y-52165966D01*
X7109498Y-52166629D01*
X7109498Y-52166651D01*
X7076547Y-52311687D01*
X7015764Y-52448207D01*
X6929623Y-52570319D01*
X6821408Y-52673371D01*
X6695230Y-52753446D01*
X6555908Y-52807485D01*
X6408744Y-52833435D01*
X6259340Y-52830304D01*
X6113388Y-52798215D01*
X5976449Y-52738388D01*
X5853739Y-52653102D01*
X5749934Y-52545609D01*
X5668983Y-52419998D01*
X5613971Y-52281051D01*
X5586994Y-52134071D01*
X5589081Y-51984652D01*
X5620151Y-51838476D01*
X5679019Y-51701126D01*
X5763446Y-51577824D01*
X5870216Y-51473268D01*
X5995259Y-51391442D01*
X6133811Y-51335463D01*
X6280604Y-51307461D01*
X6430038Y-51308504D01*
X6430038Y-51308504D01*
G37*
G36*
X6430038Y-48768504D02*
X6576423Y-48798553D01*
X6714180Y-48856460D01*
X6838071Y-48940025D01*
X6943367Y-49046059D01*
X7026065Y-49170530D01*
X7083011Y-49308691D01*
X7111901Y-49454595D01*
X7111901Y-49454614D01*
X7112033Y-49455282D01*
X7109649Y-49625966D01*
X7109498Y-49626629D01*
X7109498Y-49626651D01*
X7076547Y-49771687D01*
X7015764Y-49908207D01*
X6929623Y-50030319D01*
X6821408Y-50133371D01*
X6695230Y-50213446D01*
X6555908Y-50267485D01*
X6408744Y-50293435D01*
X6259340Y-50290304D01*
X6113388Y-50258215D01*
X5976449Y-50198388D01*
X5853739Y-50113102D01*
X5749934Y-50005609D01*
X5668983Y-49879998D01*
X5613971Y-49741051D01*
X5586994Y-49594071D01*
X5589081Y-49444652D01*
X5620151Y-49298476D01*
X5679019Y-49161126D01*
X5763446Y-49037824D01*
X5870216Y-48933268D01*
X5995259Y-48851442D01*
X6133811Y-48795463D01*
X6280604Y-48767461D01*
X6430038Y-48768504D01*
X6430038Y-48768504D01*
G37*
G36*
X3890038Y-48768504D02*
X4036423Y-48798553D01*
X4174180Y-48856460D01*
X4298071Y-48940025D01*
X4403367Y-49046059D01*
X4486065Y-49170530D01*
X4543011Y-49308691D01*
X4571901Y-49454595D01*
X4571901Y-49454614D01*
X4572033Y-49455282D01*
X4569649Y-49625966D01*
X4569498Y-49626629D01*
X4569498Y-49626651D01*
X4536547Y-49771687D01*
X4475764Y-49908207D01*
X4389623Y-50030319D01*
X4281408Y-50133371D01*
X4155230Y-50213446D01*
X4015908Y-50267485D01*
X3868744Y-50293435D01*
X3719340Y-50290304D01*
X3573388Y-50258215D01*
X3436449Y-50198388D01*
X3313739Y-50113102D01*
X3209934Y-50005609D01*
X3128983Y-49879998D01*
X3073971Y-49741051D01*
X3046994Y-49594071D01*
X3049081Y-49444652D01*
X3080151Y-49298476D01*
X3139019Y-49161126D01*
X3223446Y-49037824D01*
X3330216Y-48933268D01*
X3455259Y-48851442D01*
X3593811Y-48795463D01*
X3740604Y-48767461D01*
X3890038Y-48768504D01*
X3890038Y-48768504D01*
G37*
G36*
X3890038Y-46228504D02*
X4036423Y-46258553D01*
X4174180Y-46316460D01*
X4298071Y-46400025D01*
X4403367Y-46506059D01*
X4486065Y-46630530D01*
X4543011Y-46768691D01*
X4571901Y-46914595D01*
X4571901Y-46914614D01*
X4572033Y-46915282D01*
X4569649Y-47085966D01*
X4569498Y-47086629D01*
X4569498Y-47086651D01*
X4536547Y-47231687D01*
X4475764Y-47368207D01*
X4389623Y-47490319D01*
X4281408Y-47593371D01*
X4155230Y-47673446D01*
X4015908Y-47727485D01*
X3868744Y-47753435D01*
X3719340Y-47750304D01*
X3573388Y-47718215D01*
X3436449Y-47658388D01*
X3313739Y-47573102D01*
X3209934Y-47465609D01*
X3128983Y-47339998D01*
X3073971Y-47201051D01*
X3046994Y-47054071D01*
X3049081Y-46904652D01*
X3080151Y-46758476D01*
X3139019Y-46621126D01*
X3223446Y-46497824D01*
X3330216Y-46393268D01*
X3455259Y-46311442D01*
X3593811Y-46255463D01*
X3740604Y-46227461D01*
X3890038Y-46228504D01*
X3890038Y-46228504D01*
G37*
G36*
X6430038Y-46228504D02*
X6576423Y-46258553D01*
X6714180Y-46316460D01*
X6838071Y-46400025D01*
X6943367Y-46506059D01*
X7026065Y-46630530D01*
X7083011Y-46768691D01*
X7111901Y-46914595D01*
X7111901Y-46914614D01*
X7112033Y-46915282D01*
X7109649Y-47085966D01*
X7109498Y-47086629D01*
X7109498Y-47086651D01*
X7076547Y-47231687D01*
X7015764Y-47368207D01*
X6929623Y-47490319D01*
X6821408Y-47593371D01*
X6695230Y-47673446D01*
X6555908Y-47727485D01*
X6408744Y-47753435D01*
X6259340Y-47750304D01*
X6113388Y-47718215D01*
X5976449Y-47658388D01*
X5853739Y-47573102D01*
X5749934Y-47465609D01*
X5668983Y-47339998D01*
X5613971Y-47201051D01*
X5586994Y-47054071D01*
X5589081Y-46904652D01*
X5620151Y-46758476D01*
X5679019Y-46621126D01*
X5763446Y-46497824D01*
X5870216Y-46393268D01*
X5995259Y-46311442D01*
X6133811Y-46255463D01*
X6280604Y-46227461D01*
X6430038Y-46228504D01*
X6430038Y-46228504D01*
G37*
G36*
X3890038Y-43688504D02*
X4036423Y-43718553D01*
X4174180Y-43776460D01*
X4298071Y-43860025D01*
X4403367Y-43966059D01*
X4486065Y-44090530D01*
X4543011Y-44228691D01*
X4571901Y-44374595D01*
X4571901Y-44374614D01*
X4572033Y-44375282D01*
X4569649Y-44545966D01*
X4569498Y-44546629D01*
X4569498Y-44546651D01*
X4536547Y-44691687D01*
X4475764Y-44828207D01*
X4389623Y-44950319D01*
X4281408Y-45053371D01*
X4155230Y-45133446D01*
X4015908Y-45187485D01*
X3868744Y-45213435D01*
X3719340Y-45210304D01*
X3573388Y-45178215D01*
X3436449Y-45118388D01*
X3313739Y-45033102D01*
X3209934Y-44925609D01*
X3128983Y-44799998D01*
X3073971Y-44661051D01*
X3046994Y-44514071D01*
X3049081Y-44364652D01*
X3080151Y-44218476D01*
X3139019Y-44081126D01*
X3223446Y-43957824D01*
X3330216Y-43853268D01*
X3455259Y-43771442D01*
X3593811Y-43715463D01*
X3740604Y-43687461D01*
X3890038Y-43688504D01*
X3890038Y-43688504D01*
G37*
G36*
X6430038Y-43688504D02*
X6576423Y-43718553D01*
X6714180Y-43776460D01*
X6838071Y-43860025D01*
X6943367Y-43966059D01*
X7026065Y-44090530D01*
X7083011Y-44228691D01*
X7111901Y-44374595D01*
X7111901Y-44374614D01*
X7112033Y-44375282D01*
X7109649Y-44545966D01*
X7109498Y-44546629D01*
X7109498Y-44546651D01*
X7076547Y-44691687D01*
X7015764Y-44828207D01*
X6929623Y-44950319D01*
X6821408Y-45053371D01*
X6695230Y-45133446D01*
X6555908Y-45187485D01*
X6408744Y-45213435D01*
X6259340Y-45210304D01*
X6113388Y-45178215D01*
X5976449Y-45118388D01*
X5853739Y-45033102D01*
X5749934Y-44925609D01*
X5668983Y-44799998D01*
X5613971Y-44661051D01*
X5586994Y-44514071D01*
X5589081Y-44364652D01*
X5620151Y-44218476D01*
X5679019Y-44081126D01*
X5763446Y-43957824D01*
X5870216Y-43853268D01*
X5995259Y-43771442D01*
X6133811Y-43715463D01*
X6280604Y-43687461D01*
X6430038Y-43688504D01*
X6430038Y-43688504D01*
G37*
G36*
X3890038Y-41148504D02*
X4036423Y-41178553D01*
X4174180Y-41236460D01*
X4298071Y-41320025D01*
X4403367Y-41426059D01*
X4486065Y-41550530D01*
X4543011Y-41688691D01*
X4571901Y-41834595D01*
X4571901Y-41834614D01*
X4572033Y-41835282D01*
X4569649Y-42005966D01*
X4569498Y-42006629D01*
X4569498Y-42006651D01*
X4536547Y-42151687D01*
X4475764Y-42288207D01*
X4389623Y-42410319D01*
X4281408Y-42513371D01*
X4155230Y-42593446D01*
X4015908Y-42647485D01*
X3868744Y-42673435D01*
X3719340Y-42670304D01*
X3573388Y-42638215D01*
X3436449Y-42578388D01*
X3313739Y-42493102D01*
X3209934Y-42385609D01*
X3128983Y-42259998D01*
X3073971Y-42121051D01*
X3046994Y-41974071D01*
X3049081Y-41824652D01*
X3080151Y-41678476D01*
X3139019Y-41541126D01*
X3223446Y-41417824D01*
X3330216Y-41313268D01*
X3455259Y-41231442D01*
X3593811Y-41175463D01*
X3740604Y-41147461D01*
X3890038Y-41148504D01*
X3890038Y-41148504D01*
G37*
G36*
X6430038Y-41148504D02*
X6576423Y-41178553D01*
X6714180Y-41236460D01*
X6838071Y-41320025D01*
X6943367Y-41426059D01*
X7026065Y-41550530D01*
X7083011Y-41688691D01*
X7111901Y-41834595D01*
X7111901Y-41834614D01*
X7112033Y-41835282D01*
X7109649Y-42005966D01*
X7109498Y-42006629D01*
X7109498Y-42006651D01*
X7076547Y-42151687D01*
X7015764Y-42288207D01*
X6929623Y-42410319D01*
X6821408Y-42513371D01*
X6695230Y-42593446D01*
X6555908Y-42647485D01*
X6408744Y-42673435D01*
X6259340Y-42670304D01*
X6113388Y-42638215D01*
X5976449Y-42578388D01*
X5853739Y-42493102D01*
X5749934Y-42385609D01*
X5668983Y-42259998D01*
X5613971Y-42121051D01*
X5586994Y-41974071D01*
X5589081Y-41824652D01*
X5620151Y-41678476D01*
X5679019Y-41541126D01*
X5763446Y-41417824D01*
X5870216Y-41313268D01*
X5995259Y-41231442D01*
X6133811Y-41175463D01*
X6280604Y-41147461D01*
X6430038Y-41148504D01*
X6430038Y-41148504D01*
G37*
G36*
X6430038Y-38608504D02*
X6576423Y-38638553D01*
X6714180Y-38696460D01*
X6838071Y-38780025D01*
X6943367Y-38886059D01*
X7026065Y-39010530D01*
X7083011Y-39148691D01*
X7111901Y-39294595D01*
X7111901Y-39294614D01*
X7112033Y-39295282D01*
X7109649Y-39465966D01*
X7109498Y-39466629D01*
X7109498Y-39466651D01*
X7076547Y-39611687D01*
X7015764Y-39748207D01*
X6929623Y-39870319D01*
X6821408Y-39973371D01*
X6695230Y-40053446D01*
X6555908Y-40107485D01*
X6408744Y-40133435D01*
X6259340Y-40130304D01*
X6113388Y-40098215D01*
X5976449Y-40038388D01*
X5853739Y-39953102D01*
X5749934Y-39845609D01*
X5668983Y-39719998D01*
X5613971Y-39581051D01*
X5586994Y-39434071D01*
X5589081Y-39284652D01*
X5620151Y-39138476D01*
X5679019Y-39001126D01*
X5763446Y-38877824D01*
X5870216Y-38773268D01*
X5995259Y-38691442D01*
X6133811Y-38635463D01*
X6280604Y-38607461D01*
X6430038Y-38608504D01*
X6430038Y-38608504D01*
G37*
G36*
X3890038Y-38608504D02*
X4036423Y-38638553D01*
X4174180Y-38696460D01*
X4298071Y-38780025D01*
X4403367Y-38886059D01*
X4486065Y-39010530D01*
X4543011Y-39148691D01*
X4571901Y-39294595D01*
X4571901Y-39294614D01*
X4572033Y-39295282D01*
X4569649Y-39465966D01*
X4569498Y-39466629D01*
X4569498Y-39466651D01*
X4536547Y-39611687D01*
X4475764Y-39748207D01*
X4389623Y-39870319D01*
X4281408Y-39973371D01*
X4155230Y-40053446D01*
X4015908Y-40107485D01*
X3868744Y-40133435D01*
X3719340Y-40130304D01*
X3573388Y-40098215D01*
X3436449Y-40038388D01*
X3313739Y-39953102D01*
X3209934Y-39845609D01*
X3128983Y-39719998D01*
X3073971Y-39581051D01*
X3046994Y-39434071D01*
X3049081Y-39284652D01*
X3080151Y-39138476D01*
X3139019Y-39001126D01*
X3223446Y-38877824D01*
X3330216Y-38773268D01*
X3455259Y-38691442D01*
X3593811Y-38635463D01*
X3740604Y-38607461D01*
X3890038Y-38608504D01*
X3890038Y-38608504D01*
G37*
G36*
X6430038Y-36068504D02*
X6576423Y-36098553D01*
X6714180Y-36156460D01*
X6838071Y-36240025D01*
X6943367Y-36346059D01*
X7026065Y-36470530D01*
X7083011Y-36608691D01*
X7111901Y-36754595D01*
X7111901Y-36754614D01*
X7112033Y-36755282D01*
X7109649Y-36925966D01*
X7109498Y-36926629D01*
X7109498Y-36926651D01*
X7076547Y-37071687D01*
X7015764Y-37208207D01*
X6929623Y-37330319D01*
X6821408Y-37433371D01*
X6695230Y-37513446D01*
X6555908Y-37567485D01*
X6408744Y-37593435D01*
X6259340Y-37590304D01*
X6113388Y-37558215D01*
X5976449Y-37498388D01*
X5853739Y-37413102D01*
X5749934Y-37305609D01*
X5668983Y-37179998D01*
X5613971Y-37041051D01*
X5586994Y-36894071D01*
X5589081Y-36744652D01*
X5620151Y-36598476D01*
X5679019Y-36461126D01*
X5763446Y-36337824D01*
X5870216Y-36233268D01*
X5995259Y-36151442D01*
X6133811Y-36095463D01*
X6280604Y-36067461D01*
X6430038Y-36068504D01*
X6430038Y-36068504D01*
G37*
G36*
X3890038Y-36068504D02*
X4036423Y-36098553D01*
X4174180Y-36156460D01*
X4298071Y-36240025D01*
X4403367Y-36346059D01*
X4486065Y-36470530D01*
X4543011Y-36608691D01*
X4571901Y-36754595D01*
X4571901Y-36754614D01*
X4572033Y-36755282D01*
X4569649Y-36925966D01*
X4569498Y-36926629D01*
X4569498Y-36926651D01*
X4536547Y-37071687D01*
X4475764Y-37208207D01*
X4389623Y-37330319D01*
X4281408Y-37433371D01*
X4155230Y-37513446D01*
X4015908Y-37567485D01*
X3868744Y-37593435D01*
X3719340Y-37590304D01*
X3573388Y-37558215D01*
X3436449Y-37498388D01*
X3313739Y-37413102D01*
X3209934Y-37305609D01*
X3128983Y-37179998D01*
X3073971Y-37041051D01*
X3046994Y-36894071D01*
X3049081Y-36744652D01*
X3080151Y-36598476D01*
X3139019Y-36461126D01*
X3223446Y-36337824D01*
X3330216Y-36233268D01*
X3455259Y-36151442D01*
X3593811Y-36095463D01*
X3740604Y-36067461D01*
X3890038Y-36068504D01*
X3890038Y-36068504D01*
G37*
G36*
X6430038Y-33528504D02*
X6576423Y-33558553D01*
X6714180Y-33616460D01*
X6838071Y-33700025D01*
X6943367Y-33806059D01*
X7026065Y-33930530D01*
X7083011Y-34068691D01*
X7111901Y-34214595D01*
X7111901Y-34214614D01*
X7112033Y-34215282D01*
X7109649Y-34385966D01*
X7109498Y-34386629D01*
X7109498Y-34386651D01*
X7076547Y-34531687D01*
X7015764Y-34668207D01*
X6929623Y-34790319D01*
X6821408Y-34893371D01*
X6695230Y-34973446D01*
X6555908Y-35027485D01*
X6408744Y-35053435D01*
X6259340Y-35050304D01*
X6113388Y-35018215D01*
X5976449Y-34958388D01*
X5853739Y-34873102D01*
X5749934Y-34765609D01*
X5668983Y-34639998D01*
X5613971Y-34501051D01*
X5586994Y-34354071D01*
X5589081Y-34204652D01*
X5620151Y-34058476D01*
X5679019Y-33921126D01*
X5763446Y-33797824D01*
X5870216Y-33693268D01*
X5995259Y-33611442D01*
X6133811Y-33555463D01*
X6280604Y-33527461D01*
X6430038Y-33528504D01*
X6430038Y-33528504D01*
G37*
G36*
X3890038Y-33528504D02*
X4036423Y-33558553D01*
X4174180Y-33616460D01*
X4298071Y-33700025D01*
X4403367Y-33806059D01*
X4486065Y-33930530D01*
X4543011Y-34068691D01*
X4571901Y-34214595D01*
X4571901Y-34214614D01*
X4572033Y-34215282D01*
X4569649Y-34385966D01*
X4569498Y-34386629D01*
X4569498Y-34386651D01*
X4536547Y-34531687D01*
X4475764Y-34668207D01*
X4389623Y-34790319D01*
X4281408Y-34893371D01*
X4155230Y-34973446D01*
X4015908Y-35027485D01*
X3868744Y-35053435D01*
X3719340Y-35050304D01*
X3573388Y-35018215D01*
X3436449Y-34958388D01*
X3313739Y-34873102D01*
X3209934Y-34765609D01*
X3128983Y-34639998D01*
X3073971Y-34501051D01*
X3046994Y-34354071D01*
X3049081Y-34204652D01*
X3080151Y-34058476D01*
X3139019Y-33921126D01*
X3223446Y-33797824D01*
X3330216Y-33693268D01*
X3455259Y-33611442D01*
X3593811Y-33555463D01*
X3740604Y-33527461D01*
X3890038Y-33528504D01*
X3890038Y-33528504D01*
G37*
G36*
X3890038Y-30988504D02*
X4036423Y-31018553D01*
X4174180Y-31076460D01*
X4298071Y-31160025D01*
X4403367Y-31266059D01*
X4486065Y-31390530D01*
X4543011Y-31528691D01*
X4571901Y-31674595D01*
X4571901Y-31674614D01*
X4572033Y-31675282D01*
X4569649Y-31845966D01*
X4569498Y-31846629D01*
X4569498Y-31846651D01*
X4536547Y-31991687D01*
X4475764Y-32128207D01*
X4389623Y-32250319D01*
X4281408Y-32353371D01*
X4155230Y-32433446D01*
X4015908Y-32487485D01*
X3868744Y-32513435D01*
X3719340Y-32510304D01*
X3573388Y-32478215D01*
X3436449Y-32418388D01*
X3313739Y-32333102D01*
X3209934Y-32225609D01*
X3128983Y-32099998D01*
X3073971Y-31961051D01*
X3046994Y-31814071D01*
X3049081Y-31664652D01*
X3080151Y-31518476D01*
X3139019Y-31381126D01*
X3223446Y-31257824D01*
X3330216Y-31153268D01*
X3455259Y-31071442D01*
X3593811Y-31015463D01*
X3740604Y-30987461D01*
X3890038Y-30988504D01*
X3890038Y-30988504D01*
G37*
G36*
X6430038Y-30988504D02*
X6576423Y-31018553D01*
X6714180Y-31076460D01*
X6838071Y-31160025D01*
X6943367Y-31266059D01*
X7026065Y-31390530D01*
X7083011Y-31528691D01*
X7111901Y-31674595D01*
X7111901Y-31674614D01*
X7112033Y-31675282D01*
X7109649Y-31845966D01*
X7109498Y-31846629D01*
X7109498Y-31846651D01*
X7076547Y-31991687D01*
X7015764Y-32128207D01*
X6929623Y-32250319D01*
X6821408Y-32353371D01*
X6695230Y-32433446D01*
X6555908Y-32487485D01*
X6408744Y-32513435D01*
X6259340Y-32510304D01*
X6113388Y-32478215D01*
X5976449Y-32418388D01*
X5853739Y-32333102D01*
X5749934Y-32225609D01*
X5668983Y-32099998D01*
X5613971Y-31961051D01*
X5586994Y-31814071D01*
X5589081Y-31664652D01*
X5620151Y-31518476D01*
X5679019Y-31381126D01*
X5763446Y-31257824D01*
X5870216Y-31153268D01*
X5995259Y-31071442D01*
X6133811Y-31015463D01*
X6280604Y-30987461D01*
X6430038Y-30988504D01*
X6430038Y-30988504D01*
G37*
G36*
X3890038Y-28448504D02*
X4036423Y-28478553D01*
X4174180Y-28536460D01*
X4298071Y-28620025D01*
X4403367Y-28726059D01*
X4486065Y-28850530D01*
X4543011Y-28988691D01*
X4571901Y-29134595D01*
X4571901Y-29134614D01*
X4572033Y-29135282D01*
X4569649Y-29305966D01*
X4569498Y-29306629D01*
X4569498Y-29306651D01*
X4536547Y-29451687D01*
X4475764Y-29588207D01*
X4389623Y-29710319D01*
X4281408Y-29813371D01*
X4155230Y-29893446D01*
X4015908Y-29947485D01*
X3868744Y-29973435D01*
X3719340Y-29970304D01*
X3573388Y-29938215D01*
X3436449Y-29878388D01*
X3313739Y-29793102D01*
X3209934Y-29685609D01*
X3128983Y-29559998D01*
X3073971Y-29421051D01*
X3046994Y-29274071D01*
X3049081Y-29124652D01*
X3080151Y-28978476D01*
X3139019Y-28841126D01*
X3223446Y-28717824D01*
X3330216Y-28613268D01*
X3455259Y-28531442D01*
X3593811Y-28475463D01*
X3740604Y-28447461D01*
X3890038Y-28448504D01*
X3890038Y-28448504D01*
G37*
G36*
X6430038Y-28448504D02*
X6576423Y-28478553D01*
X6714180Y-28536460D01*
X6838071Y-28620025D01*
X6943367Y-28726059D01*
X7026065Y-28850530D01*
X7083011Y-28988691D01*
X7111901Y-29134595D01*
X7111901Y-29134614D01*
X7112033Y-29135282D01*
X7109649Y-29305966D01*
X7109498Y-29306629D01*
X7109498Y-29306651D01*
X7076547Y-29451687D01*
X7015764Y-29588207D01*
X6929623Y-29710319D01*
X6821408Y-29813371D01*
X6695230Y-29893446D01*
X6555908Y-29947485D01*
X6408744Y-29973435D01*
X6259340Y-29970304D01*
X6113388Y-29938215D01*
X5976449Y-29878388D01*
X5853739Y-29793102D01*
X5749934Y-29685609D01*
X5668983Y-29559998D01*
X5613971Y-29421051D01*
X5586994Y-29274071D01*
X5589081Y-29124652D01*
X5620151Y-28978476D01*
X5679019Y-28841126D01*
X5763446Y-28717824D01*
X5870216Y-28613268D01*
X5995259Y-28531442D01*
X6133811Y-28475463D01*
X6280604Y-28447461D01*
X6430038Y-28448504D01*
X6430038Y-28448504D01*
G37*
G36*
X6430038Y-25908504D02*
X6576423Y-25938553D01*
X6714180Y-25996460D01*
X6838071Y-26080025D01*
X6943367Y-26186059D01*
X7026065Y-26310530D01*
X7083011Y-26448691D01*
X7111901Y-26594595D01*
X7111901Y-26594614D01*
X7112033Y-26595282D01*
X7109649Y-26765966D01*
X7109498Y-26766629D01*
X7109498Y-26766651D01*
X7076547Y-26911687D01*
X7015764Y-27048207D01*
X6929623Y-27170319D01*
X6821408Y-27273371D01*
X6695230Y-27353446D01*
X6555908Y-27407485D01*
X6408744Y-27433435D01*
X6259340Y-27430304D01*
X6113388Y-27398215D01*
X5976449Y-27338388D01*
X5853739Y-27253102D01*
X5749934Y-27145609D01*
X5668983Y-27019998D01*
X5613971Y-26881051D01*
X5586994Y-26734071D01*
X5589081Y-26584652D01*
X5620151Y-26438476D01*
X5679019Y-26301126D01*
X5763446Y-26177824D01*
X5870216Y-26073268D01*
X5995259Y-25991442D01*
X6133811Y-25935463D01*
X6280604Y-25907461D01*
X6430038Y-25908504D01*
X6430038Y-25908504D01*
G37*
G36*
X3890038Y-25908504D02*
X4036423Y-25938553D01*
X4174180Y-25996460D01*
X4298071Y-26080025D01*
X4403367Y-26186059D01*
X4486065Y-26310530D01*
X4543011Y-26448691D01*
X4571901Y-26594595D01*
X4571901Y-26594614D01*
X4572033Y-26595282D01*
X4569649Y-26765966D01*
X4569498Y-26766629D01*
X4569498Y-26766651D01*
X4536547Y-26911687D01*
X4475764Y-27048207D01*
X4389623Y-27170319D01*
X4281408Y-27273371D01*
X4155230Y-27353446D01*
X4015908Y-27407485D01*
X3868744Y-27433435D01*
X3719340Y-27430304D01*
X3573388Y-27398215D01*
X3436449Y-27338388D01*
X3313739Y-27253102D01*
X3209934Y-27145609D01*
X3128983Y-27019998D01*
X3073971Y-26881051D01*
X3046994Y-26734071D01*
X3049081Y-26584652D01*
X3080151Y-26438476D01*
X3139019Y-26301126D01*
X3223446Y-26177824D01*
X3330216Y-26073268D01*
X3455259Y-25991442D01*
X3593811Y-25935463D01*
X3740604Y-25907461D01*
X3890038Y-25908504D01*
X3890038Y-25908504D01*
G37*
G36*
X3890038Y-23368504D02*
X4036423Y-23398553D01*
X4174180Y-23456460D01*
X4298071Y-23540025D01*
X4403367Y-23646059D01*
X4486065Y-23770530D01*
X4543011Y-23908691D01*
X4571901Y-24054595D01*
X4571901Y-24054614D01*
X4572033Y-24055282D01*
X4569649Y-24225966D01*
X4569498Y-24226629D01*
X4569498Y-24226651D01*
X4536547Y-24371687D01*
X4475764Y-24508207D01*
X4389623Y-24630319D01*
X4281408Y-24733371D01*
X4155230Y-24813446D01*
X4015908Y-24867485D01*
X3868744Y-24893435D01*
X3719340Y-24890304D01*
X3573388Y-24858215D01*
X3436449Y-24798388D01*
X3313739Y-24713102D01*
X3209934Y-24605609D01*
X3128983Y-24479998D01*
X3073971Y-24341051D01*
X3046994Y-24194071D01*
X3049081Y-24044652D01*
X3080151Y-23898476D01*
X3139019Y-23761126D01*
X3223446Y-23637824D01*
X3330216Y-23533268D01*
X3455259Y-23451442D01*
X3593811Y-23395463D01*
X3740604Y-23367461D01*
X3890038Y-23368504D01*
X3890038Y-23368504D01*
G37*
G36*
X6430038Y-23368504D02*
X6576423Y-23398553D01*
X6714180Y-23456460D01*
X6838071Y-23540025D01*
X6943367Y-23646059D01*
X7026065Y-23770530D01*
X7083011Y-23908691D01*
X7111901Y-24054595D01*
X7111901Y-24054614D01*
X7112033Y-24055282D01*
X7109649Y-24225966D01*
X7109498Y-24226629D01*
X7109498Y-24226651D01*
X7076547Y-24371687D01*
X7015764Y-24508207D01*
X6929623Y-24630319D01*
X6821408Y-24733371D01*
X6695230Y-24813446D01*
X6555908Y-24867485D01*
X6408744Y-24893435D01*
X6259340Y-24890304D01*
X6113388Y-24858215D01*
X5976449Y-24798388D01*
X5853739Y-24713102D01*
X5749934Y-24605609D01*
X5668983Y-24479998D01*
X5613971Y-24341051D01*
X5586994Y-24194071D01*
X5589081Y-24044652D01*
X5620151Y-23898476D01*
X5679019Y-23761126D01*
X5763446Y-23637824D01*
X5870216Y-23533268D01*
X5995259Y-23451442D01*
X6133811Y-23395463D01*
X6280604Y-23367461D01*
X6430038Y-23368504D01*
X6430038Y-23368504D01*
G37*
G36*
X6430038Y-20828504D02*
X6576423Y-20858553D01*
X6714180Y-20916460D01*
X6838071Y-21000025D01*
X6943367Y-21106059D01*
X7026065Y-21230530D01*
X7083011Y-21368691D01*
X7111901Y-21514595D01*
X7111901Y-21514614D01*
X7112033Y-21515282D01*
X7109649Y-21685966D01*
X7109498Y-21686629D01*
X7109498Y-21686651D01*
X7076547Y-21831687D01*
X7015764Y-21968207D01*
X6929623Y-22090319D01*
X6821408Y-22193371D01*
X6695230Y-22273446D01*
X6555908Y-22327485D01*
X6408744Y-22353435D01*
X6259340Y-22350304D01*
X6113388Y-22318215D01*
X5976449Y-22258388D01*
X5853739Y-22173102D01*
X5749934Y-22065609D01*
X5668983Y-21939998D01*
X5613971Y-21801051D01*
X5586994Y-21654071D01*
X5589081Y-21504652D01*
X5620151Y-21358476D01*
X5679019Y-21221126D01*
X5763446Y-21097824D01*
X5870216Y-20993268D01*
X5995259Y-20911442D01*
X6133811Y-20855463D01*
X6280604Y-20827461D01*
X6430038Y-20828504D01*
X6430038Y-20828504D01*
G37*
G36*
X3890038Y-20828504D02*
X4036423Y-20858553D01*
X4174180Y-20916460D01*
X4298071Y-21000025D01*
X4403367Y-21106059D01*
X4486065Y-21230530D01*
X4543011Y-21368691D01*
X4571901Y-21514595D01*
X4571901Y-21514614D01*
X4572033Y-21515282D01*
X4569649Y-21685966D01*
X4569498Y-21686629D01*
X4569498Y-21686651D01*
X4536547Y-21831687D01*
X4475764Y-21968207D01*
X4389623Y-22090319D01*
X4281408Y-22193371D01*
X4155230Y-22273446D01*
X4015908Y-22327485D01*
X3868744Y-22353435D01*
X3719340Y-22350304D01*
X3573388Y-22318215D01*
X3436449Y-22258388D01*
X3313739Y-22173102D01*
X3209934Y-22065609D01*
X3128983Y-21939998D01*
X3073971Y-21801051D01*
X3046994Y-21654071D01*
X3049081Y-21504652D01*
X3080151Y-21358476D01*
X3139019Y-21221126D01*
X3223446Y-21097824D01*
X3330216Y-20993268D01*
X3455259Y-20911442D01*
X3593811Y-20855463D01*
X3740604Y-20827461D01*
X3890038Y-20828504D01*
X3890038Y-20828504D01*
G37*
G36*
X25792387Y-18508041D02*
X25797169Y-18508074D01*
X25944959Y-18524652D01*
X26086714Y-18569619D01*
X26217035Y-18641264D01*
X26330958Y-18736857D01*
X26424144Y-18852757D01*
X26493044Y-18984550D01*
X26535033Y-19127215D01*
X26535039Y-19127282D01*
X26535047Y-19127309D01*
X26548516Y-19275313D01*
X26532981Y-19423127D01*
X26532973Y-19423152D01*
X26532966Y-19423221D01*
X26488990Y-19565287D01*
X26418257Y-19696105D01*
X26323461Y-19810693D01*
X26208214Y-19904686D01*
X26076906Y-19974504D01*
X25934537Y-20017488D01*
X25786530Y-20032000D01*
X25013397Y-20032000D01*
X25007613Y-20031959D01*
X25002831Y-20031926D01*
X24855041Y-20015348D01*
X24713286Y-19970381D01*
X24582965Y-19898736D01*
X24469042Y-19803143D01*
X24375856Y-19687243D01*
X24306956Y-19555450D01*
X24264967Y-19412785D01*
X24264961Y-19412718D01*
X24264953Y-19412691D01*
X24251484Y-19264687D01*
X24267019Y-19116873D01*
X24267027Y-19116848D01*
X24267034Y-19116779D01*
X24311010Y-18974713D01*
X24381743Y-18843895D01*
X24476539Y-18729307D01*
X24591786Y-18635314D01*
X24723094Y-18565496D01*
X24865463Y-18522512D01*
X25013470Y-18508000D01*
X25786603Y-18508000D01*
X25792387Y-18508041D01*
X25792387Y-18508041D01*
G37*
G36*
X20712387Y-18508041D02*
X20717169Y-18508074D01*
X20864959Y-18524652D01*
X21006714Y-18569619D01*
X21137035Y-18641264D01*
X21250958Y-18736857D01*
X21344144Y-18852757D01*
X21413044Y-18984550D01*
X21455033Y-19127215D01*
X21455039Y-19127282D01*
X21455047Y-19127309D01*
X21468516Y-19275313D01*
X21452981Y-19423127D01*
X21452973Y-19423152D01*
X21452966Y-19423221D01*
X21408990Y-19565287D01*
X21338257Y-19696105D01*
X21243461Y-19810693D01*
X21128214Y-19904686D01*
X20996906Y-19974504D01*
X20854537Y-20017488D01*
X20706530Y-20032000D01*
X19933397Y-20032000D01*
X19927613Y-20031959D01*
X19922831Y-20031926D01*
X19775041Y-20015348D01*
X19633286Y-19970381D01*
X19502965Y-19898736D01*
X19389042Y-19803143D01*
X19295856Y-19687243D01*
X19226956Y-19555450D01*
X19184967Y-19412785D01*
X19184961Y-19412718D01*
X19184953Y-19412691D01*
X19171484Y-19264687D01*
X19187019Y-19116873D01*
X19187027Y-19116848D01*
X19187034Y-19116779D01*
X19231010Y-18974713D01*
X19301743Y-18843895D01*
X19396539Y-18729307D01*
X19511786Y-18635314D01*
X19643094Y-18565496D01*
X19785463Y-18522512D01*
X19933470Y-18508000D01*
X20706603Y-18508000D01*
X20712387Y-18508041D01*
X20712387Y-18508041D01*
G37*
G36*
X6430038Y-18288504D02*
X6576423Y-18318553D01*
X6714180Y-18376460D01*
X6838071Y-18460025D01*
X6943367Y-18566059D01*
X7026065Y-18690530D01*
X7083011Y-18828691D01*
X7111901Y-18974595D01*
X7111901Y-18974614D01*
X7112033Y-18975282D01*
X7109649Y-19145966D01*
X7109498Y-19146629D01*
X7109498Y-19146651D01*
X7076547Y-19291687D01*
X7015764Y-19428207D01*
X6929623Y-19550319D01*
X6821408Y-19653371D01*
X6695230Y-19733446D01*
X6555908Y-19787485D01*
X6408744Y-19813435D01*
X6259340Y-19810304D01*
X6113388Y-19778215D01*
X5976449Y-19718388D01*
X5853739Y-19633102D01*
X5749934Y-19525609D01*
X5668983Y-19399998D01*
X5613971Y-19261051D01*
X5586994Y-19114071D01*
X5589081Y-18964652D01*
X5620151Y-18818476D01*
X5679019Y-18681126D01*
X5763446Y-18557824D01*
X5870216Y-18453268D01*
X5995259Y-18371442D01*
X6133811Y-18315463D01*
X6280604Y-18287461D01*
X6430038Y-18288504D01*
X6430038Y-18288504D01*
G37*
G36*
X3890038Y-18288504D02*
X4036423Y-18318553D01*
X4174180Y-18376460D01*
X4298071Y-18460025D01*
X4403367Y-18566059D01*
X4486065Y-18690530D01*
X4543011Y-18828691D01*
X4571901Y-18974595D01*
X4571901Y-18974614D01*
X4572033Y-18975282D01*
X4569649Y-19145966D01*
X4569498Y-19146629D01*
X4569498Y-19146651D01*
X4536547Y-19291687D01*
X4475764Y-19428207D01*
X4389623Y-19550319D01*
X4281408Y-19653371D01*
X4155230Y-19733446D01*
X4015908Y-19787485D01*
X3868744Y-19813435D01*
X3719340Y-19810304D01*
X3573388Y-19778215D01*
X3436449Y-19718388D01*
X3313739Y-19633102D01*
X3209934Y-19525609D01*
X3128983Y-19399998D01*
X3073971Y-19261051D01*
X3046994Y-19114071D01*
X3049081Y-18964652D01*
X3080151Y-18818476D01*
X3139019Y-18681126D01*
X3223446Y-18557824D01*
X3330216Y-18453268D01*
X3455259Y-18371442D01*
X3593811Y-18315463D01*
X3740604Y-18287461D01*
X3890038Y-18288504D01*
X3890038Y-18288504D01*
G37*
G36*
X25792387Y-15968041D02*
X25797169Y-15968074D01*
X25944959Y-15984652D01*
X26086714Y-16029619D01*
X26217035Y-16101264D01*
X26330958Y-16196857D01*
X26424144Y-16312757D01*
X26493044Y-16444550D01*
X26535033Y-16587215D01*
X26535039Y-16587282D01*
X26535047Y-16587309D01*
X26548516Y-16735313D01*
X26532981Y-16883127D01*
X26532973Y-16883152D01*
X26532966Y-16883221D01*
X26488990Y-17025287D01*
X26418257Y-17156105D01*
X26323461Y-17270693D01*
X26208214Y-17364686D01*
X26076906Y-17434504D01*
X25934537Y-17477488D01*
X25786530Y-17492000D01*
X25013397Y-17492000D01*
X25007613Y-17491959D01*
X25002831Y-17491926D01*
X24855041Y-17475348D01*
X24713286Y-17430381D01*
X24582965Y-17358736D01*
X24469042Y-17263143D01*
X24375856Y-17147243D01*
X24306956Y-17015450D01*
X24264967Y-16872785D01*
X24264961Y-16872718D01*
X24264953Y-16872691D01*
X24251484Y-16724687D01*
X24267019Y-16576873D01*
X24267027Y-16576848D01*
X24267034Y-16576779D01*
X24311010Y-16434713D01*
X24381743Y-16303895D01*
X24476539Y-16189307D01*
X24591786Y-16095314D01*
X24723094Y-16025496D01*
X24865463Y-15982512D01*
X25013470Y-15968000D01*
X25786603Y-15968000D01*
X25792387Y-15968041D01*
X25792387Y-15968041D01*
G37*
G36*
X20712387Y-15968041D02*
X20717169Y-15968074D01*
X20864959Y-15984652D01*
X21006714Y-16029619D01*
X21137035Y-16101264D01*
X21250958Y-16196857D01*
X21344144Y-16312757D01*
X21413044Y-16444550D01*
X21455033Y-16587215D01*
X21455039Y-16587282D01*
X21455047Y-16587309D01*
X21468516Y-16735313D01*
X21452981Y-16883127D01*
X21452973Y-16883152D01*
X21452966Y-16883221D01*
X21408990Y-17025287D01*
X21338257Y-17156105D01*
X21243461Y-17270693D01*
X21128214Y-17364686D01*
X20996906Y-17434504D01*
X20854537Y-17477488D01*
X20706530Y-17492000D01*
X19933397Y-17492000D01*
X19927613Y-17491959D01*
X19922831Y-17491926D01*
X19775041Y-17475348D01*
X19633286Y-17430381D01*
X19502965Y-17358736D01*
X19389042Y-17263143D01*
X19295856Y-17147243D01*
X19226956Y-17015450D01*
X19184967Y-16872785D01*
X19184961Y-16872718D01*
X19184953Y-16872691D01*
X19171484Y-16724687D01*
X19187019Y-16576873D01*
X19187027Y-16576848D01*
X19187034Y-16576779D01*
X19231010Y-16434713D01*
X19301743Y-16303895D01*
X19396539Y-16189307D01*
X19511786Y-16095314D01*
X19643094Y-16025496D01*
X19785463Y-15982512D01*
X19933470Y-15968000D01*
X20706603Y-15968000D01*
X20712387Y-15968041D01*
X20712387Y-15968041D01*
G37*
G36*
X3890038Y-15748504D02*
X4036423Y-15778553D01*
X4174180Y-15836460D01*
X4298071Y-15920025D01*
X4403367Y-16026059D01*
X4486065Y-16150530D01*
X4543011Y-16288691D01*
X4571901Y-16434595D01*
X4571901Y-16434614D01*
X4572033Y-16435282D01*
X4569649Y-16605966D01*
X4569498Y-16606629D01*
X4569498Y-16606651D01*
X4536547Y-16751687D01*
X4475764Y-16888207D01*
X4389623Y-17010319D01*
X4281408Y-17113371D01*
X4155230Y-17193446D01*
X4015908Y-17247485D01*
X3868744Y-17273435D01*
X3719340Y-17270304D01*
X3573388Y-17238215D01*
X3436449Y-17178388D01*
X3313739Y-17093102D01*
X3209934Y-16985609D01*
X3128983Y-16859998D01*
X3073971Y-16721051D01*
X3046994Y-16574071D01*
X3049081Y-16424652D01*
X3080151Y-16278476D01*
X3139019Y-16141126D01*
X3223446Y-16017824D01*
X3330216Y-15913268D01*
X3455259Y-15831442D01*
X3593811Y-15775463D01*
X3740604Y-15747461D01*
X3890038Y-15748504D01*
X3890038Y-15748504D01*
G37*
G36*
X6430038Y-15748504D02*
X6576423Y-15778553D01*
X6714180Y-15836460D01*
X6838071Y-15920025D01*
X6943367Y-16026059D01*
X7026065Y-16150530D01*
X7083011Y-16288691D01*
X7111901Y-16434595D01*
X7111901Y-16434614D01*
X7112033Y-16435282D01*
X7109649Y-16605966D01*
X7109498Y-16606629D01*
X7109498Y-16606651D01*
X7076547Y-16751687D01*
X7015764Y-16888207D01*
X6929623Y-17010319D01*
X6821408Y-17113371D01*
X6695230Y-17193446D01*
X6555908Y-17247485D01*
X6408744Y-17273435D01*
X6259340Y-17270304D01*
X6113388Y-17238215D01*
X5976449Y-17178388D01*
X5853739Y-17093102D01*
X5749934Y-16985609D01*
X5668983Y-16859998D01*
X5613971Y-16721051D01*
X5586994Y-16574071D01*
X5589081Y-16424652D01*
X5620151Y-16278476D01*
X5679019Y-16141126D01*
X5763446Y-16017824D01*
X5870216Y-15913268D01*
X5995259Y-15831442D01*
X6133811Y-15775463D01*
X6280604Y-15747461D01*
X6430038Y-15748504D01*
X6430038Y-15748504D01*
G37*
G36*
X3890038Y-13208504D02*
X4036423Y-13238553D01*
X4174180Y-13296460D01*
X4298071Y-13380025D01*
X4403367Y-13486059D01*
X4486065Y-13610530D01*
X4543011Y-13748691D01*
X4571901Y-13894595D01*
X4571901Y-13894614D01*
X4572033Y-13895282D01*
X4569649Y-14065966D01*
X4569498Y-14066629D01*
X4569498Y-14066651D01*
X4536547Y-14211687D01*
X4475764Y-14348207D01*
X4389623Y-14470319D01*
X4281408Y-14573371D01*
X4155230Y-14653446D01*
X4015908Y-14707485D01*
X3868744Y-14733435D01*
X3719340Y-14730304D01*
X3573388Y-14698215D01*
X3436449Y-14638388D01*
X3313739Y-14553102D01*
X3209934Y-14445609D01*
X3128983Y-14319998D01*
X3073971Y-14181051D01*
X3046994Y-14034071D01*
X3049081Y-13884652D01*
X3080151Y-13738476D01*
X3139019Y-13601126D01*
X3223446Y-13477824D01*
X3330216Y-13373268D01*
X3455259Y-13291442D01*
X3593811Y-13235463D01*
X3740604Y-13207461D01*
X3890038Y-13208504D01*
X3890038Y-13208504D01*
G37*
G36*
X6430038Y-13208504D02*
X6576423Y-13238553D01*
X6714180Y-13296460D01*
X6838071Y-13380025D01*
X6943367Y-13486059D01*
X7026065Y-13610530D01*
X7083011Y-13748691D01*
X7111901Y-13894595D01*
X7111901Y-13894614D01*
X7112033Y-13895282D01*
X7109649Y-14065966D01*
X7109498Y-14066629D01*
X7109498Y-14066651D01*
X7076547Y-14211687D01*
X7015764Y-14348207D01*
X6929623Y-14470319D01*
X6821408Y-14573371D01*
X6695230Y-14653446D01*
X6555908Y-14707485D01*
X6408744Y-14733435D01*
X6259340Y-14730304D01*
X6113388Y-14698215D01*
X5976449Y-14638388D01*
X5853739Y-14553102D01*
X5749934Y-14445609D01*
X5668983Y-14319998D01*
X5613971Y-14181051D01*
X5586994Y-14034071D01*
X5589081Y-13884652D01*
X5620151Y-13738476D01*
X5679019Y-13601126D01*
X5763446Y-13477824D01*
X5870216Y-13373268D01*
X5995259Y-13291442D01*
X6133811Y-13235463D01*
X6280604Y-13207461D01*
X6430038Y-13208504D01*
X6430038Y-13208504D01*
G37*
G36*
X3890038Y-10668504D02*
X4036423Y-10698553D01*
X4174180Y-10756460D01*
X4298071Y-10840025D01*
X4403367Y-10946059D01*
X4486065Y-11070530D01*
X4543011Y-11208691D01*
X4571901Y-11354595D01*
X4571901Y-11354614D01*
X4572033Y-11355282D01*
X4569649Y-11525966D01*
X4569498Y-11526629D01*
X4569498Y-11526651D01*
X4536547Y-11671687D01*
X4475764Y-11808207D01*
X4389623Y-11930319D01*
X4281408Y-12033371D01*
X4155230Y-12113446D01*
X4015908Y-12167485D01*
X3868744Y-12193435D01*
X3719340Y-12190304D01*
X3573388Y-12158215D01*
X3436449Y-12098388D01*
X3313739Y-12013102D01*
X3209934Y-11905609D01*
X3128983Y-11779998D01*
X3073971Y-11641051D01*
X3046994Y-11494071D01*
X3049081Y-11344652D01*
X3080151Y-11198476D01*
X3139019Y-11061126D01*
X3223446Y-10937824D01*
X3330216Y-10833268D01*
X3455259Y-10751442D01*
X3593811Y-10695463D01*
X3740604Y-10667461D01*
X3890038Y-10668504D01*
X3890038Y-10668504D01*
G37*
G36*
X6430038Y-10668504D02*
X6576423Y-10698553D01*
X6714180Y-10756460D01*
X6838071Y-10840025D01*
X6943367Y-10946059D01*
X7026065Y-11070530D01*
X7083011Y-11208691D01*
X7111901Y-11354595D01*
X7111901Y-11354614D01*
X7112033Y-11355282D01*
X7109649Y-11525966D01*
X7109498Y-11526629D01*
X7109498Y-11526651D01*
X7076547Y-11671687D01*
X7015764Y-11808207D01*
X6929623Y-11930319D01*
X6821408Y-12033371D01*
X6695230Y-12113446D01*
X6555908Y-12167485D01*
X6408744Y-12193435D01*
X6259340Y-12190304D01*
X6113388Y-12158215D01*
X5976449Y-12098388D01*
X5853739Y-12013102D01*
X5749934Y-11905609D01*
X5668983Y-11779998D01*
X5613971Y-11641051D01*
X5586994Y-11494071D01*
X5589081Y-11344652D01*
X5620151Y-11198476D01*
X5679019Y-11061126D01*
X5763446Y-10937824D01*
X5870216Y-10833268D01*
X5995259Y-10751442D01*
X6133811Y-10695463D01*
X6280604Y-10667461D01*
X6430038Y-10668504D01*
X6430038Y-10668504D01*
G37*
G36*
X50153127Y-8121019D02*
X50153152Y-8121027D01*
X50153221Y-8121034D01*
X50295287Y-8165010D01*
X50426105Y-8235743D01*
X50540693Y-8330539D01*
X50634686Y-8445786D01*
X50704504Y-8577094D01*
X50747488Y-8719463D01*
X50762000Y-8867470D01*
X50762000Y-9640603D01*
X50761959Y-9646387D01*
X50761926Y-9651169D01*
X50745348Y-9798959D01*
X50700381Y-9940714D01*
X50628736Y-10071035D01*
X50533143Y-10184958D01*
X50417243Y-10278144D01*
X50285450Y-10347044D01*
X50142785Y-10389033D01*
X50142718Y-10389039D01*
X50142691Y-10389047D01*
X49994687Y-10402516D01*
X49846873Y-10386981D01*
X49846848Y-10386973D01*
X49846779Y-10386966D01*
X49704713Y-10342990D01*
X49573895Y-10272257D01*
X49459307Y-10177461D01*
X49365314Y-10062214D01*
X49295496Y-9930906D01*
X49252512Y-9788537D01*
X49238000Y-9640530D01*
X49238000Y-8867397D01*
X49238046Y-8860866D01*
X49238074Y-8856831D01*
X49254652Y-8709041D01*
X49299619Y-8567286D01*
X49371264Y-8436965D01*
X49466857Y-8323042D01*
X49582757Y-8229856D01*
X49714550Y-8160956D01*
X49857215Y-8118967D01*
X49857282Y-8118961D01*
X49857309Y-8118953D01*
X50005313Y-8105484D01*
X50153127Y-8121019D01*
X50153127Y-8121019D01*
G37*
G36*
X52693127Y-8121019D02*
X52693152Y-8121027D01*
X52693221Y-8121034D01*
X52835287Y-8165010D01*
X52966105Y-8235743D01*
X53080693Y-8330539D01*
X53174686Y-8445786D01*
X53244504Y-8577094D01*
X53287488Y-8719463D01*
X53302000Y-8867470D01*
X53302000Y-9640603D01*
X53301959Y-9646387D01*
X53301926Y-9651169D01*
X53285348Y-9798959D01*
X53240381Y-9940714D01*
X53168736Y-10071035D01*
X53073143Y-10184958D01*
X52957243Y-10278144D01*
X52825450Y-10347044D01*
X52682785Y-10389033D01*
X52682718Y-10389039D01*
X52682691Y-10389047D01*
X52534687Y-10402516D01*
X52386873Y-10386981D01*
X52386848Y-10386973D01*
X52386779Y-10386966D01*
X52244713Y-10342990D01*
X52113895Y-10272257D01*
X51999307Y-10177461D01*
X51905314Y-10062214D01*
X51835496Y-9930906D01*
X51792512Y-9788537D01*
X51778000Y-9640530D01*
X51778000Y-8867397D01*
X51778046Y-8860866D01*
X51778074Y-8856831D01*
X51794652Y-8709041D01*
X51839619Y-8567286D01*
X51911264Y-8436965D01*
X52006857Y-8323042D01*
X52122757Y-8229856D01*
X52254550Y-8160956D01*
X52397215Y-8118967D01*
X52397282Y-8118961D01*
X52397309Y-8118953D01*
X52545313Y-8105484D01*
X52693127Y-8121019D01*
X52693127Y-8121019D01*
G37*
G36*
X48222000Y-10397000D02*
X46698000Y-10397000D01*
X46698000Y-8111000D01*
X48222000Y-8111000D01*
X48222000Y-10397000D01*
X48222000Y-10397000D01*
G37*
G36*
X3890038Y-8128504D02*
X4036423Y-8158553D01*
X4174180Y-8216460D01*
X4298071Y-8300025D01*
X4403367Y-8406059D01*
X4486065Y-8530530D01*
X4543011Y-8668691D01*
X4571901Y-8814595D01*
X4571901Y-8814614D01*
X4572033Y-8815282D01*
X4569649Y-8985966D01*
X4569498Y-8986629D01*
X4569498Y-8986651D01*
X4536547Y-9131687D01*
X4475764Y-9268207D01*
X4389623Y-9390319D01*
X4281408Y-9493371D01*
X4155230Y-9573446D01*
X4015908Y-9627485D01*
X3868744Y-9653435D01*
X3719340Y-9650304D01*
X3573388Y-9618215D01*
X3436449Y-9558388D01*
X3313739Y-9473102D01*
X3209934Y-9365609D01*
X3128983Y-9239998D01*
X3073971Y-9101051D01*
X3046994Y-8954071D01*
X3049081Y-8804652D01*
X3080151Y-8658476D01*
X3139019Y-8521126D01*
X3223446Y-8397824D01*
X3330216Y-8293268D01*
X3455259Y-8211442D01*
X3593811Y-8155463D01*
X3740604Y-8127461D01*
X3890038Y-8128504D01*
X3890038Y-8128504D01*
G37*
G36*
X6430038Y-8128504D02*
X6576423Y-8158553D01*
X6714180Y-8216460D01*
X6838071Y-8300025D01*
X6943367Y-8406059D01*
X7026065Y-8530530D01*
X7083011Y-8668691D01*
X7111901Y-8814595D01*
X7111901Y-8814614D01*
X7112033Y-8815282D01*
X7109649Y-8985966D01*
X7109498Y-8986629D01*
X7109498Y-8986651D01*
X7076547Y-9131687D01*
X7015764Y-9268207D01*
X6929623Y-9390319D01*
X6821408Y-9493371D01*
X6695230Y-9573446D01*
X6555908Y-9627485D01*
X6408744Y-9653435D01*
X6259340Y-9650304D01*
X6113388Y-9618215D01*
X5976449Y-9558388D01*
X5853739Y-9473102D01*
X5749934Y-9365609D01*
X5668983Y-9239998D01*
X5613971Y-9101051D01*
X5586994Y-8954071D01*
X5589081Y-8804652D01*
X5620151Y-8658476D01*
X5679019Y-8521126D01*
X5763446Y-8397824D01*
X5870216Y-8293268D01*
X5995259Y-8211442D01*
X6133811Y-8155463D01*
X6280604Y-8127461D01*
X6430038Y-8128504D01*
X6430038Y-8128504D01*
G37*
G36*
X50153127Y-5073019D02*
X50153152Y-5073027D01*
X50153221Y-5073034D01*
X50295287Y-5117010D01*
X50426105Y-5187743D01*
X50540693Y-5282539D01*
X50634686Y-5397786D01*
X50704504Y-5529094D01*
X50747488Y-5671463D01*
X50762000Y-5819470D01*
X50762000Y-6592603D01*
X50761959Y-6598387D01*
X50761926Y-6603169D01*
X50745348Y-6750959D01*
X50700381Y-6892714D01*
X50628736Y-7023035D01*
X50533143Y-7136958D01*
X50417243Y-7230144D01*
X50285450Y-7299044D01*
X50142785Y-7341033D01*
X50142718Y-7341039D01*
X50142691Y-7341047D01*
X49994687Y-7354516D01*
X49846873Y-7338981D01*
X49846848Y-7338973D01*
X49846779Y-7338966D01*
X49704713Y-7294990D01*
X49573895Y-7224257D01*
X49459307Y-7129461D01*
X49365314Y-7014214D01*
X49295496Y-6882906D01*
X49252512Y-6740537D01*
X49238000Y-6592530D01*
X49238000Y-5819397D01*
X49238046Y-5812866D01*
X49238074Y-5808831D01*
X49254652Y-5661041D01*
X49299619Y-5519286D01*
X49371264Y-5388965D01*
X49466857Y-5275042D01*
X49582757Y-5181856D01*
X49714550Y-5112956D01*
X49857215Y-5070967D01*
X49857282Y-5070961D01*
X49857309Y-5070953D01*
X50005313Y-5057484D01*
X50153127Y-5073019D01*
X50153127Y-5073019D01*
G37*
G36*
X52693127Y-5073019D02*
X52693152Y-5073027D01*
X52693221Y-5073034D01*
X52835287Y-5117010D01*
X52966105Y-5187743D01*
X53080693Y-5282539D01*
X53174686Y-5397786D01*
X53244504Y-5529094D01*
X53287488Y-5671463D01*
X53302000Y-5819470D01*
X53302000Y-6592603D01*
X53301959Y-6598387D01*
X53301926Y-6603169D01*
X53285348Y-6750959D01*
X53240381Y-6892714D01*
X53168736Y-7023035D01*
X53073143Y-7136958D01*
X52957243Y-7230144D01*
X52825450Y-7299044D01*
X52682785Y-7341033D01*
X52682718Y-7341039D01*
X52682691Y-7341047D01*
X52534687Y-7354516D01*
X52386873Y-7338981D01*
X52386848Y-7338973D01*
X52386779Y-7338966D01*
X52244713Y-7294990D01*
X52113895Y-7224257D01*
X51999307Y-7129461D01*
X51905314Y-7014214D01*
X51835496Y-6882906D01*
X51792512Y-6740537D01*
X51778000Y-6592530D01*
X51778000Y-5819397D01*
X51778046Y-5812866D01*
X51778074Y-5808831D01*
X51794652Y-5661041D01*
X51839619Y-5519286D01*
X51911264Y-5388965D01*
X52006857Y-5275042D01*
X52122757Y-5181856D01*
X52254550Y-5112956D01*
X52397215Y-5070967D01*
X52397282Y-5070961D01*
X52397309Y-5070953D01*
X52545313Y-5057484D01*
X52693127Y-5073019D01*
X52693127Y-5073019D01*
G37*
G36*
X47613127Y-5073019D02*
X47613152Y-5073027D01*
X47613221Y-5073034D01*
X47755287Y-5117010D01*
X47886105Y-5187743D01*
X48000693Y-5282539D01*
X48094686Y-5397786D01*
X48164504Y-5529094D01*
X48207488Y-5671463D01*
X48222000Y-5819470D01*
X48222000Y-6592603D01*
X48221959Y-6598387D01*
X48221926Y-6603169D01*
X48205348Y-6750959D01*
X48160381Y-6892714D01*
X48088736Y-7023035D01*
X47993143Y-7136958D01*
X47877243Y-7230144D01*
X47745450Y-7299044D01*
X47602785Y-7341033D01*
X47602718Y-7341039D01*
X47602691Y-7341047D01*
X47454687Y-7354516D01*
X47306873Y-7338981D01*
X47306848Y-7338973D01*
X47306779Y-7338966D01*
X47164713Y-7294990D01*
X47033895Y-7224257D01*
X46919307Y-7129461D01*
X46825314Y-7014214D01*
X46755496Y-6882906D01*
X46712512Y-6740537D01*
X46698000Y-6592530D01*
X46698000Y-5819397D01*
X46698046Y-5812866D01*
X46698074Y-5808831D01*
X46714652Y-5661041D01*
X46759619Y-5519286D01*
X46831264Y-5388965D01*
X46926857Y-5275042D01*
X47042757Y-5181856D01*
X47174550Y-5112956D01*
X47317215Y-5070967D01*
X47317282Y-5070961D01*
X47317309Y-5070953D01*
X47465313Y-5057484D01*
X47613127Y-5073019D01*
X47613127Y-5073019D01*
G37*
G36*
X34370038Y-5588504D02*
X34516423Y-5618553D01*
X34654180Y-5676460D01*
X34778071Y-5760025D01*
X34883367Y-5866059D01*
X34966065Y-5990530D01*
X35023011Y-6128691D01*
X35051901Y-6274595D01*
X35051901Y-6274614D01*
X35052033Y-6275282D01*
X35049649Y-6445966D01*
X35049498Y-6446629D01*
X35049498Y-6446651D01*
X35016547Y-6591687D01*
X34955764Y-6728207D01*
X34869623Y-6850319D01*
X34761408Y-6953371D01*
X34635230Y-7033446D01*
X34495908Y-7087485D01*
X34348744Y-7113435D01*
X34199340Y-7110304D01*
X34053388Y-7078215D01*
X33916449Y-7018388D01*
X33793739Y-6933102D01*
X33689934Y-6825609D01*
X33608983Y-6699998D01*
X33553971Y-6561051D01*
X33526994Y-6414071D01*
X33529081Y-6264652D01*
X33560151Y-6118476D01*
X33619019Y-5981126D01*
X33703446Y-5857824D01*
X33810216Y-5753268D01*
X33935259Y-5671442D01*
X34073811Y-5615463D01*
X34220604Y-5587461D01*
X34370038Y-5588504D01*
X34370038Y-5588504D01*
G37*
G36*
X19130038Y-5588504D02*
X19276423Y-5618553D01*
X19414180Y-5676460D01*
X19538071Y-5760025D01*
X19643367Y-5866059D01*
X19726065Y-5990530D01*
X19783011Y-6128691D01*
X19811901Y-6274595D01*
X19811901Y-6274614D01*
X19812033Y-6275282D01*
X19809649Y-6445966D01*
X19809498Y-6446629D01*
X19809498Y-6446651D01*
X19776547Y-6591687D01*
X19715764Y-6728207D01*
X19629623Y-6850319D01*
X19521408Y-6953371D01*
X19395230Y-7033446D01*
X19255908Y-7087485D01*
X19108744Y-7113435D01*
X18959340Y-7110304D01*
X18813388Y-7078215D01*
X18676449Y-7018388D01*
X18553739Y-6933102D01*
X18449934Y-6825609D01*
X18368983Y-6699998D01*
X18313971Y-6561051D01*
X18286994Y-6414071D01*
X18289081Y-6264652D01*
X18320151Y-6118476D01*
X18379019Y-5981126D01*
X18463446Y-5857824D01*
X18570216Y-5753268D01*
X18695259Y-5671442D01*
X18833811Y-5615463D01*
X18980604Y-5587461D01*
X19130038Y-5588504D01*
X19130038Y-5588504D01*
G37*
G36*
X36910038Y-5588504D02*
X37056423Y-5618553D01*
X37194180Y-5676460D01*
X37318071Y-5760025D01*
X37423367Y-5866059D01*
X37506065Y-5990530D01*
X37563011Y-6128691D01*
X37591901Y-6274595D01*
X37591901Y-6274614D01*
X37592033Y-6275282D01*
X37589649Y-6445966D01*
X37589498Y-6446629D01*
X37589498Y-6446651D01*
X37556547Y-6591687D01*
X37495764Y-6728207D01*
X37409623Y-6850319D01*
X37301408Y-6953371D01*
X37175230Y-7033446D01*
X37035908Y-7087485D01*
X36888744Y-7113435D01*
X36739340Y-7110304D01*
X36593388Y-7078215D01*
X36456449Y-7018388D01*
X36333739Y-6933102D01*
X36229934Y-6825609D01*
X36148983Y-6699998D01*
X36093971Y-6561051D01*
X36066994Y-6414071D01*
X36069081Y-6264652D01*
X36100151Y-6118476D01*
X36159019Y-5981126D01*
X36243446Y-5857824D01*
X36350216Y-5753268D01*
X36475259Y-5671442D01*
X36613811Y-5615463D01*
X36760604Y-5587461D01*
X36910038Y-5588504D01*
X36910038Y-5588504D01*
G37*
G36*
X31830038Y-5588504D02*
X31976423Y-5618553D01*
X32114180Y-5676460D01*
X32238071Y-5760025D01*
X32343367Y-5866059D01*
X32426065Y-5990530D01*
X32483011Y-6128691D01*
X32511901Y-6274595D01*
X32511901Y-6274614D01*
X32512033Y-6275282D01*
X32509649Y-6445966D01*
X32509498Y-6446629D01*
X32509498Y-6446651D01*
X32476547Y-6591687D01*
X32415764Y-6728207D01*
X32329623Y-6850319D01*
X32221408Y-6953371D01*
X32095230Y-7033446D01*
X31955908Y-7087485D01*
X31808744Y-7113435D01*
X31659340Y-7110304D01*
X31513388Y-7078215D01*
X31376449Y-7018388D01*
X31253739Y-6933102D01*
X31149934Y-6825609D01*
X31068983Y-6699998D01*
X31013971Y-6561051D01*
X30986994Y-6414071D01*
X30989081Y-6264652D01*
X31020151Y-6118476D01*
X31079019Y-5981126D01*
X31163446Y-5857824D01*
X31270216Y-5753268D01*
X31395259Y-5671442D01*
X31533811Y-5615463D01*
X31680604Y-5587461D01*
X31830038Y-5588504D01*
X31830038Y-5588504D01*
G37*
G36*
X29290038Y-5588504D02*
X29436423Y-5618553D01*
X29574180Y-5676460D01*
X29698071Y-5760025D01*
X29803367Y-5866059D01*
X29886065Y-5990530D01*
X29943011Y-6128691D01*
X29971901Y-6274595D01*
X29971901Y-6274614D01*
X29972033Y-6275282D01*
X29969649Y-6445966D01*
X29969498Y-6446629D01*
X29969498Y-6446651D01*
X29936547Y-6591687D01*
X29875764Y-6728207D01*
X29789623Y-6850319D01*
X29681408Y-6953371D01*
X29555230Y-7033446D01*
X29415908Y-7087485D01*
X29268744Y-7113435D01*
X29119340Y-7110304D01*
X28973388Y-7078215D01*
X28836449Y-7018388D01*
X28713739Y-6933102D01*
X28609934Y-6825609D01*
X28528983Y-6699998D01*
X28473971Y-6561051D01*
X28446994Y-6414071D01*
X28449081Y-6264652D01*
X28480151Y-6118476D01*
X28539019Y-5981126D01*
X28623446Y-5857824D01*
X28730216Y-5753268D01*
X28855259Y-5671442D01*
X28993811Y-5615463D01*
X29140604Y-5587461D01*
X29290038Y-5588504D01*
X29290038Y-5588504D01*
G37*
G36*
X26750038Y-5588504D02*
X26896423Y-5618553D01*
X27034180Y-5676460D01*
X27158071Y-5760025D01*
X27263367Y-5866059D01*
X27346065Y-5990530D01*
X27403011Y-6128691D01*
X27431901Y-6274595D01*
X27431901Y-6274614D01*
X27432033Y-6275282D01*
X27429649Y-6445966D01*
X27429498Y-6446629D01*
X27429498Y-6446651D01*
X27396547Y-6591687D01*
X27335764Y-6728207D01*
X27249623Y-6850319D01*
X27141408Y-6953371D01*
X27015230Y-7033446D01*
X26875908Y-7087485D01*
X26728744Y-7113435D01*
X26579340Y-7110304D01*
X26433388Y-7078215D01*
X26296449Y-7018388D01*
X26173739Y-6933102D01*
X26069934Y-6825609D01*
X25988983Y-6699998D01*
X25933971Y-6561051D01*
X25906994Y-6414071D01*
X25909081Y-6264652D01*
X25940151Y-6118476D01*
X25999019Y-5981126D01*
X26083446Y-5857824D01*
X26190216Y-5753268D01*
X26315259Y-5671442D01*
X26453811Y-5615463D01*
X26600604Y-5587461D01*
X26750038Y-5588504D01*
X26750038Y-5588504D01*
G37*
G36*
X24210038Y-5588504D02*
X24356423Y-5618553D01*
X24494180Y-5676460D01*
X24618071Y-5760025D01*
X24723367Y-5866059D01*
X24806065Y-5990530D01*
X24863011Y-6128691D01*
X24891901Y-6274595D01*
X24891901Y-6274614D01*
X24892033Y-6275282D01*
X24889649Y-6445966D01*
X24889498Y-6446629D01*
X24889498Y-6446651D01*
X24856547Y-6591687D01*
X24795764Y-6728207D01*
X24709623Y-6850319D01*
X24601408Y-6953371D01*
X24475230Y-7033446D01*
X24335908Y-7087485D01*
X24188744Y-7113435D01*
X24039340Y-7110304D01*
X23893388Y-7078215D01*
X23756449Y-7018388D01*
X23633739Y-6933102D01*
X23529934Y-6825609D01*
X23448983Y-6699998D01*
X23393971Y-6561051D01*
X23366994Y-6414071D01*
X23369081Y-6264652D01*
X23400151Y-6118476D01*
X23459019Y-5981126D01*
X23543446Y-5857824D01*
X23650216Y-5753268D01*
X23775259Y-5671442D01*
X23913811Y-5615463D01*
X24060604Y-5587461D01*
X24210038Y-5588504D01*
X24210038Y-5588504D01*
G37*
G36*
X21670038Y-5588504D02*
X21816423Y-5618553D01*
X21954180Y-5676460D01*
X22078071Y-5760025D01*
X22183367Y-5866059D01*
X22266065Y-5990530D01*
X22323011Y-6128691D01*
X22351901Y-6274595D01*
X22351901Y-6274614D01*
X22352033Y-6275282D01*
X22349649Y-6445966D01*
X22349498Y-6446629D01*
X22349498Y-6446651D01*
X22316547Y-6591687D01*
X22255764Y-6728207D01*
X22169623Y-6850319D01*
X22061408Y-6953371D01*
X21935230Y-7033446D01*
X21795908Y-7087485D01*
X21648744Y-7113435D01*
X21499340Y-7110304D01*
X21353388Y-7078215D01*
X21216449Y-7018388D01*
X21093739Y-6933102D01*
X20989934Y-6825609D01*
X20908983Y-6699998D01*
X20853971Y-6561051D01*
X20826994Y-6414071D01*
X20829081Y-6264652D01*
X20860151Y-6118476D01*
X20919019Y-5981126D01*
X21003446Y-5857824D01*
X21110216Y-5753268D01*
X21235259Y-5671442D01*
X21373811Y-5615463D01*
X21520604Y-5587461D01*
X21670038Y-5588504D01*
X21670038Y-5588504D01*
G37*
G36*
X16590038Y-5588504D02*
X16736423Y-5618553D01*
X16874180Y-5676460D01*
X16998071Y-5760025D01*
X17103367Y-5866059D01*
X17186065Y-5990530D01*
X17243011Y-6128691D01*
X17271901Y-6274595D01*
X17271901Y-6274614D01*
X17272033Y-6275282D01*
X17269649Y-6445966D01*
X17269498Y-6446629D01*
X17269498Y-6446651D01*
X17236547Y-6591687D01*
X17175764Y-6728207D01*
X17089623Y-6850319D01*
X16981408Y-6953371D01*
X16855230Y-7033446D01*
X16715908Y-7087485D01*
X16568744Y-7113435D01*
X16419340Y-7110304D01*
X16273388Y-7078215D01*
X16136449Y-7018388D01*
X16013739Y-6933102D01*
X15909934Y-6825609D01*
X15828983Y-6699998D01*
X15773971Y-6561051D01*
X15746994Y-6414071D01*
X15749081Y-6264652D01*
X15780151Y-6118476D01*
X15839019Y-5981126D01*
X15923446Y-5857824D01*
X16030216Y-5753268D01*
X16155259Y-5671442D01*
X16293811Y-5615463D01*
X16440604Y-5587461D01*
X16590038Y-5588504D01*
X16590038Y-5588504D01*
G37*
G36*
X14050038Y-5588504D02*
X14196423Y-5618553D01*
X14334180Y-5676460D01*
X14458071Y-5760025D01*
X14563367Y-5866059D01*
X14646065Y-5990530D01*
X14703011Y-6128691D01*
X14731901Y-6274595D01*
X14731901Y-6274614D01*
X14732033Y-6275282D01*
X14729649Y-6445966D01*
X14729498Y-6446629D01*
X14729498Y-6446651D01*
X14696547Y-6591687D01*
X14635764Y-6728207D01*
X14549623Y-6850319D01*
X14441408Y-6953371D01*
X14315230Y-7033446D01*
X14175908Y-7087485D01*
X14028744Y-7113435D01*
X13879340Y-7110304D01*
X13733388Y-7078215D01*
X13596449Y-7018388D01*
X13473739Y-6933102D01*
X13369934Y-6825609D01*
X13288983Y-6699998D01*
X13233971Y-6561051D01*
X13206994Y-6414071D01*
X13209081Y-6264652D01*
X13240151Y-6118476D01*
X13299019Y-5981126D01*
X13383446Y-5857824D01*
X13490216Y-5753268D01*
X13615259Y-5671442D01*
X13753811Y-5615463D01*
X13900604Y-5587461D01*
X14050038Y-5588504D01*
X14050038Y-5588504D01*
G37*
G36*
X90625579Y-3484244D02*
X90625594Y-3484249D01*
X90625674Y-3484257D01*
X90742197Y-3520328D01*
X90849496Y-3578344D01*
X90943482Y-3656096D01*
X91020576Y-3750622D01*
X91077841Y-3858323D01*
X91113097Y-3975096D01*
X91125000Y-4096492D01*
X91125000Y-4303576D01*
X91124968Y-4308198D01*
X91124967Y-4308205D01*
X91124939Y-4312234D01*
X91111342Y-4433453D01*
X91074460Y-4549722D01*
X91015696Y-4656612D01*
X90937290Y-4750053D01*
X90842227Y-4826486D01*
X90734129Y-4882998D01*
X90617113Y-4917438D01*
X90617040Y-4917445D01*
X90617025Y-4917449D01*
X90495638Y-4928496D01*
X90374421Y-4915756D01*
X90374406Y-4915751D01*
X90374326Y-4915743D01*
X90257803Y-4879672D01*
X90150504Y-4821656D01*
X90056518Y-4743904D01*
X89979424Y-4649378D01*
X89922159Y-4541677D01*
X89886903Y-4424904D01*
X89875000Y-4303508D01*
X89875000Y-4096424D01*
X89875032Y-4091802D01*
X89875033Y-4091795D01*
X89875061Y-4087766D01*
X89888658Y-3966547D01*
X89925540Y-3850278D01*
X89984304Y-3743388D01*
X90062710Y-3649947D01*
X90157773Y-3573514D01*
X90265871Y-3517002D01*
X90382887Y-3482562D01*
X90382960Y-3482555D01*
X90382975Y-3482551D01*
X90504362Y-3471504D01*
X90625579Y-3484244D01*
X90625579Y-3484244D01*
G37*
G36*
X85625579Y-3484244D02*
X85625594Y-3484249D01*
X85625674Y-3484257D01*
X85742197Y-3520328D01*
X85849496Y-3578344D01*
X85943482Y-3656096D01*
X86020576Y-3750622D01*
X86077841Y-3858323D01*
X86113097Y-3975096D01*
X86125000Y-4096492D01*
X86125000Y-4303576D01*
X86124968Y-4308198D01*
X86124967Y-4308205D01*
X86124939Y-4312234D01*
X86111342Y-4433453D01*
X86074460Y-4549722D01*
X86015696Y-4656612D01*
X85937290Y-4750053D01*
X85842227Y-4826486D01*
X85734129Y-4882998D01*
X85617113Y-4917438D01*
X85617040Y-4917445D01*
X85617025Y-4917449D01*
X85495638Y-4928496D01*
X85374421Y-4915756D01*
X85374406Y-4915751D01*
X85374326Y-4915743D01*
X85257803Y-4879672D01*
X85150504Y-4821656D01*
X85056518Y-4743904D01*
X84979424Y-4649378D01*
X84922159Y-4541677D01*
X84886903Y-4424904D01*
X84875000Y-4303508D01*
X84875000Y-4096424D01*
X84875032Y-4091802D01*
X84875033Y-4091795D01*
X84875061Y-4087766D01*
X84888658Y-3966547D01*
X84925540Y-3850278D01*
X84984304Y-3743388D01*
X85062710Y-3649947D01*
X85157773Y-3573514D01*
X85265871Y-3517002D01*
X85382887Y-3482562D01*
X85382960Y-3482555D01*
X85382975Y-3482551D01*
X85504362Y-3471504D01*
X85625579Y-3484244D01*
X85625579Y-3484244D01*
G37*
G36*
X36910038Y-3048504D02*
X37056423Y-3078553D01*
X37194180Y-3136460D01*
X37318071Y-3220025D01*
X37423367Y-3326059D01*
X37506065Y-3450530D01*
X37563011Y-3588691D01*
X37591901Y-3734595D01*
X37591901Y-3734614D01*
X37592033Y-3735282D01*
X37589649Y-3905966D01*
X37589498Y-3906629D01*
X37589498Y-3906651D01*
X37556547Y-4051687D01*
X37495764Y-4188207D01*
X37409623Y-4310319D01*
X37301408Y-4413371D01*
X37175230Y-4493446D01*
X37035908Y-4547485D01*
X36888744Y-4573435D01*
X36739340Y-4570304D01*
X36593388Y-4538215D01*
X36456449Y-4478388D01*
X36333739Y-4393102D01*
X36229934Y-4285609D01*
X36148983Y-4159998D01*
X36093971Y-4021051D01*
X36066994Y-3874071D01*
X36069081Y-3724652D01*
X36100151Y-3578476D01*
X36159019Y-3441126D01*
X36243446Y-3317824D01*
X36350216Y-3213268D01*
X36475259Y-3131442D01*
X36613811Y-3075463D01*
X36760604Y-3047461D01*
X36910038Y-3048504D01*
X36910038Y-3048504D01*
G37*
G36*
X16590038Y-3048504D02*
X16736423Y-3078553D01*
X16874180Y-3136460D01*
X16998071Y-3220025D01*
X17103367Y-3326059D01*
X17186065Y-3450530D01*
X17243011Y-3588691D01*
X17271901Y-3734595D01*
X17271901Y-3734614D01*
X17272033Y-3735282D01*
X17269649Y-3905966D01*
X17269498Y-3906629D01*
X17269498Y-3906651D01*
X17236547Y-4051687D01*
X17175764Y-4188207D01*
X17089623Y-4310319D01*
X16981408Y-4413371D01*
X16855230Y-4493446D01*
X16715908Y-4547485D01*
X16568744Y-4573435D01*
X16419340Y-4570304D01*
X16273388Y-4538215D01*
X16136449Y-4478388D01*
X16013739Y-4393102D01*
X15909934Y-4285609D01*
X15828983Y-4159998D01*
X15773971Y-4021051D01*
X15746994Y-3874071D01*
X15749081Y-3724652D01*
X15780151Y-3578476D01*
X15839019Y-3441126D01*
X15923446Y-3317824D01*
X16030216Y-3213268D01*
X16155259Y-3131442D01*
X16293811Y-3075463D01*
X16440604Y-3047461D01*
X16590038Y-3048504D01*
X16590038Y-3048504D01*
G37*
G36*
X14050038Y-3048504D02*
X14196423Y-3078553D01*
X14334180Y-3136460D01*
X14458071Y-3220025D01*
X14563367Y-3326059D01*
X14646065Y-3450530D01*
X14703011Y-3588691D01*
X14731901Y-3734595D01*
X14731901Y-3734614D01*
X14732033Y-3735282D01*
X14729649Y-3905966D01*
X14729498Y-3906629D01*
X14729498Y-3906651D01*
X14696547Y-4051687D01*
X14635764Y-4188207D01*
X14549623Y-4310319D01*
X14441408Y-4413371D01*
X14315230Y-4493446D01*
X14175908Y-4547485D01*
X14028744Y-4573435D01*
X13879340Y-4570304D01*
X13733388Y-4538215D01*
X13596449Y-4478388D01*
X13473739Y-4393102D01*
X13369934Y-4285609D01*
X13288983Y-4159998D01*
X13233971Y-4021051D01*
X13206994Y-3874071D01*
X13209081Y-3724652D01*
X13240151Y-3578476D01*
X13299019Y-3441126D01*
X13383446Y-3317824D01*
X13490216Y-3213268D01*
X13615259Y-3131442D01*
X13753811Y-3075463D01*
X13900604Y-3047461D01*
X14050038Y-3048504D01*
X14050038Y-3048504D01*
G37*
G36*
X19130038Y-3048504D02*
X19276423Y-3078553D01*
X19414180Y-3136460D01*
X19538071Y-3220025D01*
X19643367Y-3326059D01*
X19726065Y-3450530D01*
X19783011Y-3588691D01*
X19811901Y-3734595D01*
X19811901Y-3734614D01*
X19812033Y-3735282D01*
X19809649Y-3905966D01*
X19809498Y-3906629D01*
X19809498Y-3906651D01*
X19776547Y-4051687D01*
X19715764Y-4188207D01*
X19629623Y-4310319D01*
X19521408Y-4413371D01*
X19395230Y-4493446D01*
X19255908Y-4547485D01*
X19108744Y-4573435D01*
X18959340Y-4570304D01*
X18813388Y-4538215D01*
X18676449Y-4478388D01*
X18553739Y-4393102D01*
X18449934Y-4285609D01*
X18368983Y-4159998D01*
X18313971Y-4021051D01*
X18286994Y-3874071D01*
X18289081Y-3724652D01*
X18320151Y-3578476D01*
X18379019Y-3441126D01*
X18463446Y-3317824D01*
X18570216Y-3213268D01*
X18695259Y-3131442D01*
X18833811Y-3075463D01*
X18980604Y-3047461D01*
X19130038Y-3048504D01*
X19130038Y-3048504D01*
G37*
G36*
X21670038Y-3048504D02*
X21816423Y-3078553D01*
X21954180Y-3136460D01*
X22078071Y-3220025D01*
X22183367Y-3326059D01*
X22266065Y-3450530D01*
X22323011Y-3588691D01*
X22351901Y-3734595D01*
X22351901Y-3734614D01*
X22352033Y-3735282D01*
X22349649Y-3905966D01*
X22349498Y-3906629D01*
X22349498Y-3906651D01*
X22316547Y-4051687D01*
X22255764Y-4188207D01*
X22169623Y-4310319D01*
X22061408Y-4413371D01*
X21935230Y-4493446D01*
X21795908Y-4547485D01*
X21648744Y-4573435D01*
X21499340Y-4570304D01*
X21353388Y-4538215D01*
X21216449Y-4478388D01*
X21093739Y-4393102D01*
X20989934Y-4285609D01*
X20908983Y-4159998D01*
X20853971Y-4021051D01*
X20826994Y-3874071D01*
X20829081Y-3724652D01*
X20860151Y-3578476D01*
X20919019Y-3441126D01*
X21003446Y-3317824D01*
X21110216Y-3213268D01*
X21235259Y-3131442D01*
X21373811Y-3075463D01*
X21520604Y-3047461D01*
X21670038Y-3048504D01*
X21670038Y-3048504D01*
G37*
G36*
X24210038Y-3048504D02*
X24356423Y-3078553D01*
X24494180Y-3136460D01*
X24618071Y-3220025D01*
X24723367Y-3326059D01*
X24806065Y-3450530D01*
X24863011Y-3588691D01*
X24891901Y-3734595D01*
X24891901Y-3734614D01*
X24892033Y-3735282D01*
X24889649Y-3905966D01*
X24889498Y-3906629D01*
X24889498Y-3906651D01*
X24856547Y-4051687D01*
X24795764Y-4188207D01*
X24709623Y-4310319D01*
X24601408Y-4413371D01*
X24475230Y-4493446D01*
X24335908Y-4547485D01*
X24188744Y-4573435D01*
X24039340Y-4570304D01*
X23893388Y-4538215D01*
X23756449Y-4478388D01*
X23633739Y-4393102D01*
X23529934Y-4285609D01*
X23448983Y-4159998D01*
X23393971Y-4021051D01*
X23366994Y-3874071D01*
X23369081Y-3724652D01*
X23400151Y-3578476D01*
X23459019Y-3441126D01*
X23543446Y-3317824D01*
X23650216Y-3213268D01*
X23775259Y-3131442D01*
X23913811Y-3075463D01*
X24060604Y-3047461D01*
X24210038Y-3048504D01*
X24210038Y-3048504D01*
G37*
G36*
X26750038Y-3048504D02*
X26896423Y-3078553D01*
X27034180Y-3136460D01*
X27158071Y-3220025D01*
X27263367Y-3326059D01*
X27346065Y-3450530D01*
X27403011Y-3588691D01*
X27431901Y-3734595D01*
X27431901Y-3734614D01*
X27432033Y-3735282D01*
X27429649Y-3905966D01*
X27429498Y-3906629D01*
X27429498Y-3906651D01*
X27396547Y-4051687D01*
X27335764Y-4188207D01*
X27249623Y-4310319D01*
X27141408Y-4413371D01*
X27015230Y-4493446D01*
X26875908Y-4547485D01*
X26728744Y-4573435D01*
X26579340Y-4570304D01*
X26433388Y-4538215D01*
X26296449Y-4478388D01*
X26173739Y-4393102D01*
X26069934Y-4285609D01*
X25988983Y-4159998D01*
X25933971Y-4021051D01*
X25906994Y-3874071D01*
X25909081Y-3724652D01*
X25940151Y-3578476D01*
X25999019Y-3441126D01*
X26083446Y-3317824D01*
X26190216Y-3213268D01*
X26315259Y-3131442D01*
X26453811Y-3075463D01*
X26600604Y-3047461D01*
X26750038Y-3048504D01*
X26750038Y-3048504D01*
G37*
G36*
X29290038Y-3048504D02*
X29436423Y-3078553D01*
X29574180Y-3136460D01*
X29698071Y-3220025D01*
X29803367Y-3326059D01*
X29886065Y-3450530D01*
X29943011Y-3588691D01*
X29971901Y-3734595D01*
X29971901Y-3734614D01*
X29972033Y-3735282D01*
X29969649Y-3905966D01*
X29969498Y-3906629D01*
X29969498Y-3906651D01*
X29936547Y-4051687D01*
X29875764Y-4188207D01*
X29789623Y-4310319D01*
X29681408Y-4413371D01*
X29555230Y-4493446D01*
X29415908Y-4547485D01*
X29268744Y-4573435D01*
X29119340Y-4570304D01*
X28973388Y-4538215D01*
X28836449Y-4478388D01*
X28713739Y-4393102D01*
X28609934Y-4285609D01*
X28528983Y-4159998D01*
X28473971Y-4021051D01*
X28446994Y-3874071D01*
X28449081Y-3724652D01*
X28480151Y-3578476D01*
X28539019Y-3441126D01*
X28623446Y-3317824D01*
X28730216Y-3213268D01*
X28855259Y-3131442D01*
X28993811Y-3075463D01*
X29140604Y-3047461D01*
X29290038Y-3048504D01*
X29290038Y-3048504D01*
G37*
G36*
X31830038Y-3048504D02*
X31976423Y-3078553D01*
X32114180Y-3136460D01*
X32238071Y-3220025D01*
X32343367Y-3326059D01*
X32426065Y-3450530D01*
X32483011Y-3588691D01*
X32511901Y-3734595D01*
X32511901Y-3734614D01*
X32512033Y-3735282D01*
X32509649Y-3905966D01*
X32509498Y-3906629D01*
X32509498Y-3906651D01*
X32476547Y-4051687D01*
X32415764Y-4188207D01*
X32329623Y-4310319D01*
X32221408Y-4413371D01*
X32095230Y-4493446D01*
X31955908Y-4547485D01*
X31808744Y-4573435D01*
X31659340Y-4570304D01*
X31513388Y-4538215D01*
X31376449Y-4478388D01*
X31253739Y-4393102D01*
X31149934Y-4285609D01*
X31068983Y-4159998D01*
X31013971Y-4021051D01*
X30986994Y-3874071D01*
X30989081Y-3724652D01*
X31020151Y-3578476D01*
X31079019Y-3441126D01*
X31163446Y-3317824D01*
X31270216Y-3213268D01*
X31395259Y-3131442D01*
X31533811Y-3075463D01*
X31680604Y-3047461D01*
X31830038Y-3048504D01*
X31830038Y-3048504D01*
G37*
G36*
X34370038Y-3048504D02*
X34516423Y-3078553D01*
X34654180Y-3136460D01*
X34778071Y-3220025D01*
X34883367Y-3326059D01*
X34966065Y-3450530D01*
X35023011Y-3588691D01*
X35051901Y-3734595D01*
X35051901Y-3734614D01*
X35052033Y-3735282D01*
X35049649Y-3905966D01*
X35049498Y-3906629D01*
X35049498Y-3906651D01*
X35016547Y-4051687D01*
X34955764Y-4188207D01*
X34869623Y-4310319D01*
X34761408Y-4413371D01*
X34635230Y-4493446D01*
X34495908Y-4547485D01*
X34348744Y-4573435D01*
X34199340Y-4570304D01*
X34053388Y-4538215D01*
X33916449Y-4478388D01*
X33793739Y-4393102D01*
X33689934Y-4285609D01*
X33608983Y-4159998D01*
X33553971Y-4021051D01*
X33526994Y-3874071D01*
X33529081Y-3724652D01*
X33560151Y-3578476D01*
X33619019Y-3441126D01*
X33703446Y-3317824D01*
X33810216Y-3213268D01*
X33935259Y-3131442D01*
X34073811Y-3075463D01*
X34220604Y-3047461D01*
X34370038Y-3048504D01*
X34370038Y-3048504D01*
G37*
G36*
X70883127Y-1867019D02*
X70883152Y-1867027D01*
X70883221Y-1867034D01*
X71025287Y-1911010D01*
X71156105Y-1981743D01*
X71270693Y-2076539D01*
X71364686Y-2191786D01*
X71434504Y-2323094D01*
X71477488Y-2465463D01*
X71492000Y-2613470D01*
X71492000Y-3386603D01*
X71491959Y-3392387D01*
X71491926Y-3397169D01*
X71475348Y-3544959D01*
X71430381Y-3686714D01*
X71358736Y-3817035D01*
X71263143Y-3930958D01*
X71147243Y-4024144D01*
X71015450Y-4093044D01*
X70872785Y-4135033D01*
X70872718Y-4135039D01*
X70872691Y-4135047D01*
X70724687Y-4148516D01*
X70576873Y-4132981D01*
X70576848Y-4132973D01*
X70576779Y-4132966D01*
X70434713Y-4088990D01*
X70303895Y-4018257D01*
X70189307Y-3923461D01*
X70095314Y-3808214D01*
X70025496Y-3676906D01*
X69982512Y-3534537D01*
X69968000Y-3386530D01*
X69968000Y-2613397D01*
X69968046Y-2606866D01*
X69968074Y-2602831D01*
X69984652Y-2455041D01*
X70029619Y-2313286D01*
X70101264Y-2182965D01*
X70196857Y-2069042D01*
X70312757Y-1975856D01*
X70444550Y-1906956D01*
X70587215Y-1864967D01*
X70587282Y-1864961D01*
X70587309Y-1864953D01*
X70735313Y-1851484D01*
X70883127Y-1867019D01*
X70883127Y-1867019D01*
G37*
G36*
X73423127Y-1867019D02*
X73423152Y-1867027D01*
X73423221Y-1867034D01*
X73565287Y-1911010D01*
X73696105Y-1981743D01*
X73810693Y-2076539D01*
X73904686Y-2191786D01*
X73974504Y-2323094D01*
X74017488Y-2465463D01*
X74032000Y-2613470D01*
X74032000Y-3386603D01*
X74031959Y-3392387D01*
X74031926Y-3397169D01*
X74015348Y-3544959D01*
X73970381Y-3686714D01*
X73898736Y-3817035D01*
X73803143Y-3930958D01*
X73687243Y-4024144D01*
X73555450Y-4093044D01*
X73412785Y-4135033D01*
X73412718Y-4135039D01*
X73412691Y-4135047D01*
X73264687Y-4148516D01*
X73116873Y-4132981D01*
X73116848Y-4132973D01*
X73116779Y-4132966D01*
X72974713Y-4088990D01*
X72843895Y-4018257D01*
X72729307Y-3923461D01*
X72635314Y-3808214D01*
X72565496Y-3676906D01*
X72522512Y-3534537D01*
X72508000Y-3386530D01*
X72508000Y-2613397D01*
X72508046Y-2606866D01*
X72508074Y-2602831D01*
X72524652Y-2455041D01*
X72569619Y-2313286D01*
X72641264Y-2182965D01*
X72736857Y-2069042D01*
X72852757Y-1975856D01*
X72984550Y-1906956D01*
X73127215Y-1864967D01*
X73127282Y-1864961D01*
X73127309Y-1864953D01*
X73275313Y-1851484D01*
X73423127Y-1867019D01*
X73423127Y-1867019D01*
G37*
G36*
X91511292Y-625049D02*
X91516451Y-625085D01*
X91686157Y-644121D01*
X91848933Y-695757D01*
X91998580Y-778026D01*
X92129398Y-887795D01*
X92236403Y-1020882D01*
X92315520Y-1172219D01*
X92363735Y-1336041D01*
X92363741Y-1336111D01*
X92363747Y-1336130D01*
X92379216Y-1506107D01*
X92361376Y-1675848D01*
X92361370Y-1675868D01*
X92361362Y-1675943D01*
X92310864Y-1839076D01*
X92229642Y-1989294D01*
X92120789Y-2120874D01*
X91988452Y-2228806D01*
X91837671Y-2308978D01*
X91674189Y-2358336D01*
X91504234Y-2375000D01*
X91495694Y-2375000D01*
X91488708Y-2374951D01*
X91483549Y-2374915D01*
X91313843Y-2355879D01*
X91151067Y-2304243D01*
X91001420Y-2221974D01*
X90870602Y-2112205D01*
X90763597Y-1979118D01*
X90684480Y-1827781D01*
X90636265Y-1663959D01*
X90636259Y-1663889D01*
X90636253Y-1663870D01*
X90620784Y-1493893D01*
X90638624Y-1324152D01*
X90638630Y-1324132D01*
X90638638Y-1324057D01*
X90689136Y-1160924D01*
X90770358Y-1010706D01*
X90879211Y-879126D01*
X91011548Y-771194D01*
X91162329Y-691022D01*
X91325811Y-641664D01*
X91495766Y-625000D01*
X91504306Y-625000D01*
X91511292Y-625049D01*
X91511292Y-625049D01*
G37*
G36*
X84511292Y-625049D02*
X84516451Y-625085D01*
X84686157Y-644121D01*
X84848933Y-695757D01*
X84998580Y-778026D01*
X85129398Y-887795D01*
X85236403Y-1020882D01*
X85315520Y-1172219D01*
X85363735Y-1336041D01*
X85363741Y-1336111D01*
X85363747Y-1336130D01*
X85379216Y-1506107D01*
X85361376Y-1675848D01*
X85361370Y-1675868D01*
X85361362Y-1675943D01*
X85310864Y-1839076D01*
X85229642Y-1989294D01*
X85120789Y-2120874D01*
X84988452Y-2228806D01*
X84837671Y-2308978D01*
X84674189Y-2358336D01*
X84504234Y-2375000D01*
X84495694Y-2375000D01*
X84488708Y-2374951D01*
X84483549Y-2374915D01*
X84313843Y-2355879D01*
X84151067Y-2304243D01*
X84001420Y-2221974D01*
X83870602Y-2112205D01*
X83763597Y-1979118D01*
X83684480Y-1827781D01*
X83636265Y-1663959D01*
X83636259Y-1663889D01*
X83636253Y-1663870D01*
X83620784Y-1493893D01*
X83638624Y-1324152D01*
X83638630Y-1324132D01*
X83638638Y-1324057D01*
X83689136Y-1160924D01*
X83770358Y-1010706D01*
X83879211Y-879126D01*
X84011548Y-771194D01*
X84162329Y-691022D01*
X84325811Y-641664D01*
X84495766Y-625000D01*
X84504306Y-625000D01*
X84511292Y-625049D01*
X84511292Y-625049D01*
G37*
M02*
